<?xml version="1.0" encoding="utf-8"?>
<!-- Generator: Adobe Illustrator 15.0.0, SVG Export Plug-In . SVG Version: 6.00 Build 0)  -->
<!DOCTYPE svg PUBLIC "-//W3C//DTD SVG 1.1//EN" "http://www.w3.org/Graphics/SVG/1.1/DTD/svg11.dtd">
<svg version="1.1" id="Layer_1" xmlns="http://www.w3.org/2000/svg" xmlns:xlink="http://www.w3.org/1999/xlink" x="0px" y="0px"
	 width="144px" height="144px" viewBox="0 0 144 144" enable-background="new 0 0 144 144" xml:space="preserve">
<g>
	<path fill-rule="evenodd" clip-rule="evenodd" fill="#B6BBD4" d="M144,121c0,12.65-10.35,23-23,23H23c-12.65,0-23-10.35-23-23V23
		C0,10.35,10.35,0,23,0h98c12.65,0,23,10.35,23,23V121z"/>
</g>
<g>
	<path fill="#135870" d="M93.941,105.982h-43.89c-7.984,0-13.408-4.871-13.408-13.006c0-11.35,2.662-28.774,17.375-28.774
		c1.557,0,8.135,6.98,17.978,6.98s16.421-6.98,17.978-6.98c14.713,0,17.375,17.425,17.375,28.774
		C107.35,101.111,101.926,105.982,93.941,105.982z M71.997,67.416c-10.646,0-19.283-8.637-19.283-19.283S61.351,28.85,71.997,28.85
		s19.283,8.637,19.283,19.283S82.643,67.416,71.997,67.416z"/>
</g>
</svg>
