<?xml version="1.0" encoding="utf-8"?>
<!-- Generator: Adobe Illustrator 15.0.0, SVG Export Plug-In . SVG Version: 6.00 Build 0)  -->
<!DOCTYPE svg PUBLIC "-//W3C//DTD SVG 1.1//EN" "http://www.w3.org/Graphics/SVG/1.1/DTD/svg11.dtd">
<svg version="1.1" id="Layer_1" xmlns="http://www.w3.org/2000/svg" xmlns:xlink="http://www.w3.org/1999/xlink" x="0px" y="0px"
	 width="227px" height="158px" viewBox="0 0 227 158" enable-background="new 0 0 227 158" xml:space="preserve">
<g>
	<path fill-rule="evenodd" clip-rule="evenodd" fill="#707070" d="M220.913,7.132c4.248,20.7,2.368,45.671,2.368,70.74
		c0,24.601,0.91,50.232-1.186,72.099c-15.35,7.034-34.085,4.082-52.154,4.082c-35.269,0-72.367,0-109.051,0
		c-17.957,0-36.235,2.156-52.153-2.72c-5.773-13.177-3.556-41.066-3.556-73.461c0-16.571-4.974-66.135,4.741-72.101
		c8.823-5.418,40.796-2.721,58.082-2.721c34.403,0,69.834,0,104.309,0C189.204,3.051,206.338,0.009,220.913,7.132z M9.922,11.213
		c-2.143,20.539-1.185,45.225-1.185,69.38c0,24.38-1.897,48.73,2.37,68.018c49.901,2.791,104.342,1.36,156.464,1.36
		c17.911,0,35.359,1.353,50.97-1.36c3.69-19.824,1.186-42.553,1.186-68.018c0-25.368,2.46-51.066-1.186-70.74
		c-15.102-4.944-32.05-2.721-48.6-2.721c-52.467,0-105.347,0-156.462,0C11.771,7.895,10.586,9.254,9.922,11.213z"/>
	<path fill-rule="evenodd" clip-rule="evenodd" fill="#707070" d="M100.006,13.934c8.9,8.833,11.902,24.434,10.67,44.894
		c-5.368-1.257-7.92-1.189-14.226,0c-0.691-10.542,2.778-25.862-7.109-25.848c-7.9,7.744-4.742,29.022-4.742,46.253
		c0,8.385-0.27,17.927,0,25.848c0.246,7.342-1.737,17.35,4.742,19.045c11.537,1.453,5.644-17.099,7.109-27.208
		c3.758-1.889,10.468-1.889,14.226,0c9.541,35.874-21.861,66.816-36.745,38.091c-0.146-0.28-2.972-9.219-3.557-13.604
		c-2.945-22.071-2.746-88.728,4.741-100.669C80.473,12.19,92.618,10.752,100.006,13.934z"/>
	<path fill-rule="evenodd" clip-rule="evenodd" fill="#707070" d="M31.259,15.295c7.112,0,14.223,0,21.335,0
		c4.907,42.89,11.79,83.508,16.595,126.515c-5.53,0-11.063,0-16.595,0c0.032-10.467-1.986-18.581-2.371-28.568
		c-5.137,0-10.272,0-15.408,0c-2.901,7.553-2.237,19.199-3.556,28.568c-5.532,0-11.064,0-16.595,0
		C19.905,99.305,26.458,58.307,31.259,15.295z M37.184,94.197c3.162,0,6.323,0,9.483,0c-0.193-11.707-1.052-34.059-5.926-44.893
		C41.199,65.361,35.877,81.661,37.184,94.197z"/>
	<path fill-rule="evenodd" clip-rule="evenodd" fill="#707070" d="M114.23,15.295c6.719,0,13.435,0,20.151,0
		c2.286,22.314,5.845,43.172,8.297,65.298c3.471-9.178,4.483-20.392,5.928-31.289c1.475-11.131,2.854-22.593,3.555-34.009
		c6.718,0,13.437,0,20.151,0c0,42.625,0,85.25,0,127.875c-4.347,0-8.692,0-13.038,0c0-26.753,0-53.508,0-80.262
		c-3.279,3.018-3.754,12.757-4.741,20.406c-1.743,13.506-2.652,28.721-4.741,43.533c-0.757,5.36,0.073,16.741-7.113,16.324
		c-4.904-0.444-5.327-12.996-5.926-17.684c-2.526-19.745-4.437-43.408-7.111-63.938c-2.766,24.49-0.396,54.867-1.187,81.622
		c-4.698-0.502-11.358,1.248-14.225-1.359C114.331,109.058,114.326,48.535,114.23,15.295z"/>
	<path fill-rule="evenodd" clip-rule="evenodd" fill="#707070" d="M175.869,15.295c12.248,0,24.496,0,36.745,0
		c0,6.802,0,13.604,0,20.405c-7.112,0-14.225,0-21.337,0c-2.749,7.272-0.405,20.394-1.186,29.928
		c3.587,3.141,12.227,0.479,17.78,1.361c-0.543,6.63,1.241,15.935-1.185,20.406c-5.531,0-11.063,0-16.596,0c0,11.79,0,23.58,0,35.37
		c9.053,1.418,14.587,1.054,23.708,0c0,6.802,0,13.604,0,20.405c-14.238,1.186-30.012,2.046-37.931,0
		C175.869,100.545,175.869,57.92,175.869,15.295z"/>
</g>
</svg>
