<?xml version="1.0" encoding="utf-8"?>
<!-- Generator: Adobe Illustrator 15.0.0, SVG Export Plug-In . SVG Version: 6.00 Build 0)  -->
<!DOCTYPE svg PUBLIC "-//W3C//DTD SVG 1.1//EN" "http://www.w3.org/Graphics/SVG/1.1/DTD/svg11.dtd">
<svg version="1.1" id="Layer_1" xmlns="http://www.w3.org/2000/svg" xmlns:xlink="http://www.w3.org/1999/xlink" x="0px" y="0px"
	 width="43.7px" height="34.2px" viewBox="0 0 43.7 34.2" style="enable-background:new 0 0 43.7 34.2;" xml:space="preserve">
<style type="text/css">
<![CDATA[
	.st0{fill-rule:evenodd;clip-rule:evenodd;fill:#135870;}
]]>
</style>
<g>
	<g>
		<path class="st0" d="M24.4,11.3c-0.7,0.4-1.3,0.7-2,1.2c-0.3,0.2-0.6,0.4-0.9,0.7c-0.3,0.2-0.7,0.7-0.9,0.7
			c-0.4,0.1-1-0.2-1.4-0.4c-2.7-1.3-4.5-5-5.5-8.2c-0.6-1.8-1.3-3.5-3.2-4.1c2.5,0,4.7,0.4,6.7,0.8C20,2.8,23,4,24.1,6.6
			c0.4,1,0.4,2.3,1.1,3.4c0.2,0.4,0.7,0.6,0.8,1c-3.6,0.4-4-3-5.5-4.9c-0.9-1.1-2.3-2-3.9-2.5c0,0-0.1-0.1-0.1-0.1
			c1.3,0.9,2.3,1.6,3.2,2.8C21,8.2,21.4,11.1,24.4,11.3z"/>
		<path class="st0" d="M13.2,5.8c0.4,1.1,0.8,2.1,1.2,3.1C12.7,8,10.3,7.5,7.8,7.7C8.4,8,9,8,9.6,8.1c1.8,0.4,3.3,1.1,4.6,2.1
			c0.8,0.6,1.6,1.4,2.4,2.1c1,0.9,1.8,1.8,3.3,2.1c0,0.3-0.3,0.6-0.6,0.9c-0.7,0.9-1.3,2.1-1.6,3.4c-3.7,0-6-1.9-8-3.6
			c-1-0.8-1.8-1.8-2.5-2.7c-1.7-2-3-4.6-6.4-4.8C4.5,6.5,8.5,5.6,13.2,5.8z"/>
		<path class="st0" d="M43,11.2c-2.1,0.8-4.5,1.3-4.8,3.9c-1.8-2.2-4.1-3.9-7.5-4.5c2.1-0.9,2.9-3.7,5.5-3.4
			c0.6,0.1,1.2,0.2,1.6,0.6c0.8,0.6,0.9,1.7,1.7,2.5C40.3,11,41.9,10.9,43,11.2z M37.5,9.5c0-0.3-0.3-0.5-0.8-0.4
			C35.4,9.6,37.8,11,37.5,9.5z"/>
		<path class="st0" d="M32.5,15.8c-5.4-2.6-11.4,0.9-10.9,7.1c0.3,3.5,3.5,6.7,7.7,6.5c2.7-0.2,4.8-1.7,5.8-3.6
			c1.3-2.3,1.1-5.2-0.1-7.5c-1.9-3.8-6.7-7-12.7-5.1c0.2-0.4,0.7-0.6,1-0.8c1.3-0.7,2.8-1.3,4.6-1.4c3.9-0.3,6.5,1.3,8.4,3.1
			c1.9,1.8,3.4,4.4,3.5,8c0,4.2-1.8,6.8-4.1,8.6c-2.2,1.8-5.9,3.2-9.9,2.1c-3.1-0.9-5.6-3-7-5.8c-1.5-2.9-1.5-7.4,0.2-10.2
			c1.1-1.9,3.3-3.5,6.5-3.5C28.6,13.3,30.9,14.3,32.5,15.8z"/>
		<path class="st0" d="M32.2,19.6c-0.1,0.1-0.2-0.2-0.4-0.4c-0.4-0.4-1.1-0.8-1.9-0.8c-2.4,0-3.4,2.7-2.1,4.4c0.5,0.7,1.2,0.9,2,1.3
			c-4.2,1.9-7.8-3.6-4.8-6.7C27.2,15.3,31.7,16.3,32.2,19.6z"/>
		<path class="st0" d="M24.1,17.5c-2.1,3.2-0.3,7.8,3.8,7.8c1,0,1.7-0.2,2.4-0.6c0.2-0.1,0.4-0.3,0.6-0.4c0.3,0,0.7,0.1,1.1,0.2
			c1.1,0.1,2.3,0,3.3-0.2c-1.1,2.7-3.2,4.7-7,4.5c-3.2-0.2-5.8-3-6-6C22.1,20.4,22.9,18.8,24.1,17.5z"/>
	</g>
</g>
</svg>
