<?xml version="1.0" encoding="utf-8"?>
<!-- Generator: Adobe Illustrator 15.0.0, SVG Export Plug-In . SVG Version: 6.00 Build 0)  -->
<!DOCTYPE svg PUBLIC "-//W3C//DTD SVG 1.1//EN" "http://www.w3.org/Graphics/SVG/1.1/DTD/svg11.dtd">
<svg version="1.1"
	 id="svg2558" xmlns:rdf="http://www.w3.org/1999/02/22-rdf-syntax-ns#" xmlns:dc="http://purl.org/dc/elements/1.1/" xmlns:cc="http://creativecommons.org/ns#" xmlns:svg="http://www.w3.org/2000/svg"
	 xmlns="http://www.w3.org/2000/svg" xmlns:xlink="http://www.w3.org/1999/xlink" x="0px" y="0px" width="800px" height="607.6px"
	 viewBox="0 0 800 607.6" style="enable-background:new 0 0 800 607.6;" xml:space="preserve">
<style type="text/css">
<![CDATA[
	.st0{fill:#135870;}
	.st1{fill:none;stroke:#135870;stroke-width:3;}
	.st2{fill:none;stroke:#135870;stroke-width:4;}
	.st3{fill:#135870;stroke:#FFFFFF;stroke-width:2;stroke-miterlimit:10;}
	.st4{fill:#F0F0F0;}
	.st5{fill:#FFFFFF;}
	.st6{fill:none;stroke:#135870;stroke-width:5;stroke-miterlimit:10;}
]]>
</style>
<path id="rect2160" class="st0" d="M1,0h800v607.6H1V0L1,0z"/>
<path id="rect4306" class="st4" d="M43.8,32.3h715.4c4,0,7.2,3.2,7.2,7.1v529.2c0,3.9-3.2,7.1-7.2,7.1H43.8c-4,0-7.2-3.2-7.2-7.1
	V39.4C36.5,35.4,39.7,32.3,43.8,32.3z"/>
<path id="rect4373" class="st5" d="M572.5,468.4h72.8c3.6,0,6.4,2.9,6.4,6.4V526c0,3.6-2.9,6.4-6.4,6.4h-72.8
	c-3.6,0-6.4-2.9-6.4-6.4v-51.2C566.1,471.3,569,468.4,572.5,468.4z"/>
<path id="rect4385" class="st5" d="M572.5,391.4h72.8c3.6,0,6.4,2.9,6.4,6.4V449c0,3.6-2.9,6.4-6.4,6.4h-72.8
	c-3.6,0-6.4-2.9-6.4-6.4v-51.2C566.1,394.3,569,391.4,572.5,391.4z"/>
<path id="rect4397" class="st5" d="M572.5,314.6h72.8c3.6,0,6.4,2.9,6.4,6.4v51.2c0,3.6-2.9,6.4-6.4,6.4h-72.8
	c-3.6,0-6.4-2.9-6.4-6.4V321C566.1,317.5,569,314.6,572.5,314.6z"/>
<path id="rect4409" class="st5" d="M572.5,237.6h72.8c3.6,0,6.4,2.9,6.4,6.4v51.2c0,3.6-2.9,6.4-6.4,6.4h-72.8
	c-3.6,0-6.4-2.9-6.4-6.4V244C566.1,240.5,569,237.6,572.5,237.6z"/>
<path id="rect4421" class="st5" d="M572.5,160.7h72.8c3.6,0,6.4,2.9,6.4,6.4v51.2c0,3.6-2.9,6.4-6.4,6.4h-72.8
	c-3.6,0-6.4-2.9-6.4-6.4v-51.2C566.1,163.6,569,160.7,572.5,160.7z"/>
<path id="text4529" class="st0" d="M597.1,291.3v-5.2c1.4,0.7,2.9,1.2,4.3,1.5c1.4,0.3,2.9,0.5,4.3,0.5c3.7,0,6.6-1.2,8.7-3.8
	c2-2.6,3.1-6.4,3.4-11.5c-1.1,1.6-2.5,2.9-4.1,3.7c-1.6,0.8-3.5,1.3-5.6,1.3c-4.2,0-7.5-1.2-10-3.8c-2.5-2.6-3.7-6.1-3.7-10.4
	s1.2-7.8,3.8-10.4c2.6-2.6,6-3.9,10.2-3.9c4.8,0,8.6,1.9,11.1,5.6c2.6,3.7,3.8,9.2,3.8,16.3c0,6.6-1.5,12-4.7,15.9
	c-3.2,3.9-7.4,6-12.7,6c-1.4,0-2.9-0.1-4.3-0.4S598.6,291.9,597.1,291.3L597.1,291.3z M608.4,273.5c2.6,0,4.5-0.8,6.1-2.6
	c1.4-1.8,2.3-4.1,2.3-7.2c0-3-0.7-5.5-2.3-7.2c-1.4-1.8-3.5-2.7-6.1-2.7c-2.6,0-4.5,0.8-6.1,2.7c-1.5,1.8-2.3,4.1-2.3,7.2
	c0,3.1,0.7,5.5,2.3,7.2C603.9,272.6,605.8,273.5,608.4,273.5z"/>
<path id="rect4375" class="st5" d="M470.6,468.4h72.8c3.6,0,6.4,2.9,6.4,6.4V526c0,3.6-2.9,6.4-6.4,6.4h-72.8
	c-3.6,0-6.4-2.9-6.4-6.4v-51.2C464.2,471.3,467,468.4,470.6,468.4z"/>
<path id="rect4387" class="st5" d="M470.6,391.4h72.8c3.6,0,6.4,2.9,6.4,6.4V449c0,3.6-2.9,6.4-6.4,6.4h-72.8
	c-3.6,0-6.4-2.9-6.4-6.4v-51.2C464.2,394.3,467,391.4,470.6,391.4z"/>
<path id="rect4399" class="st5" d="M470.6,314.6h72.8c3.6,0,6.4,2.9,6.4,6.4v51.2c0,3.6-2.9,6.4-6.4,6.4h-72.8
	c-3.6,0-6.4-2.9-6.4-6.4V321C464.2,317.5,467,314.6,470.6,314.6z"/>
<path id="rect4411" class="st5" d="M470.6,237.6h72.8c3.6,0,6.4,2.9,6.4,6.4v51.2c0,3.6-2.9,6.4-6.4,6.4h-72.8
	c-3.6,0-6.4-2.9-6.4-6.4V244C464.2,240.5,467,237.6,470.6,237.6z"/>
<path id="rect4423" class="st5" d="M470.6,160.7h72.8c3.6,0,6.4,2.9,6.4,6.4v51.2c0,3.6-2.9,6.4-6.4,6.4h-72.8
	c-3.6,0-6.4-2.9-6.4-6.4v-51.2C464.2,163.6,467,160.7,470.6,160.7z"/>
<path id="text4533" class="st0" d="M507,272.2c-2.7,0-4.8,0.7-6.4,2.2s-2.4,3.4-2.4,6c0,2.6,0.8,4.5,2.4,6c1.5,1.4,3.7,2.2,6.4,2.2
	c2.7,0,4.8-0.7,6.4-2.2c1.5-1.4,2.4-3.5,2.4-6c0-2.6-0.8-4.5-2.4-6C511.9,273,509.8,272.2,507,272.2z M501.4,269.8
	c-2.5-0.6-4.3-1.8-5.7-3.4c-1.3-1.6-2.1-3.7-2.1-6.1c0-3.4,1.2-6.1,3.6-7.9c2.4-2,5.7-3,9.9-3s7.5,0.9,9.9,3c2.4,2,3.6,4.6,3.6,7.9
	c0,2.4-0.7,4.4-2.1,6.1c-1.3,1.6-3.3,2.8-5.7,3.4c2.8,0.6,4.8,1.9,6.4,3.7c1.5,1.9,2.3,4.1,2.3,6.8c0,4.1-1.2,7.2-3.7,9.4
	c-2.5,2.2-6.1,3.3-10.7,3.3s-8.2-1.1-10.7-3.3c-2.5-2.2-3.7-5.3-3.7-9.4c0-2.7,0.7-4.9,2.4-6.8C496.4,271.6,498.6,270.4,501.4,269.8
	z M499.2,260.8c0,2.2,0.7,3.9,2.1,5.2c1.3,1.2,3.3,1.9,5.8,1.9c2.5,0,4.3-0.6,5.8-1.9c1.3-1.2,2.1-2.9,2.1-5.2c0-2.2-0.7-3.9-2.1-5
	c-1.3-1.2-3.3-1.9-5.8-1.9c-2.5,0-4.3,0.6-5.8,1.9C499.9,256.9,499.2,258.6,499.2,260.8z"/>
<path id="rect4377" class="st5" d="M368.7,468.4h72.8c3.6,0,6.4,2.9,6.4,6.4V526c0,3.6-2.9,6.4-6.4,6.4h-72.8
	c-3.6,0-6.4-2.9-6.4-6.4v-51.2C362.3,471.3,365.1,468.4,368.7,468.4z"/>
<path id="rect4389" class="st5" d="M368.7,391.4h72.8c3.6,0,6.4,2.9,6.4,6.4V449c0,3.6-2.9,6.4-6.4,6.4h-72.8
	c-3.6,0-6.4-2.9-6.4-6.4v-51.2C362.3,394.3,365.1,391.4,368.7,391.4z"/>
<path id="rect4401" class="st5" d="M368.7,314.6h72.8c3.6,0,6.4,2.9,6.4,6.4v51.2c0,3.6-2.9,6.4-6.4,6.4h-72.8
	c-3.6,0-6.4-2.9-6.4-6.4V321C362.3,317.5,365.1,314.6,368.7,314.6z"/>
<path id="rect4413" class="st5" d="M368.7,237.6h72.8c3.6,0,6.4,2.9,6.4,6.4v51.2c0,3.6-2.9,6.4-6.4,6.4h-72.8
	c-3.6,0-6.4-2.9-6.4-6.4V244C362.3,240.5,365.1,237.6,368.7,237.6z"/>
<path id="rect4425" class="st5" d="M368.7,160.7h72.8c3.6,0,6.4,2.9,6.4,6.4v51.2c0,3.6-2.9,6.4-6.4,6.4h-72.8
	c-3.6,0-6.4-2.9-6.4-6.4v-51.2C362.3,163.6,365.1,160.7,368.7,160.7z"/>
<path id="text4537" class="st0" d="M391.6,250.1h27.1v2.5l-15.2,39.7h-6l14.4-37.3h-20.2v-4.8H391.6z"/>
<path id="rect4379" class="st5" d="M266.8,468.4h72.8c3.6,0,6.4,2.9,6.4,6.4V526c0,3.6-2.9,6.4-6.4,6.4h-72.8
	c-3.6,0-6.4-2.9-6.4-6.4v-51.2C260.5,471.3,263.3,468.4,266.8,468.4z"/>
<path id="rect4391" class="st5" d="M266.8,391.4h72.8c3.6,0,6.4,2.9,6.4,6.4V449c0,3.6-2.9,6.4-6.4,6.4h-72.8
	c-3.6,0-6.4-2.9-6.4-6.4v-51.2C260.5,394.3,263.3,391.4,266.8,391.4z"/>
<path id="rect4403" class="st5" d="M266.8,314.6h72.8c3.6,0,6.4,2.9,6.4,6.4v51.2c0,3.6-2.9,6.4-6.4,6.4h-72.8
	c-3.6,0-6.4-2.9-6.4-6.4V321C260.5,317.5,263.3,314.6,266.8,314.6z"/>
<path id="rect4415" class="st5" d="M266.8,237.6h72.8c3.6,0,6.4,2.9,6.4,6.4v51.2c0,3.6-2.9,6.4-6.4,6.4h-72.8
	c-3.6,0-6.4-2.9-6.4-6.4V244C260.5,240.5,263.3,237.6,266.8,237.6z"/>
<path id="rect4427" class="st5" d="M266.8,160.7h72.8c3.6,0,6.4,2.9,6.4,6.4v51.2c0,3.6-2.9,6.4-6.4,6.4h-72.8
	c-3.6,0-6.4-2.9-6.4-6.4v-51.2C260.5,163.6,263.3,160.7,266.8,160.7z"/>
<path id="text4541" class="st0" d="M303.8,268.8c-2.6,0-4.5,0.8-6.1,2.7c-1.4,1.8-2.3,4.1-2.3,7.2c0,3,0.7,5.5,2.3,7.2
	c1.4,1.8,3.5,2.7,6.1,2.7c2.6,0,4.6-0.8,6.1-2.7c1.4-1.8,2.3-4.1,2.3-7.2s-0.7-5.5-2.3-7.2C308.4,269.8,306.3,268.8,303.8,268.8z
	 M315.2,251v5.2c-1.4-0.7-2.9-1.2-4.3-1.5c-1.4-0.3-2.9-0.5-4.3-0.5c-3.8,0-6.6,1.2-8.7,3.8c-2,2.6-3.1,6.4-3.4,11.5
	c1.1-1.6,2.5-2.9,4.1-3.8c1.6-0.8,3.5-1.3,5.6-1.3c4.2,0,7.6,1.2,10,3.8c2.5,2.6,3.7,6.1,3.7,10.5c0,4.3-1.2,7.8-3.8,10.4
	c-2.6,2.6-6,3.9-10.2,3.9c-4.8,0-8.6-1.9-11.1-5.6c-2.6-3.7-3.9-9.2-3.9-16.2c0-6.7,1.5-12,4.7-16c3.2-4,7.4-6,12.7-6
	c1.4,0,2.9,0.1,4.3,0.4C312,250.1,313.5,250.5,315.2,251L315.2,251z"/>
<path id="rect4381" class="st5" d="M165,468.4h72.8c3.6,0,6.4,2.9,6.4,6.4V526c0,3.6-2.9,6.4-6.4,6.4H165c-3.5,0-6.4-2.9-6.4-6.4
	v-51.2C158.5,471.3,161.4,468.4,165,468.4z"/>
<path id="rect4393" class="st5" d="M165,391.4h72.8c3.6,0,6.4,2.9,6.4,6.4V449c0,3.6-2.9,6.4-6.4,6.4H165c-3.5,0-6.4-2.9-6.4-6.4
	v-51.2C158.5,394.3,161.4,391.4,165,391.4z"/>
<path id="rect4405" class="st5" d="M165,314.6h72.8c3.6,0,6.4,2.9,6.4,6.4v51.2c0,3.6-2.9,6.4-6.4,6.4H165c-3.5,0-6.4-2.9-6.4-6.4
	V321C158.5,317.5,161.4,314.6,165,314.6z"/>
<path id="rect4417" class="st5" d="M165,237.6h72.8c3.6,0,6.4,2.9,6.4,6.4v51.2c0,3.6-2.9,6.4-6.4,6.4H165c-3.5,0-6.4-2.9-6.4-6.4
	V244C158.5,240.5,161.4,237.6,165,237.6z"/>
<path id="rect4429" class="st5" d="M165,160.7h72.8c3.6,0,6.4,2.9,6.4,6.4v51.2c0,3.6-2.9,6.4-6.4,6.4H165c-3.5,0-6.4-2.9-6.4-6.4
	v-51.2C158.5,163.6,161.4,160.7,165,160.7z"/>
<path id="text4545" class="st0" d="M189.6,250.1h22.4v4.7h-17.2v10.3c0.8-0.3,1.6-0.5,2.5-0.6c0.8-0.1,1.6-0.2,2.5-0.2
	c4.7,0,8.4,1.2,11.1,3.8c2.7,2.6,4.1,6.1,4.1,10.5c0,4.5-1.4,8-4.2,10.6c-2.8,2.5-6.8,3.8-12,3.8c-1.8,0-3.6-0.1-5.4-0.4
	c-1.9-0.3-3.7-0.7-5.7-1.3v-5.8c1.6,0.9,3.4,1.6,5.3,2.1c1.8,0.4,3.7,0.6,5.8,0.6c3.3,0,5.9-0.8,7.7-2.6c1.9-1.8,2.9-4,2.9-7
	c0-2.9-0.9-5.3-2.9-7c-1.9-1.8-4.4-2.6-7.7-2.6c-1.5,0-3,0.2-4.5,0.5c-1.5,0.3-3.1,0.8-4.6,1.5V250.1L189.6,250.1z"/>
<path id="rect4383" class="st5" d="M63.1,468.4H136c3.5,0,6.4,2.9,6.4,6.4V526c0,3.6-2.9,6.4-6.4,6.4H63.1c-3.5,0-6.4-2.9-6.4-6.4
	v-51.2C56.7,471.3,59.6,468.4,63.1,468.4z"/>
<path id="rect4395" class="st5" d="M63.1,391.4H136c3.5,0,6.4,2.9,6.4,6.4V449c0,3.6-2.9,6.4-6.4,6.4H63.1c-3.5,0-6.4-2.9-6.4-6.4
	v-51.2C56.7,394.3,59.6,391.4,63.1,391.4z"/>
<path id="rect4407" class="st5" d="M63.1,314.6H136c3.5,0,6.4,2.9,6.4,6.4v51.2c0,3.6-2.9,6.4-6.4,6.4H63.1c-3.5,0-6.4-2.9-6.4-6.4
	V321C56.7,317.5,59.6,314.6,63.1,314.6z"/>
<path id="rect4419" class="st5" d="M63.1,237.6H136c3.5,0,6.4,2.9,6.4,6.4v51.2c0,3.6-2.9,6.4-6.4,6.4H63.1c-3.5,0-6.4-2.9-6.4-6.4
	V244C56.7,240.5,59.6,237.6,63.1,237.6z"/>
<path id="rect4431" class="st5" d="M63.1,160.7H136c3.5,0,6.4,2.9,6.4,6.4v51.2c0,3.6-2.9,6.4-6.4,6.4H63.1c-3.5,0-6.4-2.9-6.4-6.4
	v-51.2C56.7,163.6,59.6,160.7,63.1,160.7z"/>
<path id="text4549" class="st0" d="M103.2,255l-14.4,22.5h14.4V255z M101.8,250.1h7.2v27.4h6v4.7h-6v9.9h-5.8v-9.9h-19v-5.5
	L101.8,250.1L101.8,250.1z"/>
<path id="rect4373_1_" class="st5" d="M668.9,467.8h72.8c3.6,0,6.4,2.9,6.4,6.4v51.2c0,3.6-2.9,6.4-6.4,6.4h-72.8
	c-3.6,0-6.4-2.9-6.4-6.4v-51.2C662.4,470.7,665.3,467.8,668.9,467.8z"/>
<path id="rect4385_1_" class="st5" d="M668.9,390.8h72.8c3.6,0,6.4,2.9,6.4,6.4v51.2c0,3.6-2.9,6.4-6.4,6.4h-72.8
	c-3.6,0-6.4-2.9-6.4-6.4v-51.2C662.4,393.7,665.3,390.8,668.9,390.8z"/>
<path id="rect4397_1_" class="st5" d="M668.9,314h72.8c3.6,0,6.4,2.9,6.4,6.4v51.2c0,3.6-2.9,6.4-6.4,6.4h-72.8
	c-3.6,0-6.4-2.9-6.4-6.4v-51.2C662.4,316.8,665.3,314,668.9,314z"/>
<path id="rect4409_1_" class="st5" d="M668.9,237h72.8c3.6,0,6.4,2.9,6.4,6.4v51.2c0,3.6-2.9,6.4-6.4,6.4h-72.8
	c-3.6,0-6.4-2.9-6.4-6.4v-51.2C662.4,239.9,665.3,237,668.9,237z"/>
<path id="rect4421_1_" class="st5" d="M668.9,160h72.8c3.6,0,6.4,2.9,6.4,6.4v51.2c0,3.5-2.9,6.4-6.4,6.4h-72.8
	c-3.6,0-6.4-2.9-6.4-6.4v-51.2C662.4,162.9,665.3,160,668.9,160z"/>
<path id="text4553" class="st0" d="M714.2,192.7c2.7,0.6,4.8,1.8,6.4,3.6c1.5,1.9,2.3,4.1,2.3,6.8c0,4.1-1.4,7.4-4.3,9.7
	c-2.9,2.3-6.9,3.4-12.2,3.4c-1.8,0-3.6-0.2-5.5-0.5c-1.9-0.3-3.8-0.8-5.8-1.5v-5.5c1.5,0.9,3.3,1.6,5.2,2.1c1.9,0.4,3.8,0.7,5.9,0.7
	c3.6,0,6.3-0.7,8.1-2.2c1.9-1.4,2.8-3.5,2.8-6.2c0-2.5-0.8-4.4-2.6-5.9c-1.8-1.4-4.1-2.1-7.2-2.1h-4.9v-4.6h5.2
	c2.8,0,4.9-0.5,6.4-1.6c1.4-1.1,2.3-2.7,2.3-4.8c0-2.2-0.7-3.8-2.3-4.9c-1.5-1.1-3.7-1.8-6.6-1.8c-1.5,0-3.2,0.2-5,0.5
	c-1.8,0.3-3.7,0.8-5.9,1.5v-5c2.2-0.6,4.2-1,6.1-1.3c1.9-0.3,3.7-0.4,5.4-0.4c4.3,0,7.7,1,10.3,3c2.5,2,3.8,4.6,3.8,7.9
	c0,2.4-0.6,4.3-2.1,5.9C718.6,191,716.7,192.1,714.2,192.7L714.2,192.7z"/>
<path id="text4557" class="st0" d="M600.7,210.6h19.9v4.7h-26.7v-4.7c2.2-2.3,5-5.3,8.9-9c3.7-3.8,6.1-6.2,7-7.3
	c1.9-2.1,3.1-3.8,3.8-5.2c0.7-1.3,1-2.8,1-4.2c0-2.3-0.8-4-2.4-5.5c-1.5-1.4-3.6-2.2-6.2-2.2c-1.8,0-3.7,0.3-5.7,0.9
	s-4.1,1.5-6.4,2.8v-5.8c2.3-0.9,4.4-1.6,6.4-2.1s3.8-0.7,5.5-0.7c4.3,0,7.8,1.1,10.4,3.3c2.6,2.2,3.9,5,3.9,8.8
	c0,1.8-0.3,3.4-0.9,4.9c-0.6,1.5-1.9,3.4-3.5,5.5c-0.4,0.5-2,2.2-4.4,4.7C608.8,202.3,605.2,206,600.7,210.6L600.7,210.6z"/>
<path id="text4561" class="st0" d="M496.1,210.6h9.3v-32.1l-10.1,2.1v-5.2l10.1-2.1h5.7v37.3h9.3v4.7h-24.2V210.6L496.1,210.6z"/>
<path id="text4525_1_" class="st0" d="M672.8,287.4h9.3v-32.1l-10.1,2.1v-5.2l10.1-2.1h5.7v37.3h9.3v4.8h-24.2V287.4L672.8,287.4z
	 M720.8,253.8c-2.9,0-5.2,1.4-6.6,4.3c-1.4,2.9-2.3,7.2-2.3,13c0,5.8,0.7,10.1,2.3,13c1.4,2.9,3.7,4.3,6.6,4.3c3,0,5.2-1.4,6.7-4.3
	c1.4-2.9,2.3-7.2,2.3-13c0-5.8-0.7-10.1-2.3-13C726,255.2,723.7,253.8,720.8,253.8z M720.8,249.3c4.7,0,8.3,1.9,10.8,5.6
	s3.7,9.2,3.7,16.3c0,7.1-1.2,12.5-3.7,16.2s-6.1,5.6-10.8,5.6s-8.3-1.9-10.8-5.6c-2.5-3.7-3.7-9.2-3.7-16.2c0-7.1,1.2-12.6,3.7-16.3
	C712.5,251.2,716.1,249.3,720.8,249.3z"/>
<path id="text4505" class="st0" d="M481,364.1h9.3V332l-10.1,2.1v-5.2l10.1-2.1h5.7v37.3h9.3v4.8H481V364.1z M516.8,326.8h22.4v4.7
	H522v10.3c0.8-0.3,1.6-0.5,2.5-0.6s1.6-0.2,2.5-0.2c4.7,0,8.4,1.2,11.1,3.8c2.8,2.6,4.1,6.1,4.1,10.5c0,4.5-1.4,8-4.2,10.6
	c-2.8,2.5-6.8,3.8-12,3.8c-1.8,0-3.6-0.1-5.4-0.4c-1.9-0.3-3.7-0.7-5.7-1.3v-5.8c1.6,0.9,3.4,1.6,5.3,2.1c1.8,0.4,3.7,0.6,5.7,0.6
	c3.3,0,5.9-0.8,7.7-2.6s2.9-4,2.9-7c0-2.9-0.9-5.3-2.9-7c-1.9-1.8-4.4-2.6-7.7-2.6c-1.5,0-3,0.2-4.5,0.5c-1.5,0.3-3.1,0.8-4.6,1.5
	v-21H516.8z"/>
<path id="text4513" class="st0" d="M277,364.1h9.3V332l-10.1,2.1v-5.2l10.1-2.1h5.7v37.3h9.3v4.8H277V364.1z M330.1,346.2
	c2.7,0.6,4.8,1.9,6.4,3.6c1.5,1.9,2.3,4.1,2.3,6.8c0,4.1-1.4,7.4-4.3,9.7c-2.9,2.3-6.9,3.4-12.2,3.4c-1.8,0-3.6-0.2-5.5-0.5
	c-1.9-0.3-3.8-0.8-5.8-1.5v-5.6c1.5,0.9,3.3,1.6,5.2,2.1c1.9,0.4,3.8,0.7,5.9,0.7c3.6,0,6.3-0.7,8.1-2.2c1.9-1.4,2.8-3.5,2.8-6.2
	c0-2.5-0.8-4.4-2.6-5.9c-1.8-1.4-4.1-2.1-7.3-2.1h-4.9v-4.6h5.2c2.8,0,4.9-0.5,6.5-1.6c1.4-1.1,2.3-2.7,2.3-4.8s-0.7-3.8-2.3-4.9
	c-1.5-1.1-3.7-1.8-6.6-1.8c-1.5,0-3.2,0.2-5,0.5c-1.8,0.3-3.7,0.8-5.9,1.5v-5c2.2-0.6,4.2-1,6.1-1.3c1.9-0.3,3.7-0.4,5.4-0.4
	c4.3,0,7.7,1,10.3,3c2.6,2,3.8,4.6,3.8,7.9c0,2.4-0.6,4.3-2,5.9C334.4,344.6,332.6,345.6,330.1,346.2L330.1,346.2z"/>
<path id="text4517" class="st0" d="M175.8,364.1h9.3V332l-10.1,2.1v-5.2l10.1-2.1h5.7v37.3h9.3v4.8h-24.2V364.1z M216.5,364.1h19.9
	v4.8h-26.8v-4.8c2.2-2.3,5.2-5.3,8.9-9c3.7-3.8,6.1-6.2,7-7.3c1.9-2.1,3.1-3.8,3.8-5.2c0.7-1.4,1.1-2.8,1.1-4.2c0-2.3-0.8-4-2.4-5.5
	c-1.5-1.4-3.6-2.2-6.2-2.2c-1.8,0-3.7,0.3-5.7,0.9c-2,0.6-4.1,1.5-6.4,2.8v-5.8c2.3-0.9,4.4-1.7,6.4-2.1c2-0.5,3.8-0.7,5.5-0.7
	c4.3,0,7.8,1.1,10.4,3.3c2.6,2.2,3.9,5,3.9,8.8c0,1.8-0.3,3.4-0.9,4.9c-0.6,1.5-1.9,3.4-3.5,5.5c-0.5,0.5-2,2.2-4.5,4.7
	C224.6,355.9,221,359.5,216.5,364.1L216.5,364.1z"/>
<path id="text4521" class="st0" d="M73.6,364.1h9.3V332l-10.1,2.1v-5.2l10.1-2.1h5.7v37.3h9.3v4.8H73.6V364.1z M110.4,364.1h9.3V332
	l-10.1,2.1v-5.2l10.1-2.1h5.7v37.3h9.3v4.8h-24.2V364.1L110.4,364.1z"/>
<path id="text4501" class="st0" d="M576.7,362.2h9.3V330l-10.1,2.1v-5.2l10.1-2.1h5.7v37.3h9.3v4.8h-24.2V362.2L576.7,362.2z
	 M625.4,343.6c-2.6,0-4.5,0.8-6.1,2.7c-1.4,1.8-2.3,4.1-2.3,7.2c0,3,0.7,5.5,2.3,7.2c1.4,1.8,3.5,2.7,6.1,2.7s4.6-0.9,6.1-2.7
	c1.4-1.8,2.3-4.1,2.3-7.2s-0.7-5.5-2.3-7.2S627.9,343.6,625.4,343.6z M636.7,325.8v5.2c-1.4-0.7-2.9-1.2-4.3-1.5
	c-1.4-0.3-2.9-0.5-4.3-0.5c-3.8,0-6.6,1.2-8.7,3.8c-2,2.6-3.1,6.4-3.4,11.5c1.1-1.6,2.5-2.9,4.1-3.8c1.6-0.8,3.5-1.3,5.6-1.3
	c4.2,0,7.6,1.2,10,3.8c2.5,2.6,3.7,6.1,3.7,10.5c0,4.3-1.2,7.8-3.8,10.4s-6,3.9-10.2,3.9c-4.8,0-8.6-1.9-11.1-5.6
	c-2.6-3.7-3.9-9.2-3.9-16.2c0-6.7,1.5-12,4.7-16c3.2-3.9,7.4-6,12.7-6c1.4,0,2.9,0.1,4.3,0.4C633.6,324.9,635.1,325.3,636.7,325.8
	L636.7,325.8z"/>
<path id="text4497" class="st0" d="M676.2,364.6h9.3v-32.1l-10.1,2.1v-5.2l10.1-2.1h5.7v37.3h9.3v4.8h-24.2V364.6L676.2,364.6z
	 M710.6,327.3h27.1v2.5l-15.3,39.7h-6l14.4-37.3h-20.2v-4.8H710.6z"/>
<path id="text4469" class="st0" d="M681.1,440.9h19.8v4.8h-26.7v-4.8c2.2-2.3,5.2-5.3,8.9-9c3.7-3.8,6.1-6.2,7-7.3
	c1.9-2.1,3.1-3.8,3.8-5.2c0.7-1.4,1.1-2.8,1.1-4.2c0-2.3-0.8-4-2.4-5.5c-1.5-1.4-3.6-2.2-6.2-2.2c-1.8,0-3.7,0.3-5.7,0.9
	s-4.1,1.5-6.4,2.8v-5.7c2.3-0.9,4.4-1.6,6.4-2.1c2-0.5,3.8-0.7,5.5-0.7c4.3,0,7.8,1.1,10.4,3.3c2.6,2.2,3.9,5.1,3.9,8.8
	c0,1.8-0.3,3.4-0.9,4.9c-0.6,1.5-1.9,3.4-3.5,5.5c-0.5,0.5-2,2.2-4.5,4.7C689.2,432.7,685.6,436.3,681.1,440.9L681.1,440.9z
	 M728.6,408.6L714.1,431h14.4V408.6z M727,403.6h7.2V431h6v4.7h-6v9.9h-5.7v-9.9h-19.1v-5.5L727,403.6z"/>
<path id="text4473" class="st0" d="M582.3,440.9h19.9v4.8h-26.7v-4.8c2.2-2.3,5-5.3,8.9-9c3.7-3.8,6.1-6.2,7-7.3
	c1.9-2.1,3.1-3.8,3.8-5.2c0.7-1.4,1-2.8,1-4.2c0-2.3-0.8-4-2.4-5.5c-1.5-1.4-3.6-2.2-6.2-2.2c-1.8,0-3.7,0.3-5.7,0.9
	c-2,0.6-4.1,1.5-6.4,2.8v-5.7c2.3-0.9,4.4-1.6,6.4-2.1c2-0.5,3.8-0.7,5.5-0.7c4.3,0,7.8,1.1,10.4,3.3c2.6,2.2,3.9,5.1,3.9,8.8
	c0,1.8-0.3,3.4-0.9,4.9s-1.9,3.4-3.5,5.5c-0.4,0.5-2,2.2-4.4,4.7S586.9,436.3,582.3,440.9L582.3,440.9z M631.4,423
	c2.8,0.6,4.8,1.9,6.4,3.6c1.5,1.9,2.3,4.1,2.3,6.8c0,4.1-1.4,7.4-4.3,9.7c-2.9,2.3-6.9,3.4-12.2,3.4c-1.8,0-3.6-0.2-5.5-0.5
	c-1.9-0.3-3.8-0.8-5.8-1.5v-5.5c1.5,0.9,3.3,1.6,5.2,2.1c1.9,0.5,3.8,0.7,5.9,0.7c3.6,0,6.3-0.7,8.1-2.2c1.9-1.4,2.8-3.5,2.8-6.2
	c0-2.5-0.8-4.4-2.6-5.9c-1.8-1.4-4.1-2.1-7.3-2.1h-4.9v-4.6h5.2c2.8,0,4.9-0.5,6.4-1.6c1.4-1.1,2.3-2.7,2.3-4.8s-0.7-3.8-2.3-4.9
	c-1.5-1.1-3.7-1.8-6.6-1.8c-1.5,0-3.2,0.2-5,0.5c-1.8,0.3-3.7,0.8-5.9,1.5v-5c2.2-0.6,4.2-1,6.1-1.3c1.9-0.3,3.7-0.4,5.4-0.4
	c4.3,0,7.7,1,10.3,3c2.5,2,3.8,4.6,3.8,7.9c0,2.4-0.6,4.3-2,5.9C635.8,421.3,633.9,422.4,631.4,423L631.4,423z"/>
<path id="text4465" class="st0" d="M75.7,517.7h19.9v4.8H68.8v-4.8c2.2-2.3,5.2-5.3,8.9-9c3.7-3.8,6.1-6.2,7-7.3
	c1.9-2.1,3.1-3.8,3.8-5.2c0.7-1.4,1.1-2.8,1.1-4.2c0-2.3-0.8-4-2.4-5.5c-1.5-1.4-3.6-2.2-6.2-2.2c-1.8,0-3.7,0.3-5.7,0.9
	c-2,0.6-4.1,1.5-6.4,2.8v-5.8c2.3-0.9,4.4-1.7,6.4-2.1c2-0.5,3.8-0.7,5.5-0.7c4.3,0,7.8,1.1,10.4,3.3c2.6,2.2,3.9,5,3.9,8.8
	c0,1.8-0.3,3.4-0.9,4.9c-0.6,1.5-1.9,3.4-3.5,5.5c-0.5,0.5-2,2.2-4.5,4.7C83.8,509.4,80.3,513,75.7,517.7L75.7,517.7z M107.6,480.4
	H130v4.7h-17.1v10.3c0.8-0.3,1.6-0.5,2.5-0.6c0.8-0.1,1.6-0.2,2.5-0.2c4.7,0,8.4,1.2,11.1,3.8c2.8,2.6,4.1,6.1,4.1,10.5
	c0,4.5-1.4,8-4.2,10.6c-2.8,2.5-6.8,3.8-12,3.8c-1.8,0-3.6-0.1-5.4-0.4c-1.9-0.3-3.7-0.7-5.7-1.3v-5.8c1.6,0.9,3.4,1.6,5.3,2.1
	c1.8,0.4,3.7,0.6,5.8,0.6c3.3,0,5.9-0.8,7.7-2.6c1.9-1.8,2.9-4,2.9-7c0-2.9-0.9-5.3-2.9-7c-2-1.8-4.4-2.6-7.7-2.6
	c-1.5,0-3.1,0.2-4.5,0.5c-1.5,0.3-3.1,0.8-4.6,1.5v-21H107.6z"/>
<path id="text4569" class="st0" d="M694.6,499.4c2.7,0.6,4.8,1.8,6.4,3.6c1.5,1.9,2.3,4.1,2.3,6.8c0,4.1-1.4,7.4-4.3,9.7
	c-2.9,2.3-6.9,3.4-12.2,3.4c-1.8,0-3.6-0.2-5.5-0.5c-1.9-0.3-3.8-0.8-5.8-1.5v-5.5c1.5,0.9,3.3,1.6,5.2,2.1c1.9,0.4,3.8,0.7,5.9,0.7
	c3.6,0,6.3-0.7,8.1-2.2c1.9-1.4,2.8-3.5,2.8-6.2c0-2.5-0.8-4.4-2.6-5.9c-1.8-1.4-4.1-2.1-7.2-2.1h-4.9v-4.6h5.2
	c2.8,0,4.9-0.5,6.4-1.6s2.3-2.7,2.3-4.8s-0.7-3.8-2.3-4.9c-1.5-1.1-3.7-1.8-6.6-1.8c-1.5,0-3.2,0.2-5,0.5c-1.8,0.3-3.7,0.8-5.9,1.5
	v-5c2.2-0.6,4.2-1,6.1-1.3c1.9-0.3,3.7-0.4,5.4-0.4c4.3,0,7.7,1,10.3,3c2.5,2,3.8,4.6,3.8,7.9c0,2.4-0.6,4.3-2.1,5.9
	C698.9,497.7,697,498.8,694.6,499.4L694.6,499.4z M715.1,517.3h9.3v-32.1l-10.1,2.1V482l10.1-2.1h5.7v37.3h9.3v4.7h-24.2V517.3
	L715.1,517.3z"/>
<g>
	<path class="st0" d="M281.9,71.8h8.2l10.3,31l10.4-31h8.2l7.4,44.4h-8.1l-4.7-28l-9.5,28h-7.4l-9.4-28l-4.8,28h-8.2L281.9,71.8z"/>
	<path class="st0" d="M346.8,71.8h8.6l17.1,44.4h-8.8l-3.5-9.2h-18.1l-3.6,9.2h-8.8L346.8,71.8z M351.1,83.6l-6,15.3H357L351.1,83.6
		z"/>
	<path class="st0" d="M375.9,71.8h9.1l8.2,16l8.2-16h9l-13,25.1v19.3h-8.6V97L375.9,71.8z"/>
	<path class="st0" d="M440.4,86.1h-8.2c0.2-4.7,1.8-8.6,4.5-11.3c2.8-2.8,6.4-4.1,10.7-4.1c2.7,0,5,0.6,7.1,1.8
		c2.1,1.1,3.7,2.8,4.9,4.9c1.2,2.2,1.9,4.3,1.9,6.5c0,2.7-0.7,5.5-2.3,8.6c-1.5,3-4.2,6.6-8.2,10.8l-4.9,5.3h15.9v7.8h-30.8v-4
		l13.7-14c3.3-3.4,5.6-6.1,6.6-8.1c1.1-2.1,1.6-3.9,1.6-5.6c0-1.8-0.6-3.1-1.8-4.2s-2.6-1.6-4.4-1.6s-3.3,0.7-4.5,2.1
		C441.1,82,440.5,83.8,440.4,86.1z"/>
	<path class="st0" d="M481.4,70.7c3.2,0,6.1,0.8,8.3,2.4c2.4,1.5,4.1,4,5.5,7.3c1.2,3.3,2,7.8,2,13.7c0,5.9-0.6,10.5-2,13.8
		c-1.3,3.3-3.1,5.7-5.3,7.2c-2.2,1.5-4.9,2.3-8.3,2.3c-3.3,0-6.2-0.8-8.4-2.4c-2.3-1.5-4-3.9-5.4-7.1c-1.3-3.2-2-7.6-2-13.5
		c0-8.1,1.2-14,3.8-17.7C472.5,72.7,476.3,70.7,481.4,70.7z M481.6,78.7c-1.4,0-2.7,0.4-3.8,1.3s-2,2.5-2.6,4.7s-0.8,5.5-0.8,9.8
		c0,5.6,0.6,9.5,2,11.6c1.3,2.2,3.1,3.2,5.2,3.2s3.7-1,4.8-3.1c1.4-2.5,2.2-6.6,2.2-12.4c0-5.9-0.6-9.9-2-12.1
		C485.4,79.9,483.6,78.7,481.6,78.7z"/>
	<path class="st0" d="M509,71.8h12.7v44.4h-8.3V79.8H504L509,71.8z"/>
	<path class="st0" d="M553.9,70.7h8.4v28.5h3.9v7.8h-3.9v9.1h-8.2v-9.1h-19.4v-7.8L553.9,70.7z M554.1,99.2V84.4L544,99.2H554.1z"/>
</g>
<g>
	<path class="st0" d="M626,510c1.2,0.5,2,1.6,2,2.9v35.5c0,1.2-0.8,2.4-2,2.9c-0.4,0.2-0.8,0.2-1.2,0.2c-0.8,0-1.6-0.3-2.3-0.9
		l-12.2-11.7l-12.2,11.7c-0.6,0.6-1.4,0.9-2.3,0.9c-0.4,0-0.8-0.1-1.2-0.2c-1.2-0.5-2-1.6-2-2.9v-35.7c0-1.2,0.8-2.4,2-2.9
		c0.4-0.2,0.8-0.2,1.2-0.2c0.8,0,28,0,29,0C625.2,509.7,625.6,509.8,626,510z"/>
</g>
<g>
	<path class="st3" d="M635.2,504c0.6,0.6,0.9,1.5,0.7,2.4c-0.2,0.8-0.9,1.5-1.8,1.8l-6.5,1.6l1.9,6.4c0.2,0.8,0,1.8-0.6,2.4
		c-0.6,0.6-1.5,0.9-2.4,0.6l-6.4-1.9l-1.6,6.5c-0.2,0.8-0.9,1.5-1.8,1.8c-0.2,0-0.4,0.1-0.6,0.1c-0.6,0-1.3-0.3-1.8-0.7l-4.6-4.7
		l-4.6,4.7c-0.6,0.6-1.5,0.9-2.4,0.7c-0.9-0.2-1.5-0.9-1.8-1.8l-1.6-6.5l-6.4,1.9c-0.8,0.2-1.8,0-2.4-0.6c-0.6-0.6-0.9-1.5-0.6-2.4
		l1.9-6.4l-6.5-1.6c-0.8-0.2-1.5-0.9-1.8-1.8c-0.2-0.8,0-1.8,0.7-2.4l4.7-4.6l-4.7-4.6c-0.6-0.6-0.9-1.5-0.7-2.4
		c0.2-0.8,0.9-1.5,1.8-1.8l6.5-1.6l-1.9-6.4c-0.2-0.8,0-1.8,0.6-2.4c0.6-0.6,1.5-0.9,2.4-0.6l6.4,1.9l1.6-6.5
		c0.2-0.8,0.9-1.5,1.8-1.8c0.8-0.2,1.8,0,2.4,0.6l4.6,4.8l4.6-4.8c0.6-0.6,1.5-0.9,2.4-0.6c0.8,0.2,1.5,0.9,1.8,1.8l1.6,6.5l6.4-1.9
		c0.8-0.2,1.8,0,2.4,0.6c0.6,0.6,0.9,1.5,0.6,2.4l-1.9,6.4l6.5,1.6c0.8,0.2,1.5,0.9,1.8,1.8c0.2,0.8,0,1.8-0.7,2.4l-4.7,4.6
		L635.2,504z"/>
</g>
<polygon class="st0" points="394.5,374.9 378.2,358.6 378.2,335.6 394.5,319.2 417.6,319.2 433.9,335.6 433.9,358.6 417.6,374.9 "/>
<g>
	<path class="st5" d="M391.9,341.4l-2.2,1.9c-0.7-1-1.5-1.5-2.3-1.5c-0.4,0-0.7,0.1-0.9,0.3c-0.2,0.2-0.3,0.4-0.3,0.7
		c0,0.2,0.1,0.5,0.2,0.7c0.2,0.3,0.9,0.9,2.1,2c1.1,0.9,1.8,1.4,2,1.8c0.6,0.6,1,1.1,1.2,1.6c0.2,0.5,0.4,1.1,0.4,1.8
		c0,1.2-0.4,2.3-1.2,3.1c-0.8,0.8-2,1.2-3.3,1.2c-1,0-2-0.3-2.8-0.8c-0.8-0.5-1.4-1.3-2.1-2.5l2.4-1.4c0.7,1.3,1.5,2,2.5,2
		c0.5,0,0.9-0.1,1.2-0.4c0.3-0.3,0.5-0.6,0.5-1c0-0.3-0.1-0.7-0.4-1c-0.2-0.3-0.8-0.8-1.6-1.5c-1.6-1.3-2.7-2.4-3.2-3.1
		s-0.7-1.4-0.7-2.2c0-1,0.4-2,1.2-2.7c0.8-0.7,1.8-1.1,2.9-1.1c0.7,0,1.4,0.2,2.2,0.5C390.5,339.8,391.2,340.4,391.9,341.4z"/>
	<path class="st5" d="M393.5,339.3h8.2v2.8H399v12.2h-2.9v-12.2h-2.7V339.3z"/>
	<path class="st5" d="M410.8,338.9c2.2,0,3.9,0.7,5.5,2.3c1.5,1.5,2.3,3.4,2.3,5.6s-0.7,4-2.3,5.6c-1.5,1.5-3.3,2.3-5.5,2.3
		c-2.3,0-4.1-0.8-5.6-2.4s-2.3-3.4-2.3-5.6c0-1.4,0.3-2.8,1-3.9c0.7-1.2,1.6-2.2,2.9-2.9C408.1,339.3,409.3,338.9,410.8,338.9z
		 M410.8,341.7c-1.3,0-2.6,0.5-3.5,1.4c-0.9,0.9-1.4,2.2-1.4,3.7c0,1.6,0.6,3,1.8,3.9c0.9,0.7,2,1.1,3.2,1.1c1.3,0,2.5-0.5,3.5-1.4
		c1-0.9,1.4-2.2,1.4-3.6c0-1.4-0.5-2.7-1.4-3.6C413.3,342.2,412.1,341.7,410.8,341.7z"/>
	<path class="st5" d="M421.2,339.3h3c1.6,0,2.8,0.1,3.5,0.4c0.7,0.3,1.3,0.8,1.8,1.4c0.4,0.7,0.6,1.4,0.6,2.5c0,1-0.3,2-0.8,2.6
		c-0.5,0.7-1.3,1.1-2.3,1.4c-0.5,0.2-1.5,0.2-3,0.2v6.4h-2.9v-14.9H421.2z M424.1,345.2h0.9c0.7,0,1.2,0,1.4-0.1
		c0.3-0.1,0.5-0.3,0.6-0.5c0.2-0.2,0.2-0.5,0.2-0.8c0-0.6-0.2-1-0.7-1.2c-0.3-0.2-0.9-0.3-1.9-0.3h-0.8v3H424.1z"/>
</g>
<g>
	<path class="st0" d="M539.1,448.8l-3.7,3.7c-0.8,0.8-2,1.2-3.1,1.2s-2.3-0.5-3.1-1.2L516.6,440c-0.8-0.8-1.3-2-1.3-3.1
		c0-1.3,0.5-2.4,1.4-3.3l-8.9-8.9l-4.3,4.3c-0.3,0.3-0.7,0.5-1.1,0.5c-0.4,0-0.8-0.2-1.1-0.5c1,1,2,1.8,2,3.4c0,0.9-0.3,1.6-0.9,2.4
		c-1.1,1.2-2.4,2.9-4.3,2.9c-0.8,0-1.8-0.3-2.4-0.9l-14.1-14.1c-0.6-0.6-0.9-1.4-0.9-2.4c0-1.9,1.6-3.1,2.9-4.3
		c0.6-0.6,1.4-0.9,2.4-0.9c1.5,0,2.4,0.9,3.4,2c-0.3-0.3-0.5-0.7-0.5-1.1c0-0.4,0.2-0.8,0.5-1.1l12.1-12.1c0.3-0.3,0.7-0.5,1.1-0.5
		c0.4,0,0.8,0.2,1.1,0.5c-1-1-2-1.8-2-3.4c0-0.9,0.3-1.6,0.9-2.4c1.1-1.2,2.4-2.9,4.3-2.9c0.8,0,1.8,0.3,2.4,0.9l14.1,14.1
		c0.6,0.6,0.9,1.4,0.9,2.4c0,1.9-1.6,3.1-2.9,4.3c-0.6,0.6-1.4,0.9-2.4,0.9c-1.5,0-2.4-0.9-3.4-2c0.3,0.3,0.5,0.7,0.5,1.1
		c0,0.4-0.2,0.8-0.5,1.1l-4.3,4.3l8.9,8.9c0.9-0.9,2-1.4,3.3-1.4c1.1,0,2.3,0.5,3.1,1.2l12.6,12.6c0.8,0.8,1.2,2,1.2,3.1
		C540.3,446.9,539.8,448,539.1,448.8z"/>
</g>
<g>
	<path class="st0" d="M128.7,448.8l-3.7,3.7c-0.8,0.8-2,1.2-3.1,1.2c-1.1,0-2.3-0.5-3.1-1.2L106.2,440c-0.8-0.8-1.3-2-1.3-3.1
		c0-1.3,0.5-2.4,1.4-3.3l-8.9-8.9l-4.3,4.3c-0.3,0.3-0.7,0.5-1.1,0.5s-0.8-0.2-1.1-0.5c1,1,2,1.8,2,3.4c0,0.9-0.3,1.6-0.9,2.4
		c-1.1,1.2-2.4,2.9-4.3,2.9c-0.8,0-1.8-0.3-2.4-0.9l-14.1-14.1c-0.6-0.6-0.9-1.4-0.9-2.4c0-1.9,1.6-3.1,2.9-4.3
		c0.6-0.6,1.4-0.9,2.4-0.9c1.5,0,2.4,0.9,3.4,2c-0.3-0.3-0.5-0.7-0.5-1.1c0-0.4,0.2-0.8,0.5-1.1l12.1-12.1c0.3-0.3,0.7-0.5,1.1-0.5
		s0.8,0.2,1.1,0.5c-1-1-2-1.8-2-3.4c0-0.9,0.3-1.6,0.9-2.4c1.1-1.2,2.4-2.9,4.3-2.9c0.8,0,1.8,0.3,2.4,0.9l14.1,14.1
		c0.6,0.6,0.9,1.4,0.9,2.4c0,1.9-1.6,3.1-2.9,4.3c-0.6,0.6-1.4,0.9-2.4,0.9c-1.5,0-2.4-0.9-3.4-2c0.3,0.3,0.5,0.7,0.5,1.1
		c0,0.4-0.2,0.8-0.5,1.1l-4.3,4.3l8.9,8.9c0.9-0.9,2-1.4,3.3-1.4c1.1,0,2.3,0.5,3.1,1.2l12.6,12.6c0.8,0.8,1.2,2,1.2,3.1
		C129.9,446.8,129.5,448,128.7,448.8z"/>
</g>
<g>
	<g>
		<line class="st6" x1="185.8" y1="424.7" x2="421" y2="424.7"/>
		<g>
			<polygon class="st0" points="193,434.2 188.9,424.7 193,415.1 170.4,424.7 			"/>
		</g>
		<g>
			<polygon class="st0" points="413.8,434.2 417.8,424.7 413.8,415.1 436.4,424.7 			"/>
		</g>
	</g>
</g>
<g>
	<g>
		<path class="st0" d="M223.4,517.4c0,2-1.6,3.6-3.6,3.6h-35.7c-2,0-3.6-1.6-3.6-3.6v-27.1c0-2,1.6-3.6,3.6-3.6h35.7
			c2,0,3.6,1.6,3.6,3.6V517.4z M184.2,489.6c-0.4,0-0.7,0.3-0.7,0.7v27.1c0,0.4,0.3,0.7,0.7,0.7h35.7c0.4,0,0.7-0.3,0.7-0.7v-27.1
			c0-0.4-0.3-0.7-0.7-0.7H184.2z M190.6,501c-2.4,0-4.2-2-4.2-4.2c0-2.3,2-4.2,4.2-4.2c2.3,0,4.2,2,4.2,4.2
			C194.8,499,193,501,190.6,501z M217.7,515.3h-31.3v-4.2l7.1-7.1l3.6,3.6l11.4-11.4l9.3,9.3v9.9H217.7z"/>
	</g>
	<rect x="175.1" y="481.1" class="st2" width="53.6" height="45"/>
	<polyline class="st1" points="213.1,480.2 203.3,470.5 201.7,470.5 192,480.2 	"/>
</g>
<g>
	<g>
		<path class="st0" d="M324.1,517.4c0,2-1.6,3.6-3.6,3.6h-35.7c-2,0-3.6-1.6-3.6-3.6v-27.1c0-2,1.6-3.6,3.6-3.6h35.8
			c2,0,3.6,1.6,3.6,3.6v27.1H324.1z M285,489.6c-0.4,0-0.7,0.3-0.7,0.7v27.1c0,0.4,0.3,0.7,0.7,0.7h35.7c0.4,0,0.7-0.3,0.7-0.7
			v-27.1c0-0.4-0.3-0.7-0.7-0.7H285z M291.4,501c-2.4,0-4.2-2-4.2-4.2c0-2.3,2-4.2,4.2-4.2c2.4,0,4.2,2,4.2,4.2
			C295.6,499,293.7,501,291.4,501z M318.5,515.3h-31.3v-4.2l7.1-7.1l3.6,3.6l11.4-11.4l9.3,9.3v9.9H318.5z"/>
	</g>
	<rect x="275.9" y="481.1" class="st2" width="53.6" height="45"/>
	<polyline class="st1" points="313.9,480.2 304.1,470.5 302.6,470.5 292.8,480.2 	"/>
</g>
<g>
	<g>
		<path class="st0" d="M426.2,517.4c0,2-1.6,3.6-3.6,3.6H387c-2,0-3.6-1.6-3.6-3.6v-27.1c0-2,1.6-3.6,3.6-3.6h35.7
			c2,0,3.6,1.6,3.6,3.6V517.4z M387.1,489.6c-0.4,0-0.7,0.3-0.7,0.7v27.1c0,0.4,0.3,0.7,0.7,0.7h35.7c0.4,0,0.7-0.3,0.7-0.7v-27.1
			c0-0.4-0.3-0.7-0.7-0.7H387.1z M393.5,501c-2.4,0-4.2-2-4.2-4.2c0-2.3,2-4.2,4.2-4.2c2.4,0,4.2,2,4.2,4.2
			C397.7,499,395.8,501,393.5,501z M420.6,515.3h-31.3v-4.2l7.1-7.1l3.6,3.6l11.4-11.4l9.3,9.3v9.9H420.6z"/>
	</g>
	<rect x="378" y="481.1" class="st2" width="53.6" height="45"/>
	<polyline class="st1" points="415.9,480.2 406.2,470.5 404.6,470.5 394.9,480.2 	"/>
</g>
<g>
	<g>
		<path class="st0" d="M528.5,517.4c0,2-1.6,3.6-3.6,3.6h-35.7c-2,0-3.6-1.6-3.6-3.6v-27.1c0-2,1.6-3.6,3.6-3.6h35.7
			c2,0,3.6,1.6,3.6,3.6V517.4z M489.3,489.6c-0.4,0-0.7,0.3-0.7,0.7v27.1c0,0.4,0.3,0.7,0.7,0.7H525c0.4,0,0.7-0.3,0.7-0.7v-27.1
			c0-0.4-0.3-0.7-0.7-0.7H489.3z M495.7,501c-2.4,0-4.2-2-4.2-4.2c0-2.3,2-4.2,4.2-4.2s4.2,2,4.2,4.2C499.9,499,498.1,501,495.7,501
			z M522.8,515.3h-31.3v-4.2l7.1-7.1l3.6,3.6l11.4-11.4l9.3,9.3v9.9H522.8z"/>
	</g>
	<rect x="480.2" y="481.1" class="st2" width="53.6" height="45"/>
	<polyline class="st1" points="518.2,480.2 508.5,470.5 506.9,470.5 497.1,480.2 	"/>
</g>
</svg>
