<?xml version="1.0" encoding="utf-8"?>
<!-- Generator: Adobe Illustrator 15.0.0, SVG Export Plug-In . SVG Version: 6.00 Build 0)  -->
<!DOCTYPE svg PUBLIC "-//W3C//DTD SVG 1.1//EN" "http://www.w3.org/Graphics/SVG/1.1/DTD/svg11.dtd">
<svg version="1.1"
	 id="svg2558" xmlns:rdf="http://www.w3.org/1999/02/22-rdf-syntax-ns#" xmlns:dc="http://purl.org/dc/elements/1.1/" xmlns:cc="http://creativecommons.org/ns#" xmlns:svg="http://www.w3.org/2000/svg"
	 xmlns="http://www.w3.org/2000/svg" xmlns:xlink="http://www.w3.org/1999/xlink" x="0px" y="0px" width="800px" height="600px"
	 viewBox="0 0 800 600" style="enable-background:new 0 0 800 600;" xml:space="preserve">
<style type="text/css">
<![CDATA[
	.st0{fill:#135870;}
	.st1{fill:none;stroke:#135870;stroke-width:3;}
	.st2{fill:none;stroke:#135870;stroke-width:4;}
	.st3{fill:#135870;stroke:#FFFFFF;stroke-width:2;stroke-miterlimit:10;}
	.st4{fill:#F0F0F0;}
	.st5{fill:#FFFFFF;}
	.st6{fill:none;stroke:#135870;stroke-width:5;stroke-miterlimit:10;}
]]>
</style>
<path id="rect2160" class="st0" d="M14.8,5.3h776.4V595H14.8V5.3L14.8,5.3z"/>
<path id="rect4306" class="st4" d="M56.3,36.6h694.3c3.9,0,7,3.1,7,6.9v513.6c0,3.8-3.1,6.9-7,6.9H56.3c-3.9,0-7-3.1-7-6.9V43.5
	C49.3,39.7,52.4,36.6,56.3,36.6z"/>
<path id="rect4373" class="st5" d="M569.4,459.9h70.7c3.5,0,6.2,2.8,6.2,6.2v49.7c0,3.5-2.8,6.2-6.2,6.2h-70.7
	c-3.5,0-6.2-2.8-6.2-6.2v-49.7C563.2,462.7,566,459.9,569.4,459.9z"/>
<path id="rect4385" class="st5" d="M569.4,385.2h70.7c3.5,0,6.2,2.8,6.2,6.2v49.7c0,3.5-2.8,6.2-6.2,6.2h-70.7
	c-3.5,0-6.2-2.8-6.2-6.2v-49.7C563.2,388,566,385.2,569.4,385.2z"/>
<path id="rect4397" class="st5" d="M569.4,310.6h70.7c3.5,0,6.2,2.8,6.2,6.2v49.7c0,3.5-2.8,6.2-6.2,6.2h-70.7
	c-3.5,0-6.2-2.8-6.2-6.2v-49.7C563.2,313.4,566,310.6,569.4,310.6z"/>
<path id="rect4409" class="st5" d="M569.4,235.9h70.7c3.5,0,6.2,2.8,6.2,6.2v49.7c0,3.5-2.8,6.2-6.2,6.2h-70.7
	c-3.5,0-6.2-2.8-6.2-6.2v-49.7C563.2,238.7,566,235.9,569.4,235.9z"/>
<path id="rect4421" class="st5" d="M569.4,161.3h70.7c3.5,0,6.2,2.8,6.2,6.2v49.7c0,3.5-2.8,6.2-6.2,6.2h-70.7
	c-3.5,0-6.2-2.8-6.2-6.2v-49.7C563.2,164.1,566,161.3,569.4,161.3z"/>
<path id="text4529" class="st0" d="M593.3,288v-5c1.4,0.7,2.8,1.2,4.2,1.5c1.4,0.3,2.8,0.5,4.2,0.5c3.6,0,6.4-1.2,8.4-3.7
	c1.9-2.5,3-6.2,3.3-11.2c-1.1,1.6-2.4,2.8-4,3.6c-1.6,0.8-3.4,1.3-5.4,1.3c-4.1,0-7.3-1.2-9.7-3.7c-2.4-2.5-3.6-5.9-3.6-10.1
	c0-4.2,1.2-7.6,3.7-10.1c2.5-2.5,5.8-3.8,9.9-3.8c4.7,0,8.3,1.8,10.8,5.4c2.5,3.6,3.7,8.9,3.7,15.8c0,6.4-1.5,11.6-4.6,15.4
	c-3.1,3.8-7.2,5.8-12.3,5.8c-1.4,0-2.8-0.1-4.2-0.4C596.3,289,594.8,288.6,593.3,288L593.3,288z M604.3,270.7c2.5,0,4.4-0.8,5.9-2.5
	c1.4-1.7,2.2-4,2.2-7c0-2.9-0.7-5.3-2.2-7c-1.4-1.7-3.4-2.6-5.9-2.6c-2.5,0-4.4,0.8-5.9,2.6c-1.5,1.7-2.2,4-2.2,7c0,3,0.7,5.3,2.2,7
	C599.9,269.9,601.8,270.7,604.3,270.7z"/>
<path id="rect4375" class="st5" d="M470.5,459.9h70.7c3.5,0,6.2,2.8,6.2,6.2v49.7c0,3.5-2.8,6.2-6.2,6.2h-70.7
	c-3.5,0-6.2-2.8-6.2-6.2v-49.7C464.3,462.7,467.1,459.9,470.5,459.9z"/>
<path id="rect4387" class="st5" d="M470.5,385.2h70.7c3.5,0,6.2,2.8,6.2,6.2v49.7c0,3.5-2.8,6.2-6.2,6.2h-70.7
	c-3.5,0-6.2-2.8-6.2-6.2v-49.7C464.3,388,467.1,385.2,470.5,385.2z"/>
<path id="rect4399" class="st5" d="M470.5,310.6h70.7c3.5,0,6.2,2.8,6.2,6.2v49.7c0,3.5-2.8,6.2-6.2,6.2h-70.7
	c-3.5,0-6.2-2.8-6.2-6.2v-49.7C464.3,313.4,467.1,310.6,470.5,310.6z"/>
<path id="rect4411" class="st5" d="M470.5,235.9h70.7c3.5,0,6.2,2.8,6.2,6.2v49.7c0,3.5-2.8,6.2-6.2,6.2h-70.7
	c-3.5,0-6.2-2.8-6.2-6.2v-49.7C464.3,238.7,467.1,235.9,470.5,235.9z"/>
<path id="rect4423" class="st5" d="M470.5,161.3h70.7c3.5,0,6.2,2.8,6.2,6.2v49.7c0,3.5-2.8,6.2-6.2,6.2h-70.7
	c-3.5,0-6.2-2.8-6.2-6.2v-49.7C464.3,164.1,467.1,161.3,470.5,161.3z"/>
<path id="text4533" class="st0" d="M505.9,269.5c-2.6,0-4.7,0.7-6.2,2.1c-1.5,1.4-2.3,3.3-2.3,5.8s0.8,4.4,2.3,5.8
	c1.5,1.4,3.6,2.1,6.2,2.1c2.6,0,4.7-0.7,6.2-2.1c1.5-1.4,2.3-3.4,2.3-5.8c0-2.5-0.8-4.4-2.3-5.8
	C510.6,270.2,508.6,269.5,505.9,269.5z M500.4,267.1c-2.4-0.6-4.2-1.7-5.5-3.3c-1.3-1.6-2-3.6-2-5.9c0-3.3,1.2-5.9,3.5-7.7
	c2.3-1.9,5.5-2.9,9.6-2.9c4.1,0,7.3,0.9,9.6,2.9c2.3,1.9,3.5,4.5,3.5,7.7c0,2.3-0.7,4.3-2,5.9c-1.3,1.6-3.2,2.7-5.5,3.3
	c2.7,0.6,4.7,1.8,6.2,3.6c1.5,1.8,2.2,4,2.2,6.6c0,4-1.2,7-3.6,9.1c-2.4,2.1-5.9,3.2-10.4,3.2c-4.5,0-8-1.1-10.4-3.2
	c-2.4-2.1-3.6-5.1-3.6-9.1c0-2.6,0.7-4.8,2.3-6.6C495.6,268.9,497.7,267.7,500.4,267.1z M498.3,258.4c0,2.1,0.7,3.8,2,5
	c1.3,1.2,3.2,1.8,5.6,1.8c2.4,0,4.2-0.6,5.6-1.8c1.3-1.2,2-2.8,2-5c0-2.1-0.7-3.8-2-4.9c-1.3-1.2-3.2-1.8-5.6-1.8
	c-2.4,0-4.2,0.6-5.6,1.8C499,254.6,498.3,256.3,498.3,258.4z"/>
<path id="rect4377" class="st5" d="M371.7,459.9h70.7c3.5,0,6.2,2.8,6.2,6.2v49.7c0,3.5-2.8,6.2-6.2,6.2h-70.7
	c-3.5,0-6.2-2.8-6.2-6.2v-49.7C365.4,462.7,368.2,459.9,371.7,459.9z"/>
<path id="rect4389" class="st5" d="M371.7,385.2h70.7c3.5,0,6.2,2.8,6.2,6.2v49.7c0,3.5-2.8,6.2-6.2,6.2h-70.7
	c-3.5,0-6.2-2.8-6.2-6.2v-49.7C365.4,388,368.2,385.2,371.7,385.2z"/>
<path id="rect4401" class="st5" d="M371.7,310.6h70.7c3.5,0,6.2,2.8,6.2,6.2v49.7c0,3.5-2.8,6.2-6.2,6.2h-70.7
	c-3.5,0-6.2-2.8-6.2-6.2v-49.7C365.4,313.4,368.2,310.6,371.7,310.6z"/>
<path id="rect4413" class="st5" d="M371.7,235.9h70.7c3.5,0,6.2,2.8,6.2,6.2v49.7c0,3.5-2.8,6.2-6.2,6.2h-70.7
	c-3.5,0-6.2-2.8-6.2-6.2v-49.7C365.4,238.7,368.2,235.9,371.7,235.9z"/>
<path id="rect4425" class="st5" d="M371.7,161.3h70.7c3.5,0,6.2,2.8,6.2,6.2v49.7c0,3.5-2.8,6.2-6.2,6.2h-70.7
	c-3.5,0-6.2-2.8-6.2-6.2v-49.7C365.4,164.1,368.2,161.3,371.7,161.3z"/>
<path id="text4537" class="st0" d="M393.9,248h26.3v2.4l-14.8,38.5h-5.8l14-36.2h-19.6V248L393.9,248z"/>
<path id="rect4379" class="st5" d="M272.8,459.9h70.7c3.5,0,6.2,2.8,6.2,6.2v49.7c0,3.5-2.8,6.2-6.2,6.2h-70.7
	c-3.5,0-6.2-2.8-6.2-6.2v-49.7C266.6,462.7,269.4,459.9,272.8,459.9z"/>
<path id="rect4391" class="st5" d="M272.8,385.2h70.7c3.5,0,6.2,2.8,6.2,6.2v49.7c0,3.5-2.8,6.2-6.2,6.2h-70.7
	c-3.5,0-6.2-2.8-6.2-6.2v-49.7C266.6,388,269.4,385.2,272.8,385.2z"/>
<path id="rect4403" class="st5" d="M272.8,310.6h70.7c3.5,0,6.2,2.8,6.2,6.2v49.7c0,3.5-2.8,6.2-6.2,6.2h-70.7
	c-3.5,0-6.2-2.8-6.2-6.2v-49.7C266.6,313.4,269.4,310.6,272.8,310.6z"/>
<path id="rect4415" class="st5" d="M272.8,235.9h70.7c3.5,0,6.2,2.8,6.2,6.2v49.7c0,3.5-2.8,6.2-6.2,6.2h-70.7
	c-3.5,0-6.2-2.8-6.2-6.2v-49.7C266.6,238.7,269.4,235.9,272.8,235.9z"/>
<path id="rect4427" class="st5" d="M272.8,161.3h70.7c3.5,0,6.2,2.8,6.2,6.2v49.7c0,3.5-2.8,6.2-6.2,6.2h-70.7
	c-3.5,0-6.2-2.8-6.2-6.2v-49.7C266.6,164.1,269.4,161.3,272.8,161.3z"/>
<path id="text4541" class="st0" d="M308.7,266.2c-2.5,0-4.4,0.8-5.9,2.6c-1.4,1.7-2.2,4-2.2,7c0,2.9,0.7,5.3,2.2,7
	c1.4,1.7,3.4,2.6,5.9,2.6c2.5,0,4.5-0.8,5.9-2.6c1.4-1.7,2.2-4,2.2-7c0-3-0.7-5.3-2.2-7C313.1,267.1,311.1,266.2,308.7,266.2z
	 M319.7,248.9v5c-1.4-0.7-2.8-1.2-4.2-1.5c-1.4-0.3-2.8-0.5-4.2-0.5c-3.7,0-6.4,1.2-8.4,3.7c-1.9,2.5-3,6.2-3.3,11.2
	c1.1-1.6,2.4-2.8,4-3.7c1.6-0.8,3.4-1.3,5.4-1.3c4.1,0,7.4,1.2,9.7,3.7c2.4,2.5,3.6,5.9,3.6,10.2c0,4.2-1.2,7.6-3.7,10.1
	c-2.5,2.5-5.8,3.8-9.9,3.8c-4.7,0-8.3-1.8-10.8-5.4c-2.5-3.6-3.8-8.9-3.8-15.7c0-6.5,1.5-11.6,4.6-15.5s7.2-5.8,12.3-5.8
	c1.4,0,2.8,0.1,4.2,0.4C316.6,248,318.1,248.4,319.7,248.9L319.7,248.9z"/>
<path id="rect4381" class="st5" d="M174,459.9h70.7c3.5,0,6.2,2.8,6.2,6.2v49.7c0,3.5-2.8,6.2-6.2,6.2H174c-3.4,0-6.2-2.8-6.2-6.2
	v-49.7C167.7,462.7,170.5,459.9,174,459.9z"/>
<path id="rect4393" class="st5" d="M174,385.2h70.7c3.5,0,6.2,2.8,6.2,6.2v49.7c0,3.5-2.8,6.2-6.2,6.2H174c-3.4,0-6.2-2.8-6.2-6.2
	v-49.7C167.7,388,170.5,385.2,174,385.2z"/>
<path id="rect4405" class="st5" d="M174,310.6h70.7c3.5,0,6.2,2.8,6.2,6.2v49.7c0,3.5-2.8,6.2-6.2,6.2H174c-3.4,0-6.2-2.8-6.2-6.2
	v-49.7C167.7,313.4,170.5,310.6,174,310.6z"/>
<path id="rect4417" class="st5" d="M174,235.9h70.7c3.5,0,6.2,2.8,6.2,6.2v49.7c0,3.5-2.8,6.2-6.2,6.2H174c-3.4,0-6.2-2.8-6.2-6.2
	v-49.7C167.7,238.7,170.5,235.9,174,235.9z"/>
<path id="rect4429" class="st5" d="M174,161.3h70.7c3.5,0,6.2,2.8,6.2,6.2v49.7c0,3.5-2.8,6.2-6.2,6.2H174c-3.4,0-6.2-2.8-6.2-6.2
	v-49.7C167.7,164.1,170.5,161.3,174,161.3z"/>
<path id="text4545" class="st0" d="M197.8,248h21.7v4.6h-16.7v10c0.8-0.3,1.6-0.5,2.4-0.6c0.8-0.1,1.6-0.2,2.4-0.2
	c4.6,0,8.2,1.2,10.8,3.7s4,5.9,4,10.2c0,4.4-1.4,7.8-4.1,10.3c-2.7,2.4-6.6,3.7-11.6,3.7c-1.7,0-3.5-0.1-5.2-0.4
	c-1.8-0.3-3.6-0.7-5.5-1.3v-5.6c1.6,0.9,3.3,1.6,5.1,2c1.7,0.4,3.6,0.6,5.6,0.6c3.2,0,5.7-0.8,7.5-2.5c1.8-1.7,2.8-3.9,2.8-6.8
	c0-2.8-0.9-5.1-2.8-6.8c-1.8-1.7-4.3-2.5-7.5-2.5c-1.5,0-2.9,0.2-4.4,0.5c-1.5,0.3-3,0.8-4.5,1.5V248L197.8,248z"/>
<path id="rect4383" class="st5" d="M75.1,459.9h70.7c3.4,0,6.2,2.8,6.2,6.2v49.7c0,3.5-2.8,6.2-6.2,6.2H75.1c-3.4,0-6.2-2.8-6.2-6.2
	v-49.7C68.9,462.7,71.7,459.9,75.1,459.9z"/>
<path id="rect4395" class="st5" d="M75.1,385.2h70.7c3.4,0,6.2,2.8,6.2,6.2v49.7c0,3.5-2.8,6.2-6.2,6.2H75.1c-3.4,0-6.2-2.8-6.2-6.2
	v-49.7C68.9,388,71.7,385.2,75.1,385.2z"/>
<path id="rect4407" class="st5" d="M75.1,310.6h70.7c3.4,0,6.2,2.8,6.2,6.2v49.7c0,3.5-2.8,6.2-6.2,6.2H75.1c-3.4,0-6.2-2.8-6.2-6.2
	v-49.7C68.9,313.4,71.7,310.6,75.1,310.6z"/>
<path id="rect4419" class="st5" d="M75.1,235.9h70.7c3.4,0,6.2,2.8,6.2,6.2v49.7c0,3.5-2.8,6.2-6.2,6.2H75.1c-3.4,0-6.2-2.8-6.2-6.2
	v-49.7C68.9,238.7,71.7,235.9,75.1,235.9z"/>
<path id="rect4431" class="st5" d="M75.1,161.3h70.7c3.4,0,6.2,2.8,6.2,6.2v49.7c0,3.5-2.8,6.2-6.2,6.2H75.1c-3.4,0-6.2-2.8-6.2-6.2
	v-49.7C68.9,164.1,71.7,161.3,75.1,161.3z"/>
<path id="text4549" class="st0" d="M114,252.8l-14,21.8h14V252.8z M112.6,248h7v26.6h5.8v4.6h-5.8v9.6H114v-9.6H95.6v-5.3L112.6,248
	L112.6,248z"/>
<path id="rect4373_1_" class="st5" d="M663,459.3h70.7c3.5,0,6.2,2.8,6.2,6.2v49.7c0,3.5-2.8,6.2-6.2,6.2H663
	c-3.5,0-6.2-2.8-6.2-6.2v-49.7C656.7,462.1,659.5,459.3,663,459.3z"/>
<path id="rect4385_1_" class="st5" d="M663,384.6h70.7c3.5,0,6.2,2.8,6.2,6.2v49.7c0,3.5-2.8,6.2-6.2,6.2H663
	c-3.5,0-6.2-2.8-6.2-6.2v-49.7C656.7,387.4,659.5,384.6,663,384.6z"/>
<path id="rect4397_1_" class="st5" d="M663,310h70.7c3.5,0,6.2,2.8,6.2,6.2v49.7c0,3.5-2.8,6.2-6.2,6.2H663c-3.5,0-6.2-2.8-6.2-6.2
	v-49.7C656.7,312.8,659.5,310,663,310z"/>
<path id="rect4409_1_" class="st5" d="M663,235.3h70.7c3.5,0,6.2,2.8,6.2,6.2v49.7c0,3.5-2.8,6.2-6.2,6.2H663
	c-3.5,0-6.2-2.8-6.2-6.2v-49.7C656.7,238.1,659.5,235.3,663,235.3z"/>
<path id="rect4421_1_" class="st5" d="M663,160.6h70.7c3.5,0,6.2,2.8,6.2,6.2v49.7c0,3.4-2.8,6.2-6.2,6.2H663
	c-3.5,0-6.2-2.8-6.2-6.2v-49.7C656.7,163.4,659.5,160.6,663,160.6z"/>
<path id="text4553" class="st0" d="M707,192.3c2.6,0.6,4.7,1.7,6.2,3.5c1.5,1.8,2.2,4,2.2,6.6c0,4-1.4,7.2-4.2,9.4
	c-2.8,2.2-6.7,3.3-11.8,3.3c-1.7,0-3.5-0.2-5.3-0.5c-1.8-0.3-3.7-0.8-5.6-1.5v-5.3c1.5,0.9,3.2,1.6,5,2c1.8,0.4,3.7,0.7,5.7,0.7
	c3.5,0,6.1-0.7,7.9-2.1c1.8-1.4,2.7-3.4,2.7-6c0-2.4-0.8-4.3-2.5-5.7c-1.7-1.4-4-2-7-2h-4.8v-4.5h5c2.7,0,4.8-0.5,6.2-1.6
	c1.4-1.1,2.2-2.6,2.2-4.7c0-2.1-0.7-3.7-2.2-4.8c-1.5-1.1-3.6-1.7-6.4-1.7c-1.5,0-3.1,0.2-4.9,0.5c-1.7,0.3-3.6,0.8-5.7,1.5v-4.9
	c2.1-0.6,4.1-1,5.9-1.3c1.8-0.3,3.6-0.4,5.2-0.4c4.2,0,7.5,1,10,2.9c2.4,1.9,3.7,4.5,3.7,7.7c0,2.3-0.6,4.2-2,5.7
	C711.2,190.7,709.4,191.7,707,192.3L707,192.3z"/>
<path id="text4557" class="st0" d="M596.8,209.7h19.3v4.6h-25.9v-4.6c2.1-2.2,4.9-5.1,8.6-8.7c3.6-3.7,5.9-6,6.8-7.1
	c1.8-2,3-3.7,3.7-5s1-2.7,1-4.1c0-2.2-0.8-3.9-2.3-5.3c-1.5-1.4-3.5-2.1-6-2.1c-1.7,0-3.6,0.3-5.5,0.9c-1.9,0.6-4,1.5-6.2,2.7v-5.6
	c2.2-0.9,4.3-1.6,6.2-2s3.7-0.7,5.3-0.7c4.2,0,7.6,1.1,10.1,3.2c2.5,2.1,3.8,4.9,3.8,8.5c0,1.7-0.3,3.3-0.9,4.8
	c-0.6,1.5-1.8,3.3-3.4,5.3c-0.4,0.5-1.9,2.1-4.3,4.6C604.7,201.6,601.2,205.2,596.8,209.7L596.8,209.7z"/>
<path id="text4561" class="st0" d="M495.3,209.7h9v-31.2l-9.8,2v-5l9.8-2h5.5v36.2h9v4.6h-23.5V209.7L495.3,209.7z"/>
<path id="text4525_1_" class="st0" d="M666.8,284.2h9V253l-9.8,2v-5l9.8-2h5.5v36.2h9v4.7h-23.5V284.2L666.8,284.2z M713.4,251.6
	c-2.8,0-5,1.4-6.4,4.2c-1.4,2.8-2.2,7-2.2,12.6c0,5.6,0.7,9.8,2.2,12.6c1.4,2.8,3.6,4.2,6.4,4.2c2.9,0,5-1.4,6.5-4.2
	c1.4-2.8,2.2-7,2.2-12.6c0-5.6-0.7-9.8-2.2-12.6C718.4,253,716.2,251.6,713.4,251.6z M713.4,247.2c4.6,0,8.1,1.8,10.5,5.4
	c2.4,3.6,3.6,8.9,3.6,15.8c0,6.9-1.2,12.1-3.6,15.7c-2.4,3.6-5.9,5.4-10.5,5.4c-4.6,0-8.1-1.8-10.5-5.4c-2.4-3.6-3.6-8.9-3.6-15.7
	c0-6.9,1.2-12.2,3.6-15.8C705.3,249.1,708.8,247.2,713.4,247.2z"/>
<path id="text4505" class="st0" d="M480.6,358.7h9v-31.2l-9.8,2v-5l9.8-2h5.5v36.2h9v4.7h-23.5V358.7z M515.4,322.5h21.7v4.6h-16.7
	v10c0.8-0.3,1.6-0.5,2.4-0.6c0.8-0.1,1.6-0.2,2.4-0.2c4.6,0,8.2,1.2,10.8,3.7c2.7,2.5,4,5.9,4,10.2c0,4.4-1.4,7.8-4.1,10.3
	c-2.7,2.4-6.6,3.7-11.6,3.7c-1.7,0-3.5-0.1-5.2-0.4c-1.8-0.3-3.6-0.7-5.5-1.3v-5.6c1.6,0.9,3.3,1.6,5.1,2c1.7,0.4,3.6,0.6,5.5,0.6
	c3.2,0,5.7-0.8,7.5-2.5c1.8-1.7,2.8-3.9,2.8-6.8c0-2.8-0.9-5.1-2.8-6.8c-1.8-1.7-4.3-2.5-7.5-2.5c-1.5,0-2.9,0.2-4.4,0.5
	c-1.5,0.3-3,0.8-4.5,1.5V322.5L515.4,322.5z"/>
<path id="text4513" class="st0" d="M282.7,358.7h9v-31.2l-9.8,2v-5l9.8-2h5.5v36.2h9v4.7h-23.5V358.7z M334.2,341.3
	c2.6,0.6,4.7,1.8,6.2,3.5c1.5,1.8,2.2,4,2.2,6.6c0,4-1.4,7.2-4.2,9.4c-2.8,2.2-6.7,3.3-11.8,3.3c-1.7,0-3.5-0.2-5.3-0.5
	c-1.8-0.3-3.7-0.8-5.6-1.5v-5.4c1.5,0.9,3.2,1.6,5,2c1.8,0.4,3.7,0.7,5.7,0.7c3.5,0,6.1-0.7,7.9-2.1c1.8-1.4,2.7-3.4,2.7-6
	c0-2.4-0.8-4.3-2.5-5.7c-1.7-1.4-4-2-7.1-2h-4.8v-4.5h5c2.7,0,4.8-0.5,6.3-1.6c1.4-1.1,2.2-2.6,2.2-4.7c0-2.1-0.7-3.7-2.2-4.8
	c-1.5-1.1-3.6-1.7-6.4-1.7c-1.5,0-3.1,0.2-4.9,0.5c-1.7,0.3-3.6,0.8-5.7,1.5v-4.9c2.1-0.6,4.1-1,5.9-1.3c1.8-0.3,3.6-0.4,5.2-0.4
	c4.2,0,7.5,1,10,2.9c2.5,1.9,3.7,4.5,3.7,7.7c0,2.3-0.6,4.2-1.9,5.7C338.4,339.7,336.6,340.7,334.2,341.3L334.2,341.3z"/>
<path id="text4517" class="st0" d="M184.4,358.7h9v-31.2l-9.8,2v-5l9.8-2h5.5v36.2h9v4.7h-23.5V358.7z M223.9,358.7h19.3v4.7h-26
	v-4.7c2.1-2.2,5-5.1,8.6-8.7c3.6-3.7,5.9-6,6.8-7.1c1.8-2,3-3.7,3.7-5c0.7-1.4,1.1-2.7,1.1-4.1c0-2.2-0.8-3.9-2.3-5.3
	c-1.5-1.4-3.5-2.1-6-2.1c-1.7,0-3.6,0.3-5.5,0.9c-1.9,0.6-4,1.5-6.2,2.7v-5.6c2.2-0.9,4.3-1.6,6.2-2c1.9-0.5,3.7-0.7,5.3-0.7
	c4.2,0,7.6,1.1,10.1,3.2c2.5,2.1,3.8,4.9,3.8,8.5c0,1.7-0.3,3.3-0.9,4.8c-0.6,1.5-1.8,3.3-3.4,5.3c-0.5,0.5-1.9,2.1-4.4,4.6
	C231.8,350.7,228.3,354.2,223.9,358.7L223.9,358.7z"/>
<path id="text4521" class="st0" d="M85.3,358.7h9v-31.2l-9.8,2v-5l9.8-2h5.5v36.2h9v4.7H85.3V358.7z M121,358.7h9v-31.2l-9.8,2v-5
	l9.8-2h5.5v36.2h9v4.7H121V358.7L121,358.7z"/>
<path id="text4501" class="st0" d="M573.5,356.8h9v-31.2l-9.8,2v-5l9.8-2h5.5v36.2h9v4.7h-23.5V356.8L573.5,356.8z M620.8,338.8
	c-2.5,0-4.4,0.8-5.9,2.6c-1.4,1.7-2.2,4-2.2,7c0,2.9,0.7,5.3,2.2,7c1.4,1.7,3.4,2.6,5.9,2.6c2.5,0,4.5-0.9,5.9-2.6
	c1.4-1.7,2.2-4,2.2-7c0-3-0.7-5.3-2.2-7C625.2,339.7,623.2,338.8,620.8,338.8z M631.7,321.5v5c-1.4-0.7-2.8-1.2-4.2-1.5
	c-1.4-0.3-2.8-0.5-4.2-0.5c-3.7,0-6.4,1.2-8.4,3.7c-1.9,2.5-3,6.2-3.3,11.2c1.1-1.6,2.4-2.8,4-3.7c1.6-0.8,3.4-1.3,5.4-1.3
	c4.1,0,7.4,1.2,9.7,3.7c2.4,2.5,3.6,5.9,3.6,10.2c0,4.2-1.2,7.6-3.7,10.1c-2.5,2.5-5.8,3.8-9.9,3.8c-4.7,0-8.3-1.8-10.8-5.4
	c-2.5-3.6-3.8-8.9-3.8-15.7c0-6.5,1.5-11.6,4.6-15.5c3.1-3.8,7.2-5.8,12.3-5.8c1.4,0,2.8,0.1,4.2,0.4
	C628.7,320.6,630.2,321,631.7,321.5L631.7,321.5z"/>
<path id="text4497" class="st0" d="M670.1,359.1h9v-31.2l-9.8,2v-5l9.8-2h5.5v36.2h9v4.7h-23.5V359.1L670.1,359.1z M703.5,322.9
	h26.3v2.4l-14.8,38.5h-5.8l14-36.2h-19.6V322.9L703.5,322.9z"/>
<path id="text4469" class="st0" d="M674.8,433.2H694v4.7h-25.9v-4.7c2.1-2.2,5-5.1,8.6-8.7c3.6-3.7,5.9-6,6.8-7.1c1.8-2,3-3.7,3.7-5
	c0.7-1.4,1.1-2.7,1.1-4.1c0-2.2-0.8-3.9-2.3-5.3c-1.5-1.4-3.5-2.1-6-2.1c-1.7,0-3.6,0.3-5.5,0.9c-1.9,0.6-4,1.5-6.2,2.7V399
	c2.2-0.9,4.3-1.6,6.2-2c1.9-0.5,3.7-0.7,5.3-0.7c4.2,0,7.6,1.1,10.1,3.2c2.5,2.1,3.8,4.9,3.8,8.5c0,1.7-0.3,3.3-0.9,4.8
	s-1.8,3.3-3.4,5.3c-0.5,0.5-1.9,2.1-4.4,4.6C682.7,425.2,679.2,428.7,674.8,433.2L674.8,433.2z M720.9,401.8l-14,21.8h14V401.8z
	 M719.4,397h7v26.6h5.8v4.6h-5.8v9.6h-5.5v-9.6h-18.5v-5.3L719.4,397z"/>
<path id="text4473" class="st0" d="M579,433.2h19.3v4.7h-25.9v-4.7c2.1-2.2,4.9-5.1,8.6-8.7c3.6-3.7,5.9-6,6.8-7.1
	c1.8-2,3-3.7,3.7-5c0.7-1.4,1-2.7,1-4.1c0-2.2-0.8-3.9-2.3-5.3c-1.5-1.4-3.5-2.1-6-2.1c-1.7,0-3.6,0.3-5.5,0.9
	c-1.9,0.6-4,1.5-6.2,2.7V399c2.2-0.9,4.3-1.6,6.2-2c1.9-0.5,3.7-0.7,5.3-0.7c4.2,0,7.6,1.1,10.1,3.2c2.5,2.1,3.8,4.9,3.8,8.5
	c0,1.7-0.3,3.3-0.9,4.8s-1.8,3.3-3.4,5.3c-0.4,0.5-1.9,2.1-4.3,4.6C586.9,425.2,583.4,428.7,579,433.2L579,433.2z M626.6,415.8
	c2.7,0.6,4.7,1.8,6.2,3.5c1.5,1.8,2.2,4,2.2,6.6c0,4-1.4,7.2-4.2,9.4c-2.8,2.2-6.7,3.3-11.8,3.3c-1.7,0-3.5-0.2-5.3-0.5
	c-1.8-0.3-3.7-0.8-5.6-1.5v-5.3c1.5,0.9,3.2,1.6,5,2c1.8,0.5,3.7,0.7,5.7,0.7c3.5,0,6.1-0.7,7.9-2.1c1.8-1.4,2.7-3.4,2.7-6
	c0-2.4-0.8-4.3-2.5-5.7c-1.7-1.4-4-2-7.1-2h-4.8v-4.5h5c2.7,0,4.8-0.5,6.2-1.6c1.4-1.1,2.2-2.6,2.2-4.7c0-2.1-0.7-3.7-2.2-4.8
	c-1.5-1.1-3.6-1.7-6.4-1.7c-1.5,0-3.1,0.2-4.9,0.5c-1.7,0.3-3.6,0.8-5.7,1.5V398c2.1-0.6,4.1-1,5.9-1.3s3.6-0.4,5.2-0.4
	c4.2,0,7.5,1,10,2.9c2.4,1.9,3.7,4.5,3.7,7.7c0,2.3-0.6,4.2-1.9,5.7C630.9,414.2,629,415.2,626.6,415.8L626.6,415.8z"/>
<path id="text4465" class="st0" d="M87.3,507.7h19.3v4.7h-26v-4.7c2.1-2.2,5-5.1,8.6-8.7c3.6-3.7,5.9-6,6.8-7.1c1.8-2,3-3.7,3.7-5
	c0.7-1.4,1.1-2.7,1.1-4.1c0-2.2-0.8-3.9-2.3-5.3c-1.5-1.4-3.5-2.1-6-2.1c-1.7,0-3.6,0.3-5.5,0.9c-1.9,0.6-4,1.5-6.2,2.7v-5.6
	c2.2-0.9,4.3-1.6,6.2-2c1.9-0.5,3.7-0.7,5.3-0.7c4.2,0,7.6,1.1,10.1,3.2c2.5,2.1,3.8,4.9,3.8,8.5c0,1.7-0.3,3.3-0.9,4.8
	c-0.6,1.5-1.8,3.3-3.4,5.3c-0.5,0.5-1.9,2.1-4.4,4.6C95.2,499.7,91.8,503.2,87.3,507.7L87.3,507.7z M118.3,471.5H140v4.6h-16.6v10
	c0.8-0.3,1.6-0.5,2.4-0.6c0.8-0.1,1.6-0.2,2.4-0.2c4.6,0,8.2,1.2,10.8,3.7c2.7,2.5,4,5.9,4,10.2c0,4.4-1.4,7.8-4.1,10.3
	c-2.7,2.4-6.6,3.7-11.6,3.7c-1.7,0-3.5-0.1-5.2-0.4c-1.8-0.3-3.6-0.7-5.5-1.3v-5.6c1.6,0.9,3.3,1.6,5.1,2c1.7,0.4,3.6,0.6,5.6,0.6
	c3.2,0,5.7-0.8,7.5-2.5c1.8-1.7,2.8-3.9,2.8-6.8c0-2.8-0.9-5.1-2.8-6.8c-1.9-1.7-4.3-2.5-7.5-2.5c-1.5,0-3,0.2-4.4,0.5
	c-1.5,0.3-3,0.8-4.5,1.5V471.5L118.3,471.5z"/>
<path id="text4569" class="st0" d="M687.9,490c2.6,0.6,4.7,1.7,6.2,3.5c1.5,1.8,2.2,4,2.2,6.6c0,4-1.4,7.2-4.2,9.4
	c-2.8,2.2-6.7,3.3-11.8,3.3c-1.7,0-3.5-0.2-5.3-0.5c-1.8-0.3-3.7-0.8-5.6-1.5v-5.3c1.5,0.9,3.2,1.6,5,2c1.8,0.4,3.7,0.7,5.7,0.7
	c3.5,0,6.1-0.7,7.9-2.1c1.8-1.4,2.7-3.4,2.7-6c0-2.4-0.8-4.3-2.5-5.7c-1.7-1.4-4-2-7-2h-4.8v-4.5h5c2.7,0,4.8-0.5,6.2-1.6
	c1.4-1.1,2.2-2.6,2.2-4.7c0-2.1-0.7-3.7-2.2-4.8c-1.5-1.1-3.6-1.7-6.4-1.7c-1.5,0-3.1,0.2-4.9,0.5c-1.7,0.3-3.6,0.8-5.7,1.5v-4.9
	c2.1-0.6,4.1-1,5.9-1.3c1.8-0.3,3.6-0.4,5.2-0.4c4.2,0,7.5,1,10,2.9c2.4,1.9,3.7,4.5,3.7,7.7c0,2.3-0.6,4.2-2,5.7
	C692.1,488.3,690.3,489.4,687.9,490L687.9,490z M707.8,507.3h9v-31.2l-9.8,2v-5l9.8-2h5.5v36.2h9v4.6h-23.5V507.3L707.8,507.3z"/>
<g>
	<path class="st0" d="M287.4,75h8l10,30.1L315.5,75h8l7.2,43.1h-7.9l-4.6-27.2l-9.2,27.2h-7.2l-9.1-27.2l-4.7,27.2h-8L287.4,75z"/>
	<path class="st0" d="M350.4,75h8.3l16.6,43.1h-8.5l-3.4-8.9h-17.6l-3.5,8.9h-8.5L350.4,75z M354.6,86.4l-5.8,14.8h11.5L354.6,86.4z
		"/>
	<path class="st0" d="M378.6,75h8.8l8,15.5l8-15.5h8.7l-12.6,24.4v18.7h-8.3V99.4L378.6,75z"/>
	<path class="st0" d="M441.2,88.9h-8c0.2-4.6,1.7-8.3,4.4-11c2.7-2.7,6.2-4,10.4-4c2.6,0,4.9,0.6,6.9,1.7c2,1.1,3.6,2.7,4.8,4.8
		c1.2,2.1,1.8,4.2,1.8,6.3c0,2.6-0.7,5.3-2.2,8.3c-1.5,2.9-4.1,6.4-8,10.5l-4.8,5.1h15.4v7.6H432v-3.9l13.3-13.6
		c3.2-3.3,5.4-5.9,6.4-7.9c1.1-2,1.6-3.8,1.6-5.4c0-1.7-0.6-3-1.7-4.1s-2.5-1.6-4.3-1.6c-1.8,0-3.2,0.7-4.4,2
		C441.9,84.9,441.3,86.6,441.2,88.9z"/>
	<path class="st0" d="M481,73.9c3.1,0,5.9,0.8,8.1,2.3c2.3,1.5,4,3.9,5.3,7.1c1.2,3.2,1.9,7.6,1.9,13.3c0,5.7-0.6,10.2-1.9,13.4
		c-1.3,3.2-3,5.5-5.1,7c-2.1,1.5-4.8,2.2-8.1,2.2c-3.2,0-6-0.8-8.2-2.3c-2.2-1.5-3.9-3.8-5.2-6.9c-1.3-3.1-1.9-7.4-1.9-13.1
		c0-7.9,1.2-13.6,3.7-17.2C472.4,75.9,476.1,73.9,481,73.9z M481.2,81.7c-1.4,0-2.6,0.4-3.7,1.3c-1.1,0.9-1.9,2.4-2.5,4.6
		c-0.6,2.2-0.8,5.3-0.8,9.5c0,5.4,0.6,9.2,1.9,11.3c1.3,2.1,3,3.1,5,3.1c2,0,3.6-1,4.7-3c1.4-2.4,2.1-6.4,2.1-12
		c0-5.7-0.6-9.6-1.9-11.7C484.9,82.8,483.2,81.7,481.2,81.7z"/>
	<path class="st0" d="M507.8,75h12.3v43.1h-8.1V82.7H503L507.8,75z"/>
	<path class="st0" d="M551.4,73.9h8.2v27.7h3.8v7.6h-3.8v8.8h-8v-8.8h-18.8v-7.6L551.4,73.9z M551.6,101.6V87.2l-9.8,14.4H551.6z"/>
</g>
<g>
	<path class="st0" d="M621.4,500.3c1.2,0.5,1.9,1.6,1.9,2.8v34.5c0,1.2-0.8,2.3-1.9,2.8c-0.4,0.2-0.8,0.2-1.2,0.2
		c-0.8,0-1.6-0.3-2.2-0.9l-11.8-11.4l-11.8,11.4c-0.6,0.6-1.4,0.9-2.2,0.9c-0.4,0-0.8-0.1-1.2-0.2c-1.2-0.5-1.9-1.6-1.9-2.8V503
		c0-1.2,0.8-2.3,1.9-2.8c0.4-0.2,0.8-0.2,1.2-0.2c0.8,0,27.2,0,28.1,0C620.6,500,621,500.1,621.4,500.3z"/>
</g>
<g>
	<path class="st3" d="M630.3,494.4c0.6,0.6,0.9,1.5,0.7,2.3c-0.2,0.8-0.9,1.5-1.7,1.7l-6.3,1.6l1.8,6.2c0.2,0.8,0,1.7-0.6,2.3
		c-0.6,0.6-1.5,0.9-2.3,0.6l-6.2-1.8l-1.6,6.3c-0.2,0.8-0.9,1.5-1.7,1.7c-0.2,0-0.4,0.1-0.6,0.1c-0.6,0-1.3-0.3-1.7-0.7l-4.5-4.6
		l-4.5,4.6c-0.6,0.6-1.5,0.9-2.3,0.7c-0.9-0.2-1.5-0.9-1.7-1.7l-1.6-6.3l-6.2,1.8c-0.8,0.2-1.7,0-2.3-0.6c-0.6-0.6-0.9-1.5-0.6-2.3
		l1.8-6.2l-6.3-1.6c-0.8-0.2-1.5-0.9-1.7-1.7c-0.2-0.8,0-1.7,0.7-2.3l4.6-4.5l-4.6-4.5c-0.6-0.6-0.9-1.5-0.7-2.3
		c0.2-0.8,0.9-1.5,1.7-1.7l6.3-1.6l-1.8-6.2c-0.2-0.8,0-1.7,0.6-2.3c0.6-0.6,1.5-0.9,2.3-0.6l6.2,1.8l1.6-6.3
		c0.2-0.8,0.9-1.5,1.7-1.7c0.8-0.2,1.7,0,2.3,0.6l4.5,4.7l4.5-4.7c0.6-0.6,1.5-0.9,2.3-0.6c0.8,0.2,1.5,0.9,1.7,1.7l1.6,6.3l6.2-1.8
		c0.8-0.2,1.7,0,2.3,0.6c0.6,0.6,0.9,1.5,0.6,2.3l-1.8,6.2l6.3,1.6c0.8,0.2,1.5,0.9,1.7,1.7c0.2,0.8,0,1.7-0.7,2.3l-4.6,4.5
		L630.3,494.4z"/>
</g>
<polygon class="st0" points="396.7,369.1 380.9,353.3 380.9,331 396.7,315.1 419.1,315.1 434.9,331 434.9,353.3 419.1,369.1 "/>
<g>
	<path class="st5" d="M394.2,336.6l-2.1,1.8c-0.7-1-1.5-1.5-2.2-1.5c-0.4,0-0.7,0.1-0.9,0.3c-0.2,0.2-0.3,0.4-0.3,0.7
		c0,0.2,0.1,0.5,0.2,0.7c0.2,0.3,0.9,0.9,2,1.9c1.1,0.9,1.7,1.4,1.9,1.7c0.6,0.6,1,1.1,1.2,1.6c0.2,0.5,0.4,1.1,0.4,1.7
		c0,1.2-0.4,2.2-1.2,3c-0.8,0.8-1.9,1.2-3.2,1.2c-1,0-1.9-0.3-2.7-0.8c-0.8-0.5-1.4-1.3-2-2.4l2.3-1.4c0.7,1.3,1.5,1.9,2.4,1.9
		c0.5,0,0.9-0.1,1.2-0.4c0.3-0.3,0.5-0.6,0.5-1c0-0.3-0.1-0.7-0.4-1c-0.2-0.3-0.8-0.8-1.6-1.5c-1.6-1.3-2.6-2.3-3.1-3
		c-0.5-0.7-0.7-1.4-0.7-2.1c0-1,0.4-1.9,1.2-2.6c0.8-0.7,1.7-1.1,2.8-1.1c0.7,0,1.4,0.2,2.1,0.5
		C392.8,335.1,393.5,335.7,394.2,336.6z"/>
	<path class="st5" d="M395.7,334.6h8v2.7h-2.6v11.8h-2.8v-11.8h-2.6V334.6z"/>
	<path class="st5" d="M412.5,334.2c2.1,0,3.8,0.7,5.3,2.2c1.5,1.5,2.2,3.3,2.2,5.4c0,2.1-0.7,3.9-2.2,5.4c-1.5,1.5-3.2,2.2-5.3,2.2
		c-2.2,0-4-0.8-5.4-2.3c-1.4-1.5-2.2-3.3-2.2-5.4c0-1.4,0.3-2.7,1-3.8c0.7-1.2,1.6-2.1,2.8-2.8C409.9,334.6,411.1,334.2,412.5,334.2
		z M412.5,336.9c-1.3,0-2.5,0.5-3.4,1.4c-0.9,0.9-1.4,2.1-1.4,3.6c0,1.6,0.6,2.9,1.7,3.8c0.9,0.7,1.9,1.1,3.1,1.1
		c1.3,0,2.4-0.5,3.4-1.4s1.4-2.1,1.4-3.5c0-1.4-0.5-2.6-1.4-3.5C414.9,337.4,413.8,336.9,412.5,336.9z"/>
	<path class="st5" d="M422.6,334.6h2.9c1.6,0,2.7,0.1,3.4,0.4c0.7,0.3,1.3,0.8,1.7,1.4c0.4,0.7,0.6,1.4,0.6,2.4c0,1-0.3,1.9-0.8,2.5
		c-0.5,0.7-1.3,1.1-2.2,1.4c-0.5,0.2-1.5,0.2-2.9,0.2v6.2h-2.8V334.6z M425.4,340.3h0.9c0.7,0,1.2,0,1.4-0.1
		c0.3-0.1,0.5-0.3,0.6-0.5c0.2-0.2,0.2-0.5,0.2-0.8c0-0.6-0.2-1-0.7-1.2c-0.3-0.2-0.9-0.3-1.8-0.3h-0.8V340.3z"/>
</g>
<g>
	<path class="st0" d="M537,440.9l-3.6,3.6c-0.8,0.8-1.9,1.2-3,1.2c-1.1,0-2.2-0.5-3-1.2l-12.2-12.2c-0.8-0.8-1.3-1.9-1.3-3
		c0-1.3,0.5-2.3,1.4-3.2l-8.6-8.6l-4.2,4.2c-0.3,0.3-0.7,0.5-1.1,0.5c-0.4,0-0.8-0.2-1.1-0.5c1,1,1.9,1.7,1.9,3.3
		c0,0.9-0.3,1.6-0.9,2.3c-1.1,1.2-2.3,2.8-4.2,2.8c-0.8,0-1.7-0.3-2.3-0.9l-13.7-13.7c-0.6-0.6-0.9-1.4-0.9-2.3c0-1.8,1.6-3,2.8-4.2
		c0.6-0.6,1.4-0.9,2.3-0.9c1.5,0,2.3,0.9,3.3,1.9c-0.3-0.3-0.5-0.7-0.5-1.1c0-0.4,0.2-0.8,0.5-1.1l11.7-11.7
		c0.3-0.3,0.7-0.5,1.1-0.5c0.4,0,0.8,0.2,1.1,0.5c-1-1-1.9-1.7-1.9-3.3c0-0.9,0.3-1.6,0.9-2.3c1.1-1.2,2.3-2.8,4.2-2.8
		c0.8,0,1.7,0.3,2.3,0.9l13.7,13.7c0.6,0.6,0.9,1.4,0.9,2.3c0,1.8-1.6,3-2.8,4.2c-0.6,0.6-1.4,0.9-2.3,0.9c-1.5,0-2.3-0.9-3.3-1.9
		c0.3,0.3,0.5,0.7,0.5,1.1c0,0.4-0.2,0.8-0.5,1.1l-4.2,4.2l8.6,8.6c0.9-0.9,1.9-1.4,3.2-1.4c1.1,0,2.2,0.5,3,1.2l12.2,12.2
		c0.8,0.8,1.2,1.9,1.2,3C538.2,439,537.7,440.1,537,440.9z"/>
</g>
<g>
	<path class="st0" d="M138.7,440.9l-3.6,3.6c-0.8,0.8-1.9,1.2-3,1.2c-1.1,0-2.2-0.5-3-1.2l-12.2-12.2c-0.8-0.8-1.3-1.9-1.3-3
		c0-1.3,0.5-2.3,1.4-3.2l-8.6-8.6l-4.2,4.2c-0.3,0.3-0.7,0.5-1.1,0.5c-0.4,0-0.8-0.2-1.1-0.5c1,1,1.9,1.7,1.9,3.3
		c0,0.9-0.3,1.6-0.9,2.3c-1.1,1.2-2.3,2.8-4.2,2.8c-0.8,0-1.7-0.3-2.3-0.9l-13.7-13.7c-0.6-0.6-0.9-1.4-0.9-2.3c0-1.8,1.6-3,2.8-4.2
		c0.6-0.6,1.4-0.9,2.3-0.9c1.5,0,2.3,0.9,3.3,1.9c-0.3-0.3-0.5-0.7-0.5-1.1c0-0.4,0.2-0.8,0.5-1.1l11.7-11.7
		c0.3-0.3,0.7-0.5,1.1-0.5c0.4,0,0.8,0.2,1.1,0.5c-1-1-1.9-1.7-1.9-3.3c0-0.9,0.3-1.6,0.9-2.3c1.1-1.2,2.3-2.8,4.2-2.8
		c0.8,0,1.7,0.3,2.3,0.9l13.7,13.7c0.6,0.6,0.9,1.4,0.9,2.3c0,1.8-1.6,3-2.8,4.2c-0.6,0.6-1.4,0.9-2.3,0.9c-1.5,0-2.3-0.9-3.3-1.9
		c0.3,0.3,0.5,0.7,0.5,1.1c0,0.4-0.2,0.8-0.5,1.1l-4.2,4.2l8.6,8.6c0.9-0.9,1.9-1.4,3.2-1.4c1.1,0,2.2,0.5,3,1.2l12.2,12.2
		c0.8,0.8,1.2,1.9,1.2,3S139.5,440.1,138.7,440.9z"/>
</g>
<g>
	<g>
		<line class="st6" x1="194.1" y1="417.5" x2="422.4" y2="417.5"/>
		<g>
			<polygon class="st0" points="201.1,426.7 197.2,417.5 201.1,408.2 179.2,417.5 			"/>
		</g>
		<g>
			<polygon class="st0" points="415.4,426.7 419.3,417.5 415.4,408.2 437.4,417.5 			"/>
		</g>
	</g>
</g>
<g>
	<g>
		<path class="st0" d="M230.6,507.4c0,1.9-1.6,3.5-3.5,3.5h-34.6c-1.9,0-3.5-1.6-3.5-3.5v-26.3c0-1.9,1.6-3.5,3.5-3.5h34.6
			c1.9,0,3.5,1.6,3.5,3.5V507.4z M192.6,480.5c-0.4,0-0.7,0.3-0.7,0.7v26.3c0,0.4,0.3,0.7,0.7,0.7h34.6c0.4,0,0.7-0.3,0.7-0.7v-26.3
			c0-0.4-0.3-0.7-0.7-0.7H192.6z M198.8,491.5c-2.3,0-4.1-1.9-4.1-4.1s1.9-4.1,4.1-4.1s4.1,1.9,4.1,4.1S201.1,491.5,198.8,491.5z
			 M225.1,505.4h-30.4v-4.1l6.9-6.9l3.5,3.5l11.1-11.1l9,9V505.4z"/>
	</g>
	<rect x="183.8" y="472.2" class="st2" width="52" height="43.7"/>
	<polyline class="st1" points="220.6,471.3 211.1,461.9 209.6,461.9 200.2,471.3 	"/>
</g>
<g>
	<g>
		<path class="st0" d="M328.4,507.4c0,1.9-1.6,3.5-3.5,3.5h-34.6c-1.9,0-3.5-1.6-3.5-3.5v-26.3c0-1.9,1.6-3.5,3.5-3.5H325
			c1.9,0,3.5,1.6,3.5,3.5V507.4z M290.4,480.5c-0.4,0-0.7,0.3-0.7,0.7v26.3c0,0.4,0.3,0.7,0.7,0.7H325c0.4,0,0.7-0.3,0.7-0.7v-26.3
			c0-0.4-0.3-0.7-0.7-0.7H290.4z M296.6,491.5c-2.3,0-4.1-1.9-4.1-4.1s1.9-4.1,4.1-4.1c2.3,0,4.1,1.9,4.1,4.1
			S298.9,491.5,296.6,491.5z M322.9,505.4h-30.4v-4.1l6.9-6.9l3.5,3.5l11.1-11.1l9,9V505.4z"/>
	</g>
	<rect x="281.6" y="472.2" class="st2" width="52" height="43.7"/>
	<polyline class="st1" points="318.5,471.3 309,461.9 307.5,461.9 298,471.3 	"/>
</g>
<g>
	<g>
		<path class="st0" d="M427.5,507.4c0,1.9-1.6,3.5-3.5,3.5h-34.6c-1.9,0-3.5-1.6-3.5-3.5v-26.3c0-1.9,1.6-3.5,3.5-3.5h34.6
			c1.9,0,3.5,1.6,3.5,3.5V507.4z M389.5,480.5c-0.4,0-0.7,0.3-0.7,0.7v26.3c0,0.4,0.3,0.7,0.7,0.7h34.6c0.4,0,0.7-0.3,0.7-0.7v-26.3
			c0-0.4-0.3-0.7-0.7-0.7H389.5z M395.7,491.5c-2.3,0-4.1-1.9-4.1-4.1s1.9-4.1,4.1-4.1c2.3,0,4.1,1.9,4.1,4.1S398,491.5,395.7,491.5
			z M422,505.4h-30.4v-4.1l6.9-6.9l3.5,3.5l11.1-11.1l9,9V505.4z"/>
	</g>
	<rect x="380.7" y="472.2" class="st2" width="52" height="43.7"/>
	<polyline class="st1" points="417.5,471.3 408,461.9 406.5,461.9 397.1,471.3 	"/>
</g>
<g>
	<g>
		<path class="st0" d="M526.7,507.4c0,1.9-1.6,3.5-3.5,3.5h-34.6c-1.9,0-3.5-1.6-3.5-3.5v-26.3c0-1.9,1.6-3.5,3.5-3.5h34.6
			c1.9,0,3.5,1.6,3.5,3.5V507.4z M488.7,480.5c-0.4,0-0.7,0.3-0.7,0.7v26.3c0,0.4,0.3,0.7,0.7,0.7h34.6c0.4,0,0.7-0.3,0.7-0.7v-26.3
			c0-0.4-0.3-0.7-0.7-0.7H488.7z M494.9,491.5c-2.3,0-4.1-1.9-4.1-4.1s1.9-4.1,4.1-4.1s4.1,1.9,4.1,4.1S497.2,491.5,494.9,491.5z
			 M521.2,505.4h-30.4v-4.1l6.9-6.9l3.5,3.5l11.1-11.1l9,9V505.4z"/>
	</g>
	<rect x="479.9" y="472.2" class="st2" width="52" height="43.7"/>
	<polyline class="st1" points="516.7,471.3 507.3,461.9 505.8,461.9 496.3,471.3 	"/>
</g>
</svg>
