<?xml version="1.0" encoding="utf-8"?>
<!-- Generator: Adobe Illustrator 15.0.0, SVG Export Plug-In . SVG Version: 6.00 Build 0)  -->
<!DOCTYPE svg PUBLIC "-//W3C//DTD SVG 1.1//EN" "http://www.w3.org/Graphics/SVG/1.1/DTD/svg11.dtd">
<svg version="1.1"
	 id="svg2" sodipodi:docname="bird-DSC03403-c-drawing.svg" inkscape:version="0.45.1" xmlns:dc="http://purl.org/dc/elements/1.1/" xmlns:cc="http://web.resource.org/cc/" xmlns:rdf="http://www.w3.org/1999/02/22-rdf-syntax-ns#" xmlns:svg="http://www.w3.org/2000/svg" xmlns:sodipodi="http://sodipodi.sourceforge.net/DTD/sodipodi-0.dtd" xmlns:inkscape="http://www.inkscape.org/namespaces/inkscape" inkscape:output_extension="org.inkscape.output.svg.inkscape" sodipodi:version="0.32" sodipodi:docbase="C:\Documents and Settings\Nevit\Belgelerim\Resimlerim"
	 xmlns="http://www.w3.org/2000/svg" xmlns:xlink="http://www.w3.org/1999/xlink" x="0px" y="0px" width="358.709px"
	 height="388.777px" viewBox="0 0 358.709 388.777" enable-background="new 0 0 358.709 388.777" xml:space="preserve">
<sodipodi:namedview  id="base" inkscape:cy="190.83278" inkscape:cx="179.35434" inkscape:zoom="0.96970763" borderopacity="1.0" bordercolor="#666666" pagecolor="#ffffff" inkscape:window-y="58" inkscape:window-x="44" inkscape:window-height="573" inkscape:window-width="760" inkscape:current-layer="layer1" inkscape:document-units="px" inkscape:pageshadow="2" inkscape:pageopacity="0.0" objecttolerance="10" guidetolerance="10" gridtolerance="10000">
	</sodipodi:namedview>
<g id="layer1" transform="translate(-213.92923,-287.95826)" inkscape:label="Layer 1" inkscape:groupmode="layer">
	<path id="path2170" sodipodi:nodetypes="cssssssssssssssssssssssssssssscccsssssssssssc" fill="#FFFFFF" d="M224.756,673.523
		c-10.05-4.055-13.732-9.854-8.363-13.172c3.071-1.898,3.07-3.235-0.002-5.134c-6.209-3.838,23.529-33.419,37.675-37.476
		c6.522-1.87,18.026-3.4,25.565-3.4c15.84,0,46.837-6.17,54.309-10.81c4.311-2.677,4.23-4.436-0.516-11.211
		c-3.096-4.42-4.758-11.365-3.694-15.435s0.259-11.033-1.789-15.475c-2.048-4.441-7.202-15.563-11.452-24.714
		c-8.55-18.406-17.067-60.85-13.4-66.783c1.289-2.084,0.782-5.796-1.125-8.249s-2.792-13.61-1.969-24.795
		c0.824-11.185,1.527-25.742,1.563-32.352c0.035-6.608,1.686-12.016,3.667-12.016c2.116,0,2.598-5.354,1.167-12.981
		c-1.504-8.017-0.766-14.992,1.929-18.239c3.406-4.104,3.023-7.305-1.749-14.586c-7.027-10.726-4.692-17.048,6.298-17.048
		c6.493,0,7.31-1.642,5.449-10.948c-3.483-17.418,2.572-16.021,17.556,4.05c14.956,20.032,21.165,22.009,11.712,3.729
		c-7.132-13.792-7.194-15.316-0.624-15.316c2.857,0,9.582,7.486,14.945,16.638c5.363,9.15,10.29,16.638,10.948,16.638
		c0.659,0-1.163-10.219-4.048-22.708c-9.676-41.882-4.326-45.544,10.038-6.87c7.175,19.318,14.214,34.292,15.643,33.275
		c4.816-3.429,13.553,13.691,21.188,41.521c4.174,15.215,10.705,34.142,14.515,42.061s12.307,34.779,18.884,59.689l11.957,45.292
		h12.283c6.757,0,20.686-1.802,30.952-4.004c15-3.217,21.755-2.903,34.382,1.593c8.644,3.077,20.358,6.592,26.033,7.81
		c11.796,2.53,10.046,9.391-2.396,9.391c-4.553,0-21.856,6.655-38.451,14.789c-16.595,8.135-31.519,14.79-33.165,14.79
		s-11.282,6.863-21.412,15.251c-10.131,8.389-27.391,19.51-38.354,24.714s-20.686,12.333-21.604,15.842
		c-2.104,8.046-31.483,11.067-58.682,6.035c-18.303-3.387-20.04-2.916-56.821,15.397
		C256.301,676.974,241.431,680.251,224.756,673.523z"/>
</g>
</svg>
