<?xml version="1.0" encoding="utf-8"?>
<!-- Generator: Adobe Illustrator 15.0.0, SVG Export Plug-In . SVG Version: 6.00 Build 0)  -->
<!DOCTYPE svg PUBLIC "-//W3C//DTD SVG 1.1//EN" "http://www.w3.org/Graphics/SVG/1.1/DTD/svg11.dtd">
<svg version="1.1" id="Layer_1" xmlns="http://www.w3.org/2000/svg" xmlns:xlink="http://www.w3.org/1999/xlink" x="0px" y="0px"
	 width="600px" height="100px" viewBox="0 0 600 100" enable-background="new 0 0 600 100" xml:space="preserve">
<g>
	<path fill="#FFFFFF" d="M77.883,80.375c0,3.438-2.813,6.25-6.25,6.25h-62.5c-3.438,0-6.25-2.813-6.25-6.25v-47.5
		c0-3.438,2.813-6.25,6.25-6.25h62.5c3.438,0,6.25,2.813,6.25,6.25V80.375z M9.133,31.625c-0.664,0-1.25,0.586-1.25,1.25v47.5
		c0,0.664,0.586,1.25,1.25,1.25h62.5c0.664,0,1.25-0.586,1.25-1.25v-47.5c0-0.664-0.586-1.25-1.25-1.25H9.133z M20.383,51.625
		c-4.141,0-7.5-3.359-7.5-7.5s3.359-7.5,7.5-7.5s7.5,3.359,7.5,7.5S24.523,51.625,20.383,51.625z M67.883,76.625h-55v-7.5l12.5-12.5
		l6.25,6.25l20-20l16.25,16.25V76.625z"/>
</g>
<g>
	<path fill="#FFFFFF" d="M480.172,80.376c0,3.438-2.813,6.25-6.25,6.25h-62.5c-3.438,0-6.25-2.813-6.25-6.25v-47.5
		c0-3.438,2.813-6.25,6.25-6.25h62.5c3.438,0,6.25,2.813,6.25,6.25V80.376z M411.422,31.626c-0.664,0-1.25,0.586-1.25,1.25v47.5
		c0,0.664,0.586,1.25,1.25,1.25h62.5c0.664,0,1.25-0.586,1.25-1.25v-47.5c0-0.664-0.586-1.25-1.25-1.25H411.422z M422.672,51.626
		c-4.141,0-7.5-3.359-7.5-7.5s3.359-7.5,7.5-7.5s7.5,3.359,7.5,7.5S426.813,51.626,422.672,51.626z M470.172,76.626h-55v-7.5
		l12.5-12.5l6.25,6.25l20-20l16.25,16.25V76.626z"/>
</g>
<g>
	<path fill="#FFFFFF" d="M279.027,80.375c0,3.438-2.813,6.25-6.25,6.25h-62.5c-3.438,0-6.25-2.813-6.25-6.25v-47.5
		c0-3.438,2.813-6.25,6.25-6.25h62.5c3.438,0,6.25,2.813,6.25,6.25V80.375z M210.277,31.625c-0.664,0-1.25,0.586-1.25,1.25v47.5
		c0,0.664,0.586,1.25,1.25,1.25h62.5c0.664,0,1.25-0.586,1.25-1.25v-47.5c0-0.664-0.586-1.25-1.25-1.25H210.277z M221.527,51.625
		c-4.141,0-7.5-3.359-7.5-7.5s3.359-7.5,7.5-7.5s7.5,3.359,7.5,7.5S225.668,51.625,221.527,51.625z M269.027,76.625h-55v-7.5
		l12.5-12.5l6.25,6.25l20-20l16.25,16.25V76.625z"/>
</g>
<g>
	<path fill="#FFFFFF" d="M379.6,80.375c0,3.438-2.813,6.25-6.25,6.25h-62.5c-3.438,0-6.25-2.813-6.25-6.25v-47.5
		c0-3.438,2.813-6.25,6.25-6.25h62.5c3.438,0,6.25,2.813,6.25,6.25V80.375z M310.85,31.625c-0.664,0-1.25,0.586-1.25,1.25v47.5
		c0,0.664,0.586,1.25,1.25,1.25h62.5c0.664,0,1.25-0.586,1.25-1.25v-47.5c0-0.664-0.586-1.25-1.25-1.25H310.85z M322.1,51.625
		c-4.141,0-7.5-3.359-7.5-7.5s3.359-7.5,7.5-7.5s7.5,3.359,7.5,7.5S326.24,51.625,322.1,51.625z M369.6,76.625h-55v-7.5l12.5-12.5
		l6.25,6.25l20-20l16.25,16.25V76.625z"/>
</g>
<g>
	<path fill="#FFFFFF" d="M178.455,80.375c0,3.438-2.813,6.25-6.25,6.25h-62.5c-3.438,0-6.25-2.813-6.25-6.25v-47.5
		c0-3.438,2.813-6.25,6.25-6.25h62.5c3.438,0,6.25,2.813,6.25,6.25V80.375z M109.705,31.625c-0.664,0-1.25,0.586-1.25,1.25v47.5
		c0,0.664,0.586,1.25,1.25,1.25h62.5c0.664,0,1.25-0.586,1.25-1.25v-47.5c0-0.664-0.586-1.25-1.25-1.25H109.705z M120.955,51.625
		c-4.141,0-7.5-3.359-7.5-7.5s3.359-7.5,7.5-7.5s7.5,3.359,7.5,7.5S125.096,51.625,120.955,51.625z M168.455,76.625h-55v-7.5
		l12.5-12.5l6.25,6.25l20-20l16.25,16.25V76.625z"/>
</g>
<g>
	<path fill="#00A14B" d="M591.382,45.637l-32.324,32.324l-6.072,6.072c-0.804,0.805-1.92,1.25-3.036,1.25s-2.232-0.445-3.036-1.25
		l-6.072-6.072l-16.162-16.162c-0.804-0.803-1.25-1.92-1.25-3.035c0-1.117,0.446-2.232,1.25-3.037l6.072-6.071
		c0.804-0.804,1.92-1.25,3.036-1.25s2.232,0.447,3.036,1.25l13.126,13.171l29.288-29.333c0.804-0.804,1.92-1.25,3.036-1.25
		s2.232,0.446,3.036,1.25l6.072,6.072c0.804,0.804,1.25,1.92,1.25,3.036S592.186,44.833,591.382,45.637z"/>
</g>
</svg>
