<?xml version="1.0" encoding="utf-8"?>
<!-- Generator: Adobe Illustrator 15.0.0, SVG Export Plug-In . SVG Version: 6.00 Build 0)  -->
<!DOCTYPE svg PUBLIC "-//W3C//DTD SVG 1.1//EN" "http://www.w3.org/Graphics/SVG/1.1/DTD/svg11.dtd">
<svg version="1.1" id="svg2" xmlns:svg="http://www.w3.org/2000/svg"
	 xmlns="http://www.w3.org/2000/svg" xmlns:xlink="http://www.w3.org/1999/xlink" x="0px" y="0px" width="136px" height="132px"
	 viewBox="0 0 136 132" enable-background="new 0 0 136 132" xml:space="preserve">
<path id="path2818" fill="#FFFFFF" stroke="#FFFFFF" d="M11.238,77.871c-1.603-0.429-3.951,7.494-4.308,11.396l0.094,12.531
	c0,8.244-5.756,8.266-6.063,10.094c-1.045,4.199,7.063,3.718,14.79,3.63c15.092-0.172,26.148-6.104,26.148-7.942
	c0-4.694-2.385-4.844-3.625-9.969c-1.488-6.147-0.81-12.719-4.385-12.125c-3.03,0.504-7.255-0.229-10.676-1.067
	C17.358,82.983,13.345,78.436,11.238,77.871z M23.762,98.005c-3.173,3.366-3.281,5.187-6.499,4.007
	c-2.575-0.943-0.808-3.617,1.517-7.317c1.954-3.53,5.147-3.669,6.793-2.881C28.123,93.035,26.935,94.639,23.762,98.005z"/>
<path id="path3595" fill="#FFFFFF" stroke="#FFFFFF" d="M71.371,24.043c1.017-1.312-5.38-6.542-8.842-8.382
	c-3.51-1.607-6.861-3.268-11.886-4.37c-7.375-2.963-5.092-8.89-6.668-9.888c-4.05-3.689-4.816,2.979-6.812,12.92
	c-7.722,14.392-7.065,25.85-5.05,26.498c4.471,1.435,5.39-0.325,10.595,0.514c6.245,1.007,11.257,6.529,12.092,3.002
	c0.708-2.989,3.767-9.038,6.195-11.59C65.44,28.076,70.456,25.851,71.371,24.043L71.371,24.043z M43.187,26.729
	c-1.336-4.929-1.367-8.454,0.317-8.905c2.125-0.569,2.864,2.797,4.553,7.229c2.206,5.789,5.035,8.061,3.604,9.163
	C49.777,35.667,44.523,31.658,43.187,26.729L43.187,26.729z"/>
<path id="path3597" fill="#FFFFFF" stroke="#FFFFFF" d="M109.336,55.831c-0.109,0.013-0.217,0.044-0.281,0.125
	c-1.361,1.711-3.131,7.452-8.031,11.031c-2.844,2.078-7.309,5.294-10.267,6.121c-3.689,1.031,0.71,5.965,2.985,11.96
	c1.871,4.929-1.93,8.044,1.754,10.955c2.348,1.856,16.299,0.379,25.383-6.113c4.359-2.809,12.499-1.182,14.084-5.585
	c1.586-4.404-8.574-1.082-11.877-8.525l-4.465-11.276C116.756,61.357,110.991,55.636,109.336,55.831L109.336,55.831z
	 M117.856,79.211c-0.36,2.771-6.164-2.317-10.015-3.045c-4.014-0.759-10.457,2.584-8.586-2.133
	C101.126,69.316,118.988,71.521,117.856,79.211L117.856,79.211z M106.16,78.814c1.287-0.035,3.479,0.703,4.613,1.328
	c4.541,2.501,1.878,4.767,0.656,5.211c-1.221,0.443-1.656-0.804-5.156-1.742C100.027,81.938,102.3,78.915,106.16,78.814z"/>
<path id="path3603" fill="#FFFFFF" stroke="#FFFFFF" d="M7.792,42.453c-9.8,22.653,18.92,47.243,32.106,36.408
	c6.59-12.277,13.555-12.86,16.406-14.125c0.74-0.328,1.14-4.761,4.188-5.688c-3.209-5.732-12.561-13.661-23.981-13.661
	c-5.468,0-7.888,3.974-17.008,4.223C7.822,49.932,9.303,41.563,7.792,42.453z M10.743,53.737c1.336-2.315,7.039,3.972,18.344,1.781
	c12.046-2.334,19.104,12.253,14.344,11.75c-6.627-1.847-6.032-7.095-14.719-6.562C18.257,62.458,9.218,58.865,10.743,53.737z"/>
<path id="path3608" fill="#FFFFFF" stroke="#FFFFFF" d="M92.029,26.187c-9.126,0-15.512,1.308-22.051,5.417
	c-8.05,5.059-14.379,13.511-10.33,18.446c6.019,8.953,12.21,11.684,13.156,14.656c1.025,3.222-0.287,5.4-0.916,6.462
	c-13.2,8.807-11.472-2.916-16.802-1.369C42.854,73.882,41.249,85.03,44.024,99.236c1.175,6.016,6.848,11.963,11.406,14.594
	c4.558,2.633,12.267,12.15,8.531,13.219c-3.736,1.069-3.913,5.302,0.344,4.469c4.257-0.832,13.39-6.794,18.843-14.063
	c12.121-16.178,6.988-45.114-3.219-44.219c-1.945,0.172-2.394-0.266-3.965-1.191c-1.067-1.066,0.172-3.962,1.033-3.465
	c8.076,4.291,17.607,2.021,23.775-7.125c3.273-4.853,6.713-11.988,4.844-20.344c1.604-9.459,9.336-5.755,9.969-9.031
	C109.266,27.251,101.887,26.187,92.029,26.187L92.029,26.187z M88.211,32.862c0.645,0.033,1.227,0.289,1.719,0.781
	c2.627,2.627-5.109,6.556-10.07,11.518c-4.962,4.961-7.112,13.097-10.5,11.031c-3.283-2.001,1.586-10.141,7.375-15.375
	C81.316,36.675,85.422,32.719,88.211,32.862z M94.617,40.799c3.813,2.552-1.104,4.706-3.026,6.371
	c-1.923,1.665-4.06,5.93-6.549,3.482C81.001,43.254,95.363,39.042,94.617,40.799L94.617,40.799z M92.992,51.456
	c2.764-0.238,1.758,4.055,0.281,4.438c-1.815,0.471-5.426,3.577-6.063,2.563c-0.636-1.015-1.54-3.676,3.219-6
	C91.51,51.816,92.355,51.511,92.992,51.456z M69.336,75.705c3.663,0.029,7.699,5.807,8.412,18.674
	c0.702,12.703-1.095,19.949-5.729,22.323c-5.408-0.577,1.233-5.835,0.553-22.474c-0.513-12.53-8.234-17.625-4.481-18.18
	C68.208,76.031,69.219,75.705,69.336,75.705L69.336,75.705z M80.836,80.486c1.91-0.027,3.338,3.626,3.781,5.281
	c0.765,2.853,1.68,6.813,1,10.438c-0.795,4.962-4.949,1.749-4.804-4.203c0.142-5.788-3.951-9.436-0.821-11.266
	C80.283,80.567,80.563,80.49,80.836,80.486z M60.211,81.861c4.13,0.321,7.681,16.714,4.563,20.875
	c-0.235,0.289-0.506,0.525-0.781,0.75c-3.898,3.186-4.046-4.37-3.781-7.25c0.314-3.411-3.813-12.405-0.406-14.344
	C59.939,81.869,60.078,81.852,60.211,81.861z"/>
<path id="path3620" fill="#FFFFFF" stroke="#FFFFFF" d="M62.878,69.141c-1.733-1.098-1.667-3.322-0.516-5.196
	c1.15-1.874,2.817-1.773,4.78-0.291c1.963,1.483,1.193,3.534,0.274,4.799S64.611,70.239,62.878,69.141z"/>
</svg>
