<?xml version="1.0" encoding="utf-8"?>
<!-- Generator: Adobe Illustrator 15.0.0, SVG Export Plug-In . SVG Version: 6.00 Build 0)  -->
<!DOCTYPE svg PUBLIC "-//W3C//DTD SVG 1.1//EN" "http://www.w3.org/Graphics/SVG/1.1/DTD/svg11.dtd">
<svg version="1.1" id="Layer_1" xmlns="http://www.w3.org/2000/svg" xmlns:xlink="http://www.w3.org/1999/xlink" x="0px" y="0px"
	 width="640px" height="172px" viewBox="0 0 640 172" enable-background="new 0 0 640 172" xml:space="preserve">
<g>
	<path fill="none" stroke="#FFFFFF" stroke-width="5" d="M92.797,109.41c0,2.75-2.25,5-5,5h-78c-2.75,0-5-2.25-5-5v-60
		c0-2.75,2.25-5,5-5h78c2.75,0,5,2.25,5,5V109.41z"/>
</g>
<g>
	<path fill="none" stroke="#FFFFFF" stroke-width="5" d="M224,26.41c2.75,0,5,2.25,5,5v78c0,2.75-2.25,5-5,5h-60c-2.75,0-5-2.25-5-5
		v-78c0-2.75,2.25-5,5-5H224z"/>
</g>
<g>
	<path fill="none" stroke="#FFFFFF" stroke-width="5" d="M409.297,109.41c0,2.75-2.25,5-5,5h-95c-2.75,0-5-2.25-5-5v-60
		c0-2.75,2.25-5,5-5h95c2.75,0,5,2.25,5,5V109.41z"/>
</g>
<g>
	<path fill="none" stroke="#FFFFFF" stroke-width="5" d="M536,9.41c2.75,0,5,2.25,5,5v95c0,2.75-2.25,5-5,5h-60c-2.75,0-5-2.25-5-5
		v-95c0-2.75,2.25-5,5-5H536z"/>
</g>
<g>
	<path fill="#FFFFFF" d="M266.953,78.565c0,1.823-0.231,3.438-0.693,4.844s-1.126,2.591-1.992,3.555s-1.921,1.696-3.164,2.197
		c-1.244,0.501-2.64,0.752-4.189,0.752c-1.445,0-2.773-0.251-3.984-0.752s-2.256-1.233-3.135-2.197s-1.566-2.148-2.061-3.555
		c-0.495-1.406-0.742-3.021-0.742-4.844c0-1.81,0.231-3.418,0.693-4.824c0.462-1.406,1.126-2.588,1.992-3.545
		c0.866-0.957,1.917-1.683,3.154-2.178c1.237-0.495,2.637-0.742,4.199-0.742c1.445,0,2.773,0.247,3.984,0.742
		s2.256,1.221,3.135,2.178s1.565,2.139,2.061,3.545S266.953,76.755,266.953,78.565z M253.086,78.565
		c0,2.175,0.306,3.812,0.918,4.912c0.612,1.101,1.608,1.65,2.988,1.65c1.367,0,2.356-0.554,2.969-1.66
		c0.612-1.106,0.918-2.741,0.918-4.902c0-2.175-0.306-3.799-0.918-4.873c-0.612-1.074-1.615-1.611-3.008-1.611
		c-1.367,0-2.354,0.537-2.959,1.611S253.086,76.39,253.086,78.565z"/>
	<path fill="#FFFFFF" d="M283.477,67.276c0.156,0,0.329,0.003,0.518,0.01s0.371,0.02,0.547,0.039s0.339,0.039,0.488,0.059
		s0.264,0.042,0.342,0.068v5.586c-0.104-0.026-0.247-0.052-0.43-0.078s-0.374-0.049-0.576-0.068s-0.4-0.032-0.596-0.039
		s-0.358-0.01-0.488-0.01c-0.769,0-1.475,0.098-2.119,0.293s-1.198,0.511-1.66,0.947s-0.82,1.009-1.074,1.719
		s-0.381,1.579-0.381,2.607v11.113h-5.957V67.686h4.512l0.879,3.281h0.293c0.313-0.56,0.651-1.067,1.016-1.523
		s0.771-0.843,1.221-1.162s0.957-0.566,1.523-0.742S282.747,67.276,283.477,67.276z"/>
</g>
<g>
	<path fill="#FFFFFF" d="M40.259,36h-6.035V19.477c0-0.338,0.003-0.745,0.01-1.221c0.006-0.475,0.02-0.97,0.039-1.484
		c0.02-0.514,0.039-1.032,0.059-1.553c0.02-0.521,0.036-0.996,0.049-1.426c-0.065,0.078-0.176,0.195-0.332,0.352
		s-0.332,0.329-0.527,0.518c-0.195,0.189-0.397,0.381-0.605,0.576c-0.208,0.195-0.41,0.371-0.605,0.527l-3.281,2.637l-2.93-3.633
		l9.199-7.324h4.961V36z"/>
	<path fill="#FFFFFF" d="M67.134,21.723c0,2.305-0.179,4.362-0.537,6.172c-0.358,1.81-0.931,3.347-1.719,4.609
		c-0.788,1.263-1.804,2.227-3.047,2.891c-1.244,0.664-2.744,0.996-4.502,0.996c-1.654,0-3.093-0.332-4.316-0.996
		c-1.224-0.664-2.24-1.627-3.047-2.891c-0.808-1.263-1.41-2.799-1.807-4.609c-0.397-1.81-0.596-3.867-0.596-6.172
		s0.179-4.368,0.537-6.191c0.358-1.823,0.928-3.366,1.709-4.629c0.781-1.263,1.79-2.229,3.027-2.9
		c1.237-0.67,2.734-1.006,4.492-1.006c1.641,0,3.073,0.332,4.297,0.996c1.224,0.664,2.246,1.628,3.066,2.891
		c0.82,1.263,1.432,2.806,1.836,4.629C66.932,17.335,67.134,19.405,67.134,21.723z M53.579,21.723c0,3.255,0.28,5.703,0.84,7.344
		c0.56,1.641,1.53,2.461,2.91,2.461c1.354,0,2.327-0.813,2.92-2.441c0.592-1.627,0.889-4.082,0.889-7.363
		c0-3.268-0.296-5.726-0.889-7.373c-0.593-1.647-1.566-2.471-2.92-2.471c-0.69,0-1.273,0.208-1.748,0.625
		c-0.476,0.417-0.863,1.035-1.162,1.855c-0.3,0.82-0.515,1.846-0.645,3.076C53.644,18.666,53.579,20.095,53.579,21.723z"/>
	<path fill="#FFFFFF" d="M76.528,7.875c-0.183,0.716-0.4,1.468-0.654,2.256c-0.254,0.788-0.534,1.589-0.84,2.402
		c-0.306,0.814-0.625,1.618-0.957,2.412c-0.332,0.794-0.661,1.556-0.986,2.285h-4.277c0.182-0.781,0.368-1.602,0.557-2.461
		c0.188-0.859,0.371-1.719,0.547-2.578s0.335-1.692,0.479-2.5c0.143-0.807,0.267-1.556,0.371-2.246h5.469L76.528,7.875z
		 M85.649,7.875c-0.183,0.716-0.4,1.468-0.654,2.256c-0.254,0.788-0.534,1.589-0.84,2.402c-0.306,0.814-0.625,1.618-0.957,2.412
		c-0.332,0.794-0.661,1.556-0.986,2.285h-4.297c0.195-0.781,0.387-1.602,0.576-2.461c0.188-0.859,0.371-1.719,0.547-2.578
		s0.335-1.692,0.479-2.5c0.143-0.807,0.267-1.556,0.371-2.246h5.469L85.649,7.875z"/>
</g>
<g>
	<path fill="#FFFFFF" d="M111.337,56.074c1.185,0,2.305,0.144,3.359,0.43s1.979,0.716,2.773,1.289
		c0.794,0.573,1.426,1.289,1.895,2.148s0.703,1.868,0.703,3.027c0,0.859-0.13,1.638-0.391,2.334
		c-0.261,0.696-0.619,1.328-1.074,1.895c-0.456,0.566-0.996,1.071-1.621,1.514s-1.302,0.847-2.031,1.211
		c0.755,0.403,1.494,0.853,2.217,1.348s1.364,1.052,1.924,1.67c0.56,0.618,1.009,1.312,1.348,2.08
		c0.338,0.769,0.508,1.628,0.508,2.578c0,1.185-0.234,2.259-0.703,3.223s-1.126,1.784-1.973,2.461
		c-0.847,0.677-1.859,1.198-3.037,1.563c-1.179,0.364-2.478,0.547-3.896,0.547c-1.537,0-2.904-0.176-4.102-0.527
		c-1.198-0.352-2.207-0.853-3.027-1.504s-1.442-1.452-1.865-2.402c-0.423-0.95-0.635-2.019-0.635-3.203
		c0-0.977,0.143-1.855,0.43-2.637c0.286-0.781,0.677-1.484,1.172-2.109c0.495-0.625,1.074-1.179,1.738-1.66s1.374-0.905,2.129-1.27
		c-0.638-0.403-1.237-0.843-1.797-1.318c-0.56-0.476-1.045-1.003-1.455-1.582s-0.736-1.221-0.977-1.924
		c-0.241-0.703-0.361-1.478-0.361-2.324c0-1.133,0.237-2.126,0.713-2.979c0.475-0.853,1.116-1.569,1.924-2.148
		c0.807-0.579,1.738-1.013,2.793-1.299S110.178,56.074,111.337,56.074z M107.294,77.402c0,0.521,0.084,0.999,0.254,1.436
		c0.169,0.437,0.42,0.811,0.752,1.123s0.745,0.557,1.24,0.732c0.495,0.176,1.067,0.264,1.719,0.264c1.367,0,2.389-0.322,3.066-0.967
		c0.677-0.645,1.016-1.494,1.016-2.549c0-0.547-0.114-1.038-0.342-1.475c-0.228-0.437-0.521-0.84-0.879-1.211
		c-0.358-0.371-0.765-0.713-1.221-1.025c-0.456-0.313-0.912-0.612-1.367-0.898l-0.43-0.273c-0.573,0.286-1.094,0.596-1.563,0.928
		s-0.869,0.696-1.201,1.094s-0.589,0.83-0.771,1.299C107.385,76.348,107.294,76.855,107.294,77.402z M111.298,60.488
		c-0.43,0-0.83,0.065-1.201,0.195s-0.69,0.319-0.957,0.566c-0.267,0.247-0.479,0.554-0.635,0.918s-0.234,0.774-0.234,1.23
		c0,0.547,0.081,1.019,0.244,1.416c0.163,0.397,0.384,0.749,0.664,1.055c0.28,0.306,0.605,0.579,0.977,0.82s0.765,0.479,1.182,0.713
		c0.403-0.208,0.788-0.437,1.152-0.684c0.364-0.247,0.687-0.53,0.967-0.85c0.28-0.319,0.504-0.681,0.674-1.084
		c0.169-0.403,0.254-0.866,0.254-1.387c0-0.456-0.078-0.866-0.234-1.23s-0.371-0.671-0.645-0.918s-0.599-0.437-0.977-0.566
		C112.15,60.554,111.74,60.488,111.298,60.488z"/>
	<path fill="#FFFFFF" d="M130.497,56.875c-0.183,0.716-0.4,1.468-0.654,2.256s-0.534,1.589-0.84,2.402
		c-0.306,0.813-0.625,1.618-0.957,2.412s-0.661,1.556-0.986,2.285h-4.277c0.182-0.781,0.368-1.602,0.557-2.461
		c0.188-0.859,0.371-1.719,0.547-2.578s0.335-1.692,0.479-2.5c0.143-0.808,0.267-1.556,0.371-2.246h5.469L130.497,56.875z
		 M139.618,56.875c-0.183,0.716-0.4,1.468-0.654,2.256s-0.534,1.589-0.84,2.402c-0.306,0.813-0.625,1.618-0.957,2.412
		s-0.661,1.556-0.986,2.285h-4.297c0.195-0.781,0.387-1.602,0.576-2.461c0.188-0.859,0.371-1.719,0.547-2.578s0.335-1.692,0.479-2.5
		c0.143-0.808,0.267-1.556,0.371-2.246h5.469L139.618,56.875z"/>
</g>
<g>
	<path fill="#FFFFFF" d="M345.957,36h-6.035V19.477c0-0.338,0.003-0.745,0.01-1.221c0.006-0.475,0.02-0.97,0.039-1.484
		c0.02-0.514,0.039-1.032,0.059-1.553c0.02-0.521,0.035-0.996,0.049-1.426c-0.065,0.078-0.176,0.195-0.332,0.352
		s-0.332,0.329-0.527,0.518c-0.195,0.189-0.397,0.381-0.605,0.576c-0.209,0.195-0.41,0.371-0.605,0.527l-3.281,2.637l-2.93-3.633
		l9.199-7.324h4.961V36z"/>
	<path fill="#FFFFFF" d="M372.793,36h-19.16v-4.199l6.719-7.246c0.846-0.911,1.614-1.751,2.305-2.52
		c0.689-0.768,1.282-1.517,1.777-2.246c0.494-0.729,0.879-1.471,1.152-2.227c0.273-0.755,0.41-1.569,0.41-2.441
		c0-0.963-0.29-1.712-0.869-2.246c-0.58-0.534-1.357-0.801-2.334-0.801c-1.029,0-2.019,0.254-2.969,0.762
		c-0.951,0.508-1.947,1.23-2.988,2.168l-3.281-3.887c0.586-0.534,1.197-1.045,1.836-1.533c0.638-0.488,1.341-0.921,2.109-1.299
		c0.768-0.377,1.614-0.68,2.539-0.908c0.924-0.228,1.959-0.342,3.105-0.342c1.367,0,2.594,0.189,3.682,0.566
		c1.087,0.378,2.015,0.915,2.783,1.611c0.768,0.697,1.357,1.54,1.768,2.529c0.41,0.99,0.615,2.103,0.615,3.34
		c0,1.12-0.195,2.191-0.586,3.213c-0.391,1.022-0.925,2.025-1.602,3.008c-0.678,0.983-1.462,1.96-2.354,2.93
		c-0.893,0.97-1.846,1.957-2.861,2.959l-3.438,3.457v0.273h11.641V36z"/>
	<path fill="#FFFFFF" d="M382.227,7.875c-0.183,0.716-0.4,1.468-0.654,2.256c-0.254,0.788-0.534,1.589-0.84,2.402
		c-0.307,0.814-0.625,1.618-0.957,2.412c-0.332,0.794-0.661,1.556-0.986,2.285h-4.277c0.182-0.781,0.367-1.602,0.557-2.461
		c0.188-0.859,0.371-1.719,0.547-2.578s0.335-1.692,0.479-2.5c0.143-0.807,0.267-1.556,0.371-2.246h5.469L382.227,7.875z
		 M391.348,7.875c-0.183,0.716-0.4,1.468-0.654,2.256c-0.254,0.788-0.534,1.589-0.84,2.402c-0.307,0.814-0.625,1.618-0.957,2.412
		c-0.332,0.794-0.661,1.556-0.986,2.285h-4.297c0.195-0.781,0.387-1.602,0.576-2.461c0.188-0.859,0.371-1.719,0.547-2.578
		s0.335-1.692,0.479-2.5c0.143-0.807,0.267-1.556,0.371-2.246h5.469L391.348,7.875z"/>
</g>
<g>
	<path fill="#FFFFFF" d="M428.932,56.074c1.185,0,2.305,0.144,3.359,0.43s1.979,0.716,2.773,1.289
		c0.794,0.573,1.426,1.289,1.895,2.148s0.703,1.868,0.703,3.027c0,0.859-0.131,1.638-0.391,2.334
		c-0.261,0.696-0.619,1.328-1.074,1.895c-0.456,0.566-0.996,1.071-1.621,1.514s-1.303,0.847-2.031,1.211
		c0.755,0.403,1.494,0.853,2.217,1.348s1.363,1.052,1.924,1.67c0.56,0.618,1.009,1.312,1.348,2.08
		c0.338,0.769,0.508,1.628,0.508,2.578c0,1.185-0.234,2.259-0.703,3.223s-1.127,1.784-1.973,2.461
		c-0.847,0.677-1.859,1.198-3.037,1.563c-1.179,0.364-2.478,0.547-3.896,0.547c-1.537,0-2.904-0.176-4.102-0.527
		c-1.198-0.352-2.207-0.853-3.027-1.504s-1.442-1.452-1.865-2.402c-0.424-0.95-0.635-2.019-0.635-3.203
		c0-0.977,0.143-1.855,0.43-2.637c0.286-0.781,0.677-1.484,1.172-2.109c0.494-0.625,1.074-1.179,1.738-1.66s1.373-0.905,2.129-1.27
		c-0.639-0.403-1.237-0.843-1.797-1.318c-0.561-0.476-1.045-1.003-1.455-1.582s-0.736-1.221-0.977-1.924
		c-0.241-0.703-0.361-1.478-0.361-2.324c0-1.133,0.237-2.126,0.713-2.979c0.475-0.853,1.116-1.569,1.924-2.148
		c0.807-0.579,1.738-1.013,2.793-1.299S427.772,56.074,428.932,56.074z M424.889,77.402c0,0.521,0.084,0.999,0.254,1.436
		c0.169,0.437,0.42,0.811,0.752,1.123s0.745,0.557,1.24,0.732c0.494,0.176,1.067,0.264,1.719,0.264c1.367,0,2.389-0.322,3.066-0.967
		c0.677-0.645,1.016-1.494,1.016-2.549c0-0.547-0.114-1.038-0.342-1.475c-0.229-0.437-0.521-0.84-0.879-1.211
		c-0.358-0.371-0.766-0.713-1.221-1.025c-0.456-0.313-0.912-0.612-1.367-0.898l-0.43-0.273c-0.573,0.286-1.094,0.596-1.563,0.928
		s-0.869,0.696-1.201,1.094s-0.59,0.83-0.771,1.299C424.979,76.348,424.889,76.855,424.889,77.402z M428.893,60.488
		c-0.43,0-0.83,0.065-1.201,0.195s-0.69,0.319-0.957,0.566c-0.268,0.247-0.479,0.554-0.635,0.918s-0.234,0.774-0.234,1.23
		c0,0.547,0.081,1.019,0.244,1.416c0.162,0.397,0.384,0.749,0.664,1.055c0.279,0.306,0.605,0.579,0.977,0.82
		s0.765,0.479,1.182,0.713c0.403-0.208,0.787-0.437,1.152-0.684c0.364-0.247,0.687-0.53,0.967-0.85
		c0.279-0.319,0.504-0.681,0.674-1.084c0.169-0.403,0.254-0.866,0.254-1.387c0-0.456-0.078-0.866-0.234-1.23
		s-0.371-0.671-0.645-0.918s-0.6-0.437-0.977-0.566C429.745,60.554,429.335,60.488,428.893,60.488z"/>
	<path fill="#FFFFFF" d="M448.092,56.875c-0.183,0.716-0.4,1.468-0.654,2.256s-0.534,1.589-0.84,2.402
		c-0.307,0.813-0.625,1.618-0.957,2.412s-0.661,1.556-0.986,2.285h-4.277c0.182-0.781,0.367-1.602,0.557-2.461
		c0.188-0.859,0.371-1.719,0.547-2.578s0.335-1.692,0.479-2.5c0.143-0.808,0.267-1.556,0.371-2.246h5.469L448.092,56.875z
		 M457.213,56.875c-0.183,0.716-0.4,1.468-0.654,2.256s-0.534,1.589-0.84,2.402c-0.307,0.813-0.625,1.618-0.957,2.412
		s-0.661,1.556-0.986,2.285h-4.297c0.195-0.781,0.387-1.602,0.576-2.461c0.188-0.859,0.371-1.719,0.547-2.578s0.335-1.692,0.479-2.5
		c0.143-0.808,0.267-1.556,0.371-2.246h5.469L457.213,56.875z"/>
</g>
<g>
	<path fill="#FFFFFF" d="M75.548,142.944c-0.412-0.906-1.093-2.039-1.345-3.016c-0.124-0.46-0.158-0.846,0.193-1.265
		c0.503-0.598,1.283-0.556,1.852-0.079c0.479,0.402,0.916,0.974,1.371,1.405c1.15,1.119,2.328,2.208,3.555,3.238
		c14.273,11.977,23.863,5.593,34.686-7.304l5.623-6.703l-7.66-6.428c-1.047-0.879-1.187-2.475-0.309-3.522
		c0.428-0.509,1.039-0.812,1.699-0.869l28.176-2.465c0.661-0.058,1.315,0.135,1.824,0.562s0.813,1.038,0.869,1.698l2.465,28.177
		c0.059,0.661-0.133,1.315-0.561,1.824c-0.879,1.047-2.475,1.187-3.522,0.308l-7.66-6.428l-5.624,6.703
		c-8.236,9.815-20.217,20.567-34.029,16.064c-4.227-1.405-7.944-3.963-11.296-6.775C81.665,154.553,77.947,147.863,75.548,142.944z"
		/>
</g>
<g>
	<path fill="#00A14B" d="M636.355,53.728l-32.324,32.325l-6.072,6.072c-0.804,0.804-1.92,1.25-3.036,1.25s-2.232-0.446-3.036-1.25
		l-6.072-6.072l-16.162-16.162c-0.804-0.804-1.25-1.92-1.25-3.036s0.446-2.232,1.25-3.036l6.072-6.072
		c0.804-0.804,1.92-1.25,3.036-1.25s2.232,0.447,3.036,1.25l13.126,13.171l29.288-29.333c0.804-0.804,1.92-1.25,3.036-1.25
		s2.232,0.446,3.036,1.25l6.072,6.072c0.804,0.804,1.25,1.92,1.25,3.036S637.159,52.925,636.355,53.728z"/>
</g>
<g>
	<path fill="#FFFFFF" d="M386.146,142.944c-0.412-0.906-1.093-2.039-1.345-3.016c-0.124-0.46-0.158-0.846,0.193-1.265
		c0.503-0.598,1.283-0.556,1.852-0.079c0.479,0.402,0.916,0.974,1.371,1.405c1.15,1.119,2.328,2.208,3.555,3.238
		c14.273,11.977,23.863,5.593,34.686-7.304l5.623-6.703l-7.66-6.428c-1.047-0.879-1.187-2.475-0.309-3.522
		c0.428-0.509,1.039-0.812,1.699-0.869l28.176-2.465c0.661-0.058,1.315,0.135,1.824,0.562s0.813,1.038,0.869,1.698l2.465,28.177
		c0.059,0.661-0.133,1.315-0.561,1.824c-0.879,1.047-2.475,1.187-3.522,0.308l-7.66-6.428l-5.624,6.703
		c-8.236,9.815-20.217,20.567-34.029,16.064c-4.227-1.405-7.944-3.963-11.296-6.775
		C392.263,154.553,388.545,147.863,386.146,142.944z"/>
</g>
</svg>
