<?xml version="1.0" encoding="utf-8"?>
<!-- Generator: Adobe Illustrator 15.0.0, SVG Export Plug-In . SVG Version: 6.00 Build 0)  -->
<!DOCTYPE svg PUBLIC "-//W3C//DTD SVG 1.1//EN" "http://www.w3.org/Graphics/SVG/1.1/DTD/svg11.dtd">
<svg version="1.1" id="Layer_1" xmlns="http://www.w3.org/2000/svg" xmlns:xlink="http://www.w3.org/1999/xlink" x="0px" y="0px"
	 width="600px" height="172px" viewBox="0 0 600 172" enable-background="new 0 0 600 172" xml:space="preserve">
<g>
	<path fill="none" stroke="#FFFFFF" stroke-width="5" d="M74.597,99.331c0,2.75-2.25,5-5,5h-60.4c-2.75,0-5-2.25-5-5v-46
		c0-2.75,2.25-5,5-5h60.4c2.75,0,5,2.25,5,5V99.331z"/>
</g>
<g>
	<path fill="none" stroke="#FFFFFF" stroke-width="5" d="M188.984,35.01c2.75,0,5,2.25,5,5v60.4c0,2.75-2.25,5-5,5h-46
		c-2.75,0-5-2.25-5-5v-60.4c0-2.75,2.25-5,5-5H188.984z"/>
</g>
<g>
	<path fill="none" stroke="#FFFFFF" stroke-width="5" d="M344.572,101.41c0,2.75-2.25,5-5,5h-74c-2.75,0-5-2.25-5-5v-46
		c0-2.75,2.25-5,5-5h74c2.75,0,5,2.25,5,5V101.41z"/>
</g>
<g>
	<path fill="none" stroke="#FFFFFF" stroke-width="5" d="M456.159,22.41c2.75,0,5,2.25,5,5v74c0,2.75-2.25,5-5,5h-46
		c-2.75,0-5-2.25-5-5v-74c0-2.75,2.25-5,5-5H456.159z"/>
</g>
<g>
	<path fill="#FFFFFF" d="M227.209,76.612c0,1.596-0.202,3.008-0.606,4.238c-0.405,1.23-0.986,2.268-1.743,3.111
		c-0.758,0.843-1.681,1.483-2.769,1.922c-1.088,0.438-2.311,0.658-3.666,0.658c-1.265,0-2.427-0.22-3.486-0.658
		s-1.974-1.079-2.743-1.922c-0.769-0.844-1.37-1.881-1.803-3.111c-0.433-1.23-0.649-2.643-0.649-4.238
		c0-1.583,0.202-2.99,0.606-4.221s0.985-2.265,1.743-3.102c0.758-0.838,1.678-1.473,2.76-1.906c1.082-0.433,2.307-0.648,3.674-0.648
		c1.265,0,2.427,0.216,3.486,0.648c1.06,0.434,1.974,1.068,2.743,1.906c0.769,0.837,1.37,1.871,1.803,3.102
		C226.992,73.622,227.209,75.029,227.209,76.612z M215.075,76.612c0,1.903,0.268,3.336,0.803,4.299
		c0.535,0.963,1.407,1.443,2.615,1.443c1.196,0,2.062-0.483,2.598-1.452c0.535-0.968,0.803-2.398,0.803-4.29
		c0-1.902-0.268-3.323-0.803-4.264c-0.536-0.939-1.413-1.41-2.632-1.41c-1.196,0-2.06,0.471-2.589,1.41
		C215.34,73.289,215.075,74.71,215.075,76.612z"/>
	<path fill="#FFFFFF" d="M241.667,66.735c0.137,0,0.288,0.003,0.453,0.008c0.165,0.006,0.325,0.018,0.479,0.034
		c0.154,0.018,0.296,0.034,0.428,0.052c0.131,0.017,0.23,0.037,0.299,0.06v4.888c-0.092-0.022-0.217-0.045-0.376-0.068
		c-0.16-0.022-0.328-0.043-0.504-0.06c-0.177-0.018-0.351-0.028-0.521-0.034s-0.313-0.009-0.427-0.009
		c-0.673,0-1.291,0.085-1.854,0.257c-0.564,0.17-1.049,0.447-1.453,0.828c-0.404,0.382-0.718,0.884-0.939,1.504
		c-0.223,0.621-0.333,1.382-0.333,2.281V86.2h-5.213V67.094h3.947l0.77,2.871h0.256c0.273-0.489,0.57-0.934,0.889-1.333
		c0.319-0.398,0.676-0.737,1.068-1.017c0.394-0.279,0.838-0.496,1.333-0.649C240.463,66.812,241.029,66.735,241.667,66.735z"/>
</g>
<g>
	<path fill="#FFFFFF" d="M31.264,42h-5.281V27.542c0-0.296,0.002-0.652,0.008-1.068c0.006-0.416,0.018-0.848,0.034-1.299
		c0.018-0.45,0.034-0.902,0.052-1.358c0.017-0.456,0.031-0.872,0.042-1.248c-0.057,0.068-0.154,0.171-0.291,0.308
		s-0.291,0.288-0.461,0.453c-0.171,0.166-0.348,0.333-0.53,0.504c-0.183,0.171-0.359,0.325-0.53,0.461l-2.871,2.307l-2.563-3.179
		l8.049-6.409h4.341V42z"/>
	<path fill="#FFFFFF" d="M54.78,29.507c0,2.017-0.157,3.817-0.47,5.4c-0.314,1.584-0.815,2.928-1.504,4.033
		c-0.69,1.105-1.579,1.948-2.666,2.529c-1.088,0.581-2.401,0.872-3.939,0.872c-1.447,0-2.706-0.291-3.777-0.872
		c-1.071-0.581-1.96-1.424-2.666-2.529c-0.707-1.105-1.233-2.449-1.581-4.033c-0.348-1.583-0.521-3.384-0.521-5.4
		s0.156-3.822,0.47-5.417c0.313-1.595,0.812-2.945,1.496-4.05c0.684-1.105,1.566-1.951,2.649-2.538
		c1.082-0.587,2.393-0.88,3.931-0.88c1.436,0,2.688,0.291,3.76,0.872c1.071,0.581,1.965,1.424,2.683,2.529
		c0.718,1.105,1.253,2.456,1.606,4.05C54.603,25.668,54.78,27.479,54.78,29.507z M42.919,29.507c0,2.849,0.245,4.99,0.735,6.426
		c0.49,1.436,1.338,2.153,2.546,2.153c1.185,0,2.036-0.712,2.555-2.136c0.519-1.424,0.778-3.572,0.778-6.443
		c0-2.859-0.259-5.01-0.778-6.452c-0.519-1.441-1.37-2.162-2.555-2.162c-0.604,0-1.114,0.183-1.529,0.547
		c-0.417,0.365-0.755,0.906-1.017,1.624c-0.262,0.718-0.45,1.615-0.564,2.691C42.976,26.833,42.919,28.083,42.919,29.507z"/>
	<path fill="#FFFFFF" d="M63,17.391c-0.16,0.627-0.35,1.285-0.573,1.974c-0.222,0.69-0.467,1.391-0.734,2.103
		c-0.268,0.712-0.547,1.416-0.838,2.11c-0.29,0.695-0.578,1.362-0.863,2H56.25c0.159-0.684,0.322-1.401,0.487-2.153
		c0.165-0.752,0.324-1.504,0.479-2.256c0.153-0.752,0.293-1.481,0.418-2.188c0.125-0.706,0.233-1.361,0.325-1.965h4.785L63,17.391z
		 M70.981,17.391c-0.16,0.627-0.351,1.285-0.572,1.974c-0.223,0.69-0.468,1.391-0.735,2.103s-0.547,1.416-0.837,2.11
		c-0.291,0.695-0.579,1.362-0.863,2h-3.76c0.171-0.684,0.339-1.401,0.504-2.153s0.325-1.504,0.479-2.256
		c0.154-0.752,0.293-1.481,0.419-2.188c0.125-0.706,0.233-1.361,0.325-1.965h4.785L70.981,17.391z"/>
</g>
<g>
	<path fill="#FFFFFF" d="M92.958,60.89c1.037,0,2.017,0.126,2.939,0.377c0.923,0.25,1.731,0.626,2.427,1.127
		c0.695,0.502,1.248,1.129,1.658,1.881s0.615,1.635,0.615,2.648c0,0.752-0.114,1.433-0.342,2.042
		c-0.228,0.61-0.542,1.162-0.94,1.658c-0.399,0.495-0.872,0.938-1.418,1.324c-0.547,0.388-1.14,0.741-1.777,1.06
		c0.661,0.354,1.307,0.746,1.94,1.18c0.632,0.433,1.193,0.92,1.683,1.461c0.49,0.541,0.883,1.147,1.179,1.82
		c0.296,0.672,0.444,1.424,0.444,2.256c0,1.036-0.205,1.977-0.615,2.819c-0.41,0.844-0.986,1.562-1.726,2.153
		c-0.741,0.593-1.626,1.049-2.658,1.367s-2.167,0.479-3.409,0.479c-1.345,0-2.541-0.154-3.589-0.461
		c-1.048-0.309-1.931-0.746-2.649-1.316c-0.718-0.569-1.262-1.271-1.632-2.102c-0.37-0.832-0.555-1.767-0.555-2.803
		c0-0.855,0.125-1.624,0.376-2.308c0.25-0.684,0.592-1.299,1.025-1.846c0.433-0.547,0.94-1.031,1.521-1.452
		c0.581-0.422,1.202-0.792,1.863-1.111c-0.559-0.353-1.083-0.737-1.572-1.153c-0.49-0.416-0.915-0.877-1.273-1.385
		c-0.359-0.507-0.644-1.067-0.854-1.683c-0.211-0.615-0.316-1.293-0.316-2.034c0-0.991,0.208-1.859,0.624-2.606
		c0.416-0.746,0.977-1.372,1.683-1.88c0.706-0.507,1.521-0.886,2.444-1.136C90.975,61.016,91.943,60.89,92.958,60.89z M89.42,79.552
		c0,0.456,0.074,0.875,0.222,1.257c0.148,0.382,0.367,0.709,0.658,0.982c0.29,0.273,0.652,0.487,1.085,0.641
		c0.433,0.154,0.934,0.231,1.504,0.231c1.196,0,2.09-0.282,2.683-0.847c0.592-0.563,0.889-1.308,0.889-2.229
		c0-0.479-0.1-0.909-0.299-1.291c-0.199-0.381-0.456-0.734-0.769-1.06c-0.314-0.324-0.67-0.624-1.068-0.897
		c-0.399-0.273-0.798-0.535-1.196-0.785l-0.376-0.24c-0.501,0.251-0.957,0.521-1.367,0.813c-0.41,0.29-0.761,0.609-1.051,0.957
		c-0.291,0.348-0.516,0.727-0.675,1.137C89.5,78.63,89.42,79.073,89.42,79.552z M92.923,64.753c-0.376,0-0.727,0.057-1.051,0.17
		c-0.325,0.114-0.604,0.28-0.838,0.496c-0.233,0.217-0.418,0.484-0.555,0.803c-0.137,0.319-0.205,0.679-0.205,1.077
		c0,0.479,0.071,0.892,0.213,1.239s0.336,0.655,0.581,0.923s0.53,0.507,0.854,0.718c0.325,0.211,0.669,0.418,1.034,0.623
		c0.353-0.182,0.689-0.381,1.008-0.598c0.319-0.216,0.601-0.464,0.846-0.743c0.245-0.279,0.441-0.596,0.589-0.948
		c0.148-0.354,0.222-0.758,0.222-1.214c0-0.398-0.068-0.758-0.205-1.077c-0.137-0.318-0.325-0.586-0.564-0.803
		c-0.239-0.216-0.524-0.382-0.854-0.496C93.669,64.81,93.311,64.753,92.923,64.753z"/>
	<path fill="#FFFFFF" d="M109.723,61.591c-0.16,0.627-0.35,1.285-0.573,1.974c-0.222,0.689-0.467,1.391-0.734,2.103
		c-0.268,0.712-0.547,1.416-0.838,2.11c-0.29,0.695-0.578,1.361-0.863,1.999h-3.743c0.159-0.684,0.322-1.4,0.487-2.152
		c0.165-0.752,0.324-1.504,0.479-2.256c0.153-0.752,0.293-1.481,0.418-2.188c0.125-0.707,0.233-1.361,0.325-1.966h4.785
		L109.723,61.591z M117.704,61.591c-0.16,0.627-0.351,1.285-0.572,1.974c-0.223,0.689-0.468,1.391-0.735,2.103
		s-0.547,1.416-0.837,2.11c-0.291,0.695-0.579,1.361-0.863,1.999h-3.76c0.171-0.684,0.339-1.4,0.504-2.152s0.325-1.504,0.479-2.256
		c0.154-0.752,0.293-1.481,0.419-2.188c0.125-0.707,0.233-1.361,0.325-1.966h4.785L117.704,61.591z"/>
</g>
<g>
	<path fill="#FFFFFF" d="M294.962,42h-5.281V27.542c0-0.296,0.002-0.652,0.008-1.068c0.006-0.416,0.018-0.848,0.034-1.299
		c0.018-0.45,0.034-0.902,0.052-1.358c0.017-0.456,0.031-0.872,0.042-1.248c-0.057,0.068-0.154,0.171-0.291,0.308
		s-0.291,0.288-0.461,0.453c-0.171,0.166-0.348,0.333-0.53,0.504c-0.183,0.171-0.359,0.325-0.53,0.461l-2.871,2.307l-2.563-3.179
		l8.049-6.409h4.341V42z"/>
	<path fill="#FFFFFF" d="M318.443,42h-16.765v-3.674l5.879-6.34c0.74-0.797,1.413-1.532,2.017-2.205
		c0.604-0.672,1.122-1.327,1.555-1.965c0.434-0.638,0.77-1.287,1.009-1.948c0.239-0.661,0.358-1.373,0.358-2.136
		c0-0.843-0.254-1.498-0.76-1.965c-0.508-0.467-1.188-0.701-2.043-0.701c-0.9,0-1.766,0.222-2.598,0.667s-1.703,1.077-2.614,1.897
		l-2.871-3.401c0.513-0.467,1.048-0.914,1.606-1.342c0.559-0.427,1.174-0.806,1.846-1.136c0.672-0.33,1.412-0.595,2.222-0.794
		c0.809-0.199,1.714-0.299,2.718-0.299c1.195,0,2.27,0.166,3.221,0.496c0.951,0.331,1.764,0.801,2.436,1.41s1.188,1.347,1.547,2.213
		c0.359,0.866,0.538,1.84,0.538,2.922c0,0.98-0.171,1.917-0.513,2.811c-0.342,0.895-0.809,1.772-1.401,2.632
		c-0.593,0.861-1.279,1.715-2.06,2.563c-0.78,0.849-1.615,1.712-2.504,2.589l-3.008,3.025v0.239h10.186V42z"/>
	<path fill="#FFFFFF" d="M326.698,17.391c-0.159,0.627-0.351,1.285-0.573,1.974c-0.221,0.69-0.467,1.391-0.734,2.103
		s-0.547,1.416-0.838,2.11c-0.289,0.695-0.578,1.362-0.862,2h-3.743c0.16-0.684,0.322-1.401,0.488-2.153
		c0.164-0.752,0.324-1.504,0.479-2.256c0.152-0.752,0.293-1.481,0.418-2.188c0.125-0.706,0.233-1.361,0.324-1.965h4.785
		L326.698,17.391z M334.68,17.391c-0.16,0.627-0.352,1.285-0.572,1.974c-0.223,0.69-0.469,1.391-0.736,2.103
		s-0.547,1.416-0.836,2.11c-0.291,0.695-0.579,1.362-0.863,2h-3.76c0.17-0.684,0.338-1.401,0.504-2.153
		c0.164-0.752,0.324-1.504,0.479-2.256s0.293-1.481,0.418-2.188c0.125-0.706,0.234-1.361,0.325-1.965h4.785L334.68,17.391z"/>
</g>
<g>
	<path fill="#FFFFFF" d="M362.553,60.89c1.036,0,2.016,0.126,2.939,0.377c0.922,0.25,1.73,0.626,2.426,1.127
		c0.695,0.502,1.248,1.129,1.658,1.881s0.615,1.635,0.615,2.648c0,0.752-0.114,1.433-0.342,2.042
		c-0.229,0.61-0.541,1.162-0.939,1.658c-0.399,0.495-0.872,0.938-1.419,1.324c-0.547,0.388-1.14,0.741-1.777,1.06
		c0.661,0.354,1.308,0.746,1.94,1.18c0.631,0.433,1.192,0.92,1.683,1.461c0.489,0.541,0.883,1.147,1.179,1.82
		c0.297,0.672,0.445,1.424,0.445,2.256c0,1.036-0.205,1.977-0.615,2.819c-0.41,0.844-0.986,1.562-1.727,2.153
		c-0.74,0.593-1.627,1.049-2.658,1.367s-2.167,0.479-3.408,0.479c-1.346,0-2.541-0.154-3.59-0.461
		c-1.048-0.309-1.931-0.746-2.648-1.316c-0.718-0.569-1.262-1.271-1.633-2.102c-0.369-0.832-0.555-1.767-0.555-2.803
		c0-0.855,0.125-1.624,0.376-2.308s0.593-1.299,1.025-1.846s0.94-1.031,1.521-1.452c0.582-0.422,1.202-0.792,1.863-1.111
		c-0.559-0.353-1.082-0.737-1.572-1.153s-0.914-0.877-1.273-1.385c-0.359-0.507-0.644-1.067-0.854-1.683
		c-0.212-0.615-0.316-1.293-0.316-2.034c0-0.991,0.207-1.859,0.623-2.606c0.416-0.746,0.977-1.372,1.684-1.88
		c0.706-0.507,1.521-0.886,2.443-1.136C360.57,61.016,361.538,60.89,362.553,60.89z M359.015,79.552
		c0,0.456,0.073,0.875,0.222,1.257s0.367,0.709,0.658,0.982s0.652,0.487,1.086,0.641c0.432,0.154,0.934,0.231,1.504,0.231
		c1.195,0,2.09-0.282,2.683-0.847c0.593-0.563,0.889-1.308,0.889-2.229c0-0.479-0.101-0.909-0.3-1.291
		c-0.199-0.381-0.455-0.734-0.768-1.06c-0.314-0.324-0.67-0.624-1.068-0.897c-0.399-0.273-0.799-0.535-1.197-0.785l-0.375-0.24
		c-0.502,0.251-0.957,0.521-1.367,0.813c-0.41,0.29-0.762,0.609-1.051,0.957c-0.291,0.348-0.517,0.727-0.676,1.137
		C359.094,78.63,359.015,79.073,359.015,79.552z M362.518,64.753c-0.375,0-0.727,0.057-1.051,0.17
		c-0.324,0.114-0.604,0.28-0.838,0.496c-0.232,0.217-0.418,0.484-0.555,0.803c-0.137,0.319-0.205,0.679-0.205,1.077
		c0,0.479,0.07,0.892,0.213,1.239s0.336,0.655,0.582,0.923c0.244,0.268,0.529,0.507,0.854,0.718c0.326,0.211,0.67,0.418,1.035,0.623
		c0.353-0.182,0.688-0.381,1.008-0.598c0.318-0.216,0.601-0.464,0.846-0.743s0.441-0.596,0.59-0.948
		c0.148-0.354,0.223-0.758,0.223-1.214c0-0.398-0.068-0.758-0.205-1.077c-0.137-0.318-0.325-0.586-0.564-0.803
		c-0.239-0.216-0.524-0.382-0.854-0.496C363.264,64.81,362.905,64.753,362.518,64.753z"/>
	<path fill="#FFFFFF" d="M379.317,61.591c-0.159,0.627-0.351,1.285-0.573,1.974c-0.221,0.689-0.467,1.391-0.734,2.103
		s-0.547,1.416-0.838,2.11c-0.289,0.695-0.578,1.361-0.862,1.999h-3.743c0.16-0.684,0.322-1.4,0.488-2.152
		c0.164-0.752,0.324-1.504,0.479-2.256c0.152-0.752,0.293-1.481,0.418-2.188c0.125-0.707,0.233-1.361,0.324-1.966h4.785
		L379.317,61.591z M387.299,61.591c-0.16,0.627-0.352,1.285-0.572,1.974c-0.223,0.689-0.469,1.391-0.736,2.103
		s-0.547,1.416-0.836,2.11c-0.291,0.695-0.579,1.361-0.863,1.999h-3.76c0.17-0.684,0.338-1.4,0.504-2.152
		c0.164-0.752,0.324-1.504,0.479-2.256s0.293-1.481,0.418-2.188c0.125-0.707,0.234-1.361,0.325-1.966h4.785L387.299,61.591z"/>
</g>
<g>
	<path fill="#FFFFFF" d="M73.691,134.891c-0.352-0.777-0.936-1.748-1.152-2.584c-0.105-0.395-0.135-0.725,0.167-1.084
		c0.431-0.513,1.099-0.477,1.586-0.067c0.41,0.344,0.786,0.834,1.175,1.204c0.986,0.958,1.995,1.893,3.047,2.775
		c12.232,10.265,20.451,4.793,29.727-6.26l4.82-5.744l-6.566-5.509c-0.896-0.753-1.017-2.121-0.264-3.019
		c0.366-0.436,0.89-0.696,1.455-0.745l24.148-2.113c0.566-0.049,1.127,0.115,1.563,0.481c0.437,0.366,0.695,0.89,0.745,1.456
		l2.113,24.148c0.049,0.565-0.115,1.126-0.481,1.563c-0.753,0.898-2.121,1.018-3.019,0.264l-6.565-5.509l-4.82,5.744
		c-7.058,8.412-17.325,17.627-29.164,13.768c-3.622-1.204-6.81-3.397-9.681-5.807C78.936,144.84,75.748,139.106,73.691,134.891z"/>
</g>
<g>
	<path fill="#00A14B" d="M591.355,52.728l-32.324,32.325l-6.072,6.072c-0.804,0.804-1.92,1.25-3.036,1.25s-2.232-0.446-3.036-1.25
		l-6.072-6.072l-16.162-16.162c-0.804-0.804-1.25-1.92-1.25-3.036s0.446-2.232,1.25-3.036l6.072-6.072
		c0.804-0.804,1.92-1.25,3.036-1.25s2.232,0.447,3.036,1.25l13.126,13.171l29.288-29.333c0.804-0.804,1.92-1.25,3.036-1.25
		s2.232,0.446,3.036,1.25l6.072,6.072c0.804,0.804,1.25,1.92,1.25,3.036S592.159,51.925,591.355,52.728z"/>
</g>
<g>
	<path fill="#FFFFFF" d="M335.289,134.891c-0.352-0.777-0.936-1.748-1.152-2.584c-0.105-0.395-0.135-0.725,0.167-1.084
		c0.431-0.513,1.099-0.477,1.586-0.067c0.41,0.344,0.786,0.834,1.175,1.204c0.986,0.958,1.995,1.893,3.047,2.775
		c12.232,10.265,20.451,4.793,29.727-6.26l4.82-5.744l-6.566-5.509c-0.896-0.753-1.017-2.121-0.264-3.019
		c0.366-0.436,0.89-0.696,1.455-0.745l24.148-2.113c0.566-0.049,1.127,0.115,1.563,0.481c0.437,0.366,0.695,0.89,0.745,1.456
		l2.113,24.148c0.049,0.565-0.115,1.126-0.481,1.563c-0.753,0.898-2.121,1.018-3.019,0.264l-6.565-5.509l-4.82,5.744
		c-7.058,8.412-17.325,17.627-29.164,13.768c-3.622-1.204-6.81-3.397-9.681-5.807C340.533,144.84,337.346,139.106,335.289,134.891z"
		/>
</g>
</svg>
