<?xml version="1.0" encoding="utf-8"?>
<!-- Generator: Adobe Illustrator 15.0.0, SVG Export Plug-In . SVG Version: 6.00 Build 0)  -->
<!DOCTYPE svg PUBLIC "-//W3C//DTD SVG 1.1//EN" "http://www.w3.org/Graphics/SVG/1.1/DTD/svg11.dtd">
<svg version="1.1" id="Layer_1" xmlns="http://www.w3.org/2000/svg" xmlns:xlink="http://www.w3.org/1999/xlink" x="0px" y="0px"
	 width="600px" height="250px" viewBox="0 0 600 250" enable-background="new 0 0 600 250" xml:space="preserve">
<g>
	<g>
		<path fill-rule="evenodd" clip-rule="evenodd" fill="#9EB7D5" d="M319.182,79.843c-5.114,3.356-9.949,5.445-15.589,9.199
			c-1.984,1.315-4.524,3-7.192,5.19c-1.965,1.612-5.045,5.276-6.793,5.593c-2.885,0.522-8.1-1.875-10.789-3.194
			c-20.879-10.264-34.554-38.455-42.365-63.148C231.938,19.2,226.275,6.203,211.676,1.913c19.148,0.303,36.437,2.758,51.555,6.396
			c22.165,5.343,45.533,14.755,53.553,34.769c3.136,7.829,3.149,18.122,8.39,25.977c1.861,2.788,5.078,4.973,6.393,7.592
			c-28.177,3.121-30.679-23.412-42.759-37.963c-7.203-8.68-17.898-15.247-30.372-19.583c-0.326-0.078-0.398-0.403-0.8-0.403
			c9.981,6.574,17.479,12.549,24.377,21.984C292.704,55.29,296.232,77.642,319.182,79.843z"/>
		<path fill-rule="evenodd" clip-rule="evenodd" fill="#CBD6E7" d="M232.86,36.682c2.743,8.313,5.793,16.32,9.189,23.98
			c-13.013-6.838-31.314-10.509-51.153-9.191c4.623,2.419,9.555,2.523,13.988,3.595c13.67,3.327,25.29,8.323,35.569,16.387
			c6.114,4.798,11.979,11.06,18.383,16.388c8,6.654,13.8,13.834,25.177,16.38c0.376,1.943-2.671,4.334-4.397,6.796
			c-5.021,7.167-9.749,16.301-12.39,25.98c-28.312,0.041-46.157-14.393-61.544-27.979c-7.377-6.51-13.532-13.623-19.582-20.778
			c-12.875-15.227-22.896-35.714-49.154-37.167C165.239,42.811,196.168,35.238,232.86,36.682z"/>
		<path fill-rule="evenodd" clip-rule="evenodd" fill="#9EB7D5" d="M463.055,79.049c-16.422,5.96-34.875,9.884-37.17,29.967
			c-14.252-16.655-31.707-30.103-57.951-34.769c15.941-6.762,22.582-28.441,42.764-26.373c4.313,0.437,9.055,1.846,12.393,4.396
			c6.273,4.795,6.605,12.875,13.184,19.182C442.133,77.068,454.584,76.641,463.055,79.049z M420.291,65.458
			c-0.395-2.16-2.025-4.196-5.992-2.8C403.982,66.297,422.416,77.133,420.291,65.458z"/>
		<path fill-rule="evenodd" clip-rule="evenodd" fill="#4986B7" d="M381.924,114.612c-41.863-20.131-87.824,6.984-83.922,55.145
			c2.215,27.412,26.764,51.947,59.545,49.961c21.1-1.281,36.787-13.354,45.16-27.975c10.002-17.459,8.73-39.789-0.398-57.549
			c-15.033-29.222-51.713-53.776-97.914-39.563c1.18-3.252,5.043-4.36,7.988-5.992c9.662-5.339,21.469-9.845,35.17-10.791
			c30.008-2.068,50.422,9.901,65.146,23.577c14.799,13.753,26.625,34.368,26.771,61.548c0.176,32.045-14.162,52.273-31.971,66.732
			c-16.988,13.813-45.768,24.908-76.73,16.379c-24.229-6.666-43.092-22.992-53.95-44.748c-11.236-22.516-11.489-56.879,1.598-79.134
			c8.852-15.048,25.575-27.121,49.953-27.175C351.633,94.982,369.791,102.538,381.924,114.612z"/>
		<path fill-rule="evenodd" clip-rule="evenodd" fill="#CBD6E7" d="M379.525,143.786c-0.791,0.879-1.643-1.6-2.795-2.799
			c-2.939-3.035-8.445-6.352-14.791-6.393c-18.424-0.117-26.063,21.037-15.984,34.361c3.975,5.266,8.955,7.049,15.188,10.395
			c-32.746,14.605-60.443-27.604-36.764-51.946C341.238,110.057,376.004,117.881,379.525,143.786z"/>
		<path fill-rule="evenodd" clip-rule="evenodd" fill="#9EB7D5" d="M317.188,127.404c-16.508,24.481-2.113,59.983,29.57,60.337
			c7.529,0.086,13.193-1.545,18.379-4.393c1.471-0.807,2.713-2.541,4.396-2.795c2.281-0.33,5.373,0.992,8.395,1.199
			c8.857,0.604,17.654-0.385,25.176-1.199c-8.316,20.68-25.066,36.557-53.947,34.369c-24.865-1.893-44.559-22.914-46.361-46.365
			C301.379,150.128,307.885,137.735,317.188,127.404z"/>
	</g>
</g>
</svg>
