<?xml version="1.0" encoding="utf-8"?>
<!-- Generator: Adobe Illustrator 15.0.0, SVG Export Plug-In . SVG Version: 6.00 Build 0)  -->
<!DOCTYPE svg PUBLIC "-//W3C//DTD SVG 1.1//EN" "http://www.w3.org/Graphics/SVG/1.1/DTD/svg11.dtd">
<svg version="1.1"
	 id="svg2" sodipodi:docname="trophy.svg" inkscape:version="0.48.0 r9654" xmlns:dc="http://purl.org/dc/elements/1.1/" xmlns:cc="http://creativecommons.org/ns#" xmlns:rdf="http://www.w3.org/1999/02/22-rdf-syntax-ns#" xmlns:svg="http://www.w3.org/2000/svg" xmlns:sodipodi="http://sodipodi.sourceforge.net/DTD/sodipodi-0.dtd" xmlns:inkscape="http://www.inkscape.org/namespaces/inkscape"
	 xmlns="http://www.w3.org/2000/svg" xmlns:xlink="http://www.w3.org/1999/xlink" x="0px" y="0px" width="200px" height="300px"
	 viewBox="0 0 200 300" enable-background="new 0 0 200 300" xml:space="preserve">
<title  id="title3265">Trophy</title>
<sodipodi:namedview  id="base" showgrid="false" inkscape:cy="57.960461" inkscape:cx="125.59398" inkscape:zoom="0.5" borderopacity="1.0" bordercolor="#666666" pagecolor="#ffffff" inkscape:window-y="-4" inkscape:window-x="-4" inkscape:window-height="712" inkscape:window-width="1280" inkscape:current-layer="layer1" inkscape:document-units="px" inkscape:pageshadow="2" inkscape:pageopacity="0.0" inkscape:window-maximized="1">
	</sodipodi:namedview>
<g id="layer1" transform="translate(0, -752.362)" inkscape:label="Layer 1" inkscape:groupmode="layer">
	<path id="path4047" sodipodi:nodetypes="csscssccssccssscccssscsssccsssscc" inkscape:connector-curvature="0" fill="#B88100" d="
		M173.248,767.87c-1.458,0.004-2.961,0.076-4.457,0.19c-2.992,0.229-5.922,0.642-8.28,1.123c-1.179,0.241-2.222,0.49-3.07,0.761
		c-0.849,0.271-1.45,0.447-2.119,1.046c-1.613,1.446-2.374,3.34-2.714,5.233s-0.317,3.828-0.316,5.67
		c0,1.843-0.031,3.59-0.357,4.985c-0.325,1.396-0.856,2.399-1.941,3.159c-0.584,0.41-2.955,0.642-5.051,0.419
		s-3.883-0.666-3.883-0.666l-0.792,2.93c0,0,1.979,0.492,4.338,0.742s5.131,0.494,7.25-0.99c1.801-1.261,2.737-3.078,3.169-4.928
		s0.417-3.79,0.416-5.651c0-1.862,0.008-3.652,0.277-5.157c0.271-1.505,0.766-2.662,1.744-3.539
		c-0.171,0.152,0.309-0.164,0.99-0.381c0.681-0.217,1.615-0.461,2.713-0.685c2.197-0.448,5.031-0.847,7.885-1.065
		c2.853-0.218,5.734-0.238,8.002,0.019c2.27,0.257,3.813,0.952,4.081,1.294c3.546,4.524,4.153,12.335,2.198,21.75
		c-1.953,9.415-6.385,20.327-12.262,30.921c-11.753,21.188-31.531,39.039-45.916,43.745l1.011,2.873
		c16.125-5.275,35.699-23.596,47.679-45.19c5.99-10.797,10.539-21.927,12.579-31.758s1.679-18.486-2.773-24.166
		c-1.351-1.724-3.622-2.18-6.22-2.474C176.129,767.932,174.706,767.866,173.248,767.87L173.248,767.87z"/>
	
		<radialGradient id="path4061_1_" cx="-291.6924" cy="861.3659" r="49.7114" gradientTransform="matrix(0.6183 -1.9302 1.0465 0.3093 -568.361 25.6029)" gradientUnits="userSpaceOnUse">
		<stop  offset="0" style="stop-color:#E7BC77"/>
		<stop  offset="1" style="stop-color:#E7BC77;stop-opacity:0"/>
	</radialGradient>
	
		<path id="path4061" sodipodi:nodetypes="cssssccsssscsscsccssccscsccsssscc" inkscape:connector-curvature="0" fill="url(#path4061_1_)" d="
		M174.045,768.485c1.52-0.004,2.982,0.062,4.336,0.207c2.708,0.291,5.076,0.742,6.483,2.445c4.64,5.614,5.018,14.167,2.892,23.885
		c-2.127,9.717-6.848,20.717-13.092,31.389c-12.486,21.344-32.826,39.428-49.635,44.642l-1.053-2.84
		c14.994-4.65,35.525-22.271,47.776-43.212c6.126-10.471,10.745-21.257,12.781-30.562s1.404-17.024-2.292-21.497
		c-0.279-0.338-1.889-1.025-4.254-1.279c-2.363-0.253-5.367-0.235-8.342-0.019c-2.973,0.216-5.928,0.61-8.217,1.053
		c-1.146,0.222-2.119,0.462-2.83,0.677c-0.709,0.214-1.209,0.527-1.031,0.376c-1.02,0.867-1.535,2.011-1.817,3.498
		s-0.269,3.256-0.269,5.097s-0.004,3.757-0.454,5.586s-1.427,3.625-3.304,4.871c-2.209,1.466-5.099,1.226-7.557,0.978
		c-2.459-0.248-4.522-0.733-4.522-0.733l0.825-2.896c0,0,1.863,0.438,4.048,0.658s4.655-0.009,5.265-0.414
		c1.131-0.75,1.705-1.743,2.045-3.122c0.339-1.379,0.372-3.106,0.371-4.928c0-1.821-0.045-3.734,0.311-5.604
		c0.354-1.871,1.146-3.743,2.828-5.172c0.697-0.593,1.346-0.767,2.23-1.034c0.885-0.268,1.95-0.515,3.18-0.752
		c2.457-0.476,5.512-0.883,8.631-1.11C170.938,768.56,172.525,768.488,174.045,768.485L174.045,768.485z"/>
	<path id="path4045" sodipodi:nodetypes="cssssccsssscsscsccssccscscsscsscc" inkscape:connector-curvature="0" fill="#B88100" d="
		M26.346,767.87c-1.458-0.004-2.861,0.063-4.16,0.209c-2.598,0.294-4.869,0.75-6.22,2.474c-4.452,5.68-4.814,14.334-2.773,24.166
		s6.569,20.961,12.559,31.758c11.98,21.595,31.574,39.916,47.699,45.19l1.01-2.873c-14.385-4.706-34.163-22.557-45.916-43.745
		c-5.877-10.593-10.308-21.506-12.262-30.921c-1.954-9.415-1.347-17.225,2.199-21.75c0.268-0.342,1.812-1.037,4.081-1.294
		c2.268-0.257,5.15-0.237,8.003-0.019c2.853,0.219,5.687,0.618,7.884,1.066c1.098,0.224,2.033,0.468,2.714,0.685
		c0.681,0.217,1.161,0.534,0.99,0.381c0.978,0.877,1.473,2.035,1.743,3.539c0.271,1.505,0.258,3.295,0.257,5.157
		c0,1.862,0.004,3.801,0.436,5.651c0.432,1.851,1.369,3.668,3.169,4.929c2.119,1.483,4.891,1.24,7.25,0.989s4.338-0.742,4.338-0.742
		l-0.792-2.93c0,0-1.787,0.443-3.883,0.666c-2.096,0.223-4.466-0.009-5.051-0.419c-1.084-0.759-1.635-1.763-1.961-3.158
		c-0.326-1.396-0.357-3.143-0.356-4.986s0.043-3.778-0.297-5.67c-0.34-1.893-1.101-3.787-2.714-5.232
		c-0.668-0.6-1.291-0.776-2.139-1.047c-0.849-0.271-1.872-0.521-3.051-0.761c-2.358-0.481-5.288-0.894-8.28-1.123
		C29.327,767.945,27.804,767.874,26.346,767.87L26.346,767.87z"/>
	
		<radialGradient id="path4059_1_" cx="-349.1846" cy="502.5847" r="49.7119" gradientTransform="matrix(-0.6183 -1.9302 -1.0465 0.3093 358.3591 24.9857)" gradientUnits="userSpaceOnUse">
		<stop  offset="0" style="stop-color:#E7BC77"/>
		<stop  offset="1" style="stop-color:#E7BC77;stop-opacity:0"/>
	</radialGradient>
	
		<path id="path4059" sodipodi:nodetypes="cssssccssssssccsccssccscsccscssc" inkscape:connector-curvature="0" fill="url(#path4059_1_)" d="
		M26.954,767.87c-1.52-0.004-2.982,0.062-4.336,0.207c-2.708,0.291-5.076,0.741-6.483,2.445c-4.64,5.614-5.018,14.168-2.891,23.885
		c2.127,9.717,6.847,20.717,13.091,31.389c12.487,21.344,32.827,41.429,49.635,46.642l1.053-2.84
		c-14.994-4.651-35.525-24.271-47.776-45.212c-6.126-10.471-10.745-21.256-12.781-30.562s-1.404-17.025,2.292-21.497
		c0.28-0.338,1.889-1.025,4.253-1.279c2.365-0.254,5.368-0.235,8.342-0.019s5.928,0.61,8.218,1.053
		c1.145,0.222,2.119,0.462,2.829,0.677c0.709,0.214,1.21,0.527,1.032,0.376c1.02,0.867,1.535,2.011,1.817,3.498
		s0.269,3.256,0.269,5.097s0.004,3.757,0.454,5.586c0.45,1.829,1.427,3.625,3.304,4.871c2.209,1.466,5.099,1.226,7.557,0.978
		c2.459-0.248,4.522-0.734,4.522-0.734l-0.826-2.896c0,0-1.862,0.438-4.047,0.658c-2.185,0.22-4.656-0.009-5.266-0.414
		c-1.13-0.75-1.705-1.743-2.044-3.122c-0.339-1.379-0.372-3.106-0.372-4.928s0.044-3.734-0.31-5.604
		c-0.354-1.871-1.147-3.743-2.829-5.172c-0.697-0.593-1.345-0.767-2.23-1.035c-0.885-0.268-1.951-0.514-3.18-0.752
		c-2.458-0.476-5.512-0.883-8.631-1.11C30.061,767.945,28.473,767.873,26.954,767.87z"/>
	<path id="path4035" sodipodi:nodetypes="ccccc" inkscape:connector-curvature="0" fill="#310E0A" d="M46.35,1001.929l107.05-0.786
		l4.407,14.146H43.831L46.35,1001.929z"/>
	
		<linearGradient id="path4037_1_" gradientUnits="userSpaceOnUse" x1="376.1455" y1="-91.2523" x2="375.1455" y2="-99.7525" gradientTransform="matrix(1 0 0 -1 -275 688.3617)">
		<stop  offset="0" style="stop-color:#804D00"/>
		<stop  offset="1" style="stop-color:#B98304"/>
	</linearGradient>
	<path id="path4037" inkscape:connector-curvature="0" fill="url(#path4037_1_)" d="M94.944,783.092l0.079,0.19
		c-5.048,0.111-10.94,0.256-14.698,0.418c-8.835,0.381-26.247,3.692-26.247,3.692l-1.288,3.691c0,0,18.718-3.314,28.188-3.691
		c6.343-0.253,14.721-0.755,18.838-1.009c4.129,0.255,12.486,0.756,18.818,1.009c9.471,0.377,28.168,3.691,28.168,3.691
		l-1.268-3.691c0,0-17.411-3.311-26.246-3.692c-3.759-0.162-9.65-0.307-14.698-0.418l0.079-0.19c0,0-3.039,0.061-4.853,0.095
		C97.989,783.153,94.944,783.092,94.944,783.092L94.944,783.092z"/>
	
		<linearGradient id="path4039_1_" gradientUnits="userSpaceOnUse" x1="200.0127" y1="286.6516" x2="210.1142" y2="142.1997" gradientTransform="matrix(0.6339 0 0 -0.6089 -27.7159 967.9685)">
		<stop  offset="0" style="stop-color:#B88100"/>
		<stop  offset="1" style="stop-color:#FECD7B"/>
	</linearGradient>
	<path id="path4039" sodipodi:nodetypes="cccsccsccccc" inkscape:connector-curvature="0" fill="url(#path4039_1_)" d="
		M97.499,786.175v0.19c-13.348,0.34-25.524-0.82-43.421,5.347c0,0-1.422,31.089,3.209,47.97
		c3.455,12.591,9.336,27.352,19.195,36.288c14.011,10.987,34.003,10.628,46.629,0c9.859-8.936,15.761-23.697,19.215-36.288
		c4.632-16.881,3.209-47.97,3.209-47.97c-17.906-6.17-30.084-5.024-43.44-5.366v-0.171c-0.773,0.045-1.535,0.084-2.298,0.114
		C99.04,786.259,98.268,786.22,97.499,786.175z"/>
	
		<radialGradient id="path4041_1_" cx="-2218.4165" cy="828.4372" r="62.0465" gradientTransform="matrix(-0.0979 0 0 0.6993 -115.493 340.9055)" gradientUnits="userSpaceOnUse">
		<stop  offset="0" style="stop-color:#F6C374"/>
		<stop  offset="1" style="stop-color:#B88100"/>
	</radialGradient>
	<path id="path4041" sodipodi:nodetypes="cccccscccccccscccccc" inkscape:connector-curvature="0" fill="url(#path4041_1_)" d="
		M91.761,881.008l1.657,8.002l1.657,18.482l-4.972,4.306l3.861,4.935c0,0,4.877,23.37-5.456,32.213
		c-2.353,2.014-2.14-1.176-2.14-1.176l-5.754,3.508l-15.368,7.945c10.325,10.322,22.174,8.747,33.912,8.041
		c11.738,0.706,23.604,2.281,33.928-8.041l-15.367-7.945l-5.754-3.508c0,0,0.213,3.189-2.141,1.176
		c-10.333-8.843-5.455-32.213-5.455-32.213l3.86-4.935l-4.972-4.306l1.657-18.482l1.657-8.002
		C93.127,886.192,102.012,883.216,91.761,881.008z"/>
	<path id="path4043" sodipodi:nodetypes="ccccccc" inkscape:connector-curvature="0" fill="#3A0704" d="M65.764,958.965
		l-12.82,0.237l-3.844,22.136c36.987,1.329,64.854,0.282,102.333,0l-5.764-22.136c-5.239-0.104-17.166,0.127-12.32-1.237
		C113.919,968.175,80.723,971.253,65.764,958.965L65.764,958.965z"/>
	<path id="path4049" inkscape:connector-curvature="0" fill="#804D00" d="M90.378,945.376c-2.648,0.725-4.29,1.744-4.29,2.873
		c0,2.206,6.295,3.996,14.054,3.996c7.758,0,14.035-1.79,14.035-3.996c0-1.129-1.642-2.148-4.29-2.873
		c-0.516,0.443-1.095,0.854-1.738,1.217c1.2,0.467,1.923,1.033,1.923,1.656c0,1.559-4.447,2.816-9.93,2.816
		c-5.483,0-9.931-1.258-9.931-2.816c0-0.623,0.705-1.189,1.905-1.656C91.473,946.229,90.894,945.819,90.378,945.376z"/>
	<path id="path4051" sodipodi:nodetypes="cccc" inkscape:connector-curvature="0" fill="#804D00" d="M87.372,877.82
		c-15.43-12.894-25.572-14.588-29.455-86.113l3.842-1.23C62.392,824.115,56.73,852.189,87.372,877.82z"/>
	<path id="path4053" sodipodi:nodetypes="cccc" inkscape:connector-curvature="0" fill="#804D00" d="M106.582,883.971
		c15.43-12.894,31.975-20.124,35.857-91.649l-3.842-1.23C137.965,824.731,137.224,858.34,106.582,883.971z"/>
	
		<radialGradient id="path4055_1_" cx="-404.0049" cy="784.8898" r="42.4213" gradientTransform="matrix(-0.7088 0.0336 0.0575 1.5232 -231.9475 -374.1959)" gradientUnits="userSpaceOnUse">
		<stop  offset="0" style="stop-color:#DCAC62"/>
		<stop  offset="1" style="stop-color:#B88100"/>
	</radialGradient>
	<path id="path4055" sodipodi:nodetypes="ccccc" inkscape:connector-curvature="0" fill="url(#path4055_1_)" d="M73.285,791.256
		l8.324,50.889l38.419-0.697l6.403-51.585C107.543,782.665,90.533,787.739,73.285,791.256z"/>
	
		<radialGradient id="path4063_1_" cx="465.5479" cy="803.0851" r="62.0469" gradientTransform="matrix(-6.241200e-008 0.4168 0.7529 9.945720e-008 -505.0666 688.3671)" gradientUnits="userSpaceOnUse">
		<stop  offset="0" style="stop-color:#FCCA77"/>
		<stop  offset="1" style="stop-color:#FCCA77;stop-opacity:0"/>
	</radialGradient>
	<path id="path4063" sodipodi:nodetypes="cccccscccccccscccccc" inkscape:connector-curvature="0" fill="url(#path4063_1_)" d="
		M90.58,880.008l1.921,8.092l1.921,18.688l-5.764,4.355l4.477,4.989c0,0,5.635,21.095-6.993,30.519
		c-2.875,2.146-2.615-1.252-2.615-1.252l-7.032,3.737l-16.66,9.96c11.972,10.438,25.711,8.846,39.321,8.131
		c13.611,0.715,27.368,2.309,39.34-8.131l-16.659-9.96l-7.032-3.737c0,0,0.261,3.397-2.614,1.252
		c-12.628-9.424-6.993-30.519-6.993-30.519l4.478-4.989l-5.766-4.355l1.922-18.688l1.922-8.092
		C92.165,885.25,102.465,882.24,90.58,880.008L90.58,880.008z"/>
	
		<linearGradient id="rect4065_1_" gradientUnits="userSpaceOnUse" x1="379.3662" y1="-295.3343" x2="378.3662" y2="-347.3334" gradientTransform="matrix(0.9855 0 0 -1.0181 -273.2672 683.4477)">
		<stop  offset="0" style="stop-color:#692017"/>
		<stop  offset="1" style="stop-color:#46150F"/>
	</linearGradient>
	<path id="rect4065" fill="url(#rect4065_1_)" d="M50.103,980.23h100.573c0.281,0,0.509,0.228,0.509,0.509v27.161
		c0,0.281-0.228,0.509-0.509,0.509H50.103c-0.281,0-0.509-0.228-0.509-0.509v-27.161C49.594,980.458,49.821,980.23,50.103,980.23z"
		/>
	<rect id="rect4067" x="43.69" y="1014.675" fill="#692017" width="113.977" height="10.687"/>
	
		<linearGradient id="rect3285_1_" gradientUnits="userSpaceOnUse" x1="373.5107" y1="-262.095" x2="339.5107" y2="-263.595" gradientTransform="matrix(1 0 0 -1.2162 -275 676.8383)">
		<stop  offset="0" style="stop-color:#F0BE63"/>
		<stop  offset="1" style="stop-color:#B88100"/>
	</linearGradient>
	<path id="rect3285" sodipodi:nodetypes="cscscscsccscscscscc" inkscape:connector-curvature="0" fill="url(#rect3285_1_)" d="
		M73.006,984.362c0.004,0.043,0.033,0.083,0.033,0.127c0,1.994,2.06,3.641-3.04,3.887v6.857c0,0.143,0.232,0.252,0.532,0.252
		c-0.3,0-0.532,0.107-0.532,0.254v7.015c5.099,0.253,3.04,1.942,3.04,3.981c0,0.045-0.03,0.084-0.033,0.127h50.682
		c-0.063-0.169-0.133-0.346-0.133-0.521c0-1.713-0.886-3.152,3.444-3.666v-6.936c0-0.146-0.232-0.254-0.531-0.254
		c0.299,0,0.531-0.109,0.531-0.252v-6.779c-4.33-0.502-3.444-1.911-3.444-3.586c0-0.172,0.069-0.34,0.133-0.506H73.006z"/>
	
		<path id="path4105" sodipodi:nodetypes="ccccccc" inkscape:connector-curvature="0" opacity="0.2244" fill="none" stroke="#000000" enable-background="new    " d="
		M95.5,946.362l2.5-11.5l1-16.5l-3-4.5l2-3l-2.5-26.5c-8.535-2.613-12.614-7.898-14.5-14.5"/>
</g>
</svg>
