<?xml version="1.0" encoding="utf-8"?>
<!-- Generator: Adobe Illustrator 15.0.0, SVG Export Plug-In . SVG Version: 6.00 Build 0)  -->
<!DOCTYPE svg PUBLIC "-//W3C//DTD SVG 1.1//EN" "http://www.w3.org/Graphics/SVG/1.1/DTD/svg11.dtd">
<svg version="1.1" id="Layer_1" xmlns="http://www.w3.org/2000/svg" xmlns:xlink="http://www.w3.org/1999/xlink" x="0px" y="0px"
	 width="420px" height="75px" viewBox="0 0 420 75" style="enable-background:new 0 0 420 75;" xml:space="preserve">
<style type="text/css">
<![CDATA[
	.st0{fill:#777777;}
]]>
</style>
<g>
	<g>
		<path class="st0" d="M46.9,25.6c-1.3,0.8-2.5,1.4-3.9,2.3c-0.5,0.3-1.1,0.8-1.8,1.3c-0.5,0.4-1.3,1.3-1.7,1.4
			c-0.7,0.1-2-0.5-2.7-0.8C31.5,27.3,28,20.2,26,13.9c-1.1-3.6-2.6-6.9-6.2-7.9c4.8,0.1,9.2,0.7,13,1.6c5.6,1.3,11.5,3.7,13.5,8.8
			c0.8,2,0.8,4.6,2.1,6.5c0.5,0.7,1.3,1.3,1.6,1.9c-7.1,0.8-7.7-5.9-10.8-9.6c-1.8-2.2-4.5-3.8-7.6-4.9c-0.1,0-0.1-0.1-0.2-0.1
			c2.5,1.7,4.4,3.2,6.1,5.5C40.2,19.4,41.1,25.1,46.9,25.6z"/>
		<path class="st0" d="M25.1,14.8c0.7,2.1,1.5,4.1,2.3,6c-3.3-1.7-7.9-2.6-12.9-2.3c1.2,0.6,2.4,0.6,3.5,0.9c3.4,0.8,6.4,2.1,9,4.1
			c1.5,1.2,3,2.8,4.6,4.1c2,1.7,3.5,3.5,6.3,4.1c0.1,0.5-0.7,1.1-1.1,1.7c-1.3,1.8-2.5,4.1-3.1,6.5c-7.1,0-11.6-3.6-15.5-7
			c-1.9-1.6-3.4-3.4-4.9-5.2c-3.2-3.8-5.8-9-12.4-9.4C8.1,16.3,15.9,14.4,25.1,14.8z"/>
		<path class="st0" d="M83.1,25.4c-4.1,1.5-8.8,2.5-9.4,7.5c-3.6-4.2-8-7.6-14.6-8.8c4-1.7,5.7-7.2,10.8-6.6
			c1.1,0.1,2.3,0.5,3.1,1.1c1.6,1.2,1.7,3.2,3.3,4.8C77.8,24.9,80.9,24.8,83.1,25.4z M72.3,22c-0.1-0.5-0.5-1.1-1.5-0.7
			C68.2,22.2,72.9,24.9,72.3,22z"/>
		<path class="st0" d="M62.7,34.4c-10.5-5.1-22.1,1.8-21.1,13.9c0.6,6.9,6.7,13.1,15,12.6c5.3-0.3,9.3-3.4,11.4-7
			c2.5-4.4,2.2-10-0.1-14.5c-3.8-7.4-13-13.5-24.6-10c0.3-0.8,1.3-1.1,2-1.5c2.4-1.3,5.4-2.5,8.9-2.7c7.6-0.5,12.7,2.5,16.4,5.9
			c3.7,3.5,6.7,8.7,6.7,15.5c0,8.1-3.6,13.2-8,16.8c-4.3,3.5-11.5,6.3-19.3,4.1c-6.1-1.7-10.8-5.8-13.6-11.3
			c-2.8-5.7-2.9-14.3,0.4-19.9c2.2-3.8,6.4-6.8,12.6-6.8C55,29.4,59.6,31.3,62.7,34.4z"/>
		<path class="st0" d="M62.1,41.7c-0.2,0.2-0.4-0.4-0.7-0.7c-0.7-0.8-2.1-1.6-3.7-1.6c-4.6,0-6.6,5.3-4,8.6c1,1.3,2.3,1.8,3.8,2.6
			c-8.2,3.7-15.2-6.9-9.3-13.1C52.4,33.2,61.2,35.2,62.1,41.7z"/>
		<path class="st0" d="M46.4,37.6c-4.2,6.2-0.5,15.1,7.4,15.2c1.9,0,3.3-0.4,4.6-1.1c0.4-0.2,0.7-0.6,1.1-0.7
			c0.6-0.1,1.4,0.3,2.1,0.3c2.2,0.2,4.4-0.1,6.3-0.3c-2.1,5.2-6.3,9.2-13.6,8.7c-6.3-0.5-11.2-5.8-11.7-11.7
			C42.4,43.3,44,40.2,46.4,37.6z"/>
	</g>
</g>
<g>
	<path class="st0" d="M96.6,29c0-0.4-0.1-0.7-0.3-0.9c-0.2-0.2-0.4-0.4-0.8-0.6c-0.3-0.2-0.7-0.3-1.1-0.4c-0.4-0.1-0.8-0.2-1.3-0.3
		c-0.6-0.1-1.2-0.3-1.7-0.5c-0.5-0.2-1-0.4-1.4-0.7c-0.4-0.3-0.7-0.7-1-1.2c-0.2-0.5-0.4-1.1-0.4-1.8c0-0.8,0.1-1.5,0.4-2.1
		c0.3-0.6,0.7-1.1,1.1-1.5c0.5-0.4,1-0.7,1.7-0.9c0.6-0.2,1.4-0.3,2.2-0.3s1.6,0.1,2.5,0.2c0.8,0.2,1.5,0.4,2.1,0.6v2.4
		c-0.8-0.3-1.5-0.5-2.3-0.7s-1.4-0.2-2-0.2c-0.9,0-1.6,0.2-2.1,0.5c-0.5,0.3-0.7,0.8-0.7,1.5c0,0.4,0.1,0.7,0.2,1
		c0.2,0.3,0.4,0.5,0.7,0.6c0.3,0.2,0.6,0.3,1,0.4c0.4,0.1,0.8,0.2,1.2,0.3c0.6,0.1,1.3,0.3,1.9,0.5c0.6,0.2,1.1,0.4,1.6,0.7
		c0.5,0.3,0.8,0.7,1.1,1.3c0.3,0.5,0.4,1.2,0.4,2c0,0.8-0.2,1.5-0.5,2.1c-0.3,0.6-0.7,1.1-1.3,1.5c-0.6,0.4-1.2,0.7-2,0.9
		c-0.8,0.2-1.7,0.3-2.6,0.3c-0.8,0-1.6-0.1-2.4-0.2c-0.8-0.2-1.5-0.4-2-0.7v-2.4c0.8,0.3,1.5,0.6,2.2,0.7c0.7,0.1,1.5,0.2,2.2,0.2
		c0.4,0,0.9,0,1.3-0.1c0.4-0.1,0.8-0.2,1.1-0.4c0.3-0.2,0.6-0.4,0.8-0.7C96.5,29.8,96.6,29.4,96.6,29z"/>
	<path class="st0" d="M112.8,27.9c0,0.9-0.1,1.7-0.4,2.4c-0.3,0.7-0.6,1.3-1.1,1.8c-0.5,0.5-1.1,0.9-1.8,1.2
		c-0.7,0.3-1.4,0.4-2.3,0.4c-0.9,0-1.6-0.1-2.3-0.4c-0.7-0.3-1.3-0.7-1.8-1.2c-0.5-0.5-0.8-1.1-1.1-1.8s-0.4-1.5-0.4-2.4
		s0.1-1.7,0.4-2.4c0.3-0.7,0.6-1.3,1.1-1.8c0.5-0.5,1.1-0.9,1.8-1.2c0.7-0.3,1.4-0.4,2.3-0.4c0.9,0,1.6,0.1,2.3,0.4
		c0.7,0.3,1.3,0.7,1.8,1.2c0.5,0.5,0.8,1.1,1.1,1.8C112.6,26.2,112.8,27,112.8,27.9z M110,27.9c0-0.6-0.1-1.1-0.2-1.6
		c-0.1-0.4-0.3-0.8-0.6-1.1c-0.2-0.3-0.5-0.5-0.9-0.7c-0.3-0.2-0.7-0.2-1.1-0.2c-0.4,0-0.8,0.1-1.1,0.2c-0.3,0.2-0.6,0.4-0.9,0.7
		c-0.2,0.3-0.4,0.7-0.6,1.1c-0.1,0.4-0.2,1-0.2,1.6s0.1,1.1,0.2,1.6c0.1,0.4,0.3,0.8,0.6,1.1c0.2,0.3,0.5,0.5,0.9,0.7
		c0.3,0.2,0.7,0.2,1.1,0.2s0.8-0.1,1.1-0.2c0.3-0.2,0.6-0.4,0.9-0.7c0.2-0.3,0.4-0.7,0.6-1.1C109.9,29,110,28.4,110,27.9z"/>
	<path class="st0" d="M123.1,33.1c-0.3,0.1-0.8,0.3-1.3,0.4c-0.5,0.1-1,0.2-1.6,0.2c-0.8,0-1.5-0.1-2.2-0.3c-0.7-0.2-1.3-0.6-1.8-1
		c-0.5-0.5-0.9-1.1-1.2-1.8s-0.4-1.5-0.4-2.5c0-1.1,0.2-2,0.5-2.7c0.3-0.8,0.8-1.4,1.3-1.9s1.2-0.8,1.8-1.1c0.7-0.2,1.4-0.3,2-0.3
		c0.5,0,1,0,1.4,0.1c0.5,0.1,0.9,0.2,1.2,0.4v2.2c-0.3-0.1-0.7-0.3-1.1-0.3s-0.8-0.1-1.2-0.1s-0.8,0.1-1.2,0.2
		c-0.4,0.1-0.7,0.3-1,0.6c-0.3,0.3-0.5,0.7-0.7,1.1c-0.2,0.5-0.3,1-0.3,1.7c0,0.5,0.1,0.9,0.2,1.4c0.1,0.4,0.3,0.8,0.6,1.1
		c0.3,0.3,0.6,0.5,1,0.7c0.4,0.2,0.9,0.3,1.4,0.3c0.5,0,0.9,0,1.3-0.1c0.4-0.1,0.8-0.2,1.1-0.4V33.1z"/>
	<path class="st0" d="M125.5,16.9h2.8v2.9h-2.8V16.9z M125.5,22.3h2.7v11.1h-2.7V22.3z"/>
	<path class="st0" d="M137,31.5c0.5,0,1.1-0.1,1.6-0.2c0.6-0.1,1.1-0.3,1.7-0.5V33c-0.4,0.2-0.9,0.3-1.6,0.4
		c-0.7,0.1-1.5,0.2-2.2,0.2c-0.8,0-1.5-0.1-2.2-0.3c-0.7-0.2-1.3-0.5-1.8-1c-0.5-0.4-0.9-1-1.3-1.7c-0.3-0.7-0.5-1.6-0.5-2.6
		c0-1,0.1-1.9,0.4-2.6c0.3-0.8,0.7-1.4,1.2-1.9c0.5-0.5,1-0.9,1.7-1.1c0.6-0.2,1.3-0.4,1.9-0.4c0.7,0,1.3,0.1,1.9,0.3
		c0.6,0.2,1.1,0.5,1.5,1c0.4,0.5,0.8,1,1,1.8c0.2,0.7,0.4,1.6,0.4,2.6c0,0.4,0,0.7,0,1h-7.2c0,0.5,0.2,0.9,0.3,1.3s0.4,0.7,0.7,0.9
		c0.3,0.2,0.7,0.4,1.1,0.5C136.1,31.4,136.5,31.5,137,31.5z M135.9,24.2c-0.3,0-0.6,0.1-0.9,0.2c-0.3,0.1-0.5,0.3-0.7,0.5
		c-0.2,0.2-0.3,0.5-0.5,0.8c-0.1,0.3-0.2,0.6-0.2,0.9h4.3c0-0.3,0-0.6-0.1-0.9s-0.2-0.5-0.4-0.8c-0.2-0.2-0.4-0.4-0.6-0.5
		S136.2,24.2,135.9,24.2z"/>
	<path class="st0" d="M150,33.4c-0.3,0.1-0.7,0.2-1.1,0.2c-0.4,0.1-0.8,0.1-1.2,0.1c-0.9,0-1.7-0.1-2.3-0.5c-0.6-0.3-1-0.7-1.3-1.3
		c-0.2-0.4-0.3-1-0.3-1.6v-5.7h-2.1v-2.2h2.1v-3.1h2.7v3.1h3.2v2.2h-3.2v5.4c0,0.4,0.1,0.7,0.2,0.9c0.2,0.3,0.7,0.5,1.4,0.5
		c0.3,0,0.6,0,0.9-0.1c0.3,0,0.6-0.1,0.9-0.2L150,33.4L150,33.4z"/>
	<path class="st0" d="M150.8,22.3h2.9l1.7,4c0.6,1.5,1.1,2.6,1.3,3.4h0c0.2-0.6,0.6-1.6,1.2-3.2l1.7-4.2h2.9l-7.1,16.4h-2.7l2.5-5.9
		L150.8,22.3z"/>
	<path class="st0" d="M175.9,19c-0.3-0.1-0.6-0.1-0.9-0.2c-0.3,0-0.6-0.1-0.9-0.1c-0.3,0-0.6,0-0.8,0.1c-0.2,0.1-0.4,0.2-0.6,0.4
		c-0.2,0.2-0.3,0.4-0.4,0.6c-0.1,0.3-0.1,0.6-0.1,1v1.4h3.1v2.2h-3.1v8.8h-2.7v-8.8h-1.9v-2.2h1.9V21c0-0.8,0.1-1.4,0.3-2
		c0.2-0.6,0.5-1,0.9-1.4c0.4-0.4,0.8-0.6,1.4-0.8s1.1-0.3,1.7-0.3c0.4,0,0.8,0,1.1,0.1c0.4,0.1,0.7,0.1,1,0.2V19L175.9,19z"/>
	<path class="st0" d="M187.2,27.9c0,0.9-0.1,1.7-0.4,2.4c-0.3,0.7-0.6,1.3-1.1,1.8c-0.5,0.5-1.1,0.9-1.8,1.2
		c-0.7,0.3-1.4,0.4-2.3,0.4c-0.9,0-1.6-0.1-2.3-0.4c-0.7-0.3-1.3-0.7-1.8-1.2c-0.5-0.5-0.8-1.1-1.1-1.8c-0.3-0.7-0.4-1.5-0.4-2.4
		s0.1-1.7,0.4-2.4c0.3-0.7,0.6-1.3,1.1-1.8c0.5-0.5,1.1-0.9,1.8-1.2c0.7-0.3,1.4-0.4,2.3-0.4c0.9,0,1.6,0.1,2.3,0.4
		c0.7,0.3,1.3,0.7,1.8,1.2c0.5,0.5,0.8,1.1,1.1,1.8C187,26.2,187.2,27,187.2,27.9z M184.4,27.9c0-0.6-0.1-1.1-0.2-1.6
		c-0.1-0.4-0.3-0.8-0.6-1.1c-0.2-0.3-0.5-0.5-0.9-0.7c-0.3-0.2-0.7-0.2-1.1-0.2c-0.4,0-0.8,0.1-1.1,0.2c-0.3,0.2-0.6,0.4-0.9,0.7
		c-0.2,0.3-0.4,0.7-0.6,1.1c-0.1,0.4-0.2,1-0.2,1.6s0.1,1.1,0.2,1.6c0.1,0.4,0.3,0.8,0.6,1.1c0.2,0.3,0.5,0.5,0.9,0.7
		c0.3,0.2,0.7,0.2,1.1,0.2c0.4,0,0.8-0.1,1.1-0.2c0.3-0.2,0.6-0.4,0.9-0.7c0.2-0.3,0.4-0.7,0.6-1.1C184.3,29,184.4,28.4,184.4,27.9z
		"/>
	<path class="st0" d="M196.1,24.5h-0.2c-0.8,0-1.6,0.1-2.2,0.4c-0.6,0.2-1.1,0.6-1.5,1.1v7.4h-2.7V22.3h2.2l0.3,1.5h0
		c0.3-0.6,0.8-1,1.3-1.3c0.6-0.3,1.2-0.5,2-0.5c0.3,0,0.5,0,0.7,0L196.1,24.5L196.1,24.5z"/>
	<path class="st0" d="M209.4,20.2c-0.8,0-1.5,0.1-2.1,0.4c-0.6,0.3-1.2,0.6-1.7,1.1c-0.5,0.5-0.8,1.1-1.1,1.8
		c-0.3,0.7-0.4,1.5-0.4,2.4c0,0.9,0.1,1.7,0.4,2.4c0.2,0.7,0.6,1.3,1,1.7c0.4,0.5,1,0.8,1.6,1c0.6,0.2,1.4,0.3,2.2,0.3
		c0.6,0,1.2,0,1.8-0.1c0.6-0.1,1.2-0.2,1.7-0.4v2.4c-0.5,0.2-1.1,0.3-1.7,0.4c-0.6,0.1-1.3,0.1-1.9,0.1c-1.3,0-2.4-0.2-3.4-0.6
		c-1-0.4-1.8-0.9-2.5-1.6c-0.7-0.7-1.2-1.5-1.5-2.4c-0.3-0.9-0.5-2-0.5-3.1c0-1.2,0.2-2.2,0.5-3.2c0.4-1,0.9-1.9,1.5-2.6
		s1.5-1.3,2.5-1.7s2.1-0.6,3.4-0.6c0.6,0,1.3,0,1.8,0.1c0.6,0.1,1.1,0.2,1.6,0.4v2.4c-0.6-0.2-1.2-0.3-1.7-0.4
		C210.4,20.2,209.9,20.2,209.4,20.2z"/>
	<path class="st0" d="M225.8,27.9c0,0.9-0.1,1.7-0.4,2.4s-0.6,1.3-1.1,1.8c-0.5,0.5-1.1,0.9-1.8,1.2c-0.7,0.3-1.4,0.4-2.3,0.4
		c-0.9,0-1.6-0.1-2.3-0.4c-0.7-0.3-1.3-0.7-1.8-1.2c-0.5-0.5-0.8-1.1-1.1-1.8c-0.3-0.7-0.4-1.5-0.4-2.4s0.1-1.7,0.4-2.4
		c0.3-0.7,0.6-1.3,1.1-1.8c0.5-0.5,1.1-0.9,1.8-1.2c0.7-0.3,1.4-0.4,2.3-0.4c0.9,0,1.6,0.1,2.3,0.4c0.7,0.3,1.3,0.7,1.8,1.2
		c0.5,0.5,0.8,1.1,1.1,1.8C225.7,26.2,225.8,27,225.8,27.9z M223,27.9c0-0.6-0.1-1.1-0.2-1.6c-0.1-0.4-0.3-0.8-0.6-1.1
		c-0.2-0.3-0.5-0.5-0.9-0.7c-0.3-0.2-0.7-0.2-1.1-0.2c-0.4,0-0.8,0.1-1.1,0.2c-0.3,0.2-0.6,0.4-0.9,0.7c-0.2,0.3-0.4,0.7-0.6,1.1
		c-0.1,0.4-0.2,1-0.2,1.6s0.1,1.1,0.2,1.6c0.1,0.4,0.3,0.8,0.6,1.1c0.2,0.3,0.5,0.5,0.9,0.7c0.3,0.2,0.7,0.2,1.1,0.2
		c0.4,0,0.8-0.1,1.1-0.2c0.3-0.2,0.6-0.4,0.9-0.7c0.2-0.3,0.4-0.7,0.6-1.1C223,29,223,28.4,223,27.9z"/>
	<path class="st0" d="M230.7,23.9L230.7,23.9c0.2-0.2,0.4-0.5,0.7-0.7c0.2-0.2,0.5-0.4,0.8-0.6s0.7-0.3,1-0.4
		c0.4-0.1,0.8-0.2,1.2-0.2c0.4,0,0.8,0,1.2,0.1c0.4,0.1,0.7,0.2,1,0.4c0.3,0.2,0.6,0.4,0.8,0.8c0.2,0.3,0.4,0.7,0.6,1.1
		c0.1,0.2,0.1,0.5,0.2,0.8c0,0.3,0,0.6,0,1v7.2h-2.7v-6.8c0-0.3,0-0.6,0-0.8c0-0.2-0.1-0.4-0.1-0.6c-0.1-0.3-0.3-0.6-0.6-0.8
		c-0.3-0.2-0.6-0.2-1-0.2c-0.5,0-1,0.1-1.5,0.4c-0.5,0.2-0.9,0.6-1.3,1.1v7.6h-2.7V22.3h2.2L230.7,23.9z"/>
	<path class="st0" d="M246.1,30.2c0-0.2-0.1-0.4-0.2-0.6c-0.1-0.2-0.3-0.3-0.5-0.4s-0.5-0.2-0.8-0.3s-0.6-0.2-0.9-0.2
		c-0.4-0.1-0.8-0.2-1.1-0.4c-0.4-0.1-0.7-0.3-1-0.6c-0.3-0.2-0.5-0.5-0.7-0.9c-0.2-0.3-0.2-0.8-0.2-1.3c0-0.6,0.1-1.2,0.3-1.6
		c0.2-0.5,0.5-0.8,0.9-1.1c0.4-0.3,0.8-0.5,1.3-0.7c0.5-0.1,1-0.2,1.6-0.2c0.7,0,1.3,0.1,1.9,0.2c0.6,0.1,1.1,0.3,1.6,0.4v2.2
		c-0.3-0.1-0.5-0.2-0.8-0.2c-0.3-0.1-0.6-0.1-0.8-0.2c-0.3-0.1-0.6-0.1-0.9-0.1s-0.5-0.1-0.8-0.1c-0.3,0-0.6,0-0.8,0.1
		c-0.2,0.1-0.4,0.1-0.5,0.2c-0.1,0.1-0.2,0.2-0.3,0.4c-0.1,0.1-0.1,0.3-0.1,0.4c0,0.3,0.1,0.5,0.2,0.6s0.3,0.3,0.6,0.4
		c0.2,0.1,0.5,0.2,0.7,0.2c0.3,0.1,0.5,0.1,0.8,0.2c0.4,0.1,0.8,0.2,1.1,0.3c0.4,0.1,0.7,0.3,1,0.5c0.3,0.2,0.6,0.5,0.7,0.9
		c0.2,0.4,0.3,0.8,0.3,1.4c0,0.6-0.1,1.2-0.4,1.6c-0.2,0.5-0.6,0.9-1,1.2c-0.4,0.3-0.9,0.5-1.5,0.7s-1.2,0.2-1.9,0.2
		c-0.7,0-1.3-0.1-1.9-0.2c-0.6-0.1-1-0.2-1.4-0.4v-2.2c0.6,0.2,1.1,0.4,1.6,0.5s1,0.1,1.4,0.1c0.3,0,0.6,0,0.9-0.1
		c0.3,0,0.5-0.1,0.7-0.2c0.2-0.1,0.4-0.2,0.5-0.4S246.1,30.4,246.1,30.2z"/>
	<path class="st0" d="M256.8,31.5c0.5,0,1.1-0.1,1.6-0.2c0.6-0.1,1.1-0.3,1.7-0.5V33c-0.4,0.2-0.9,0.3-1.6,0.4
		c-0.7,0.1-1.5,0.2-2.2,0.2c-0.8,0-1.5-0.1-2.2-0.3c-0.7-0.2-1.3-0.5-1.8-1c-0.5-0.4-0.9-1-1.3-1.7c-0.3-0.7-0.5-1.6-0.5-2.6
		c0-1,0.1-1.9,0.4-2.6s0.7-1.4,1.2-1.9c0.5-0.5,1-0.9,1.7-1.1c0.6-0.2,1.3-0.4,1.9-0.4c0.7,0,1.3,0.1,1.9,0.3c0.6,0.2,1.1,0.5,1.5,1
		c0.4,0.5,0.8,1,1,1.8c0.2,0.7,0.4,1.6,0.4,2.6c0,0.4,0,0.7,0,1h-7.2c0,0.5,0.1,0.9,0.3,1.3c0.2,0.4,0.4,0.7,0.7,0.9
		c0.3,0.2,0.7,0.4,1.1,0.5C255.9,31.4,256.3,31.5,256.8,31.5z M255.7,24.2c-0.3,0-0.6,0.1-0.9,0.2c-0.3,0.1-0.5,0.3-0.7,0.5
		c-0.2,0.2-0.3,0.5-0.5,0.8c-0.1,0.3-0.2,0.6-0.2,0.9h4.3c0-0.3,0-0.6-0.1-0.9c-0.1-0.3-0.2-0.5-0.4-0.8c-0.2-0.2-0.4-0.4-0.6-0.5
		C256.4,24.2,256.1,24.2,255.7,24.2z"/>
	<path class="st0" d="M269.7,24.5h-0.2c-0.8,0-1.6,0.1-2.2,0.4s-1.1,0.6-1.5,1.1v7.4h-2.7V22.3h2.2l0.3,1.5h0c0.3-0.6,0.8-1,1.3-1.3
		c0.6-0.3,1.2-0.5,2-0.5c0.3,0,0.5,0,0.7,0L269.7,24.5L269.7,24.5z"/>
	<path class="st0" d="M281.1,22.3l-4.3,11.1h-2.7l-4.3-11.1h2.9l1.5,4.2c0.4,1.2,0.8,2.4,1.2,3.6h0c0.3-1,0.7-2.2,1.2-3.5l1.5-4.3
		H281.1z"/>
	<path class="st0" d="M289.2,32.2L289.2,32.2c-0.2,0.2-0.4,0.3-0.6,0.5c-0.2,0.2-0.5,0.3-0.7,0.5c-0.3,0.1-0.6,0.3-0.9,0.4
		c-0.3,0.1-0.7,0.1-1.1,0.1c-0.5,0-1-0.1-1.5-0.2s-0.8-0.4-1.2-0.7c-0.3-0.3-0.6-0.7-0.8-1.1c-0.2-0.4-0.3-0.9-0.3-1.5
		c0-0.6,0.1-1.1,0.3-1.6c0.2-0.5,0.5-0.9,0.9-1.2c0.4-0.3,0.9-0.6,1.4-0.7c0.5-0.2,1.1-0.3,1.8-0.3c0.5,0,0.9,0,1.3,0.1
		c0.4,0.1,0.8,0.1,1.1,0.2v-0.4c0-0.3,0-0.5-0.1-0.7c-0.1-0.2-0.2-0.5-0.4-0.6c-0.2-0.2-0.4-0.3-0.8-0.4s-0.7-0.2-1.1-0.2
		c-0.5,0-1.1,0.1-1.6,0.2c-0.5,0.1-1.1,0.3-1.8,0.5v-2.1c0.6-0.2,1.1-0.4,1.8-0.6c0.6-0.1,1.3-0.2,2-0.2c0.8,0,1.5,0.1,2.1,0.3
		c0.6,0.2,1.1,0.5,1.5,0.8c0.4,0.3,0.7,0.8,0.9,1.2c0.2,0.5,0.3,1,0.3,1.5v4.2c0,0.7,0,1.4,0,1.9c0,0.5,0,1,0,1.4h-2.4L289.2,32.2z
		 M289,28.7c-0.3-0.1-0.6-0.1-0.9-0.2c-0.3,0-0.7-0.1-1-0.1c-0.7,0-1.2,0.1-1.6,0.4c-0.4,0.3-0.6,0.7-0.6,1.2c0,0.3,0,0.5,0.1,0.7
		s0.2,0.3,0.4,0.5c0.1,0.1,0.3,0.2,0.5,0.3c0.2,0.1,0.4,0.1,0.6,0.1c0.3,0,0.5,0,0.8-0.1c0.2-0.1,0.5-0.2,0.7-0.3
		c0.2-0.1,0.4-0.2,0.6-0.4c0.2-0.1,0.3-0.3,0.4-0.4L289,28.7L289,28.7z"/>
	<path class="st0" d="M301.5,33.4c-0.3,0.1-0.7,0.2-1.1,0.2c-0.4,0.1-0.8,0.1-1.2,0.1c-0.9,0-1.7-0.1-2.3-0.5
		c-0.6-0.3-1-0.7-1.2-1.3c-0.2-0.4-0.3-1-0.3-1.6v-5.7h-2.1v-2.2h2.1v-3.1h2.7v3.1h3.2v2.2h-3.2v5.4c0,0.4,0.1,0.7,0.2,0.9
		c0.2,0.3,0.7,0.5,1.4,0.5c0.3,0,0.6,0,0.9-0.1c0.3,0,0.6-0.1,0.9-0.2V33.4L301.5,33.4z"/>
	<path class="st0" d="M303.6,16.9h2.8v2.9h-2.8V16.9z M303.7,22.3h2.7v11.1h-2.7V22.3z"/>
	<path class="st0" d="M320,27.9c0,0.9-0.1,1.7-0.4,2.4s-0.6,1.3-1.1,1.8c-0.5,0.5-1.1,0.9-1.8,1.2c-0.7,0.3-1.4,0.4-2.3,0.4
		c-0.9,0-1.6-0.1-2.3-0.4c-0.7-0.3-1.3-0.7-1.8-1.2c-0.5-0.5-0.8-1.1-1.1-1.8c-0.3-0.7-0.4-1.5-0.4-2.4s0.1-1.7,0.4-2.4
		c0.3-0.7,0.6-1.3,1.1-1.8c0.5-0.5,1.1-0.9,1.8-1.2c0.7-0.3,1.4-0.4,2.3-0.4c0.9,0,1.6,0.1,2.3,0.4c0.7,0.3,1.3,0.7,1.8,1.2
		c0.5,0.5,0.8,1.1,1.1,1.8C319.8,26.2,320,27,320,27.9z M317.2,27.9c0-0.6-0.1-1.1-0.2-1.6c-0.1-0.4-0.3-0.8-0.6-1.1
		c-0.2-0.3-0.5-0.5-0.9-0.7c-0.3-0.2-0.7-0.2-1.1-0.2c-0.4,0-0.8,0.1-1.1,0.2c-0.3,0.2-0.6,0.4-0.9,0.7c-0.2,0.3-0.4,0.7-0.6,1.1
		c-0.1,0.4-0.2,1-0.2,1.6s0.1,1.1,0.2,1.6c0.1,0.4,0.3,0.8,0.6,1.1c0.2,0.3,0.5,0.5,0.9,0.7c0.3,0.2,0.7,0.2,1.1,0.2
		c0.4,0,0.8-0.1,1.1-0.2c0.3-0.2,0.6-0.4,0.9-0.7c0.2-0.3,0.4-0.7,0.6-1.1C317.1,29,317.2,28.4,317.2,27.9z"/>
	<path class="st0" d="M324.9,23.9L324.9,23.9c0.2-0.2,0.4-0.5,0.7-0.7c0.2-0.2,0.5-0.4,0.8-0.6c0.3-0.2,0.7-0.3,1-0.4
		c0.4-0.1,0.8-0.2,1.2-0.2c0.4,0,0.8,0,1.2,0.1c0.4,0.1,0.7,0.2,1,0.4c0.3,0.2,0.6,0.4,0.8,0.8c0.2,0.3,0.4,0.7,0.6,1.1
		c0.1,0.2,0.1,0.5,0.2,0.8c0,0.3,0,0.6,0,1v7.2h-2.7v-6.8c0-0.3,0-0.6,0-0.8c0-0.2-0.1-0.4-0.1-0.6c-0.1-0.3-0.3-0.6-0.6-0.8
		c-0.3-0.2-0.6-0.2-1-0.2c-0.5,0-1,0.1-1.5,0.4s-0.9,0.6-1.3,1.1v7.6h-2.7V22.3h2.2L324.9,23.9z"/>
	<path class="st0" d="M351.6,22.2c0,0.7-0.1,1.3-0.4,1.8c-0.3,0.6-0.8,1-1.5,1.4v0c0.4,0.1,0.7,0.3,1,0.5c0.3,0.2,0.6,0.4,0.8,0.7
		c0.2,0.3,0.4,0.6,0.5,0.9c0.1,0.4,0.2,0.7,0.2,1.2c0,0.4-0.1,0.8-0.2,1.2c-0.1,0.4-0.3,0.8-0.6,1.2c-0.3,0.4-0.7,0.8-1.2,1.1
		c-0.5,0.3-1.1,0.6-1.9,0.8c-0.2,0-0.4,0.1-0.6,0.1c-0.2,0-0.5,0.1-0.7,0.1c-0.3,0-0.6,0-0.9,0.1c-0.3,0-0.7,0-1.1,0h-4.4V18.1h5.3
		c1.1,0,2,0.1,2.7,0.3c0.5,0.2,1,0.4,1.3,0.7s0.7,0.6,0.9,0.9c0.2,0.3,0.4,0.7,0.5,1.1C351.5,21.4,351.6,21.8,351.6,22.2z
		 M345.8,24.4c0.8,0,1.3-0.1,1.7-0.2c0.4-0.2,0.7-0.4,0.9-0.7c0.2-0.3,0.3-0.7,0.3-1c0-0.4-0.1-0.8-0.3-1.1
		c-0.2-0.3-0.6-0.5-1.1-0.7c-0.2-0.1-0.4-0.1-0.7-0.1c-0.3,0-0.6,0-1,0h-2.3v3.9L345.8,24.4L345.8,24.4z M343.3,26.7V31h1.8
		c0.5,0,0.9,0,1.3,0c0.4,0,0.7-0.1,0.9-0.1c0.4-0.1,0.7-0.2,1-0.3c0.3-0.1,0.5-0.3,0.6-0.5c0.2-0.2,0.3-0.4,0.3-0.6
		c0.1-0.2,0.1-0.4,0.1-0.7c0-0.4-0.1-0.8-0.4-1.1c-0.2-0.3-0.6-0.6-1.1-0.7c-0.2-0.1-0.5-0.1-0.8-0.1c-0.3,0-0.7,0-1.1,0H343.3z"/>
	<path class="st0" d="M354.7,16.9h2.8v2.9h-2.8V16.9z M354.8,22.3h2.7v11.1h-2.7V22.3z"/>
	<path class="st0" d="M371.1,27.9c0,0.9-0.1,1.7-0.4,2.4c-0.3,0.7-0.6,1.3-1.1,1.8c-0.5,0.5-1.1,0.9-1.8,1.2
		c-0.7,0.3-1.4,0.4-2.3,0.4c-0.9,0-1.6-0.1-2.3-0.4c-0.7-0.3-1.3-0.7-1.8-1.2c-0.5-0.5-0.8-1.1-1.1-1.8c-0.3-0.7-0.4-1.5-0.4-2.4
		s0.1-1.7,0.4-2.4c0.3-0.7,0.6-1.3,1.1-1.8c0.5-0.5,1.1-0.9,1.8-1.2c0.7-0.3,1.4-0.4,2.3-0.4c0.9,0,1.6,0.1,2.3,0.4
		c0.7,0.3,1.3,0.7,1.8,1.2c0.5,0.5,0.8,1.1,1.1,1.8C370.9,26.2,371.1,27,371.1,27.9z M368.3,27.9c0-0.6-0.1-1.1-0.2-1.6
		c-0.1-0.4-0.3-0.8-0.6-1.1c-0.2-0.3-0.5-0.5-0.9-0.7c-0.3-0.2-0.7-0.2-1.1-0.2c-0.4,0-0.8,0.1-1.1,0.2c-0.3,0.2-0.6,0.4-0.9,0.7
		c-0.2,0.3-0.4,0.7-0.6,1.1c-0.1,0.4-0.2,1-0.2,1.6s0.1,1.1,0.2,1.6c0.1,0.4,0.3,0.8,0.6,1.1c0.2,0.3,0.5,0.5,0.9,0.7
		c0.3,0.2,0.7,0.2,1.1,0.2c0.4,0,0.8-0.1,1.1-0.2c0.3-0.2,0.6-0.4,0.9-0.7c0.2-0.3,0.4-0.7,0.6-1.1C368.2,29,368.3,28.4,368.3,27.9z
		"/>
	<path class="st0" d="M373.6,33.4V16.9h2.7v16.5H373.6z"/>
	<path class="st0" d="M389.9,27.9c0,0.9-0.1,1.7-0.4,2.4c-0.3,0.7-0.6,1.3-1.1,1.8c-0.5,0.5-1.1,0.9-1.8,1.2
		c-0.7,0.3-1.4,0.4-2.3,0.4c-0.9,0-1.6-0.1-2.3-0.4c-0.7-0.3-1.3-0.7-1.8-1.2c-0.5-0.5-0.8-1.1-1.1-1.8c-0.3-0.7-0.4-1.5-0.4-2.4
		s0.1-1.7,0.4-2.4c0.3-0.7,0.6-1.3,1.1-1.8c0.5-0.5,1.1-0.9,1.8-1.2c0.7-0.3,1.4-0.4,2.3-0.4c0.9,0,1.6,0.1,2.3,0.4
		c0.7,0.3,1.3,0.7,1.8,1.2c0.5,0.5,0.8,1.1,1.1,1.8C389.8,26.2,389.9,27,389.9,27.9z M387.1,27.9c0-0.6-0.1-1.1-0.2-1.6
		c-0.1-0.4-0.3-0.8-0.6-1.1c-0.2-0.3-0.5-0.5-0.9-0.7c-0.3-0.2-0.7-0.2-1.1-0.2c-0.4,0-0.8,0.1-1.1,0.2c-0.3,0.2-0.6,0.4-0.9,0.7
		c-0.2,0.3-0.4,0.7-0.6,1.1c-0.1,0.4-0.2,1-0.2,1.6s0.1,1.1,0.2,1.6c0.1,0.4,0.3,0.8,0.6,1.1c0.2,0.3,0.5,0.5,0.9,0.7
		c0.3,0.2,0.7,0.2,1.1,0.2c0.4,0,0.8-0.1,1.1-0.2c0.3-0.2,0.6-0.4,0.9-0.7c0.2-0.3,0.4-0.7,0.6-1.1C387,29,387.1,28.4,387.1,27.9z"
		/>
	<path class="st0" d="M399.5,33.7c0-0.2,0-0.3,0-0.6c0-0.2,0-0.4,0-0.6h0c-0.2,0.1-0.4,0.3-0.6,0.4c-0.2,0.1-0.5,0.3-0.7,0.4
		c-0.3,0.1-0.5,0.2-0.9,0.3c-0.3,0.1-0.6,0.1-1,0.1c-0.6,0-1.2-0.1-1.7-0.3s-1.1-0.5-1.5-1c-0.4-0.5-0.8-1-1.1-1.7s-0.4-1.6-0.4-2.6
		s0.1-1.9,0.4-2.6c0.3-0.7,0.6-1.4,1.1-1.9s1-0.9,1.5-1.1c0.6-0.3,1.2-0.4,1.8-0.4c0.7,0,1.3,0.1,1.8,0.4c0.5,0.3,1,0.6,1.3,1.1h0
		l0.1-1.2h2.4v11.3c0,0.6-0.1,1.2-0.2,1.7c-0.1,0.5-0.3,0.9-0.5,1.2c-0.2,0.4-0.6,0.8-0.9,1.1s-0.8,0.6-1.3,0.8
		c-0.5,0.2-1,0.4-1.6,0.5c-0.6,0.1-1.2,0.2-1.8,0.2c-0.4,0-0.7,0-1.1,0s-0.7-0.1-1-0.1c-0.3-0.1-0.6-0.1-0.8-0.2
		c-0.3-0.1-0.5-0.1-0.6-0.2v-2.2c0.5,0.2,1,0.3,1.6,0.4c0.6,0.1,1.1,0.1,1.7,0.1c1.2,0,2.1-0.2,2.8-0.7c0.7-0.5,1-1.2,1-2.1V33.7z
		 M397.1,31.5c0.3,0,0.5,0,0.8-0.1c0.2-0.1,0.5-0.2,0.7-0.3c0.2-0.1,0.4-0.2,0.6-0.4c0.2-0.1,0.3-0.3,0.4-0.4v-4.9
		c-0.3-0.3-0.6-0.6-1.1-0.9c-0.4-0.2-0.9-0.3-1.4-0.4c-0.2,0-0.3,0-0.5,0.1c-0.2,0-0.4,0.1-0.6,0.2c-0.2,0.1-0.4,0.3-0.5,0.4
		c-0.2,0.2-0.3,0.4-0.5,0.7s-0.2,0.6-0.3,1c-0.1,0.4-0.1,0.8-0.1,1.3c0,0.6,0.1,1.1,0.2,1.5c0.1,0.4,0.3,0.8,0.5,1.1
		c0.2,0.3,0.5,0.5,0.8,0.7C396.3,31.4,396.6,31.5,397.1,31.5z"/>
	<path class="st0" d="M403.8,22.3h2.9l1.7,4c0.6,1.5,1.1,2.6,1.3,3.4h0c0.2-0.6,0.6-1.6,1.2-3.2l1.7-4.2h2.9l-7.1,16.4h-2.7l2.5-5.9
		L403.8,22.3z"/>
</g>
<g>
	<path class="st0" d="M98.1,64.5h-3.8V47.2h-6.6V44h17v3.1h-6.6L98.1,64.5L98.1,64.5z"/>
	<path class="st0" d="M128.8,54.3c0,1.6-0.2,3-0.7,4.3c-0.4,1.3-1.1,2.4-1.9,3.4c-0.9,0.9-1.9,1.7-3.1,2.2c-1.2,0.5-2.7,0.8-4.2,0.8
		c-1.6,0-3-0.3-4.2-0.8c-1.2-0.5-2.3-1.3-3.1-2.2c-0.9-0.9-1.5-2.1-1.9-3.4c-0.4-1.3-0.7-2.7-0.7-4.3s0.2-3,0.7-4.3
		c0.4-1.3,1.1-2.4,1.9-3.4c0.9-0.9,1.9-1.7,3.1-2.2c1.2-0.5,2.7-0.8,4.2-0.8c1.6,0,3,0.3,4.2,0.8c1.2,0.5,2.3,1.3,3.1,2.2
		c0.9,0.9,1.5,2.1,1.9,3.4C128.6,51.3,128.8,52.7,128.8,54.3z M125,54.3c0-1.2-0.2-2.3-0.5-3.3c-0.3-0.9-0.7-1.7-1.3-2.3
		c-0.5-0.6-1.2-1.1-1.9-1.4s-1.6-0.5-2.4-0.5c-0.9,0-1.7,0.2-2.4,0.5s-1.4,0.8-1.9,1.4s-1,1.4-1.3,2.3c-0.3,0.9-0.5,2-0.5,3.3
		s0.2,2.3,0.5,3.3c0.3,0.9,0.7,1.7,1.3,2.3c0.5,0.6,1.2,1.1,1.9,1.4c0.7,0.3,1.6,0.5,2.4,0.5c0.9,0,1.7-0.2,2.4-0.5
		c0.7-0.3,1.4-0.8,1.9-1.4s1-1.4,1.3-2.3C124.8,56.6,125,55.5,125,54.3z"/>
	<path class="st0" d="M151,50.2c0,1.4-0.4,2.6-1.2,3.6c-0.8,1-2,1.7-3.7,2.2v0.1l6.1,8.4h-4.5l-5.6-7.9h-2.6v7.9h-3.8V44h6.2
		c1,0,2,0.1,2.9,0.2c0.9,0.1,1.6,0.3,2.3,0.5c1.2,0.5,2.1,1.1,2.8,2C150.6,47.7,151,48.8,151,50.2z M141.4,53.4c0.9,0,1.6,0,2.2-0.1
		c0.6-0.1,1.1-0.2,1.5-0.3c0.8-0.3,1.3-0.7,1.6-1.2s0.4-1.1,0.4-1.7c0-0.6-0.1-1-0.3-1.5s-0.6-0.8-1.2-1c-0.4-0.2-0.8-0.3-1.3-0.4
		c-0.5-0.1-1.2-0.1-2-0.1h-2.7v6.3L141.4,53.4L141.4,53.4z"/>
	<path class="st0" d="M177.5,54.3c0,1.6-0.2,3-0.7,4.3c-0.4,1.3-1.1,2.4-1.9,3.4c-0.9,0.9-1.9,1.7-3.1,2.2c-1.2,0.5-2.6,0.8-4.2,0.8
		s-3-0.3-4.2-0.8c-1.2-0.5-2.3-1.3-3.1-2.2c-0.9-0.9-1.5-2.1-1.9-3.4c-0.4-1.3-0.7-2.7-0.7-4.3s0.2-3,0.7-4.3
		c0.4-1.3,1.1-2.4,1.9-3.4c0.9-0.9,1.9-1.7,3.1-2.2c1.2-0.5,2.6-0.8,4.2-0.8s3,0.3,4.2,0.8c1.2,0.5,2.3,1.3,3.1,2.2
		c0.9,0.9,1.5,2.1,1.9,3.4C177.3,51.3,177.5,52.7,177.5,54.3z M173.6,54.3c0-1.2-0.2-2.3-0.5-3.3c-0.3-0.9-0.7-1.7-1.3-2.3
		c-0.5-0.6-1.2-1.1-1.9-1.4s-1.6-0.5-2.4-0.5c-0.9,0-1.7,0.2-2.4,0.5s-1.4,0.8-1.9,1.4s-1,1.4-1.3,2.3c-0.3,0.9-0.5,2-0.5,3.3
		s0.2,2.3,0.5,3.3c0.3,0.9,0.7,1.7,1.3,2.3c0.5,0.6,1.2,1.1,1.9,1.4c0.7,0.3,1.6,0.5,2.4,0.5c0.9,0,1.7-0.2,2.4-0.5
		c0.7-0.3,1.4-0.8,1.9-1.4s1-1.4,1.3-2.3C173.5,56.6,173.6,55.5,173.6,54.3z"/>
	<path class="st0" d="M195.1,53.5c1.5,2.1,2.7,3.9,3.6,5.6h0.1c-0.1-2.7-0.2-4.6-0.2-5.8V44h3.8v20.5h-3.9l-6.7-9.4
		c-1.2-1.6-2.4-3.5-3.6-5.7H188c0.1,2.5,0.2,4.5,0.2,5.8v9.3h-3.8V44h3.9L195.1,53.5z"/>
	<path class="st0" d="M218.6,64.5h-3.8V47.2h-6.6V44h17v3.1h-6.6L218.6,64.5L218.6,64.5z"/>
	<path class="st0" d="M249.4,54.3c0,1.6-0.2,3-0.7,4.3c-0.4,1.3-1.1,2.4-1.9,3.4c-0.9,0.9-1.9,1.7-3.1,2.2c-1.2,0.5-2.6,0.8-4.2,0.8
		s-3-0.3-4.2-0.8c-1.2-0.5-2.3-1.3-3.1-2.2c-0.9-0.9-1.5-2.1-1.9-3.4c-0.4-1.3-0.7-2.7-0.7-4.3s0.2-3,0.7-4.3
		c0.4-1.3,1.1-2.4,1.9-3.4c0.9-0.9,1.9-1.7,3.1-2.2c1.2-0.5,2.7-0.8,4.2-0.8s3,0.3,4.2,0.8s2.3,1.3,3.1,2.2c0.9,0.9,1.5,2.1,1.9,3.4
		C249.2,51.3,249.4,52.7,249.4,54.3z M245.5,54.3c0-1.2-0.2-2.3-0.5-3.3c-0.3-0.9-0.7-1.7-1.3-2.3s-1.2-1.1-1.9-1.4
		c-0.7-0.3-1.6-0.5-2.4-0.5c-0.9,0-1.7,0.2-2.4,0.5c-0.7,0.3-1.4,0.8-1.9,1.4c-0.5,0.6-1,1.4-1.3,2.3s-0.5,2-0.5,3.3
		s0.2,2.3,0.5,3.3c0.3,0.9,0.7,1.7,1.3,2.3c0.5,0.6,1.2,1.1,1.9,1.4c0.7,0.3,1.6,0.5,2.4,0.5c0.9,0,1.7-0.2,2.4-0.5
		c0.7-0.3,1.4-0.8,1.9-1.4s1-1.4,1.3-2.3C245.4,56.6,245.5,55.5,245.5,54.3z"/>
	<path class="st0" d="M274.5,46.8c-1,0-2,0.2-2.8,0.5c-0.9,0.3-1.6,0.8-2.2,1.5c-0.6,0.6-1.1,1.4-1.4,2.4c-0.3,0.9-0.5,2-0.5,3.2
		c0,1.2,0.2,2.3,0.5,3.2c0.3,0.9,0.8,1.7,1.4,2.3c0.6,0.6,1.3,1.1,2.2,1.4c0.9,0.3,1.8,0.5,2.9,0.5c0.8,0,1.6-0.1,2.4-0.2
		c0.8-0.1,1.6-0.3,2.3-0.5v3.2c-0.7,0.2-1.5,0.4-2.3,0.5c-0.8,0.1-1.7,0.2-2.6,0.2c-1.7,0-3.3-0.2-4.6-0.7s-2.4-1.2-3.3-2.1
		c-0.9-0.9-1.5-2-2-3.2c-0.4-1.3-0.7-2.7-0.7-4.2c0-1.6,0.2-3,0.7-4.3c0.5-1.3,1.2-2.5,2.1-3.5c0.9-1,2-1.8,3.4-2.3
		c1.3-0.6,2.9-0.8,4.6-0.9c0.9,0,1.7,0.1,2.5,0.2c0.8,0.1,1.5,0.3,2.1,0.5v3.2c-0.8-0.3-1.6-0.4-2.3-0.5
		C275.9,46.9,275.2,46.8,274.5,46.8z"/>
	<path class="st0" d="M289.6,52.5h9.5V44h3.8v20.5h-3.8v-8.9h-9.5v8.9h-3.8V44h3.8V52.5z"/>
	<path class="st0" d="M322.5,59.3h-7.7l-2,5.2h-4l8.1-20.5h3.4l8.1,20.5h-4L322.5,59.3z M318.6,48.9c-0.7,2.1-1.4,3.9-1.9,5.4
		l-0.7,1.8h5.3l-0.7-1.8C320,52.9,319.3,51.1,318.6,48.9L318.6,48.9z"/>
	<path class="st0" d="M340,56.6c-0.3,0-0.7,0-1,0c-0.3,0-0.6,0-0.9-0.1v8h-3.8V44h5.9c1,0,1.9,0,2.6,0.1c0.7,0.1,1.4,0.2,2,0.4
		c1.4,0.4,2.5,1.1,3.2,2.1s1.1,2.1,1.1,3.6c0,1-0.2,1.9-0.6,2.7c-0.4,0.8-1,1.5-1.8,2c-0.8,0.6-1.7,1-2.9,1.3
		C342.7,56.4,341.4,56.6,340,56.6z M338.1,53.3c0.2,0,0.5,0.1,0.8,0.1c0.3,0,0.7,0,1,0c1,0,1.9-0.1,2.5-0.2c0.7-0.2,1.2-0.4,1.7-0.7
		c0.4-0.3,0.7-0.6,0.9-1.1s0.3-0.9,0.3-1.4c0-0.6-0.1-1.1-0.4-1.6c-0.3-0.4-0.8-0.8-1.4-1c-0.4-0.1-0.8-0.2-1.3-0.3
		c-0.5-0.1-1.2-0.1-1.9-0.1h-2.1V53.3L338.1,53.3z"/>
	<path class="st0" d="M364.5,64.5h-3.8V47.2h-6.6V44h17v3.1h-6.6V64.5z"/>
	<path class="st0" d="M380.7,61.4h10.1v3.1H377V44h13.3v3.1h-9.5v5.3h8.2v3.1h-8.2V61.4z"/>
	<path class="st0" d="M412.9,50.2c0,1.4-0.4,2.6-1.2,3.6c-0.8,1-2,1.7-3.7,2.2v0.1l6.1,8.4h-4.5l-5.6-7.9h-2.6v7.9h-3.8V44h6.2
		c1,0,2,0.1,2.9,0.2c0.9,0.1,1.6,0.3,2.3,0.5c1.2,0.5,2.1,1.1,2.8,2C412.6,47.7,412.9,48.8,412.9,50.2z M403.4,53.4
		c0.9,0,1.6,0,2.2-0.1c0.6-0.1,1.1-0.2,1.5-0.3c0.8-0.3,1.3-0.7,1.6-1.2c0.3-0.5,0.4-1.1,0.4-1.7c0-0.6-0.1-1-0.3-1.5
		c-0.2-0.4-0.6-0.8-1.2-1c-0.4-0.2-0.8-0.3-1.3-0.4c-0.5-0.1-1.2-0.1-2-0.1h-2.7v6.3L403.4,53.4L403.4,53.4z"/>
</g>
</svg>
