<?xml version="1.0" encoding="utf-8"?>
<!-- Generator: Adobe Illustrator 15.0.0, SVG Export Plug-In . SVG Version: 6.00 Build 0)  -->
<!DOCTYPE svg PUBLIC "-//W3C//DTD SVG 1.1//EN" "http://www.w3.org/Graphics/SVG/1.1/DTD/svg11.dtd">
<svg version="1.1"
	 id="svg2851" sodipodi:docname="cybergedeon_skyline_landscape.svg" inkscape:version="0.47 r22583" xmlns:dc="http://purl.org/dc/elements/1.1/" xmlns:cc="http://creativecommons.org/ns#" xmlns:rdf="http://www.w3.org/1999/02/22-rdf-syntax-ns#" xmlns:svg="http://www.w3.org/2000/svg" xmlns:sodipodi="http://sodipodi.sourceforge.net/DTD/sodipodi-0.dtd" xmlns:inkscape="http://www.inkscape.org/namespaces/inkscape"
	 xmlns="http://www.w3.org/2000/svg" xmlns:xlink="http://www.w3.org/1999/xlink" x="0px" y="0px" width="591.43px"
	 height="317.451px" viewBox="0 0 591.43 317.451" enable-background="new 0 0 591.43 317.451" xml:space="preserve">
<defs>
	
	
		<inkscape:perspective  id="perspective2859" inkscape:vp_z="744.09448 : 526.18109 : 1" inkscape:vp_x="0 : 526.18109 : 1" sodipodi:type="inkscape:persp3d" inkscape:vp_y="0 : 1000 : 0" inkscape:persp3d-origin="372.04724 : 350.78739 : 1">
		</inkscape:perspective>
	
		<inkscape:perspective  id="perspective2989" inkscape:vp_z="1 : 0.5 : 1" inkscape:vp_x="0 : 0.5 : 1" sodipodi:type="inkscape:persp3d" inkscape:vp_y="0 : 1000 : 0" inkscape:persp3d-origin="0.5 : 0.33333333 : 1">
		</inkscape:perspective>
</defs>
<sodipodi:namedview  id="base" showgrid="false" inkscape:cy="-154.74237" inkscape:cx="290.28087" inkscape:zoom="0.35" borderopacity="1.0" bordercolor="#666666" pagecolor="#ffffff" inkscape:window-y="0" inkscape:window-x="0" inkscape:window-height="1025" inkscape:window-width="1680" inkscape:current-layer="layer3" inkscape:document-units="px" inkscape:pageshadow="2" inkscape:pageopacity="0.0" inkscape:window-maximized="0" showguides="true" objecttolerance="1" guidetolerance="3" gridtolerance="1" inkscape:snap-from-guide="false" inkscape:guide-bbox="true">
	</sodipodi:namedview>
<g id="layer3" transform="translate(-62.99982,-174.45374)" inkscape:label="tree" inkscape:groupmode="layer">
	<g id="g2826" transform="matrix(2.912213,0,0,3.2456405,-1043.0429,-1810.4997)">
		<path id="path3002" sodipodi:nodetypes="ccccc" fill="#FFFFFF" stroke="#FFFFFF" d="M380.322,708.91v-37.881
			c68.082-11.54,135.293-8.28,202.031,3.03v34.85H380.322L380.322,708.91z"/>
		<path id="path3783" sodipodi:nodetypes="cccscccsccccsscsccc" fill="#FFFFFF" stroke="#FFFFFF" stroke-width="1.121" d="
			M409.053,679.253c0.159-1.004-0.16-25.856-0.16-25.856c-2.258,1.072-3.659,7.543-8.3-1.757c-0.704,2.584-6.333-4.889-6.385-7.531
			c-0.054-2.716,0.505-9.948,2.394-8.284c-2.646-5.085,2.643-9.79,4.31-9.79l0.16-7.782c0,0,2.202-5.321,3.99-6.025
			c2.092-0.823,7.023,2.761,7.023,2.761c2.886-3.618,6.225,2.008,6.225,2.008h5.108c4.128,5.267,2.051,12.823,0.958,15.564
			c2.468-2.07,7.682,8.819,3.192,13.054c-0.774,0.73-4.224,3.866-4.629,5.523c-1.117,4.571-7.662,2.12-7.662,0.753
			c0,0,0.16,2.761-0.798,4.518c-0.958,1.757-3.192,0.251-3.192,0.251l0.16,22.844L409.053,679.253z"/>
		<path id="path3785" sodipodi:nodetypes="cccsccccccccccc" fill="#FFFFFF" stroke="#FFFFFF" stroke-width="0.7617" d="
			M557.711,673.255c0.192-0.707,0.476-12.013-0.14-12.013c-1.979,0.565-2.493,2.545-6.56-2.354c-0.617,1.361-5.55-2.575-5.595-3.967
			c-0.047-1.431,0.442-5.241,2.098-4.364c-2.319-2.679,2.317-5.157,3.777-5.157c-0.163-3.438,0.297-5.639,3.638-7.273
			c1.833-0.433,5.798,0.919,5.798,0.919c1.636-4.585,5.813,1.593,5.813,1.593c3.495,1.522,7.568,2.658,5.548,7.857
			c3.013,5.997,1.5,5.785-1.492,10.127c-0.979,2.408-6.715,1.117-6.715,0.397c0.038,2.482-1.338,2.98-3.497,2.512l0.14,12.034
			L557.711,673.255z"/>
		<path id="path3818" fill="#FFFFFF" stroke="#FFFFFF" d="M544.464,641.648L544.464,641.648L544.464,641.648L544.464,641.648
			L544.464,641.648L544.464,641.648"/>
		<path id="path3820" fill="#FFFFFF" stroke="#FFFFFF" d="M544.464,641.648L544.464,641.648"/>
		<path id="path3828" sodipodi:nodetypes="ccccccccccccccccccccccccccc" fill="#FFFFFF" stroke="#FFFFFF" d="M507.321,614.071
			l-8.151,20.238l4.672-1.392l-7.341,9.598l5.732-3.583l-8.87,13.966l8.774-0.703l-11.244,9.24l14.734-1.86l-0.191,7.021l1.97,0.191
			v0.038l0.293-0.038l0.335,0.038v-0.038l1.927-0.191l0.166-7.11c0,0,12.458,1.95,14.083,1.95
			c-4.001-2.768-9.284-6.917-10.183-7.722c2.493-0.358,5.832,0.614,5.832,0.614l-7.452-14.234l5.202,3.047l-7.436-11.473
			l4.945,2.284c-1.166-2.353-4.199-4.856-6.849-8.829c-0.6-1.12,5.675,2.982,5.675,2.982
			C510.508,624.526,508.508,618.551,507.321,614.071z"/>
		<path id="path3835" sodipodi:nodetypes="ccccccccc" fill="#FFFFFF" stroke="#FFFFFF" stroke-width="0.7866" d="M435.404,666.826
			v-16.754h-3.307l10.345-18.61l36.693,0.138l9.623,19.484h-3.009v15.741H435.404L435.404,666.826z"/>
	</g>
</g>
</svg>
