<?xml version="1.0" encoding="utf-8"?>
<!-- Generator: Adobe Illustrator 15.0.0, SVG Export Plug-In . SVG Version: 6.00 Build 0)  -->
<!DOCTYPE svg PUBLIC "-//W3C//DTD SVG 1.1//EN" "http://www.w3.org/Graphics/SVG/1.1/DTD/svg11.dtd">
<svg version="1.1"
	 id="svg2" inkscape:version="0.48.2 r9819" sodipodi:docname="gebergte.svg" xmlns:rdf="http://www.w3.org/1999/02/22-rdf-syntax-ns#" xmlns:inkscape="http://www.inkscape.org/namespaces/inkscape" xmlns:svg="http://www.w3.org/2000/svg" xmlns:cc="http://creativecommons.org/ns#" xmlns:sodipodi="http://sodipodi.sourceforge.net/DTD/sodipodi-0.dtd" xmlns:dc="http://purl.org/dc/elements/1.1/"
	 xmlns="http://www.w3.org/2000/svg" xmlns:xlink="http://www.w3.org/1999/xlink" x="0px" y="0px" width="305.5px" height="157px"
	 viewBox="0 0 305.5 157" style="enable-background:new 0 0 305.5 157;" xml:space="preserve">
<style type="text/css">
<![CDATA[
	.st0{fill:#FFFFFF;}
]]>
</style>
<sodipodi:namedview  id="base" inkscape:window-maximized="1" inkscape:current-layer="layer1" inkscape:pageshadow="2" inkscape:window-width="1680" fit-margin-bottom="0" inkscape:guide-bbox="true" inkscape:pageopacity="0.0" inkscape:window-height="1002" inkscape:window-y="0" inkscape:window-x="0" inkscape:document-units="px" fit-margin-right="0" showgrid="false" inkscape:zoom="1.1679536" inkscape:cy="56.640074" pagecolor="#ffffff" borderopacity="1.0" fit-margin-left="0" fit-margin-top="0" bordercolor="#666666" inkscape:cx="323.85614" showguides="true">
	</sodipodi:namedview>
<g id="layer1" transform="translate(-274.90625,-570.5484)" inkscape:groupmode="layer" inkscape:label="Laag 1">
	<path class="st0" d="M578.3,658.6c-0.7-2-57.8-55.3-60.1-58.5c-1.5-1.2-4.3-3.2-7.5-5.3l0,0c-0.2-0.3-0.5-0.5-1-0.6
		c-6.4-4.2-13.8-8.6-16.1-8.3c-0.4-0.2-0.6-0.3-0.8-0.2c-0.5,0.2-0.7,1.9-4.7,7.1c-1.2,1.6-2.8,3.6-4.5,5.5
		c-0.8,0.7-1.5,1.4-2.3,2.1c-1.1,1.1-2,2.5-2.9,3.9c-3.5,6.8,1.1-3.3-4.3,5.8c-0.1,0.5-0.2,1.1-0.3,1.6c-2,4.2-5.2,11.5-6.7,12.5
		c-2.1,1.8-4.6,6.4-7.1,7.7c-1.9-0.2,0.1,0.4-0.8,1.4c-2.4,6-4.2,10.2-7.5,15.8c-2.8,5.1-6.4,10-10,14.8c-2.3,1-4.9,1.6-7.4,1.2
		c-2.7-4.4-5.2-9-7.7-13.5c-3.6-5.3-8.8-9.1-13.2-13.8c-3.2-3.1-6.3-6.3-9.5-9.3c0.9-1.6,1.8-3.7,2.6-4.1c3.6-4.2,7.1-8.4,10.8-12.4
		c0,0.5-0.1,0.9-0.2,1.4c-0.1,1.6,0.8,3.2,1.9,3.4c-0.1,0.2-0.2,0.4-0.3,0.7c0.1-0.2,0.3-0.4,0.4-0.7h0.1c0.2,0-3.9,7.8-3.7,7.7
		l4.4-7.7c3.3-0.9,4.2,18.8,6.9,16.1c1.1-1.1,4-24.7,4.9-26c0.8-0.7,1.9-0.1,2.2,1.2c0.5,1.7,1.4,3.6,2.8,4c0.6,0.1,1.2,0.7,1.5,1.4
		c-0.6-1.3-0.3-3.1-1.1-4.3c-0.9-0.8-1.5-2.2-1.4-3.8c0-1.5,0.2-3,0.3-4.5c0.1-0.4,0.1-0.8,0.2-1.2c0.1-0.1,0.2-0.1,0.3-0.2
		c1.1-1.4,2.1-1.2,3-0.3c0.1,1.2,0.2,2.3,0.3,3.5c-0.2,5.1-0.7,10.2-1.2,15.3c-0.3,5.2-1.5,9.8-2.9,14.1c-0.3,1.2-1.1,2-1,3.6
		c0.1,0.5,0.4-0.1,0.5-0.4c1-2.4,1.9-4.9,2.8-7.6c1.5-4.9,3.9-8.8,4.9-14.3c0.4-3.4,1.1-6.5,1.8-9.6c3.8-2.4,12.5-11.6,13.4-9.8
		c4.6,9.3,1.4,4.3,9.8,12.6c3.5,5.8,0.9-1.3-0.2-3.8c-1.8-1.9-2.3-2.4-2.4-2.5c-0.3-0.3-0.9-1-2.1-2.3
		c-4.4-10.2-11.2-17.2-15.7-19.7c-0.1-0.1-0.3-0.1-0.4-0.1c-0.6-0.5-1.3-0.7-2.1-0.8c-1.5,0-3,0.7-3.8,1.3h-0.1
		c-12.6,14.6-25.4,29.4-38,44c-0.9,0.7-1.5,1.9-2.5,2.6c-0.4-0.4-0.9-0.8-1.3-1.2h-0.1l-0.1-0.1c-5.1-5.1-11.8-5.3-15.8-8.8
		c-1.5-1.3-4.6-1.5-6.2-1.5c-0.5,0-0.9,0-1,0c-0.1,0-0.2,0.1-0.3,0.2c-0.2-0.1-0.4,0-0.7,0c-4.3,4.3-7.8,9.2-11.4,14.2
		c0.8,0.5,1.5,1,2.3,1.5c2.3-3.1,4.6-6.2,7.1-9.1c1.4-0.8,3.6-1,4.3-2.5c0.5,0.8,1.4,3.1,2.1,5.7c1.7,6.2,2.9,7.5,11.3,12.9
		c2.3,1.5,4.4,3.2,5.5,4.4c0.1,2.3,0.2,4.5,0.3,6.4c-0.3,0.9-0.6,1.9-0.9,3c-4.5,12.4-4.5,12.8-2.5,15.5c2.7,3.6,4.5,3.9,2.7,0.4
		c-1.7-3.3-1.9-4.2,0.3-9.8c0.6,1.4,1.4,2.8,2,4.2c1.9,3.6,4.5,6.8,7.7,9.4c0.5,1.3,1.2,3,2,4.8c5.3,11.4,12.9,24.7,15.7,27.7
		c1.4,1.5,3.8,3.3,5.2,3.9c2.5,1.1,2.4,0.9-0.3-5.7c-3.5-8.2-8.7-17.5-13.4-24.3c3.3,2.2,6.7,4.4,10.1,6.6c1.5,0.9,2.8,2,4.3,2.9
		c1.3,0.6,2.7-0.3,3-1.7c0.5-1.3,1.8-2,2.6-3.2c1.2-1.7,1.8-3.6,2.4-5.6c0.6-1.1,1.1-2.3,1.9-3.3c1.8-2.8,3.5-5.7,5.3-8.6
		c0.1,0,0.2-0.1,0.3-0.1c0.6-0.3,1-1.3,0.8-1.8c9.5-15.4,18.9-30.8,28.3-46.2c0.4-0.3,1.4-1.4,1.4-2.1c0.7-1.3,1.1-2.8,1.9-3.9
		c1.8-3.2,3.9-6,6.3-8.4c0.2-0.2,0.4-0.4,0.7-0.6c-3.7,6.7-6.6,12.9-10.6,19.7c-0.9,1.2-16.3,36.4-16.9,37.8
		c-0.4,4.4,7.2-3.2,11.3-10.5c-3,7.4-7.6,17.4-7.7,20.8c0,6.7,10.7-0.3,10.3,6.4c-0.3,1.5,1.2,0.3,1.4-0.5c0.6-1.5,0.4-3.2,0.7-4.8
		c0.4-2.9,0.5-5.8,1-8.7c0.7-2.3,2.4-4.3,2.8-6.7c1.1-4.1,2.2-8.2,3.3-12.3c-0.5,5.3-0.4,10.6,0.5,15.9c-0.8,2.3-1.7,4.5-2.5,6.8
		c-1.3,0.7,0.2,2.9,1.4,2.3c1.2-1.5,1.5-3.4,2-5.2c1,3.7,3,7.2,6.1,9.5c1.3,0.9,3.1,1.7,4.6,0.8c1.4-0.9,1-3.3-0.6-3.8
		c-1.3-0.9-1.6-2.7-1.2-4.1c0.5-3.1,0.1-6.4,1-9.4c0.6-3.1,2-5.9,3.2-8.8c0.5-1.4,2.2-2.1,3.5-1.1c1.1,0.9,2.1,2.2,3.7,2.1
		c1.9-0.1,3.1-1.9,3.5-3.6c1.2-4.7-0.4-9.6-2.6-13.8c-2.2-4.2-4.8-8.2-7.2-12.4c-1.9-6.4-3-12.6-3.6-11.9c0.3-0.5,0.7-1,1.1-1.5
		c2.3,6.1,3.7,16,7.3,17.5c2,0.8,4,1.8,5.9,2.8c1.5,1.6-0.5,3.3-1.7,4.2c-0.7,1.9,1.9,3,3.2,1.8c1.9-1,3.3-3.7,1.8-5.6
		c-2.2-3.2-5.1-7.4-8.5-9.1c-2.1-0.9,2-16.1-0.2-16.8c-2,0.9-6-8.2-4.8-10c0.4-0.8,3.9,1.1,8.2,4.1c-1.5-0.4-5.7-2.7-5.3-1.4
		c0.2,1.6,2.5,4.4,3.8,7.8c1.7,4.5,0.4,11.9,0.9,14c3,9.1,12,12.8,18.2,20.1c2.1,2.5,4.7,5,4.9,8.5c0.4,2.7,0.3,5.5,1.5,8
		c-0.4-2.8,0.6-5.5,0.4-8.3c0.2-4,0.4-8.4-2.3-11.7c-3.7-5.1-5.3-13.6-8.8-18.8c-2.2-3.3-3.5-7.5-5-11.5c1.2,1.1,2.4,2.2,3.5,3.3
		c5.6,5.6,8.9,15,9.5,16.9c0.9,0,11.6,8.5,23,17.6c-1.1-0.5-2.1-1-3.2-1.4l-0.1,0.3c-0.2,1.5-0.2,3.4-1.8,4.1
		c-1.7,0.7-3.2,1.7-4.7,2.8c-0.5,1.4,0.9,2.5,1.9,3.2c2.4,1.7,3.6,4.9,6.6,5.9c3.5,1.9,7.5,3.5,9.5,7.1c1,1.6,1.7,3.3,2.4,5.1
		c-0.3-2,1.5-3.7,0.8-5.7l-1-8.6c-1.1-1.3-0.9-3.1-1.3-4.7c-0.4-0.4-0.7-1-0.9-1.5C568.7,652.9,579.2,661,578.3,658.6z M447.5,579.3
		C447.6,579.3,447.6,579.4,447.5,579.3c3.2,3.9,11.6,12.6,10.8,12.4c-0.8-0.2-6.6-0.1-7.3-1.5c-0.7-1.3-3.3-1.6-4.2-3.7
		C446,584.7,447.5,581.1,447.5,579.3z M432.5,601.5c-0.8,1.4-1.7,2.1-2.7,2.7c1.1-1.5,1.9-2.8,2.4-3.8c0.3,0.1,0.5,0.2,0.7,0.3
		C432.8,601,432.7,601.3,432.5,601.5z M431,594c1.8-3.3,4.2-6.1,6.5-9c-1.7,3.6-3.3,8-4.6,9.9c3-2,10.9-6.6,9-5.3
		c-3,2.2-9.6,6.2-12.7,8.4C428.8,596.4,430.2,595.2,431,594z M419.5,609.8c1-1,2-2.1,3.1-3.1c2.8-1.5,3.2-5.3,6.2-6.3
		c0.4-0.1,0.7-0.2,1.1-0.2c-2.7,1.9-6.6,5.6-9.9,11.8c-0.2,0.3-0.3,0.6-0.4,0.8c-0.2-0.6-0.2-1.3,0.1-1.8
		C419.8,610.7,419.7,610.2,419.5,609.8z M396.8,637.4c-1.6-1.2-3.7-2.6-5.8-3.8c-5.3-3.1-6.8-4.4-7.7-7.3c0.9,0.3,1.8,0.1,2.7,0.1
		c1.4,3.4,4,7.1,9.1,7.8c0.3,1,1,3.1,1.8,2.1C396.8,636.7,396.8,637,396.8,637.4z M397.4,654.7c0-0.1,0.1-0.2,0.1-0.3
		c0,0.2,0,0.4,0.1,0.6C397.6,654.8,397.5,654.8,397.4,654.7z M398.8,627.4c-0.1-0.1-0.2-0.3-0.4-0.5c-1.3-1.7-5.4-1.9-6.8-2.5
		c-3.3-0.1-6.4-1.2-9.6-2.4h-0.1l-1.2-2.9l4.8,1.4c-0.2,0.3-0.1,0.3,0.1,0l2.7,0.8c3.8,1.1,9.1,4,7.7,3.8l3.1,0.3
		c0.1,0.4,0.3,0.8,0.5,1.2C399.2,626.8,399,627.1,398.8,627.4z M403.7,631.1c1.5,1.7,3,3.5,4.3,5.3l-1.5-1.1
		C406,635,404.9,633.1,403.7,631.1z M406.8,653.6c0-1.8,2.4-6.6,3.6-10.3c0.3-0.8,0.4-1.6,0.5-2.3c0.4,0.7,0.7,1.4,1,2.2
		c-1.7,2.2-3.6,7.1-3,11.9c0.6,4.5,3.7,8.7,5.9,14.2C416.1,672.5,406.7,658.4,406.8,653.6z M414.7,652.5c-0.2-1.1-0.4-2.3-0.5-3.4
		c1,2.8,1.9,5.7,2.9,8.5C415.9,655.8,415,654,414.7,652.5z M437.4,670c-0.3-0.6-0.5-1.2-1-1.6c-0.2-0.4-0.5-0.8-0.7-1.1
		c0.5,0,1,0,1.5-0.1c1.1-0.3,2.2-0.8,3.2-1.3C439.4,667.2,438.4,668.6,437.4,670z M490.9,599.8c0,0.1-0.1,0.2-0.1,0.2
		c-0.1,0.2-0.1,0.4-0.1,0.6c-0.5-0.5-1-1.1-1.5-1.6C489.8,599,490.4,599.3,490.9,599.8z M490.8,607.9c0.3-0.8,0.7-1.7,1.2-2.4
		c-0.2,0.6-0.3,2.3-0.4,5.6c-1.2,1.4-2.3,2.9-3.3,4.5C489,613,489.9,610.5,490.8,607.9z M486.2,653.4c-0.4,1.2-0.9,3.9-1.2,4.2
		c-0.2-1.8-0.1-3.6,0-5.4c1.2-3.3,2.4-6.7,3.9-9.9C488.1,646,487.2,649.7,486.2,653.4z M492.6,616.5c-0.6,2-3.3,13.4-4.4,14.1
		c-0.3,1.9-0.1,4.1,1.5,5.3c0.4,0.6,5.1-4.6,5.9-5.6c-2.4,3.4-5.2,8.4-6.1,9.9c0-0.4-0.2-0.7-0.6-0.5c-2.1,1-2.6,3.5-3.4,5.5
		c0-0.4,0-0.7,0-1.1l0.8-9.5c-0.5-1.9,0.8-3.5,1.3-5.3C488.3,628.1,491.3,616.5,492.6,616.5z M553.2,653.3c-3.1-3-5.9-6.2-9.5-8.6
		c0-0.1,0.1-0.2,0.2-0.3h0.1c3.9,1.3,6.2,5,9.2,7.7c1.1,1.1,2.3,2.1,3.4,3.2C555,656,554.2,654,553.2,653.3z"/>
	<path class="st0" d="M391.6,655.9c-0.6-0.5-1.2-1.1-1.8-1.6c-0.6,0.8-1.1,1.5-1.7,2.3c-0.6-1.1-1-2.1-1.4-2.9
		c-4.3-10.7-31.9-31.3-34.8-33.2c-0.5-0.3-1.3-0.4-2.1-0.4c-0.8,0-1.6,0.1-2.2,0.3c-0.1,0-0.1,0-0.2,0c-1.5,0-6.1,5.6-13.5,16.4
		c-6.2,9-18.4,20.7-35,33.4c-7.8,6-11.5,9.5-11.5,10.8c0,1.6-11.6,19.8-11.6,21.9c-0.6,1-0.9,1.8-0.9,2.3c0,0.4,5.3-4.5,11.8-10.9
		c3.8-3.8,5.2-1.2,9-5.2c1.1-1.1,4.2-1.1,5-2.6c4.1-7.8,10.2-15.2,16.6-20.8c2.7-2.4,5.7-3.7,8.3-5c-0.9,2.8-1.6,5.9-2,9.3
		c-1.6,12.1-1.2-1.7-3-4.9c-0.8-1.5-6.3,4.6-13.8,14.1c-1.3,1.7-2.2,6.4-3.7,8.1c-2.1,2.3-12.8,6-15.1,7.9c-6.8,5.9-5.1,8.5-5.8,8.5
		c-0.6,0,0.2,1,1.7,2.2c0.9,0.6,27-15,31.3-17.5c-17.2,10.4-26,18.7-23.4,18.2c7.2-1.3,12.6-1.5,15.4-2.5c3.6-1.2-0.8,5.5,7.1,2.6
		c5.8-2.1,8.1-19.5,9.6-22.7c0.5-1.1,1.5-6.9,2.3-12.9c1.1-8.4,1.7-10.6,2.7-9.4c0.8,1.1-1.4,9.1-2.9,17.1c-1.3,6.9-2.1,13.7-2,16.3
		c0.1,1.6-2.3,3.9-3.2,6.8c-1.3,4.2-1.3,8.8-0.3,8.8c1.1,0,9.7-13.4,9.1-7.6c-0.8,7.7-1.1,14.2-0.5,14.4c1.8,0.7,2.3-0.7,3-8
		c0.9-10.2,3-16.5,8.2-24.3c3.4-5.1,4-6.6,2.5-6.2c-1.1,0.3-3.3,2.4-5,4.9c-1.7,2.4-3.2,4.3-3.4,4.3c-0.2,0-0.1-3.5,0.1-7.8
		c0.5-10,3.4-25.8,0.5-29c-0.1-0.1-0.1-0.2-0.2-0.3c3.7-6.5,6.6-14.2,6.2-14.7c-1.7-1.7-9.9,15.6-21.5,23c-6.5,4.2-9.2,5.6-6.5,3.4
		c9.1-7.5,18.5-18.2,25.6-29c4-6.1,7.7-11.4,8.3-11.8c0.1-0.1,0.2-0.1,0.3,0c0.3,0.5,0.7,1,1.3,1.6c0.1,0.3,0.3,0.7,0.4,1.1
		c0.7,2.4,1,2.7,1,1.1c0.1,0.4,0.4,1.1,0.5,1.6c-0.2,0.2-0.3,3.7-0.3,9.6c0,8.6,0.2,12.1,0.5,7.8c0.3-4.3,0.3-11.3,0-15.6
		c-0.1-1-0.1-1.6-0.2-1.8c0.3,1,0.6,1.8,1.1,3.2c1.4,4.2,3.8,13.3,5.3,20.3s3.2,12.9,3.9,13.1c0.7,0.2,0.5-4.3-0.6-10.6l-1.8-11
		l2.4,5.2c2.3,4.9,4.8,11.3,7.3,18.3c0.3,1.1,0.7,2.1,1.1,3c8.6,24.2,17,53.8,14.5,54.1c-0.5,0.1-5.2-6.4-10.4-14.4
		c-11.2-17.1-22.8-28.4-21.7-23.8c-0.9,13.9-15.1,26.7-13.6,29.1c1.6,2.6,17.7-1.8,22.3,6c4.6,7.8,21.6,6,22.7,6.9
		c5.5,4.1,5.2-7.3-0.8-27.2c-2.4-8.1-5.3-16.6-8.2-24.9c1.6,0.8,3.5,1.1,5.8,0.8c0.8-0.1-6.1-19.4-4.1-19.8
		c1.6-0.3,12.1,18.4,12.8,18.1c1.4,1.5,3.8,5.7,5.4,9.2c3.1,6.8,13.3,24.7,14.6,25.4c0.4,0.2-1-2.7-3.1-6.5
		c-2.1-3.8-5.3-10.1-7-13.9l-3.2-7l3,1.6c1.7,0.9,19.1,23.9,19.7,23.5c1.3-1.1-20.8-33-28.8-47.6
		C389.8,657.5,390.6,656.6,391.6,655.9z M302.4,675.5c-4.2,3.6-8.3,7.3-11.9,10.9c3.9-4.6,7.4-8.7,8.9-9.7c3.7-2.5,5.6-3.8,6-4
		S304.7,673.6,302.4,675.5z M356.1,630.3c0.7,1,1.5,2.1,2.3,3.1c3.4,4.2,5,10.4,6.2,16.7C361.5,642.3,358.6,635.5,356.1,630.3z"/>
	<path class="st0" d="M533.6,649.5l-2.3,2c-1.9,1.7-2.8,1.8-5,0.6s-2.9-2.2-4-6c-0.9-3-1.5-4.5-1.9-4.6c-0.4-0.1-0.3,1.3,0.2,4.3
		c0.4,2.5,0.3,6.2-0.2,8.1c-1.3,4.4,1.5,10.7,3.8,8.8c0.8-0.6,1.3-2.5,1.2-4.3c-0.2-2.9,0-3.1,2.1-2.6c1.3,0.3,2.9,0.2,3.8-0.3
		c1.9-1.1,2-0.8,3.5,8.6c1,6.7,1,7.9-0.5,7.1c-1.7-0.9-1.8-0.8-1.6,0.9c0.1,1,1,2.7,2,3.8c1.2,1.3,2.3,1.6,3.2,0.8
		c1.6-1.3-0.2-17.3-2.6-23.3L533.6,649.5z"/>
	<path class="st0" d="M513.4,655.9c-1.1-8.9,6.8-6.1,5.3-12.4c-2.4-10.1-4.7-8.4-5.4-9.4c-0.2-0.3-1.9-4.8-2.3-4.9l1.2,5.1
		c-0.2-0.8-1.6-1.3-2.2-1.8c-0.9-0.7-0.6-0.9,0,2.6c0,2.8,1.4,4.7,1.1,7.4c-0.7,4.5-5,4.9-7.4,9c-1.9,2.5,1.4,13.9-1.4,13.3
		c-1.4-0.4-6.9-7.2-6.5-5.1c0.2,1.3,1.5,1.9,2.7,2.3c5.3,2.5-3.9,20.6-0.2,25.1c1.4,1.7,2.7,3.5,3.9,5.3c0.6,2.1-2,2.6-3.5,2.9
		c-1.5,1.4,0.3,3.6,2,3.1c2.2,0,4.7-1.8,4.2-4.2c-0.4-3.9-3.2-6.9-5.3-9.9c-1.4-1.7,10.6-17.7,9.1-19.3c-2.2-0.1-3.1-3.5-1.2-4.5
		c1.3-0.9,10.1,6.8,13.4,17.3c1.4,4.6,1.4,10,1.2,14c1.2-2.8,3-5.3,1.8-15.2C523.6,674.2,514.4,663.5,513.4,655.9z"/>
	<path class="st0" d="M449.4,615c0,0,0,0,0.3,0c0.1,0,0.2,0,0.2,0C449.8,615,449.5,615,449.4,615z"/>
	<path class="st0" d="M451.2,614.7C451.2,614.7,451.1,614.8,451.2,614.7C451.3,614.8,451.3,614.7,451.2,614.7z"/>
</g>
<circle class="st0" cx="33" cy="22" r="15"/>
</svg>
