<?xml version="1.0" encoding="utf-8"?>
<!-- Generator: Adobe Illustrator 15.0.0, SVG Export Plug-In . SVG Version: 6.00 Build 0)  -->
<!DOCTYPE svg PUBLIC "-//W3C//DTD SVG 1.1//EN" "http://www.w3.org/Graphics/SVG/1.1/DTD/svg11.dtd">
<svg version="1.1" id="Layer_1" xmlns="http://www.w3.org/2000/svg" xmlns:xlink="http://www.w3.org/1999/xlink" x="0px" y="0px"
	 width="400px" height="200px" viewBox="0 0 400 200" enable-background="new 0 0 400 200" xml:space="preserve">
<circle fill="#FF0000" cx="33.884" cy="65.864" r="30"/>
<circle fill="#00FF00" cx="102.717" cy="65.864" r="30"/>
<circle fill="#0000FF" cx="174.284" cy="65.864" r="30"/>
<circle fill="#00ADEE" cx="33.883" cy="168.547" r="30"/>
<circle fill="#FFF100" cx="176.091" cy="168.546" r="30"/>
<circle fill="#EB008B" cx="102.717" cy="168.547" r="30"/>
<circle fill="#231F20" cx="250.996" cy="168.546" r="30.001"/>
<g>
	<path fill="#FFFFFF" d="M36.63,110.054c-0.556,0-1.048,0.107-1.477,0.323s-0.788,0.525-1.078,0.929
		c-0.291,0.402-0.511,0.894-0.661,1.472c-0.15,0.578-0.225,1.227-0.225,1.945c0,0.731,0.067,1.381,0.201,1.95
		c0.134,0.568,0.341,1.048,0.619,1.438c0.278,0.391,0.634,0.688,1.068,0.891c0.435,0.203,0.952,0.305,1.552,0.305
		c0.556,0,1.114-0.063,1.673-0.188s1.167-0.303,1.824-0.534v2.438c-0.3,0.125-0.597,0.231-0.891,0.318
		c-0.294,0.088-0.594,0.16-0.9,0.216c-0.306,0.057-0.62,0.099-0.942,0.127c-0.322,0.028-0.667,0.042-1.036,0.042
		c-1.056,0-1.972-0.169-2.747-0.506c-0.775-0.338-1.416-0.813-1.922-1.426c-0.506-0.612-0.881-1.35-1.125-2.212
		c-0.244-0.862-0.366-1.822-0.366-2.878c0-1.038,0.141-1.989,0.422-2.855c0.281-0.865,0.694-1.61,1.237-2.235
		c0.544-0.625,1.216-1.111,2.016-1.458s1.719-0.521,2.756-0.521c0.681,0,1.364,0.086,2.048,0.258
		c0.685,0.172,1.339,0.408,1.964,0.708l-0.938,2.362c-0.513-0.243-1.028-0.456-1.547-0.638
		C37.64,110.145,37.13,110.054,36.63,110.054z"/>
</g>
<g>
	<path fill="#FFFFFF" d="M105.153,121.538l-3.009-10.753h-0.084c0.038,0.575,0.069,1.131,0.094,1.669
		c0.013,0.23,0.023,0.469,0.033,0.712c0.009,0.244,0.019,0.484,0.028,0.722c0.009,0.238,0.016,0.466,0.019,0.685
		c0.003,0.219,0.004,0.416,0.004,0.591v6.375h-2.597v-13.706h3.956l2.962,10.481h0.057l3.15-10.481h3.956v13.706h-2.709v-6.487
		c0-0.163,0.001-0.347,0.005-0.554c0.003-0.206,0.008-0.425,0.014-0.656c0.006-0.23,0.014-0.465,0.023-0.703
		c0.009-0.237,0.017-0.469,0.023-0.693c0.025-0.525,0.047-1.072,0.065-1.641h-0.075l-3.244,10.734H105.153z"/>
</g>
<g>
	<path fill="#FFFFFF" d="M176.897,113.476l2.475-5.644h3.131l-4.163,8.372v5.334h-2.887v-5.24l-4.163-8.466h3.15L176.897,113.476z"
		/>
</g>
<g>
	<path fill="#FFFFFF" d="M258.364,121.538h-3.3l-3.15-5.7l-1.088,0.807v4.894h-2.906v-13.706h2.906v6.6l1.145-1.94l3.131-4.659
		h3.225l-4.378,6.178L258.364,121.538z"/>
</g>
<g>
	<path fill="#FFFFFF" d="M33.714,13.299v5.259h-2.906V4.853h3.75c1.756,0,3.053,0.339,3.891,1.017
		c0.837,0.678,1.256,1.708,1.256,3.089c0,0.469-0.063,0.894-0.188,1.275c-0.125,0.381-0.292,0.721-0.502,1.018
		s-0.45,0.556-0.722,0.778c-0.272,0.222-0.558,0.408-0.858,0.558c0.694,1.112,1.316,2.106,1.866,2.981
		c0.237,0.375,0.467,0.741,0.689,1.097c0.222,0.356,0.42,0.675,0.595,0.956c0.175,0.281,0.319,0.506,0.432,0.675l0.159,0.263h-3.225
		l-2.972-5.259H33.714z M33.714,10.937h0.788c0.806,0,1.384-0.161,1.734-0.482c0.35-0.322,0.525-0.795,0.525-1.42
		c0-0.65-0.188-1.112-0.563-1.388c-0.375-0.275-0.957-0.413-1.744-0.413h-0.741V10.937z"/>
</g>
<g>
	<path fill="#FFFFFF" d="M104.845,10.862h5.438v7.106c-0.363,0.119-0.729,0.227-1.097,0.324s-0.751,0.178-1.148,0.244
		s-0.813,0.117-1.247,0.155c-0.435,0.038-0.896,0.056-1.383,0.056c-1.025,0-1.933-0.152-2.724-0.455
		c-0.791-0.303-1.456-0.753-1.997-1.35c-0.541-0.597-0.952-1.334-1.233-2.212s-0.422-1.892-0.422-3.042
		c0-1.075,0.156-2.046,0.469-2.916c0.313-0.869,0.773-1.608,1.383-2.217s1.359-1.078,2.25-1.406s1.911-0.492,3.061-0.492
		c0.731,0,1.447,0.079,2.146,0.234c0.7,0.156,1.341,0.36,1.922,0.609l-0.965,2.325c-0.425-0.212-0.905-0.391-1.439-0.534
		c-0.535-0.144-1.096-0.216-1.683-0.216c-0.637,0-1.211,0.111-1.72,0.333c-0.509,0.222-0.945,0.536-1.308,0.942
		c-0.363,0.406-0.641,0.897-0.834,1.472c-0.194,0.575-0.291,1.215-0.291,1.922c0,0.675,0.067,1.292,0.201,1.852
		c0.134,0.559,0.345,1.042,0.633,1.448s0.658,0.722,1.111,0.947c0.453,0.225,0.995,0.337,1.626,0.337
		c0.413,0,0.761-0.019,1.045-0.056c0.284-0.038,0.551-0.081,0.801-0.131v-2.859h-2.597V10.862z"/>
</g>
<g>
	<path fill="#FFFFFF" d="M173.016,4.853h4.012c0.863,0,1.619,0.061,2.269,0.183c0.65,0.122,1.194,0.319,1.631,0.591
		c0.437,0.271,0.767,0.628,0.989,1.068c0.222,0.441,0.333,0.983,0.333,1.627c0,0.387-0.047,0.75-0.141,1.087
		s-0.231,0.634-0.413,0.891s-0.402,0.47-0.661,0.642s-0.558,0.286-0.895,0.342v0.094c0.344,0.075,0.664,0.183,0.961,0.323
		s0.556,0.334,0.778,0.582c0.222,0.247,0.397,0.558,0.525,0.933c0.128,0.375,0.192,0.831,0.192,1.369
		c0,0.625-0.109,1.183-0.328,1.673c-0.219,0.491-0.533,0.906-0.942,1.247c-0.41,0.341-0.906,0.602-1.491,0.783
		c-0.584,0.182-1.246,0.272-1.983,0.272h-4.837V4.853z M175.922,10.28h1.509c0.362,0,0.666-0.033,0.909-0.098
		c0.244-0.066,0.441-0.164,0.591-0.295s0.258-0.295,0.323-0.492c0.066-0.197,0.099-0.427,0.099-0.689
		c0-0.525-0.164-0.901-0.492-1.13c-0.328-0.228-0.849-0.342-1.561-0.342h-1.378V10.28z M175.922,12.587v3.572h1.706
		c0.381,0,0.702-0.044,0.961-0.131s0.469-0.212,0.628-0.375c0.159-0.163,0.273-0.359,0.342-0.591
		c0.069-0.231,0.104-0.487,0.104-0.769c0-0.256-0.035-0.489-0.104-0.698s-0.186-0.389-0.352-0.539
		c-0.166-0.15-0.383-0.266-0.651-0.347c-0.269-0.081-0.603-0.122-1.003-0.122H175.922z"/>
</g>
<g>
	<path fill="#ED1C24" d="M379.702,187.155l-6.072,6.072c-0.804,0.804-1.92,1.25-3.036,1.25s-2.232-0.446-3.036-1.25l-13.126-13.126
		l-13.126,13.126c-0.804,0.804-1.92,1.25-3.036,1.25s-2.232-0.446-3.036-1.25l-6.072-6.072c-0.804-0.804-1.25-1.92-1.25-3.036
		s0.446-2.232,1.25-3.035l13.127-13.127l-13.127-13.127c-0.804-0.803-1.25-1.919-1.25-3.035s0.446-2.232,1.25-3.036l6.072-6.072
		c0.804-0.804,1.92-1.25,3.036-1.25s2.232,0.446,3.036,1.25l13.126,13.126l13.126-13.126c0.804-0.804,1.92-1.25,3.036-1.25
		s2.232,0.446,3.036,1.25l6.072,6.072c0.804,0.804,1.25,1.92,1.25,3.036s-0.446,2.232-1.25,3.035l-13.127,13.127l13.127,13.127
		c0.804,0.803,1.25,1.919,1.25,3.035S380.506,186.352,379.702,187.155z"/>
</g>
<g>
	<path fill="#00A14B" d="M396.355,37.395L364.031,69.72l-6.072,6.072c-0.804,0.804-1.92,1.25-3.036,1.25s-2.232-0.446-3.036-1.25
		l-6.072-6.072l-16.162-16.162c-0.804-0.804-1.25-1.92-1.25-3.036s0.446-2.232,1.25-3.036l6.072-6.072
		c0.804-0.804,1.92-1.25,3.036-1.25s2.232,0.447,3.036,1.25l13.126,13.171l29.288-29.333c0.804-0.804,1.92-1.25,3.036-1.25
		s2.232,0.446,3.036,1.25l6.072,6.072c0.804,0.804,1.25,1.92,1.25,3.036S397.159,36.592,396.355,37.395z"/>
</g>
</svg>
