<?xml version="1.0" encoding="utf-8"?>
<!-- Generator: Adobe Illustrator 15.0.0, SVG Export Plug-In . SVG Version: 6.00 Build 0)  -->
<!DOCTYPE svg PUBLIC "-//W3C//DTD SVG 1.1//EN" "http://www.w3.org/Graphics/SVG/1.1/DTD/svg11.dtd">
<svg version="1.1" id="Layer_1" xmlns="http://www.w3.org/2000/svg" xmlns:xlink="http://www.w3.org/1999/xlink" x="0px" y="0px"
	 width="599.333px" height="220.333px" viewBox="0 0 599.333 220.333" enable-background="new 0 0 599.333 220.333"
	 xml:space="preserve">
<circle fill="#FF0000" cx="43" cy="49.316" r="40"/>
<circle fill="#00FF00" cx="160.259" cy="49.316" r="40"/>
<circle fill="#0000FF" cx="277.519" cy="49.316" r="40.001"/>
<circle fill="#00ADEE" cx="43" cy="172.999" r="40"/>
<circle fill="#FFF100" cx="277.52" cy="172.998" r="40"/>
<circle fill="#EB008B" cx="160.26" cy="172.999" r="40"/>
<circle fill="#231F20" cx="394.778" cy="172.998" r="40.001"/>
<g>
	<path fill="#FFFFFF" d="M42.923,164.23c-1.159,0-2.185,0.225-3.076,0.674c-0.892,0.449-1.641,1.094-2.246,1.934
		s-1.064,1.863-1.377,3.066c-0.313,1.205-0.469,2.557-0.469,4.053c0,1.523,0.14,2.879,0.42,4.063
		c0.28,1.186,0.709,2.186,1.289,2.998c0.579,0.814,1.321,1.434,2.227,1.855c0.905,0.424,1.982,0.635,3.232,0.635
		c1.159,0,2.321-0.129,3.486-0.391c1.165-0.26,2.432-0.631,3.799-1.113v5.078c-0.625,0.262-1.244,0.482-1.855,0.664
		c-0.612,0.184-1.237,0.332-1.875,0.449c-0.638,0.117-1.292,0.205-1.963,0.264c-0.671,0.059-1.39,0.088-2.158,0.088
		c-2.201,0-4.108-0.352-5.723-1.055c-1.615-0.703-2.949-1.691-4.004-2.969c-1.055-1.275-1.836-2.813-2.344-4.609
		s-0.762-3.795-0.762-5.996c0-2.16,0.293-4.143,0.879-5.947c0.586-1.803,1.445-3.355,2.578-4.658
		c1.133-1.301,2.532-2.314,4.199-3.037c1.667-0.723,3.581-1.084,5.742-1.084c1.419,0,2.842,0.18,4.268,0.537
		c1.426,0.359,2.79,0.85,4.092,1.475l-1.953,4.922c-1.068-0.508-2.142-0.949-3.223-1.328C45.025,164.42,43.964,164.23,42.923,164.23
		z"/>
</g>
<g>
	<path fill="#FFFFFF" d="M155.89,188.156l-6.27-22.402h-0.176c0.078,1.199,0.143,2.357,0.195,3.477
		c0.026,0.482,0.049,0.977,0.068,1.484s0.039,1.01,0.059,1.504c0.02,0.496,0.032,0.971,0.039,1.426
		c0.006,0.457,0.01,0.867,0.01,1.23v13.281h-5.41v-28.555h8.242l6.172,21.836h0.117l6.563-21.836h8.242v28.555h-5.645v-13.516
		c0-0.338,0.003-0.723,0.01-1.152c0.006-0.43,0.016-0.885,0.029-1.367c0.013-0.48,0.029-0.969,0.049-1.465
		c0.02-0.494,0.036-0.977,0.049-1.445c0.052-1.094,0.098-2.232,0.137-3.418h-0.156l-6.758,22.363H155.89z"/>
</g>
<g>
	<path fill="#FFFFFF" d="M276.182,171.359l5.156-11.758h6.523l-8.672,17.441v11.113h-6.016v-10.918l-8.672-17.637h6.563
		L276.182,171.359z"/>
</g>
<g>
	<path fill="#FFFFFF" d="M406.998,188.156h-6.875l-6.563-11.875l-2.266,1.68v10.195h-6.055v-28.555h6.055v13.75l2.383-4.043
		l6.523-9.707h6.719l-9.121,12.871L406.998,188.156z"/>
</g>
<g>
	<path fill="#FFFFFF" d="M36.848,52.757v10.957h-6.055V35.159h7.813c3.659,0,6.36,0.707,8.105,2.119
		c1.745,1.413,2.617,3.558,2.617,6.436c0,0.977-0.13,1.862-0.391,2.656c-0.261,0.794-0.609,1.501-1.045,2.119
		c-0.437,0.619-0.938,1.159-1.504,1.621c-0.566,0.462-1.162,0.85-1.787,1.162c1.445,2.318,2.741,4.388,3.887,6.211
		c0.495,0.781,0.973,1.543,1.436,2.285c0.462,0.742,0.875,1.406,1.24,1.992c0.364,0.586,0.664,1.055,0.898,1.406l0.332,0.547h-6.719
		l-6.191-10.957H36.848z M36.848,47.835h1.641c1.68,0,2.884-0.335,3.613-1.006c0.729-0.67,1.094-1.657,1.094-2.959
		c0-1.354-0.391-2.317-1.172-2.891c-0.781-0.573-1.992-0.859-3.633-0.859h-1.543V47.835z"/>
</g>
<g>
	<path fill="#FFFFFF" d="M158.479,47.679h11.328v14.805c-0.755,0.248-1.517,0.472-2.285,0.674c-0.769,0.202-1.566,0.371-2.393,0.508
		c-0.827,0.137-1.693,0.244-2.598,0.322c-0.905,0.078-1.865,0.117-2.881,0.117c-2.136,0-4.027-0.316-5.674-0.947
		c-1.647-0.631-3.034-1.569-4.16-2.813c-1.126-1.243-1.982-2.78-2.568-4.609c-0.586-1.829-0.879-3.942-0.879-6.338
		c0-2.239,0.325-4.264,0.977-6.074c0.651-1.81,1.611-3.35,2.881-4.619s2.832-2.246,4.688-2.93s3.981-1.025,6.377-1.025
		c1.523,0,3.014,0.163,4.473,0.488c1.458,0.326,2.793,0.749,4.004,1.27l-2.012,4.844c-0.886-0.442-1.885-0.813-2.998-1.113
		c-1.113-0.299-2.282-0.449-3.506-0.449c-1.328,0-2.523,0.231-3.584,0.693c-1.062,0.462-1.97,1.117-2.725,1.963
		c-0.755,0.847-1.335,1.869-1.738,3.066c-0.404,1.198-0.605,2.533-0.605,4.004c0,1.406,0.14,2.692,0.42,3.857
		c0.28,1.166,0.719,2.171,1.318,3.018c0.599,0.847,1.37,1.504,2.314,1.973c0.944,0.469,2.073,0.703,3.389,0.703
		c0.859,0,1.585-0.039,2.178-0.117c0.592-0.078,1.149-0.169,1.67-0.273v-5.957h-5.41V47.679z"/>
</g>
<g>
	<path fill="#FFFFFF" d="M268.001,35.159h8.359c1.797,0,3.372,0.127,4.727,0.381s2.487,0.664,3.398,1.23s1.599,1.309,2.061,2.227
		s0.693,2.048,0.693,3.389c0,0.808-0.098,1.563-0.293,2.266s-0.481,1.322-0.859,1.855c-0.378,0.534-0.837,0.98-1.377,1.338
		c-0.54,0.358-1.162,0.596-1.865,0.713v0.195c0.716,0.156,1.384,0.381,2.002,0.674s1.159,0.697,1.621,1.211
		c0.462,0.515,0.827,1.162,1.094,1.943s0.4,1.732,0.4,2.852c0,1.302-0.228,2.464-0.684,3.486c-0.456,1.022-1.11,1.888-1.963,2.598
		c-0.853,0.71-1.888,1.253-3.105,1.631c-1.218,0.378-2.595,0.566-4.131,0.566h-10.078V35.159z M274.056,46.468h3.145
		c0.755,0,1.387-0.068,1.895-0.205s0.918-0.342,1.23-0.615s0.537-0.615,0.674-1.025s0.205-0.889,0.205-1.436
		c0-1.094-0.342-1.878-1.025-2.354c-0.684-0.475-1.768-0.713-3.252-0.713h-2.871V46.468z M274.056,51.272v7.441h3.555
		c0.794,0,1.462-0.091,2.002-0.273c0.54-0.182,0.977-0.442,1.309-0.781c0.332-0.338,0.569-0.749,0.713-1.23
		c0.144-0.481,0.215-1.016,0.215-1.602c0-0.534-0.071-1.019-0.215-1.455c-0.144-0.436-0.388-0.811-0.732-1.123
		s-0.798-0.553-1.357-0.723c-0.56-0.169-1.257-0.254-2.09-0.254H274.056z"/>
</g>
<g>
	<path fill="#ED1C24" d="M582.988,192.607l-6.072,6.072c-0.804,0.804-1.92,1.25-3.036,1.25s-2.232-0.446-3.036-1.25l-13.126-13.127
		l-13.126,13.127c-0.804,0.804-1.92,1.25-3.036,1.25s-2.232-0.446-3.036-1.25l-6.072-6.072c-0.804-0.804-1.25-1.92-1.25-3.036
		s0.446-2.232,1.25-3.036l13.127-13.126l-13.127-13.126c-0.804-0.804-1.25-1.92-1.25-3.036s0.446-2.232,1.25-3.036l6.072-6.072
		c0.804-0.804,1.92-1.25,3.036-1.25s2.232,0.446,3.036,1.25l13.126,13.127l13.126-13.127c0.804-0.804,1.92-1.25,3.036-1.25
		s2.232,0.446,3.036,1.25l6.072,6.072c0.804,0.804,1.25,1.92,1.25,3.036s-0.446,2.232-1.25,3.036l-13.127,13.126l13.127,13.126
		c0.804,0.804,1.25,1.92,1.25,3.036S583.792,191.804,582.988,192.607z"/>
</g>
<g>
	<path fill="#00A14B" d="M591.069,31.847l-32.324,32.325l-6.072,6.072c-0.804,0.804-1.92,1.25-3.036,1.25s-2.232-0.446-3.036-1.25
		l-6.072-6.072L524.366,48.01c-0.804-0.804-1.25-1.92-1.25-3.036s0.446-2.232,1.25-3.036l6.072-6.072
		c0.804-0.804,1.92-1.25,3.036-1.25s2.232,0.447,3.036,1.25l13.126,13.171l29.288-29.333c0.804-0.804,1.92-1.25,3.036-1.25
		s2.232,0.446,3.036,1.25l6.072,6.072c0.804,0.804,1.25,1.92,1.25,3.036S591.873,31.044,591.069,31.847z"/>
</g>
</svg>
