<?xml version="1.0" encoding="utf-8"?>
<!-- Generator: Adobe Illustrator 15.0.0, SVG Export Plug-In . SVG Version: 6.00 Build 0)  -->
<!DOCTYPE svg PUBLIC "-//W3C//DTD SVG 1.1//EN" "http://www.w3.org/Graphics/SVG/1.1/DTD/svg11.dtd">
<svg version="1.1" id="Layer_1" xmlns="http://www.w3.org/2000/svg" xmlns:xlink="http://www.w3.org/1999/xlink" x="0px" y="0px"
	 width="600px" height="250px" viewBox="0 0 600 250" enable-background="new 0 0 600 250" xml:space="preserve">
<g>
	<path fill="#FFFFFF" d="M77,92.91c0,3.438-2.813,6.25-6.25,6.25H8.25C4.813,99.16,2,96.348,2,92.91v-47.5
		c0-3.438,2.813-6.25,6.25-6.25h62.5c3.438,0,6.25,2.813,6.25,6.25V92.91z M8.25,44.16C7.586,44.16,7,44.746,7,45.41v47.5
		c0,0.664,0.586,1.25,1.25,1.25h62.5c0.664,0,1.25-0.586,1.25-1.25v-47.5c0-0.664-0.586-1.25-1.25-1.25H8.25z M19.5,64.16
		c-4.141,0-7.5-3.359-7.5-7.5s3.359-7.5,7.5-7.5s7.5,3.359,7.5,7.5S23.641,64.16,19.5,64.16z M67,89.16H12v-7.5l12.5-12.5l6.25,6.25
		l20-20L67,71.66V89.16z"/>
</g>
<g>
	<path fill="#FFFFFF" d="M202,87.91c0,0.664-0.586,1.25-1.25,1.25H192v6.25c0,2.07-1.68,3.75-3.75,3.75h-37.5
		c-2.07,0-3.75-1.68-3.75-3.75v-6.25h-8.75c-0.664,0-1.25-0.586-1.25-1.25V71.66c0-4.102,3.398-7.5,7.5-7.5h2.5V42.91
		c0-2.07,1.68-3.75,3.75-3.75H177c2.07,0,4.922,1.172,6.406,2.656l5.938,5.938C190.828,49.238,192,52.09,192,54.16v10h2.5
		c4.102,0,7.5,3.398,7.5,7.5V87.91z M187,69.16v-15h-6.25c-2.07,0-3.75-1.68-3.75-3.75v-6.25h-25v25H187z M187,94.16v-10h-35v10H187
		z M194.5,69.16c-1.367,0-2.5,1.133-2.5,2.5s1.133,2.5,2.5,2.5s2.5-1.133,2.5-2.5S195.867,69.16,194.5,69.16z"/>
</g>
<g>
	<path fill="#FFFFFF" d="M77,235.878c0,3.438-2.813,6.25-6.25,6.25H8.25c-3.438,0-6.25-2.813-6.25-6.25v-47.5
		c0-3.438,2.813-6.25,6.25-6.25h62.5c3.438,0,6.25,2.813,6.25,6.25V235.878z M8.25,187.128c-0.664,0-1.25,0.586-1.25,1.25v47.5
		c0,0.664,0.586,1.25,1.25,1.25h62.5c0.664,0,1.25-0.586,1.25-1.25v-47.5c0-0.664-0.586-1.25-1.25-1.25H8.25z M19.5,207.128
		c-4.141,0-7.5-3.359-7.5-7.5s3.359-7.5,7.5-7.5s7.5,3.359,7.5,7.5S23.641,207.128,19.5,207.128z M67,232.128H12v-7.5l12.5-12.5
		l6.25,6.25l20-20L67,214.628V232.128z"/>
</g>
<g>
	<path fill="#FFFFFF" d="M202,230.878c0,0.664-0.586,1.25-1.25,1.25H192v6.25c0,2.07-1.68,3.75-3.75,3.75h-37.5
		c-2.07,0-3.75-1.68-3.75-3.75v-6.25h-8.75c-0.664,0-1.25-0.586-1.25-1.25v-16.25c0-4.102,3.398-7.5,7.5-7.5h2.5v-21.25
		c0-2.07,1.68-3.75,3.75-3.75H177c2.07,0,4.922,1.172,6.406,2.656l5.938,5.938c1.484,1.484,2.656,4.336,2.656,6.406v10h2.5
		c4.102,0,7.5,3.398,7.5,7.5V230.878z M187,212.128v-15h-6.25c-2.07,0-3.75-1.68-3.75-3.75v-6.25h-25v25H187z M187,237.128v-10h-35
		v10H187z M194.5,212.128c-1.367,0-2.5,1.133-2.5,2.5s1.133,2.5,2.5,2.5s2.5-1.133,2.5-2.5S195.867,212.128,194.5,212.128z"/>
</g>
<g>
	<path fill="#FFFFFF" d="M319.824,242.129c-16.563,0-30-13.438-30-30s13.437-30,30-30s30,13.438,30,30
		S336.387,242.129,319.824,242.129z M319.824,187.129c-13.789,0-25,11.211-25,25s11.21,25,25,25s25-11.211,25-25
		S333.613,187.129,319.824,187.129z M309.824,207.129c-2.773,0-5-2.227-5-5s2.227-5,5-5s5,2.227,5,5
		S312.598,207.129,309.824,207.129z M332.52,228.262c-1.328,0.43-2.734-0.313-3.164-1.641c-1.289-4.18-5.156-6.992-9.531-6.992
		s-8.242,2.813-9.531,6.992c-0.43,1.328-1.836,2.07-3.125,1.641c-1.328-0.43-2.07-1.797-1.641-3.125
		c1.953-6.289,7.695-10.508,14.297-10.508s12.344,4.219,14.297,10.508C334.551,226.465,333.809,227.832,332.52,228.262z
		 M329.824,207.129c-2.773,0-5-2.227-5-5s2.227-5,5-5s5,2.227,5,5S332.598,207.129,329.824,207.129z"/>
</g>
<g>
	<path fill="#FFFFFF" d="M499,57.91c0,7.422-8.984,15.625-21.172,16.211c-1.563,1.992-3.008,3.164-3.711,3.711
		c-2.07,1.875-2.617,3.828-2.617,6.328s1.25,5,5,5s7.5,2.5,7.5,6.25v2.5c0,0.703-0.547,1.25-1.25,1.25h-32.5
		c-0.703,0-1.25-0.547-1.25-1.25v-2.5c0-3.75,3.75-6.25,7.5-6.25s5-2.5,5-5s-0.547-4.453-2.617-6.328
		c-0.703-0.547-2.148-1.719-3.711-3.711C442.984,73.535,434,65.332,434,57.91v-5c0-2.07,1.68-3.75,3.75-3.75H449v-3.75
		c0-3.438,2.813-6.25,6.25-6.25h22.5c3.438,0,6.25,2.813,6.25,6.25v3.75h11.25c2.07,0,3.75,1.68,3.75,3.75V57.91z M449,54.16h-10
		v3.75c0,3.828,5.195,9.141,12.891,10.742C450.25,65.059,449,60.293,449,54.16z M494,54.16h-10c0,6.133-1.25,10.898-2.891,14.492
		C488.805,67.051,494,61.738,494,57.91V54.16z"/>
</g>
<g>
	<path fill="#FFFFFF" d="M125.295,68.626c0,1.479-1.2,2.679-2.679,2.679h-11.61v11.61c0,1.479-1.2,2.679-2.679,2.679h-5.358
		c-1.479,0-2.679-1.2-2.679-2.679v-11.61h-11.61c-1.479,0-2.679-1.2-2.679-2.679v-5.358c0-1.479,1.2-2.679,2.679-2.679h11.61v-11.61
		c0-1.479,1.2-2.679,2.679-2.679h5.358c1.479,0,2.679,1.2,2.679,2.679v11.61h11.61c1.479,0,2.679,1.2,2.679,2.679V68.626z"/>
</g>
<g>
	<path fill="#00A14B" d="M596.382,48.273l-32.324,32.325l-6.072,6.072c-0.804,0.804-1.92,1.25-3.036,1.25s-2.232-0.446-3.036-1.25
		l-6.072-6.072l-16.162-16.162c-0.804-0.804-1.25-1.92-1.25-3.036s0.446-2.232,1.25-3.036l6.072-6.072
		c0.804-0.804,1.92-1.25,3.036-1.25s2.232,0.447,3.036,1.25l13.126,13.171l29.288-29.333c0.804-0.804,1.92-1.25,3.036-1.25
		s2.232,0.446,3.036,1.25l6.072,6.072c0.804,0.804,1.25,1.92,1.25,3.036S597.186,47.47,596.382,48.273z"/>
</g>
<g>
	<path fill="#ED1C24" d="M595.064,232.833l-6.072,6.072c-0.804,0.804-1.92,1.25-3.036,1.25s-2.232-0.446-3.036-1.25l-13.126-13.126
		l-13.126,13.126c-0.804,0.804-1.92,1.25-3.036,1.25s-2.232-0.446-3.036-1.25l-6.072-6.072c-0.804-0.804-1.25-1.92-1.25-3.036
		s0.446-2.232,1.25-3.036l13.126-13.126l-13.126-13.126c-0.804-0.804-1.25-1.92-1.25-3.036s0.446-2.232,1.25-3.036l6.072-6.072
		c0.804-0.804,1.92-1.25,3.036-1.25s2.232,0.446,3.036,1.25l13.126,13.126l13.126-13.126c0.804-0.804,1.92-1.25,3.036-1.25
		s2.232,0.446,3.036,1.25l6.072,6.072c0.804,0.804,1.25,1.92,1.25,3.036s-0.446,2.232-1.25,3.036l-13.126,13.126l13.126,13.126
		c0.804,0.804,1.25,1.92,1.25,3.036S595.868,232.029,595.064,232.833z"/>
</g>
<g>
	<path fill="#FFFFFF" d="M212,60.635V50.172h38.698v10.463H212z M212,83.923V73.46h38.698v10.463H212z"/>
</g>
<g>
	<path fill="#FFFFFF" d="M212.2,202.557v-11.159h41.281v11.159H212.2z M212.2,227.396v-11.16h41.281v11.16H212.2z"/>
</g>
<g>
	<path fill="#FFFFFF" d="M422.295,68.626c0,1.479-1.2,2.679-2.68,2.679h-11.609v11.61c0,1.479-1.2,2.679-2.68,2.679h-5.357
		c-1.479,0-2.68-1.2-2.68-2.679v-11.61H385.68c-1.479,0-2.68-1.2-2.68-2.679v-5.358c0-1.479,1.2-2.679,2.68-2.679h11.609v-11.61
		c0-1.479,1.2-2.679,2.68-2.679h5.357c1.479,0,2.68,1.2,2.68,2.679v11.61h11.609c1.479,0,2.68,1.2,2.68,2.679V68.626z"/>
</g>
<g>
	<path fill="#FFFFFF" d="M358.455,91.91c0,3.438-2.813,6.25-6.25,6.25h-62.5c-3.438,0-6.25-2.813-6.25-6.25v-47.5
		c0-3.438,2.813-6.25,6.25-6.25h62.5c3.438,0,6.25,2.813,6.25,6.25V91.91z M289.706,43.16c-0.664,0-1.25,0.586-1.25,1.25v47.5
		c0,0.664,0.586,1.25,1.25,1.25h62.5c0.664,0,1.25-0.586,1.25-1.25v-47.5c0-0.664-0.586-1.25-1.25-1.25H289.706z M300.956,63.16
		c-4.141,0-7.5-3.359-7.5-7.5s3.359-7.5,7.5-7.5c4.14,0,7.5,3.359,7.5,7.5S305.096,63.16,300.956,63.16z M348.455,88.16h-55v-7.5
		l12.5-12.5l6.25,6.25l20-20l16.25,16.25V88.16z"/>
</g>
<rect x="273.833" y="28.167" fill="none" stroke="#FFFFFF" stroke-width="8" width="94" height="79"/>
<polyline fill="none" stroke="#FFFFFF" stroke-width="5" points="340.416,26.5 323.283,9.5 320.55,9.5 303.416,26.5 "/>
<g>
	<path fill="#FFFFFF" d="M107.434,232.135c-11.833,0-21.434-9.628-21.434-21.518c0-11.86,9.601-21.489,21.434-21.489
		s21.434,9.629,21.434,21.489C128.867,222.507,119.267,232.135,107.434,232.135z M115.806,197.919
		c-2.4-1.618-5.275-2.539-8.373-2.539c-8.373,0-15.182,6.837-15.182,15.237c0,3.098,0.921,5.944,2.484,8.345L115.806,197.919z
		 M120.188,202.385l-21.042,21.015c2.4,1.563,5.247,2.483,8.289,2.483c8.373,0,15.182-6.837,15.182-15.266
		C122.616,207.575,121.723,204.757,120.188,202.385z"/>
</g>
</svg>
