<?xml version="1.0" encoding="utf-8"?>
<!-- Generator: Adobe Illustrator 15.0.0, SVG Export Plug-In . SVG Version: 6.00 Build 0)  -->
<!DOCTYPE svg PUBLIC "-//W3C//DTD SVG 1.1//EN" "http://www.w3.org/Graphics/SVG/1.1/DTD/svg11.dtd">
<svg version="1.1" id="Layer_1" xmlns="http://www.w3.org/2000/svg" xmlns:xlink="http://www.w3.org/1999/xlink" x="0px" y="0px"
	 width="600px" height="350px" viewBox="0 0 600 350" enable-background="new 0 0 600 350" xml:space="preserve">
<g>
	<path fill="#FFFFFF" d="M95.5,66.046l-11.406,3.75V81.75c0,0.391-0.195,0.781-0.508,1.016c-0.352,0.234-0.742,0.313-1.133,0.156
		L71.047,79.25l-7.031,9.688c-0.234,0.313-0.625,0.508-1.016,0.508s-0.781-0.195-1.016-0.508l-7.031-9.688l-11.406,3.672
		c-0.391,0.156-0.781,0.078-1.133-0.156c-0.313-0.234-0.508-0.625-0.508-1.016V69.796L30.5,66.046
		c-0.352-0.117-0.664-0.391-0.781-0.781s-0.078-0.82,0.156-1.133l7.031-9.688l-7.031-9.688c-0.234-0.352-0.273-0.742-0.156-1.133
		s0.43-0.664,0.781-0.781l11.406-3.75V27.14c0-0.391,0.195-0.781,0.508-1.016c0.352-0.234,0.742-0.313,1.133-0.156l11.406,3.672
		l7.031-9.688c0.469-0.625,1.563-0.625,2.031,0l7.031,9.688l11.406-3.672c0.391-0.156,0.781-0.078,1.133,0.156
		c0.313,0.234,0.508,0.625,0.508,1.016v11.953l11.406,3.75c0.352,0.117,0.664,0.391,0.781,0.781s0.078,0.781-0.156,1.133
		l-7.031,9.688l7.031,9.688c0.234,0.313,0.273,0.742,0.156,1.133S95.852,65.929,95.5,66.046z M63,31.945
		c-12.422,0-22.5,10.078-22.5,22.5s10.078,22.5,22.5,22.5s22.5-10.078,22.5-22.5S75.422,31.945,63,31.945z"/>
</g>
<g>
	<g>
		<path fill="#FFFFFF" d="M331.5,66.046l-11.406,3.75V81.75c0,0.391-0.195,0.781-0.508,1.016c-0.352,0.234-0.742,0.313-1.133,0.156
			l-11.406-3.672l-7.031,9.688c-0.234,0.313-0.625,0.508-1.016,0.508s-0.781-0.195-1.016-0.508l-7.031-9.688l-11.406,3.672
			c-0.391,0.156-0.781,0.078-1.133-0.156c-0.313-0.234-0.508-0.625-0.508-1.016V69.796l-11.406-3.75
			c-0.352-0.117-0.664-0.391-0.781-0.781s-0.078-0.82,0.156-1.133l7.031-9.688l-7.031-9.688c-0.234-0.352-0.273-0.742-0.156-1.133
			s0.43-0.664,0.781-0.781l11.406-3.75V27.14c0-0.391,0.195-0.781,0.508-1.016c0.352-0.234,0.742-0.313,1.133-0.156l11.406,3.672
			l7.031-9.688c0.469-0.625,1.563-0.625,2.031,0l7.031,9.688l11.406-3.672c0.391-0.156,0.781-0.078,1.133,0.156
			c0.313,0.234,0.508,0.625,0.508,1.016v11.953l11.406,3.75c0.352,0.117,0.664,0.391,0.781,0.781s0.078,0.781-0.156,1.133
			l-7.031,9.688l7.031,9.688c0.234,0.313,0.273,0.742,0.156,1.133S331.852,65.929,331.5,66.046z M299,31.945
			c-12.422,0-22.5,10.078-22.5,22.5s10.078,22.5,22.5,22.5s22.5-10.078,22.5-22.5S311.422,31.945,299,31.945z"/>
	</g>
	<circle fill="#FFFFFF" cx="299" cy="53.778" r="23.5"/>
</g>
<g>
	<path fill="#FFFFFF" d="M207.055,60.5l-25.43,25.43c-0.938,0.898-2.227,1.445-3.555,1.445s-2.578-0.547-3.516-1.445l-2.93-2.93
		c-0.938-0.938-1.484-2.227-1.484-3.555s0.547-2.617,1.484-3.555l11.445-11.445h-27.5c-2.813,0-4.57-2.344-4.57-5v-5
		c0-2.656,1.758-5,4.57-5h27.5L171.625,37.96c-0.938-0.898-1.484-2.188-1.484-3.516s0.547-2.617,1.484-3.516l2.93-2.93
		c0.938-0.938,2.188-1.484,3.516-1.484s2.617,0.547,3.555,1.484l25.43,25.43c0.938,0.898,1.445,2.188,1.445,3.516
		S207.992,59.562,207.055,60.5z"/>
</g>
<g>
	<path fill="#FFFFFF" d="M202.055,184.389l-25.43,25.43c-0.938,0.898-2.227,1.445-3.555,1.445s-2.578-0.547-3.516-1.445l-2.93-2.93
		c-0.938-0.938-1.484-2.227-1.484-3.555s0.547-2.617,1.484-3.555l11.445-11.445h-27.5c-2.813,0-4.57-2.344-4.57-5v-5
		c0-2.657,1.758-5,4.57-5h27.5l-11.445-11.484c-0.938-0.898-1.484-2.188-1.484-3.516s0.547-2.617,1.484-3.516l2.93-2.93
		c0.938-0.938,2.188-1.484,3.516-1.484s2.617,0.547,3.555,1.484l25.43,25.43c0.938,0.898,1.445,2.188,1.445,3.516
		S202.992,183.451,202.055,184.389z"/>
</g>
<g>
	<path fill="#FFFFFF" d="M294,208.334c-16.563,0-30-13.438-30-30c0-16.563,13.438-30,30-30s30,13.438,30,30
		C324,194.896,310.563,208.334,294,208.334z"/>
</g>
<g>
	<path fill="#FFFFFF" d="M58,208.334c-16.563,0-30-13.438-30-30c0-16.563,13.438-30,30-30s30,13.438,30,30
		C88,194.896,74.563,208.334,58,208.334z M58,157.083c-11.719,0-21.25,9.531-21.25,21.25c0,11.719,9.531,21.25,21.25,21.25V157.083z
		"/>
</g>
<g>
	<path fill="#00A14B" d="M580.382,39.895L548.058,72.22l-6.072,6.072c-0.804,0.804-1.92,1.25-3.036,1.25s-2.232-0.446-3.036-1.25
		l-6.072-6.072l-16.162-16.162c-0.804-0.804-1.25-1.92-1.25-3.036s0.446-2.232,1.25-3.036l6.072-6.072
		c0.804-0.804,1.92-1.25,3.036-1.25s2.232,0.447,3.036,1.25l13.126,13.171l29.288-29.333c0.804-0.804,1.92-1.25,3.036-1.25
		s2.232,0.446,3.036,1.25l6.072,6.072c0.804,0.804,1.25,1.92,1.25,3.036S581.186,39.092,580.382,39.895z"/>
</g>
<g>
	<path fill="#ED1C24" d="M579.064,329.455l-6.072,6.072c-0.804,0.804-1.92,1.25-3.036,1.25s-2.232-0.446-3.036-1.25l-13.126-13.126
		l-13.126,13.126c-0.804,0.804-1.92,1.25-3.036,1.25s-2.232-0.446-3.036-1.25l-6.072-6.072c-0.804-0.804-1.25-1.92-1.25-3.036
		s0.446-2.232,1.25-3.036l13.126-13.126l-13.126-13.126c-0.804-0.804-1.25-1.92-1.25-3.036s0.446-2.232,1.25-3.036l6.072-6.072
		c0.804-0.804,1.92-1.25,3.036-1.25s2.232,0.446,3.036,1.25l13.126,13.126l13.126-13.126c0.804-0.804,1.92-1.25,3.036-1.25
		s2.232,0.446,3.036,1.25l6.072,6.072c0.804,0.804,1.25,1.92,1.25,3.036s-0.446,2.232-1.25,3.036l-13.126,13.126l13.126,13.126
		c0.804,0.804,1.25,1.92,1.25,3.036S579.868,328.651,579.064,329.455z"/>
</g>
<g>
	<path fill="#00A14B" d="M580.382,162.728l-32.324,32.325l-6.072,6.072c-0.804,0.804-1.92,1.25-3.036,1.25s-2.232-0.446-3.036-1.25
		l-6.072-6.072l-16.162-16.162c-0.804-0.804-1.25-1.92-1.25-3.036s0.446-2.232,1.25-3.036l6.072-6.072
		c0.804-0.804,1.92-1.25,3.036-1.25s2.232,0.447,3.036,1.25l13.126,13.171l29.288-29.334c0.804-0.804,1.92-1.25,3.036-1.25
		s2.232,0.446,3.036,1.25l6.072,6.072c0.804,0.804,1.25,1.92,1.25,3.036S581.186,161.925,580.382,162.728z"/>
</g>
<title>Layer 1</title>
<g>
	<g>
		<path fill="none" stroke="#FFFFFF" stroke-width="5" d="M109.25,339.739c0,2.75-2.25,5-5,5h-91c-2.75,0-5-2.25-5-5v-60
			c0-2.75,2.25-5,5-5h91c2.75,0,5,2.25,5,5V339.739z"/>
	</g>
	<g>
		<path fill="#FFFFFF" d="M84.165,339.302c-7.006-0.674-14.836-1.059-22.049-1.251c-10.303-0.288-21.018,0-31.32,0.481
			c-5.564,0.288-11.54,1.153-17.103,1.922c-1.46,0.199-2.939,0.457-4.431,0.729c-0.042,0.689-0.086,1.377-0.101,2.064
			c11.341,0.674,22.711,1.001,34.204,1.15c10.509,0.096,20.606-0.097,30.909-0.193c10.715-0.191,22.46-0.096,32.763-1.153
			C101.473,340.647,91.376,339.974,84.165,339.302z"/>
		<g>
			<path fill="#FFFFFF" d="M84.528,338.707c-24.776-2.277-50.591-2.492-75.149,1.888c-0.331,0.06-1.061,0.243-1.087,0.694
				c-0.048,0.688-0.081,1.376-0.101,2.064c-0.014,0.35,0.3,0.471,0.606,0.488c16.563,0.957,33.147,1.271,49.736,1.126
				c16.09-0.141,32.353,0.207,48.386-1.329c0.303-0.029,1.706-0.758,0.879-1.083C100.48,339.676,92.273,339.414,84.528,338.707
				c-0.803-0.074-2.034,1.07-0.727,1.189c7.467,0.683,15.422,0.874,22.474,3.649c0.293-0.361,0.586-0.722,0.879-1.083
				c-14.61,1.4-29.391,1.107-44.054,1.275c-14.714,0.168-29.414,0.017-44.117-0.602c-0.876-0.037-8.855,0.07-8.813-1.027
				c0.049-1.278,7.435-1.623,8.501-1.768c7.579-1.026,15.148-1.404,22.788-1.635c14.116-0.426,28.277-0.103,42.343,1.189
				C84.605,339.971,85.835,338.827,84.528,338.707z"/>
		</g>
	</g>
</g>
<g>
	<g>
		
			<ellipse id="svg_18_1_" transform="matrix(-0.878 -0.4787 0.4787 -0.878 327.6819 732.6304)" fill="#FFFFFF" stroke="#FFFFFF" stroke-width="0.25" cx="257.223" cy="324.548" rx="0.878" ry="2.548"/>
		<g id="layer1_1_">
			<g id="g4104_1_">
				<path id="path3555_1_" fill="#FFFFFF" stroke="#FFFFFF" stroke-width="0.25" d="M278.156,328.944l-0.595,0.639l-0.199,0.836
					l-0.397,1.522l-0.397,0.981l0.099,1.476l0.099,1.081l0.149,0.835l0.198,0.737l0.199,2.505l0.05,1.72l0.397,1.033l0.298,0.736
					l0.646,0.245l1.042,0.295l0.794,0.196l0.249-0.245l-0.298-0.442l-0.545-0.294l-0.596-0.54l-0.497-0.492l-0.297-0.885
					l-0.199-2.015l-0.049-1.277v-0.983l0.049-0.294l0.1-1.572l0.198-1.966l0.298-1.719l0.298-1.082l0.744-0.884l0.745-0.885
					l0.645-1.229l0.298-0.981l0.148-0.296l0.894-0.884l1.042-1.032l0.695-1.032l0.447-1.326l0.645-2.063l0.447-1.524l0.099-0.344
					l0.67-0.516l0.67-0.172l0.645-0.049l0.1-0.688l-0.05-0.54l-0.397-0.393l-0.596-0.688l-0.248-0.344l0.099-0.343l0.198-0.247
					l0.695-0.196l0.745-0.491l0.546-0.885l0.347-1.081l-0.049-0.835l-0.347-0.59l-0.943,0.147l-0.447,0.148l-0.397,0.195
					l-0.447,0.442l-0.298,0.491l-0.199,0.541l-0.149,0.639l-0.348-0.394l0.05-0.343l0.249-0.64l0.348-0.245l0.446-0.295l0.794-0.688
					l0.546-0.442l0.894-0.834l1.042-0.688l0.645-1.131l1.092-1.13l0.645-0.736h-0.794l-0.348,0.589l-0.348,0.589l-0.446,0.345
					l-0.199,0.196l0.298-0.786l-0.099-1.572v-0.688l-0.447,0.1l0.049,0.688l-0.049,0.982l-0.249,0.736l-0.447,1.033l-0.446,0.786
					l-0.695,0.589l-0.695,0.393l-0.695,0.787l-0.695,0.736l0.646-0.835l0.695-0.884l0.646-1.082l0.297-1.129l-0.049-1.032
					l-0.198-0.688l-0.298-0.393l-0.05,0.197l0.249,0.638l-0.149,1.032l-0.199,0.885l-0.298,0.54l-0.248,0.442l0.099-1.032
					l-0.298-1.032l-0.248-0.244l-0.297-0.247l-0.05,0.147l0.298,0.393v0.64l0.148,0.787l-0.248,0.589l-0.199,0.492l-0.348,0.098
					l-0.745-0.148l-0.794-0.245v0.147l1.092,0.344l0.596,0.393l0.298,0.1l-0.447,0.589l-0.844,0.688l-0.546,0.639l-0.546,0.541
					l-0.199,0.098l-0.943-0.197l-0.446-0.344l-0.348-0.295l0.049-0.688l-0.447-0.737l-0.347-0.441l-0.199-0.591v-0.638l0.05-0.393
					l0.199-0.886l0.198-0.639l-0.347-0.049l-0.298,0.639l-0.198,0.885l-0.049,1.229l0.148,0.736l0.099,0.393l0.249,0.443
					l-0.149,0.246l-1.092-0.148l-1.489-0.59l-0.745-0.54l-0.745-0.737l-0.545-0.441l0.645-1.033l0.645-0.883l0.298-0.836l-0.1-0.492
					l-0.199-0.097l-0.099,0.441l-0.1,0.393l-0.794,1.327l-0.546,0.934l-0.645-0.441l-0.447-0.443l-0.695-0.736l-0.099-0.541
					l-0.05-0.736v-0.935l-0.248-0.049l-0.149,0.394v0.737l0.05,1.081l0.695,1.08l0.695,0.688l0.646,0.688l0.844,0.933l0.248,0.491
					l-0.943-1.277l-0.546-0.59l-1.241-1.277l-0.496-0.442l-0.596-0.934l-0.249-0.737l-0.397-0.344l-0.099,0.246l0.347,0.982
					l0.298,0.59l0.894,0.982l0.745,0.541l1.142,1.129l0.794,0.787l1.39,1.031l0.695,0.394l0.199,0.394l0.099-0.492l0.149-0.245
					l0.596,0.049l0.745,0.196l0.496,0.295l0.645,0.639l-0.546-0.539l-1.042-0.64h-0.794l-0.249,0.393v0.294l0.1,1.033l0.447,0.934
					l0.645,0.787l0.497,0.293l0.397,0.148l-0.199,1.375l-0.496,1.572l-0.646,1.229l-0.894,0.688l-2.382-0.147l-2.532,0.147h-1.291
					l-1.936-0.295l-1.836-0.146l-1.489-0.246l-2.035-0.245l-2.134-0.099l-1.44,0.049l-1.787,0.885l-1.44,0.982l-1.042,0.738
					l-0.447,0.638l-0.347,0.491l0.05,0.492l0.149,1.18l0.099,0.687l0.149,1.278l0.348-0.443l0.298-0.588l0.248,0.884l0.695,1.032
					l0.348,0.885l0.298,0.883l-0.347,0.738l-0.596,0.982l-1.141,0.688l-0.05,0.884l-0.05,1.917l-0.149,1.572l-0.248,1.916
					l-0.198,0.982l0.099,0.736l0.347,0.395l0.497,0.688l0.695,0.442h0.893l0.347-0.049l-0.595-1.081l-0.695-0.443l-0.149-0.491
					l0.199-1.965l0.049-0.933l0.1-1.132l0.248-0.884l0.596-0.785l1.191-1.082l0.695-0.491l-0.05,1.179v0.836l-0.199,0.492
					l0.397,0.981l0.199,0.786l0.545,1.277l0.348,1.229l0.695,1.72l0.446,1.081l0.447,1.18l0.198,0.246l0.646,0.541l0.993,0.393
					l0.497,0.098l0.298-0.197l0.049-0.54l-0.894-0.933l-0.794-0.541l-0.397-0.491l-0.248-0.786l-0.745-1.622l-0.596-1.621
					l-0.248-0.933v-1.328l0.397-2.064l0.248-1.275l0.397-1.77l0.149-0.541l1.638,1.032l1.787,0.54l2.035,0.099h1.936l1.886-0.147
					l0.546,0.197l0.198,1.179l0.298,2.653l0.298,1.818l-0.05,0.639l0.199,0.49l-0.049,2.064l-0.298,3.096l0.149,1.326l0.794,0.59
					l0.695,0.197l0.794-0.051l0.05-0.294l-0.695-0.736l-0.596-0.787l-0.099-0.589v-2.556v-1.72l0.447-0.982l0.149-1.277l0.049-1.967
					l0.447-0.785l0.596-1.769l0.149-0.835L278.156,328.944z"/>
			</g>
		</g>
		<path id="svg_9_1_" fill="none" stroke="#000000" stroke-width="0.25" d="M258.785,323.433"/>
		<path id="svg_17_1_" fill="none" stroke="#000000" stroke-width="0.25" d="M288.238,316.77c0.059,0,0.196,0.042,0.238,0
			c0.042-0.042-0.042-0.196,0-0.238c0.042-0.042,0.06-0.06,0.06-0.12c0-0.118,0-0.178,0-0.236c0-0.061-0.017-0.138-0.06-0.18
			c-0.042-0.041-0.094,0.025-0.179-0.059c-0.042-0.042,0.084-0.154,0-0.238c-0.042-0.042,0-0.119-0.059-0.119
			c-0.06,0,0.018,0.077,0.059,0.119c0.084,0.084,0.119,0.179,0.119,0.238c0,0.059,0,0.178,0,0.238c0,0.059,0,0.118,0,0.236
			c0,0.061,0,0.12,0.06,0.12s0.06-0.06,0.06-0.12c0-0.118-0.042-0.195,0-0.236c0.042-0.043,0.179,0,0.179,0.059
			c0,0.06,0,0.178,0,0.238c0,0.06-0.035,0.203-0.119,0.118c-0.042-0.042,0-0.118,0-0.179c0-0.118,0-0.178,0-0.236
			c0-0.061,0-0.18-0.06-0.18s-0.119-0.059-0.238-0.059c-0.059,0-0.119,0-0.178,0H288v0.059"/>
		
			<ellipse id="svg_20_1_" transform="matrix(0.3164 -0.9486 0.9486 0.3164 -103.2902 489.0671)" fill="#FFFFFF" stroke="#FFFFFF" stroke-width="0.25" cx="287.702" cy="316.203" rx="0.736" ry="1.31"/>
	</g>
	<g>
		<path fill="none" stroke="#FFFFFF" stroke-width="5" d="M350.5,339.739c0,2.75-2.25,5-5,5h-91c-2.75,0-5-2.25-5-5v-60
			c0-2.75,2.25-5,5-5h91c2.75,0,5,2.25,5,5V339.739z"/>
	</g>
	<g>
		<path fill="#FFFFFF" d="M325.415,339.302c-7.007-0.674-14.837-1.059-22.049-1.251c-10.303-0.288-21.018,0-31.32,0.481
			c-5.564,0.288-11.54,1.153-17.103,1.922c-1.46,0.199-2.939,0.457-4.431,0.729c-0.042,0.689-0.086,1.377-0.101,2.064
			c11.341,0.674,22.711,1.001,34.204,1.15c10.509,0.096,20.605-0.097,30.908-0.193c10.716-0.191,22.461-0.096,32.764-1.153
			C342.723,340.647,332.627,339.974,325.415,339.302z"/>
		<g>
			<path fill="#FFFFFF" d="M325.778,338.707c-24.776-2.277-50.591-2.492-75.149,1.888c-0.331,0.06-1.061,0.243-1.087,0.694
				c-0.048,0.688-0.081,1.376-0.101,2.064c-0.014,0.35,0.3,0.471,0.606,0.488c16.563,0.957,33.147,1.271,49.736,1.126
				c16.09-0.141,32.353,0.207,48.385-1.329c0.304-0.029,1.707-0.758,0.88-1.083C341.73,339.676,333.523,339.414,325.778,338.707
				c-0.804-0.074-2.033,1.07-0.727,1.189c7.467,0.683,15.422,0.874,22.474,3.649c0.293-0.361,0.587-0.722,0.88-1.083
				c-14.61,1.4-29.392,1.107-44.055,1.275c-14.714,0.168-29.414,0.017-44.117-0.602c-0.876-0.037-8.855,0.07-8.813-1.027
				c0.049-1.278,7.435-1.623,8.501-1.768c7.579-1.026,15.148-1.404,22.788-1.635c14.116-0.426,28.277-0.103,42.343,1.189
				C325.855,339.971,327.085,338.827,325.778,338.707z"/>
		</g>
	</g>
</g>
<g>
	<path fill="#FFFFFF" d="M202.055,317.028l-25.43,25.43c-0.938,0.898-2.227,1.445-3.555,1.445s-2.578-0.547-3.516-1.445l-2.93-2.93
		c-0.938-0.938-1.484-2.227-1.484-3.555s0.547-2.617,1.484-3.555l11.445-11.445h-27.5c-2.813,0-4.57-2.344-4.57-5v-5
		c0-2.656,1.758-5,4.57-5h27.5l-11.445-11.484c-0.938-0.898-1.484-2.188-1.484-3.516s0.547-2.617,1.484-3.516l2.93-2.93
		c0.938-0.938,2.188-1.484,3.516-1.484s2.617,0.547,3.555,1.484l25.43,25.43c0.938,0.898,1.445,2.188,1.445,3.516
		S202.992,316.091,202.055,317.028z"/>
</g>
<g>
	<polygon fill="#FFFFFF" points="305.672,292.49 310.672,283.83 315.672,292.49 	"/>
	<polygon fill="#FFFFFF" points="300.672,297.66 310.672,291.66 320.672,297.66 	"/>
	<polygon fill="#FFFFFF" points="297.171,302.32 310.671,296.32 324.171,302.32 	"/>
	<polygon fill="#FFFFFF" points="292.171,319.32 310.671,311.32 329.171,319.32 	"/>
	<polygon fill="#FFFFFF" points="296.671,307.32 310.671,301.32 324.671,307.32 	"/>
	<polygon fill="#FFFFFF" points="296.171,312.82 310.671,305.82 325.171,312.82 	"/>
	<path fill="#FFFFFF" d="M345.675,319.328c0.276,2.048,0.276,2.921-0.611,3.833c-0.057,0.168-0.115,0.336-0.178,0.501
		c-0.063,0.164-0.128,0.327-0.197,0.488c-1.021,0.541-0.782,2.152-1.65,3.18c-0.096,0.114-0.206,0.223-0.333,0.319
		c-1.125,2.469-3.747,0.72-4.366,2.034c-0.152,0.028-0.309,0.055-0.464,0.075c-0.314,0.041-0.631,0.062-0.954,0.062
		c-1.287,0-2.509-0.335-3.61-0.934c-0.137-0.075-0.271-0.154-0.407-0.237c-2.688-0.28-2.688-2.902-3.293-3.566
		c-0.081-0.151-0.16-0.303-0.238-0.459c-0.063-0.129-0.124-0.26-0.183-0.393c-0.059-0.134-0.114-0.268-0.171-0.408
		c-1.426-0.699-1.426-2.447-0.838-4.492c0-0.099,0-0.194,0.002-0.289c0.019-0.851,0.122-1.675,0.301-2.46
		c0.017-0.093,0.034-0.184,0.051-0.276c-0.941-1.924,1.681-2.799,1.979-4.111c0.099-0.127,0.2-0.254,0.307-0.377
		c0.112-0.133,0.229-0.26,0.347-0.384c0.797-1.423,1.671-3.172,4.262-2.441c0.161-0.035,0.325-0.062,0.489-0.084
		c0.33-0.046,0.665-0.069,1.003-0.069c0.323,0,0.64,0.021,0.954,0.062c0.155,0.021,0.312,0.047,0.468,0.075
		c1.488,0.162,3.237-0.714,4.093,2.214c0.119,0.116,0.232,0.232,0.344,0.353c0.109,0.119,0.218,0.242,0.324,0.369
		c1.099,1.596,2.848,2.471,2.184,4.363c0.021,0.089,0.043,0.178,0.063,0.268c0.153,0.664,0.252,1.356,0.293,2.07
		c0.007,0.118,0.011,0.236,0.015,0.356C345.662,319.088,345.667,319.208,345.675,319.328z"/>
	<line fill="none" stroke="#FFFFFF" stroke-width="3" x1="336.824" y1="324.32" x2="336.824" y2="341.66"/>
	<polygon fill="#FFFFFF" points="292.171,325.32 310.671,317.32 329.171,325.32 	"/>
	<line fill="none" stroke="#FFFFFF" stroke-width="5" x1="310.672" y1="320.99" x2="310.672" y2="338.33"/>
</g>
<g>
	<polygon fill="#FFFFFF" points="64.505,292.415 69.505,283.755 74.505,292.415 	"/>
	<polygon fill="#FFFFFF" points="59.505,297.585 69.505,291.585 79.505,297.585 	"/>
	<polygon fill="#FFFFFF" points="56.004,302.245 69.504,296.245 83.004,302.245 	"/>
	<polygon fill="#FFFFFF" points="51.004,319.245 69.504,311.245 88.004,319.245 	"/>
	<polygon fill="#FFFFFF" points="55.504,307.245 69.504,301.245 83.504,307.245 	"/>
	<polygon fill="#FFFFFF" points="55.004,312.745 69.504,305.745 84.004,312.745 	"/>
	<path fill="#FFFFFF" d="M104.508,319.253c0.276,2.048,0.276,2.921-0.611,3.833c-0.057,0.168-0.115,0.336-0.178,0.501
		c-0.063,0.164-0.128,0.327-0.197,0.488c-1.021,0.541-0.782,2.152-1.65,3.18c-0.096,0.114-0.206,0.223-0.333,0.319
		c-1.125,2.469-3.747,0.72-4.366,2.034c-0.152,0.028-0.309,0.055-0.464,0.075c-0.314,0.041-0.631,0.062-0.954,0.062
		c-1.287,0-2.509-0.335-3.61-0.934c-0.137-0.075-0.271-0.154-0.407-0.237c-2.688-0.28-2.688-2.902-3.293-3.566
		c-0.081-0.151-0.16-0.303-0.238-0.459c-0.063-0.129-0.124-0.26-0.183-0.393c-0.059-0.134-0.114-0.268-0.171-0.408
		c-1.426-0.699-1.426-2.447-0.838-4.492c0-0.099,0-0.194,0.002-0.289c0.019-0.851,0.122-1.675,0.301-2.46
		c0.017-0.093,0.034-0.184,0.051-0.276c-0.941-1.924,1.681-2.799,1.979-4.111c0.099-0.127,0.2-0.254,0.307-0.377
		c0.112-0.133,0.229-0.26,0.347-0.384c0.797-1.423,1.671-3.172,4.262-2.441c0.161-0.035,0.325-0.062,0.489-0.084
		c0.33-0.046,0.665-0.069,1.003-0.069c0.323,0,0.64,0.021,0.954,0.062c0.155,0.021,0.312,0.047,0.468,0.075
		c1.488,0.162,3.237-0.714,4.093,2.214c0.119,0.116,0.232,0.232,0.344,0.353c0.109,0.119,0.218,0.242,0.324,0.369
		c1.099,1.596,2.848,2.471,2.184,4.363c0.021,0.089,0.043,0.178,0.063,0.268c0.153,0.664,0.252,1.356,0.293,2.07
		c0.007,0.118,0.011,0.236,0.015,0.356C104.495,319.013,104.5,319.133,104.508,319.253z"/>
	<line fill="none" stroke="#FFFFFF" stroke-width="3" x1="95.657" y1="324.245" x2="95.657" y2="341.585"/>
	<polygon fill="#FFFFFF" points="51.004,325.245 69.504,317.245 88.004,325.245 	"/>
	<line fill="none" stroke="#FFFFFF" stroke-width="5" x1="69.505" y1="320.915" x2="69.505" y2="338.255"/>
</g>
</svg>
