<?xml version="1.0" encoding="utf-8"?>
<!-- Generator: Adobe Illustrator 15.0.0, SVG Export Plug-In . SVG Version: 6.00 Build 0)  -->
<!DOCTYPE svg PUBLIC "-//W3C//DTD SVG 1.1//EN" "http://www.w3.org/Graphics/SVG/1.1/DTD/svg11.dtd">
<svg version="1.1" id="Layer_1" xmlns="http://www.w3.org/2000/svg" xmlns:xlink="http://www.w3.org/1999/xlink" x="0px" y="0px"
	 width="380px" height="250px" viewBox="0 0 380 250" style="enable-background:new 0 0 380 250;" xml:space="preserve">
<style type="text/css">
<![CDATA[
	.st0{fill:#135870;}
	.st1{fill:#FFFFFF;}
]]>
</style>
<rect class="st0" width="380" height="250"/>
<g>
	<path class="st1" d="M270.4,109.2v75c0,11.8-9.6,21.4-21.4,21.4H131.1c-11.8,0-21.4-9.6-21.4-21.4v-75c0-11.8,9.6-21.4,21.4-21.4
		h18.8l4.3-11.4c2.1-5.5,8.6-10,14.5-10h42.9c5.9,0,12.4,4.5,14.5,10l4.3,11.4h18.8C260.7,87.7,270.4,97.4,270.4,109.2z
		 M227.5,146.7c0-20.7-16.8-37.5-37.5-37.5s-37.5,16.8-37.5,37.5c0,20.7,16.8,37.5,37.5,37.5S227.5,167.3,227.5,146.7z M214.1,146.7
		c0,13.3-10.8,24.1-24.1,24.1s-24.1-10.8-24.1-24.1s10.8-24.1,24.1-24.1S214.1,133.4,214.1,146.7z"/>
</g>
</svg>
