<?xml version="1.0" encoding="utf-8"?>
<!-- Generator: Adobe Illustrator 15.0.0, SVG Export Plug-In . SVG Version: 6.00 Build 0)  -->
<!DOCTYPE svg PUBLIC "-//W3C//DTD SVG 1.1//EN" "http://www.w3.org/Graphics/SVG/1.1/DTD/svg11.dtd">
<svg version="1.1" id="Layer_1" xmlns="http://www.w3.org/2000/svg" xmlns:xlink="http://www.w3.org/1999/xlink" x="0px" y="0px"
	 width="144px" height="144px" viewBox="0 0 144 144" enable-background="new 0 0 144 144" xml:space="preserve">
<g>
	<path fill-rule="evenodd" clip-rule="evenodd" fill="#B6BBD4" d="M144,121c0,12.65-10.35,23-23,23H23c-12.65,0-23-10.35-23-23V23
		C0,10.35,10.35,0,23,0h98c12.65,0,23,10.35,23,23V121z"/>
</g>
<g>
	<path fill="#135870" d="M120.203,102.947c0,4.42-3.616,8.035-8.035,8.035H31.821c-4.419,0-8.035-3.615-8.035-8.035V41.884
		c0-4.419,3.616-8.035,8.035-8.035h80.347c4.419,0,8.035,3.616,8.035,8.035V102.947z M31.821,40.277
		c-0.854,0-1.607,0.753-1.607,1.607v61.063c0,0.854,0.753,1.607,1.607,1.607h80.347c0.854,0,1.607-0.754,1.607-1.607V41.884
		c0-0.854-0.754-1.607-1.607-1.607H31.821z M46.284,65.988c-5.323,0-9.642-4.319-9.642-9.642s4.319-9.642,9.642-9.642
		s9.642,4.319,9.642,9.642S51.606,65.988,46.284,65.988z M107.348,98.127H36.642v-9.642l16.069-16.069l8.035,8.035L86.457,54.74
		l20.891,20.89V98.127z"/>
</g>
</svg>
