<?xml version="1.0" encoding="utf-8"?>
<!-- Generator: Adobe Illustrator 15.0.0, SVG Export Plug-In . SVG Version: 6.00 Build 0)  -->
<!DOCTYPE svg PUBLIC "-//W3C//DTD SVG 1.1//EN" "http://www.w3.org/Graphics/SVG/1.1/DTD/svg11.dtd">
<svg version="1.1" id="Layer_1" xmlns="http://www.w3.org/2000/svg" xmlns:xlink="http://www.w3.org/1999/xlink" x="0px" y="0px"
	 width="144px" height="144px" viewBox="0 0 144 144" enable-background="new 0 0 144 144" xml:space="preserve">
<g>
	<linearGradient id="SVGID_1_" gradientUnits="userSpaceOnUse" x1="15.519" y1="15.519" x2="129.5642" y2="129.5642">
		<stop  offset="0" style="stop-color:#B6BBD4"/>
		<stop  offset="0.3076" style="stop-color:#B4B9D4"/>
		<stop  offset="0.4184" style="stop-color:#ADB3D3"/>
		<stop  offset="0.497" style="stop-color:#A2A9D1"/>
		<stop  offset="0.5333" style="stop-color:#99A1D0"/>
	</linearGradient>
	<path fill-rule="evenodd" clip-rule="evenodd" fill="url(#SVGID_1_)" d="M144,121c0,12.65-10.35,23-23,23H23
		c-12.65,0-23-10.35-23-23V23C0,10.35,10.35,0,23,0h98c12.65,0,23,10.35,23,23V121z"/>
</g>
<g>
	<path fill="#135870" d="M75.645,61.972c0,0.664-0.586,1.25-1.25,1.25h-8.75v6.25c0,2.07-1.68,3.75-3.75,3.75h-37.5
		c-2.07,0-3.75-1.68-3.75-3.75v-6.25h-8.75c-0.664,0-1.25-0.586-1.25-1.25v-16.25c0-4.102,3.398-7.5,7.5-7.5h2.5v-21.25
		c0-2.07,1.68-3.75,3.75-3.75h26.25c2.07,0,4.922,1.172,6.406,2.656l5.938,5.938c1.484,1.484,2.656,4.336,2.656,6.406v10h2.5
		c4.102,0,7.5,3.398,7.5,7.5V61.972z M60.644,43.222v-15h-6.25c-2.07,0-3.75-1.68-3.75-3.75v-6.25h-25v25H60.644z M60.644,68.222
		v-10h-35v10H60.644z M68.144,43.222c-1.367,0-2.5,1.133-2.5,2.5s1.133,2.5,2.5,2.5s2.5-1.133,2.5-2.5S69.511,43.222,68.144,43.222z
		"/>
</g>
<g>
	<g>
		<path fill="#135870" d="M125.584,88.172v33.936c0,2.456-2.01,4.466-4.465,4.466H76.465c-2.455,0-4.465-2.01-4.465-4.466V88.172
			c0-2.456,2.01-4.466,4.465-4.466h44.654C123.574,83.706,125.584,85.716,125.584,88.172z M75.572,88.172v6.251h46.439v-6.251
			c0-0.475-0.418-0.894-0.893-0.894H76.465C75.99,87.278,75.572,87.697,75.572,88.172z M122.012,122.107V105.14H75.572v16.968
			c0,0.475,0.418,0.894,0.893,0.894h44.654C121.594,123.001,122.012,122.582,122.012,122.107z M79.145,115.856h7.145v3.572h-7.145
			V115.856z M89.861,115.856h10.717v3.572H89.861V115.856z"/>
	</g>
</g>
</svg>
