<?xml version="1.0" encoding="utf-8"?>
<!-- Generator: Adobe Illustrator 15.0.0, SVG Export Plug-In . SVG Version: 6.00 Build 0)  -->
<!DOCTYPE svg PUBLIC "-//W3C//DTD SVG 1.1//EN" "http://www.w3.org/Graphics/SVG/1.1/DTD/svg11.dtd">
<svg version="1.1" id="Layer_1" xmlns="http://www.w3.org/2000/svg" xmlns:xlink="http://www.w3.org/1999/xlink" x="0px" y="0px"
	 width="600px" height="312px" viewBox="0 0 600 312" style="enable-background:new 0 0 600 312;" xml:space="preserve">
<style type="text/css">
<![CDATA[
	.st0{fill:#135870;}
	.st1{fill:#FFFFFF;}
	.st2{fill:none;}
]]>
</style>
<g>
	<path id="SVGID_1_" class="st0" d="M307.7,1.1c-2,0-4.3,5.7-3.2,0.1c-1.5,1.2-12.3,2.4-8.4,4.6c-1.8,0.6-6-0.3-4,3.1
		c-0.6-0.3-1.1-0.1-1.5-0.2c0.1,0.5,0.1,2.1,0.3,2.3c1.5,1.7-1.8,0.7-1.3,0.4c-1.7,0.9-1.4-2.8-2,0.6c-0.1,0.5-0.7,0.3-0.8,0.8
		c-0.1,0.4,1.5,1,1.5,0.8c-0.6,1.2-3.5-0.3-3.8,1.8c0.1-0.3-5.7,4.6-1.1,2.3c-0.3,0.6,0.6,4,0.3,3.8c1.4,1.1,4.3,0.2,5.6-1.6
		c0,2.8-3.9,2-4,3.6c-0.2,1.8,3.2,2.3,3.3-0.6c-0.4,2.8,1,2.3,3.2,2.4c-0.1,0,1-1.2,1.1-1.2c-0.1,0,1,0.3,1.9-0.1
		c1.2-0.6,2-2.6,3.1-2.7c2.4-0.3-0.1,2.9-1.1,3.9c-0.9,0.9-4.9,1.8-1.7,3.2c0.7,0.3,2.4,3.1,1.7,3.4c-0.9,0.3-7.3-8.7-7.5-2.3
		c-0.1,2.6,1.7,2,2.8,3.7c0.7,1,1.1,3.7,1.9,4.2c1.1,0.7,2.9-0.8,3.4,0.1c0.5,0.8-1.7,2.4-2.8,1.3c-3.4-3.1-4.9,3.8-4.9,5.4
		c0,2.1,1.1-0.3,1.3-0.2c0.5,0.1,0.7,0.9,1,1c0.7,0.1,1.2-1.6,1.7-0.9c0.4,0.5-0.6,1.8,0.1,2.8c1.1,1.5,1.4,0.7,2.4,1.3
		c-1.2-0.7,3.9-1.5,0.3,1.1c-3.6,2.6-6.5-6.5-6.7-0.5c-0.1,2.5,1.3,1.1,0.4,3.5c-0.7,1.7-3.7,1.8-2.2,5.1c0.9,1.9,3.5-0.2,4.3-0.1
		c1.1,0.1,2.6,0.9,4.1,1.1c-1-1.9,0.9-1.5,2.1-2.4c0.6-0.4,0.3,0.8,1.8-0.6c2.4-2.3,3,2,2.5,2c1.9,0,2.2-2.6,3.9-3.3
		c3-1.3-1.1-3.6-0.8-3.3c0.6,0.7-0.8,0.7-1.2,0.5c-0.9-0.6,0.2-1.7-0.5-2.1c-2-0.9-5.7,2.8-4.6-2.1c1.7,2.7,7.3,0.4,5.9-1.4
		c-2.1-2.7,0-1.7,1.1-2.9c1.2-1.3,2.5-1.7-0.1-2.1c1.6-0.6,2.4-2,0.2-2.8c3.3-1.3-0.7-2.4-1.4-3.4c-0.6-0.8-1.1,1.2-0.8-1
		c0.1-0.5,2.6-0.4,3-0.3c-0.8-1.7-6.1,0-3.8-1.5c1.7-1.2,4.8-1.8,3.7-4.3c2.3,1,4.6-4.3,0.7-2.7c1.3-0.7,2-1.8,1.4-3.1
		c1.5-0.7,2.1-4.7,2.1-6.5c0-0.2,1.7-5.9-0.3-4.3c-1.1,0.9-1.7,4.9-3.4,4.6c-1.4-0.3,4.6-4.5-0.3-3.3c2.6-1.2,5.2-4.3,4.6-7.4
		C311.1,1.4,309.3,3.3,307.7,1.1L307.7,1.1z M278.9,20.1c0.1,0.3,0.8,2.1,0.1,2.3c-0.3,0.1-1.9,0.5-1.7,0.1
		c-0.2,0.5,0.3,2.4,0.4,2.1c-0.3,0.6,1.6,1.1-0.1,1.6c-1.6,0.5-0.7,1-1.6,1.9c-0.8,0.8,1.5,1.6,2.2,2.7c-0.4-0.3-1.9-0.5-2.6-1
		c-0.1,2.1,1,2.5,1.3,3.5c0.4,1.2-0.9,2.1,0.8,3.2c0-0.3,0.3-0.9,0.3-1.3c0.6,0.7,3.5-0.2,3.3,0.4c-0.4,0.8-0.3,1.4-0.5,1.9
		c-0.1,0.2-2-0.1-2.2,1.3c-0.1,0.8,1.4,2.6,2.3,2.7c2.2,0.2-0.6,1,0.6,1.9c2.8,2.1,3,0.6,4.7-0.6c0.1,0.3,0.8,1.1,0.8,1.3
		c0.1-2.7,2.1-4.4,3.4-7.2c0.7-1.6,2.4-1.5,0.4-3.5c-0.9-0.9-1.7-0.2-2.1,0.4c-0.4-0.7-1.5-4.4-1.4-5c0.5-2.7-1.9-2.2-1.3,0.4
		c-1.1-1.8-2.1-3.1-3.2-4.8C281.7,22.9,281.3,20.2,278.9,20.1L278.9,20.1z M271.7,29.6c-1.7,0.8-0.9,2.5,0.4,3.1
		C272.5,31.6,272.4,30.5,271.7,29.6L271.7,29.6z M264.4,34.8c-4,0.4-0.6,3.8-0.4,4.4c0.6,1.8-0.1,1.6-0.1,1.9c0.2-0.9-3,2.9-0.2,1.8
		c4.4-1.6,5.5,7.8,6.9,2.7c1.1-3.8-1.6-5.9-3.4-8.4c-0.3,0.6-0.9,0.9-1,1C266.8,36.7,266,35.3,264.4,34.8L264.4,34.8L264.4,34.8z
		 M292,36.9c-0.5,0.3-1,0.2-1.4,0.9C291.7,38,291.6,37.3,292,36.9L292,36.9z M254.3,38c-0.2,0.1-4.8,1.4-4.8,1.3
		c-0.5,1.5,2.8,1.2,2.9,1.2c0.8,0.2,2.1,2.2,3.2,0.9C256.5,40.2,255.3,38.4,254.3,38L254.3,38z M272.7,40c0.5,2-0.7,3.9,1.7,5.1
		c-3,0.9,2,4.3,3.2,0.1C278.4,42.6,274.7,40.7,272.7,40L272.7,40z M246.2,41.2C245.5,45.6,249.2,42.4,246.2,41.2L246.2,41.2
		L246.2,41.2z M250.4,42.6c-6,1,0.1,7.7,1.7,4.7c1-1.9-0.6-2.5,1.7-3.3C256.3,43.1,250.5,42.6,250.4,42.6L250.4,42.6L250.4,42.6z
		 M242.2,44c-1.3,1.9-2-0.4-3.8,0c-1.7,0.4-2.8,2.4-4.4,3c-1.5,0.5-5,1.6-5.4,2.8c-0.5,1.7,1.1,1.4,2,2.2c-0.8-0.7,2.2,1.5,1.2,1.4
		c3.1,0.3,3.8-4.5,6.7-4.9c-0.9,1.2-1.3,2.9-0.3,4C239.1,50.9,245.8,46.1,242.2,44L242.2,44z M266,46.6
		C264.5,49.1,269.9,48,266,46.6L266,46.6L266,46.6z M259.8,47.1c-0.1,0.8-0.2,5,1.4,4.5C262.3,51.3,260.2,47.2,259.8,47.1
		L259.8,47.1z M278.5,47.8c-3.5,0.1-4.2,3.2,0,2.3C279.9,49.7,281.5,47.8,278.5,47.8L278.5,47.8z M284.5,48.8
		C281,52.7,290.3,51.5,284.5,48.8L284.5,48.8z M243.9,50.2c0.4,0.7,0,1.6,1.9,0.7C245.2,50.4,244.6,50.3,243.9,50.2L243.9,50.2z
		 M242.5,52.6c-1.8-0.1-5.4,2.4-3.1,4.1c-1.2-0.6-2.3-0.4-3.1,0.9c0.6,0.2,1.2,0.6,1.9,0.7c-1,0.7-2.3-0.2-3.5,0.6
		c-0.2,0.1,2.5,3.7,2.8,3.9c1.2,0.8,3-0.8,3-0.8c0.9,0.1,0.8,1.4,0.7,1.3c0.8,0.1,2.2-0.3,3,0.1c0.3,0.2,4.3,0.5,1.4,1.6
		c-1.1,0.4-5.6-1-6.1,0.7c-1.7,5.7,9.9,0.3,11.3,0.4c0.5,0,2.7,2,4.3,1.3c1.7-0.8,3.4-4,3.2-5.8c-0.2-1.9-1.6-2.8-3.1-1.5
		c-1.7,1.4-1.5-2.7-1.5-2.4c-0.2-1.2,0.4-3.5-0.1-4.5s-3.3,1.4-3.5,2.2c-0.4,1.3,1.3,1.2,1.3,2.2c0,0.5-1.1,1.5-1.1,1.1
		c0.3,1.5,1.9,2.9,0.4,3.5C246.7,63.8,245.5,53.3,242.5,52.6L242.5,52.6z M236.7,53.5c-0.5,0.3-5.8,2.8-3.4,3.5
		C234.7,57.5,236.7,54.1,236.7,53.5L236.7,53.5z M275.3,53.7c-2.7,2.4,1.3,3.6,1.2,6c2.8,0.2,6-1.4,6,3.2c0,3.5-0.3,6.2,2.1,8.6
		c1.5,1.6,6-1.2,5.8-0.4c-0.5,2.9,9.5-0.4,10.6-1.5c0.7-0.7,2.3,1.8,3.4,0.4c0.6-0.8,1.2-0.3,1.9-0.8c0.7-0.6-0.1-1.8,0.1-2.3
		c-0.2,0.5,3.2-1.9,0.8-1.3c-1.7,0.4-0.1-2.4-0.5-3.3c-0.1-0.3-2.8-1-3.5-1.2c-1.5-0.4-1.3-0.7-3.5,0c-1.7,0.6-5.7,2.1-4.8,3.9
		c-1.5-0.3-3-1.5-4.8-0.5c-0.2-0.7-0.3-0.6-0.6-1.1c-0.1,0.5-0.3,1.2-0.4,1.7c-1.7-2.3-0.9-3.5-4.6-3.5c0.6-1.2,1.4-1.9,2.6-2.2
		c-2.8-1.8-2.2-3.4-5.6-2.3C281.1,57.4,277.2,53.7,275.3,53.7L275.3,53.7z M286,54.8c-0.6,0.8-0.5,2,0.1,3
		C286.8,57.1,286.7,55.8,286,54.8L286,54.8z M267.9,55.2c-0.8,0.5-1.4,0.7-1.7,1.6C267.7,56.8,268.2,56.2,267.9,55.2L267.9,55.2z
		 M261.2,55.8C258.3,58.9,266.1,57.7,261.2,55.8L261.2,55.8L261.2,55.8z M271.3,56.7c-1.6,3.2-2.6-1.8-4.1,0.8
		c-0.1,0.2,1.3,3.8,1.4,4.5c-1.1-0.8-1.8-4.7-3.3-3.8c-0.8,0.5,0.6,4,1,4.5c-1.3-0.6-2.7,0.2-3.2,1.8c0.8-0.1,4.1-1.2,4.7-1
		c2,0.8,0.4,0.2,0.3,1.7c0-0.3-1.2,2.6-1,2.3c-1.3,1.8,2.5,1.3,2.7,1.3C274.5,69.5,273.2,58.7,271.3,56.7L271.3,56.7L271.3,56.7z
		 M261.5,58.8c-0.3,0.1-0.6,0.1-0.8,0.2c0.5,1.8,2.2,1.2,2.9,0C262.9,59,262.2,58.8,261.5,58.8L261.5,58.8z M219.7,60.5
		c-0.8,1.4-0.8,2.7-1,4.2c-0.3,1.9-2.7,2.6-3.6,4.1c-2,3.6-6.9,3.9-4.3,8.4c1.6,2.8-0.6,7.9,3.6,6.2c1.6-0.6,1.2,0.2,2.8,0.2
		c2.5,0,2-2.8,3.8-4c2.8-1.8,5.7-3.1,8.9-4.7c2.3-1.2,6.5-0.6,3.7-4.8c-1-1.6-1.2-3.6-3.7-3.6c-1,0-2.8-1.2-3.2-2.2
		C225.1,60.6,223.8,61.7,219.7,60.5L219.7,60.5z M264,61.2c-0.9,0.3-1.5,0.3-1.8,1.4C263.9,62.6,263.9,62,264,61.2L264,61.2z
		 M278,62.1c0.1,0.5-0.5,1,0.7,1.4C279.2,62.5,278.4,62.7,278,62.1L278,62.1L278,62.1z M277.6,64.4c-3,1.7-4.2,5.6-0.4,7.1
		C282.1,73.5,281.2,65.6,277.6,64.4L277.6,64.4L277.6,64.4z M259.4,64.6C255.7,69.7,264,66.3,259.4,64.6L259.4,64.6L259.4,64.6z
		 M274.8,64.6c-0.5,0.6-1.1,0.6-1,1.6c0.6-0.2,1.5-0.6,2-1.1C275.6,64.8,275.2,64.8,274.8,64.6L274.8,64.6z M168.3,68.3
		c-9.2,10.4-18.4,20.8-27.6,31.2c-4.5,5.1-9,10.3-13.6,15.4c-0.8,0.9-5.1,4.6-4.4,5.7c0.8,1.3,1.3,0.7,1.7,1.9
		c0.5,1.3,2.4,0.8,3.6,2.1c-3.3,1.6-0.2,9.1-2.1,12.2c0.9-0.2,2.4-0.3,3.2,0.1c1.4,0.8,1.4-0.9,2.4-1c1.1-0.2,1.4-0.7,2.8,0
		c0.1,0.1,4,2.3,1.5,2.9c-0.6,0.1-0.1,6.2,0.1,6.7c1.1,3.2,0.1,7.7-0.5,11.1c-0.2,1.2-1.9,6.5-1,7.3c1.4,1.2,3.2,4.8,3.3,6.2
		c0.1,1.4-1.7,6.3-4.3,7.2c1.4,1.3,0.3,0.9-0.7,1.6c-1.9,1.4-2.2,1.2-2.8,3.2c-0.6,1.9-0.5,5.6,0.5,7.4c0.5-1.1,3.6-2.8,4.1-1.1
		c0.2,0.6-2.6,2.1-2.7,2.3c-0.6,1,0.1,3.4-0.1,4.6c-0.1,0.9,0.9,1,0.3,1.8c-0.1,0.2-1.3,1.1-1.3,1.3c0.2,1.9,0.5,2.3,2.2,2.1
		c1.6-0.1,3.5-0.2,1.4,1.8c-1.1,1-4.6,0.1-4.7,2c-0.2,2.1,0.8,0.9-0.6,3c-2.6,4,2.5,4.5,3.9,7.2c0.4,0.7-1.2,3.4,1.7,3.6
		c1.1,0.1,2.9,2,2.9,3.1c0,1.9-1.3,1.5-0.1,4.1c0.2,0.4,1.3-0.4,1.7,0.1c0.8,1.2-0.8,1.1-0.7,2.1c0.2,2.6,2.2,0.8,2.8,1.7
		c0.7,1.1,0,3.4-0.9,3.5c3.4,3,10.1,4.9,14.6,6.8c6.1,2.5,12.2,4.8,18.4,7c10.7,3.8,21.7,6.8,32.8,9.4c12,2.8,24.1,4.8,36.3,6.1
		c6.1,0.6,12.2,1.1,18.4,1.5c2.9,0.2,5.9,0.3,8.8,0.3c3.4,0.1,7.7,1.7,6.9-3.1c2.9,0.1,0.9,3.5,2.7,5.1c2.3,2,5.7-0.1,8,0.3
		c1.5,0.3,1.8,1.3,3,1.9c0.9,0.4,1.2-0.3,2,0.1c1.1,0.5,1.6,2,3.2,1.9c1.1,0,1.2-1.2,2.1-1.3c1.2-0.1,0.9,0.4,2.3,0.6
		c0.9,0.1,3.3,0.7,3.9,0.6c1.5-0.4,3.9-3.6,4.1-3.3c0.4,0.6,3.2-5.6,2.3-0.5c1.1-1.1,1.3-2.7,0.8-4c1.6,0.1,2.8,1.1,4.4,1.2
		c1.8,0.2,3.3-0.8,5,0c2.3,1.2,1.8,5.8,6,5.1c2.9-0.5,2.6,1,4.6,3.4c0.5,0.6,0,2.4,0.1,3c-0.2-0.8,2.3,3.2,1.5,3
		c5.2,1.1,10.7,0.5,16.1,1.2c0.9,0.1,2.5-0.2,3.2-0.8c1-0.9,1.6,1,2.5,1.6c2,1.5,5.1,3.9,5.9,6.4c-2.2-0.3,0,2.2-3.2,2.4
		c-1.7,0.1-5-1.9-5.6-3.6c-0.3-0.9-3.2-0.8-0.7,1.1c1.5,1.2,1.5,2.1,1.4,3.8c-0.1,2.2-1.4,3-0.8,5.5c0.7,2.8-0.1,3.4-0.9,5.5
		c-1.1,2.7-1.5,3.4-1.3,6.2c0,0.5-6.2,3.7-1.5,3.8c2.6,0.1,5.1-2.7,6.4-5c2-3.6,5.9-1.1,8.2-3.1c-5-0.8,6.2-3.4,6.4-3.7
		c0.1-0.1-1.4-2.9-1.7-2.9c0.6,0.2-6,2.5-4,0c2.4-3,3.9-4.6,7.6-6.2c0.8-0.4,9.4-2.8,4.9-2.9c2-1.5,4.8-3.1,6.6-5.4
		c1.1-1.4,1.5-3.5,3-4.7c1.5-1.3,4.8-1.6,6.7-2.3c2.8-1,6.4-1.8,9-3.3c2.3-1.3,1.3-1.1,2.5-2.4c0.6-0.6,1-2.8,2.4-1.5
		c0.4-1.1,0.5-1.1,0.9-1.8c-1-0.9,0.1-7.2-0.3-9.2c-0.4-1.6-0.1-2.7,0.2-4.3c0.1-0.4,0.4-3.7,0.8-3.9c0.3-0.1,1.2,0.1,1,0.2
		c-0.7,0.5,1.7,0.9,1.5,0.9c1.4-0.2,2.1-2.9,4.1-1.9c3.7,1.9,4.6,8.1,6.9,10.5c0.3,0.3,1-0.3,1.4,0c0.2,0.1,0.4,1.8,0.6,2
		c1.2,0.8,1.3,0.4,2.5,0.6c0.9-0.9,4.2-2.9,5.7-3.7c2.4-1.5,3.1-7.3,5.7-7.8c-0.3,1.4-1.1,3-0.8,4.3c0.9-1.2,3.9-3.6,5.6-3.3
		c1.6,0.3-1.9,2.4-2.5,3.8c-1.1-2.9-2.9,0.8-3.6,2.5c-0.9,2.1-2.6,4.1-3,6.2c1.4,0.2,0.1,4.4,2.8,4.4c3.3,0.1,2.8,1.8,4.7-1.7
		c0.8-1.6,1.7-3.3,2.1-5.3c0.2-1.4-0.7-2,0.1-3.1c0.7-1,1.7-0.2,2.8-1.1c0.2-0.2,1.4-2.5,1.8-3.1c0.5-0.6,1.3-0.8,1.7-1.6
		c0.6-1.1,6.1-6.3,6.1-7.2c0-0.5-4.7-0.7-5.5-0.5c-0.6,0.1-0.4-0.9-1.4-0.4c-0.3,0.2-0.8,1.7-1.2,1.9c-1.2,0.5-3,0.1-3.8,1.2
		c-0.5,0.7-4.6,1.3-4-0.7c-3.2,0.6-4,0.1-6.5-1.4c-1.3-0.8-4.3-2.5-4.1-2.8c0.2-0.5,0.4-3.2,0-3.7c-1.3-2-0.7-0.7-2.6-0.3
		c-0.6,0.1-0.8,1.5-1.8,1.8c0.2,0-4.5-0.7-4.7-0.8c1.7-2.1,4.5-1,5.7-2.7c1.1-1.5,3.4-5.4,2.3-7.3c-1.9-3.2-7.6-0.5-9.6,0.9
		c-3.9,2.7-6.5,6.4-9.1,10.3c-2.4,3.7-3,7.1-4.3,11.3c-1.1,3.7-3.4,5.6-5.8,8c-2.2,2.2-5.1,5.5-5.9,8.4c-0.8,2.7,0.3,4.7-3.2,6
		c0.8-0.8,4.2-8.6,3.7-8.9c1.9-3.4,8.5-7.3,8.8-11.5c0.1-2.2,1.3-4.7,1.7-7.1c0.4-2.4,0.7-4.7,1.5-7c0.6-1.7,1.5-4.3,2.9-5.5
		c2.8-2.5,2-2.5,2.6-6.4c1.3-8,18.4-11.5,24.4-15.5c4.8-3.2,4.9-5.1,5.7-10.3c0.5-3.1,3-6.5,5.2-8.3c4.4-0.7,1.4-7.9,1.9-9.9
		c-3.1,0.7-3.4-3.7-6.4-4.8c-1.2-0.5-3.4-1-4,0.5c-1.8,4.1-0.1,0.7-1.2,0.1c-6.3-4-6.8,6.1-9.8,10.6c-0.7-3.3,0.1-3.8,1.6-6.8
		c0.6-1.2,4.2-7.2,3.8-8c-0.4-1-3.6-0.4-4.1-0.3c0.1,0-1.2,1.4-1.8,1.6c-0.4,0.1-2.1-0.8-2.7-0.8c-0.8-0.1-2.9,1.3-3.6,1.3
		c0.2,0-1.4,0.9-1,0.7c-1.8,0.8-0.2-0.7-0.9-1c-1.6-0.9-0.5-1.5-2.1-1.8c-0.6-0.1-1.4,0.7-2.1,0.5c-0.4-0.2-2-0.7-1.8-0.7
		c-1.4-0.3-2.9-0.2-4.4-0.7c1.4-1.5-0.1-2.7,0.1-4.6c0.3-2.3-1.5-0.6-2.6-1.6c-0.7-0.6-0.6-0.3-1.5-0.6c-1.3-0.4,0.6-1.3,0.1-1.7
		c-0.5-0.4-0.8-1.5-1.3-1.5c-0.7,0-1.7,1.6-1.8,0.2l-2.1-2.4c-0.7-0.3-1.9,1.8-2.7,1c-0.5-0.5,0.6-1,0.5-1.5c-0.4-2.5-6-3.5-7.9-5
		c-2.6-2.2-4.3-4.7-3.9,0.8c0.1,1.2,1.8,9.6,0.2,9.1c-0.5-0.1-1.3,4.3-2.3,4.9c-0.7,0.5-2.8,0.6-4.1-0.8c-2.9-3.3-6.6,4.8-6.5,0.4
		c3.3,0-1.1-4.5-1.7-5.8c-0.7-1.6-0.7-2.8-2-4c-1.6-1.7,0.1-3.9-1.8-4.9c0.1,0.2,0.4,1.1,0.6,1.5c-0.9-0.1-1.4,0.4-2-0.5
		c-0.7-1.1-1.4,0.7-1.9,0.7c-2.5,0.1-3-0.3-4.5-1.3c-0.8-0.5,0.3-1.3-0.3-1.8c-0.3-0.2-1.5,0.1-2.1-0.3c-1.7-1-3.6-1.7-5.6-2.5
		c-2.1-0.8-2,0.8-3.8,1.9c-1.7,1.1-3.4,1.2-5.8,0.9c-2.1-0.2-4.5-0.5-5.6,1.7c-1.1,2.2,1.8,3.8,2.6,5.5c0.8,1.8-0.5,4.1,0,5.5
		c0.3,0.9,1.2,0.1,1.4,0.6c0.3,0.9,0.5,2.1,1,2.9c1.1,2,2,1.8,1.2,4c-0.6,1.5-0.3,3.4-0.5,5c-0.2,1.6-1.7,2.2-0.2,4
		c1.5,1.8,4.8,1.9,6.7,3.9c4.4,4.5,5.2,8.2,4.6,14.1c-0.3,2.4-2.2,6.3-3.9,8c-1.3,1.2-5,3.6-5,4.3c0,0.4,3.1,2.4,3.4,2.7
		c1.2,1.9,1.5,4.4,2.6,6.3c0.5,1,1.8,4.9,2.6,5.1c2.2,0.6,0,4.3,0.3,5.7c1.5,6.9-2-1.8-2.5,3c-0.6,5.9-5.7-1.8-7.8-2.5
		c-1.5-0.5-3.5-3.2-4.6-4.3c-2.2-2.3-1.7-1.8-2.3-5c-0.3-2-1.5-3.6-2.1-5.5c-0.7-2.1-0.2-4.5-0.5-6.7c-0.1-1-10,0.4-11.9,0.2
		c-3.4-0.4-6.3-2.7-9.6-3.3c-3.1-0.6-4.3-2.6-7-4.9c-1.9-1.5-5.1-1.7-7.3-2.9c-3.5-1.8-6.1,2.3-9.1,0.9c1-3.1-1-6.2-1.9-9.1
		c-0.9-2.8-0.3-2.1-2-2.7c-1.3-0.5-4.1,0-4.2-0.9c-0.1-2-1.1-3.4-0.9-5.9c0.3-5.1,1.8-9.1,3.4-14c0.4-1.2,5.1-6.7,4.6-7.4
		c4.2-0.4-1-2.3,0.7-2.5c1.7-0.1,5.9-0.3,5-3.4c-0.5-1.8-8.7-4.8-10.4-4.3c1.2-3.3,6.9,2,9.3,1.8c2.6-0.2,2.2-0.9,3.2-3
		c0.4-0.8,3.8-1.3,4.9-1.8c1.5-0.7,4.1-6.7,2.9-8c-1-1.1-5.1-0.6-6.6-1.4c-1.1-0.5-4.1-2.6-4.5-3.3c4.1-0.6,7.6,5,11.4,2.5
		c1.4-0.9,1.8-3.4,2.7-4.7c1.4-2.1-2.9-1.2-2.6-3.1c0.2-1.1,8.2,0.8,8,0.6c1.2,1.2,0.5-1.8,0.8-2.3c-0.7,0.8,1.9,0.1,2.4-0.5
		c1-1.1,1.6-2.5,2.2-3.9c2.1-5-2.5-4.9-3.5-9.6c-0.6-2.7,0,0.5,0.9-1.2c1.2-2.1,1.1-2.3,0.2-4.1c-1.1-2.2-4.9-5.3-8.5-4.7
		c-5.7,0.9-0.2,5.3-0.1,8.3c-2.3-0.4-2.2,4.9-2.6,6.9c-0.7,3.5-0.9,3.6-2.8,5.6c-0.3-3.2-5-5.8-3-9.3c0.1,0.6,0.8,1.4,0.9,1.7
		c0.9-1.7-1.9-7.3-3.6-7.3c-2.6,0.1-1,5.6-2.2,7.1c-0.4,0.6-2.8-6.1-3.1-6.8c-0.3-0.9,1.6-1.2,0.5-2.3c-1-1-2.6,0.6-3.6-0.1
		c-1.3-0.9-0.7-5,0-4.3c2,1.7-2.1-4.2-2.3-4.7c-1.3-3.5-0.8-6.1-4.3-7.1c-1.6-0.5,0.2-1.6-1.8,0.4c-1.4,1.5,0.3,1-0.8,3
		c-1.5-1.1-1.1,0.2-1.4,1.6c-0.4,1.9,1,2.8,0.9,3.7c-0.1,1.1-1.6,1.2-1.6,2.9c0,2.1,2.4,3.5,3.8,4.5c0.6,0.4,0.7-1.3,1.3,0.3
		c0.2,0.6,0.5,1.3,1.3,0.9c2.4-1.2-0.2,1.8,0.1,0.7c-0.2,0.7-1.5,2.2-1.6,3.4c-0.2,2.4,2.1,0,2.3-0.5c0.9,2.2-0.4,5-2.1,6.6
		c-0.8,0.8-2.6-0.2-2.6,1.4c0,1.9,0.6,3.6,0.4,5.6c-0.8-0.7-2.3-0.4-2.7-1.1c-0.4-0.9-0.1-2.9,0-3.9c0.1-0.7,1.6-4.1-0.2-3
		c-1.1,0.7-2.2-1.5-3-1.7c-3.6-0.9-3.4,3.9-1.3,3.5c1.4-0.3,3.5,2.4,1.5,2.8c-1.3,0.2-2.8-2.1-3.6-2.9c0,3.1-2.9,0.4-4.6,0.7
		c-3.8,0.6-4.7,1.1-7.6-1.5c-1.1-1-1.8-0.7-2.3-1c-0.9-0.6-1.7-1.6-2.5-2.1c-2.5-1.3,0-4.4-3.5-5.2c-2.1-0.4-10,2.7-4.9,4.4
		c0.4,0.1,5.1-2.7,6.2-2c2,1.2-6.1,3.8-6.9,4.5c-0.8,0.8,1,6.2,0.6,7.6c-0.3-0.3-0.9-0.6-1.1-0.8c-1.5,2.7-1.5-3-1.6-4.6
		c-0.1-1.3-3.4-3.8-4.4-4.1c-1.6-0.5-4.4,0.1-6.2-0.3c-1.2-0.2-6.1-1.8-6.6-2.8c-1.8-3.6,2.6-1.3,3.5-2.5c3.5-4.5-4.1-5.7-5.7-6.7
		c-3.7-2.6-6.4-6.4-9.1-10c-3.5-4.8-3.6,0.4-6.6-0.3c-2.1-0.5,0.3-5,1.2-6.4c-1.4,0.3-3.5,3.4-4.8,3.5c-2.4,0.2-1.1-4-1.2-6.2
		c-0.4-7-1.8,0.8-5.4,0.3c0.2-0.2,0.3-0.4,0.5-0.7c-2.6-0.4-5.6-0.7-7.4-0.6c-1.4,0-7,1.6-6.5,0.4c1-2.4,6.1-1.3,8-1.3
		c3.4,0,7.6-1.4,2.8-2.5c-0.8-0.2-2,0.4-2.8,0.3c-1.3-0.1-2.7-0.4-4-0.4c-1.3,0-6.6,2.9-8.3,1.3c-0.8-0.8-1.4,1.1-1.7-0.7
		c-0.3-1.5-2.2-2.6-2.9-3.9C170.3,74.6,171.2,71.6,168.3,68.3L168.3,68.3z M312.3,74.7c-2.1,1.1-4.7-0.6-4.8,1.9
		c-0.1,1.4,3.1,5.3,4.1,5.5c1.2,0.1,0.8-1.5,1.6-1.8c1.7-0.7,3.4-0.2,5.1-0.7C320.1,79.2,314,74.7,312.3,74.7L312.3,74.7L312.3,74.7
		z M235.6,75.3c-3.2,1-5.8,1.3-8.8,2.9c-2,1.1-1.1,3.4-3.6,4.2c-3.2,1.1,1.5,1.9,0.4,3.3c-0.9,1,5.7,1.9,6.2,2.2
		c-2.7,0.8-8.7-1.2-7.5,3.3c0.8,3,7.9,3.3,10,4.4c0.9,0.4,4.6,2.6,3.7,3.8c-0.9,1.2-3.4-0.7-4.3-0.8c-2.4-0.5-9.3-5-10.3-0.3
		c-1,5,5.2,5.1,6.9,7.7c0.8,1.3-0.7,4.2,1.2,5.2c1.7,1,4,0.8,5.8,1.2c2.7,0.6,3.4-0.8,5.8-1.2c1-0.2,1.9,0.1,2.9,0.1
		c1.3,0.1,2.1-2.3,2.6-2.4c1.9-0.3,2.2,2.6,5.1,2.7c-2.4,1.7,0,1.4,1.7,1.8c1.7,0.4,3.8,1.6,5.5,0.1c1.4-1.2-0.1-3-0.7-3.7
		c-0.4-0.4-2,2.1-2.3-1.7c2,2,2.1-0.5,3.8-1.3c0.2,1.8,0.7,2.1,1.7,0.5c0.2,0.4,0.6,1,0.8,1.3c2.7-3.9-6-6.3-6.8-10.6
		c-0.8-4.3,1.4-16.1-4.2-17.8c-1.3-0.4-1.3-1.9-1.7,0.7c-0.3,1.8,0,4.3-0.7,5.9c-0.5,1.3,0.7,2.7-0.1,4c-0.8,1.3-1.5,0.8-1.6-0.5
		c-0.2-2.2,0-4.9-0.7-7c-1.3-3.8-3.6-3.5-2.1-0.4c0.1-0.3,0.2-0.6,0.2-0.9c0.1,0.6-0.1,1.1-0.3,1.8c-1.5-0.4-2,1-2.9,0.8
		c-2.5-0.6,0.2-0.3,0.1-2c-0.5-6.7-4.6-0.8-7-1.5C235.3,79.3,238.9,77.7,235.6,75.3L235.6,75.3z M280.6,75.6c-1.5,0.6-4.2,0.9-3,3.1
		c-3.1-0.1-1.3,7.6-0.4,9.7c0.9,2-0.4,1.9,1.3,3.2c1.2,1,2.2-3.5,1.8-4.4c-1-2.4,2.3-0.5,3.1-0.9c1.7-0.9,2.5-4.2,3-5.8
		c0.8-2.4,1.9-3.7-1.5-3.6C283,76.9,282.4,76.7,280.6,75.6L280.6,75.6z M305.2,75.9c-2.4,0.6-4.8,1.9-5.9,4.2
		c-0.6,1.2-1.1,3.8-0.8,5c0.2,0.9,1.8,2.3,1.8,2.6c0,0.1-1.3,2.3-1.2,2.3c-1.2,0.6,1,1.7,1.4,2.2c0.4,0.6,1.4,0.1,1.7,1.8
		c0.2,1.4-0.1,2-1.5,2c1.1-1.7-0.8-2.7-2.1-4c-1.7-1.7-2.8-6.1-2.4-8.5c0.6-3.4,4.1-9.8-2.5-6.2c-4.6,2.5-3.9,9.1-4.2,13.1
		c-0.1,0.7-0.2,4.5,0.3,5.1c1,1.3,1.4,0.1,2.3,0.6c1.8,0.8,3,0.5,4.1,2.2c-2.4,1.2-6.9-1.9-3.2,3.3c1,1.5,4.5,3.5,4.3,0.5
		c1.2,0.6,2.3,2.8,3.8,3.2c0.9,0.2,1.1-1.4,2-1.5c0.9-0.1,1.1,0.9,2.4,0.5c1.3-0.5,4.4,0.6,5,0.2c1-0.7,2.3-0.6,2.8-0.8
		c-0.5,0.2-0.9-1.1-0.2-1.4c0.6-0.2,1.2,0.2,1.8-0.1c1.1-0.6,5.3,1.4,2.5-2c-0.7-0.9-3.3-1.4-0.7-1.8c1.5-0.2,3.2,1.4,3.9,1.8
		c0.5,0.3,1,1.6,1.4,2c-0.4-0.5,1.4-0.5,1.8-0.3c0.1,0.1-0.2,0.9,0.4,1.3c0.5,0.3,1-0.1,1.6,0.6c1.1,1.2,1.7,0.6,1.9,2.3
		c0.1,1-2.1,0.6-1.6,1.5c1.7,2.6,0.6,1.2,2.6-0.9c1.4-1.4,6.9,2.7,8,3.7c3.5,3.1,5.3,5.8,3.7,10.4c-1.3,3.6-3,3.4-0.8,6.3
		c1.6,2.1,3.5,2.3,0,4.4c-1.8,1-3.3,1.1-5.4,1.4c-4.5,0.6-1.2,1.9-3.4,3c-2.5,1.3,0.2,4.6,1.9,5.4c1.7,0.8,2.3,0.2,3.5-0.9
		c0.4-0.3,1.8-2.5,1.1-2c0.5-0.3,4.3-0.6,4-1.1c-0.7-1.1,1.8-3.1,1.9,0.2c0.9-2.3,2.9,0.2,4.3,1.1c2.2,1.4,2.3,1.2,4.6,1.2
		c2.3,0,0.4,2.2,1.3,3.2c1.2,1.3,4.1,1,5.9,1.2c0.8,0.1,1.2-0.9,2-0.8c0.9,0.2,0.5,1,1.3,1.2c1.1,0.2,2,0.9,3.1,0.9
		c0.8,0,7.8-0.2,8.3-0.4c2.4-1.3,0.3-2.2-1.1-3.2c-3.1-2.2-7.8-4-11.4-5.5c-2.3-0.9,2.9-0.3,3.3-0.2c0.6,0.1,2,0.1,3.1,0.2
		c1.4,0.2,2.2,1.6,3.8,0.7c1.7-1,3.2,1.4,4,0.7c1.3-1.1-2.7-4.7-3-6.2c0.6,0.5,1.6,0.9,2,1.6c0.3-2.6-3.3-3.6-4.6-5.2
		c0.2,0.3-2.1-1.9-0.6-0.9c-1.4-0.9-1-0.5-2.2-1c0.2,0.1-0.7-1.4-0.7-1.3c-1-1.2-0.8,0.3-1.3,0.1c-1.1-0.5-2.3-0.1-3.2-0.9
		c-1.5-1.5-3-4.2-4.3-1.7c-0.3-0.7-1.6-1.6-1.9-2.1c-0.9-2,1-1.2,0.8-0.6c0.4-1.1,2.9-0.5,0-1.9c-1.9-0.9-0.7-1.4,0.6-1.3
		c-0.4-0.3-0.9-1.1-1.3-1.4c2.7-2.2,5.6,4,8.3,0.4c-1,1.7,0.8,3.6,2.5,4.3c2.2,1,2.7-0.1,4.9,0.8c0.4-2-1.5-3.7-1.8-5.6
		c2.6,1.2,1.1-2.7,1.9-3.6c1-1.1-1.6-0.4-1.6-0.6c0-1.5,1.4-1.4,1.5-1.7c0.4-1.7-0.3-3.9-2.5-3.9c-3.4,0-3.7,4.1-4-1.1
		c-2.7,6-3.8-3.6-7.1,0.1c0.8-3.4-1.8-2.4-2.1-0.1c-0.1,0.5-2.5-0.2-3.1,0.1c-1.8-2.8-4.9-2.5-8.1-2.4c1.5-0.7,4.5-2.8,1-3.8
		c0.9-0.3,5.5-3.1,1.6-2.4c-1.7,0.3-5.7-0.4-2.2-1.9c2.9-1.2-2.6-4.1-2.3-1.9c0.2,1.4-2.6,0.3-3.6,1.9c0.6-2.4,4.4-4.2,0.4-4.6
		c-1.9-0.2-2.7,2-2.8-0.3c-2,3.7-2.7-2.5-2.9-0.3c-0.1,0.9-1.4,3.3-2.5,2c-0.9-1,0.9-2.2,0.8-2.7c-0.2-1,0.4-1.6-1.1-2.3
		c-2.4-1-0.9,0.8-2.2,1.4c-1.7,0.7,0.5,1.7-1.9,0.3c-0.8-0.5-0.9-1.4-1-2.2c-0.2,0.1-2.4,2.2-2.8,1.9c-0.7-0.6,1.2-1.5,1.1-2.4
		c-0.1-1.8-3.7-2.6-5-3c-6.4-2.3-3.7,2.9-6.3,5.2c0.3-2.1-0.4-2.8-1.5-1.2c-0.1-0.4-0.5-1.4-0.5-1.7c-0.5,0.6-1,4.6-1.9,4.1
		c-0.4-0.2-0.3-4-0.3-4.2C309.8,81.8,306.9,76.4,305.2,75.9L305.2,75.9z M270.6,76.1C265,78.7,274.9,76.6,270.6,76.1L270.6,76.1z
		 M267.4,76.8c-1.6,0.7-3.2,0.9-1.7,3.2c-3.9-1.1-0.2,2.2-0.1,2.3c0.4,1.3,0.4,4.3-1.7,3.6c-0.7-0.2-0.3-2.6-1.6-2.8
		c-1.9-0.4-1.1,2.7-0.9,3.4c0.6,2.4,2.4,3.5,4,5.2c0.3,0.4,2.7,7.7,4.3,4.5c0.3-0.6-0.2-1.6,0.4-2c0.5-0.4,0.9,0.8,1.2,0.5
		c0.7-0.6,2.8-1.4,2.4-2.2c-0.2-0.6,0.7-6.4-0.4-5.1c-0.1,0.1-0.5-4.2-3.2-2.8c0.3-1.3,5-5.7,2.4-6.8
		C270.4,76.7,268.1,81,267.4,76.8L267.4,76.8z M253.9,76.8c-3,0.9-0.2,5,1.3,6.5C256.1,81.1,259.1,76.1,253.9,76.8L253.9,76.8z
		 M181.6,78.6c-1.3,1.5-4.9-0.5-5.6,1.2C174.8,83,184.5,82,181.6,78.6L181.6,78.6z M273.8,83.2C272.6,84.8,273.8,85.1,273.8,83.2
		L273.8,83.2z M333.2,88.9c-0.5,0.5-1.1,0.2-0.8,1.2C333.9,89.7,333.1,89.2,333.2,88.9L333.2,88.9L333.2,88.9z M320.4,103.3
		c-0.5,0.5-1.1,1.1-1.4,1.8C320.6,104.6,320.8,104.1,320.4,103.3L320.4,103.3z M317,103.5C311.8,104.7,317.9,107.4,317,103.5
		L317,103.5z M297.5,104.5C296.2,106.6,300.4,105.6,297.5,104.5L297.5,104.5L297.5,104.5z M324.5,104.6c-1.1,0.6-1.6,1.2-0.4,2.2
		C324.6,106,324.7,105.2,324.5,104.6L324.5,104.6z M320.2,106.2C316.5,111.9,322.8,108.7,320.2,106.2L320.2,106.2z M270.1,107.8
		c-1.2,0.6-2.1,1.7-2,3.1c0.1,2-1.5,1.1-2.4,2.3c-0.7,1,3.9,3.5,5.2,4c1.8,0.7,2.4,1.1,4.1,0.1c2.4-1.4,0.9-1.7,0.7-2.2
		C275,112.3,272.2,109.7,270.1,107.8L270.1,107.8z M330.1,108.3c-0.2,1.1,0,1.9,1.3,2.4C331.5,109.7,330.9,108.8,330.1,108.3
		L330.1,108.3L330.1,108.3z M275.7,110.1C274.5,112,277.6,111.9,275.7,110.1L275.7,110.1L275.7,110.1z M329.8,111.2
		c-4.5,0.2-4.5,9.5,0.8,7.9C334.3,118.1,332.8,111,329.8,111.2L329.8,111.2z M333.8,111.5C330.8,115.1,341.7,112.6,333.8,111.5
		L333.8,111.5L333.8,111.5z M263.1,113.7C261.9,116,264.7,115.6,263.1,113.7L263.1,113.7L263.1,113.7z M258.7,115
		C258.9,116.5,259.8,116.5,258.7,115L258.7,115L258.7,115z M250.9,115.4C251.6,116.7,251.9,116.6,250.9,115.4L250.9,115.4
		L250.9,115.4z M300.2,118.5c-0.8,1.1-0.5,2.4,0.4,3.3C301.3,120.5,301.4,119,300.2,118.5L300.2,118.5z M309.9,133.2
		c-0.1,1.2,0.8,2.4,2,3C315.2,137.8,310.5,133.7,309.9,133.2L309.9,133.2L309.9,133.2z M307.6,134.3
		C307.8,138.9,310.9,135.8,307.6,134.3L307.6,134.3L307.6,134.3z M305.7,135.7c-1.3,2.2-1.1,9.5-0.1,11.9c1.4,3.5-5.9,5.2,0.2,4.5
		c2.8-0.3,1.2-0.1,2.8,1.2c0.7,0.5,1.1,4.1,2.9,0.9c1-1.7,2.9-7.6,4.7-7.3c-0.2,0.7,4.5,4.3,6.7,3.6c0.7-0.2,2.9-2.8,2.1-3.4
		c-1.8-1.6-2,0-3.7-0.6c-1.1-0.4-0.4,0.8-1.5-0.2c0.7,0.6-0.4-2.4-0.6-2.7c-1-1.2-4.8-3.5-6.2-3.9c-1-0.3-1.5-0.2-2.2-1.1
		c-1.7-2-0.7,2-1.9,1.3C307.2,139.1,307.5,136.3,305.7,135.7L305.7,135.7z M377.7,137.5C377,139.1,378.2,138.8,377.7,137.5
		L377.7,137.5L377.7,137.5z M379.3,144.1c-0.4,0.3-0.8,0.7-1.1,1.2C381,147.3,382.1,144.7,379.3,144.1L379.3,144.1L379.3,144.1z
		 M357.1,144.6C356.6,148.3,362.7,144,357.1,144.6L357.1,144.6L357.1,144.6z M335.7,145.7c-0.4,0.2-0.6-0.1-0.7,0.5
		C337.1,148.1,339,146.4,335.7,145.7L335.7,145.7z M332.9,147.7c-1.8,0.8-0.5,2.4,0.9,2.4C335.9,150.2,334.9,147.6,332.9,147.7
		L332.9,147.7z M384.5,151.5c0.1,0.3-0.8,0.6,0.7,0.8C385.3,151.4,384.7,152.1,384.5,151.5L384.5,151.5z M320.8,154.6
		c-4,1.9-5.4,1.5-4.5,6.4C316.5,162.4,324.5,156.8,320.8,154.6L320.8,154.6z M373.5,156.3C368.9,159.5,376.5,160,373.5,156.3
		L373.5,156.3z M330.4,156.8c-3.3,0.3-1.9,3.6-0.8,5.3C331.4,164.8,331.5,158.4,330.4,156.8L330.4,156.8z M408.3,169.1
		c-0.1,0.7-0.8,0.9,0,1.8C408.9,170.2,408.4,169.8,408.3,169.1L408.3,169.1z M119.6,176.6c-1.4,0.9-3.7,5.9-2.3,7.2
		c1.8,1.7,5.2-2.5,6.9-3.7c-2.2-1.6-3.3,2.8-5.1,0.6C123.5,181,120.7,177.7,119.6,176.6L119.6,176.6z M127.6,183
		C126.6,184.2,129.4,185.2,127.6,183L127.6,183z M117.3,184.5c-0.7,1.7-0.6,8.5,1.5,8.9c-1.1-1.9-1.7-7.3,1.4-7.6
		C119.5,185.2,118.4,184.7,117.3,184.5L117.3,184.5z M128.6,185.2c-0.1,0.4-0.8,5.2,0.4,4.9C130,189.7,128.8,185.6,128.6,185.2
		L128.6,185.2z M126.5,186c-0.4,1.4,0.1,3,0.9,4C127.6,188.6,127.5,187,126.5,186L126.5,186z M451.8,188.3
		c-5.5,1.2-3.3,10.1-2.8,13.8c0.1,1,1.1,8.1,1.9,7.9c0.5-0.1,0.3,4.3-0.2,6c-1.1,0.3-0.5-0.1-1.6,1.1c1.1,0.1,2.4-0.8,3.3-1.7
		c0,1.9-2.7,8.3,1.2,7.8c1.2-0.2,2.1-2.3,3-3c1.7-1.4,4.2-1.6,5.9-2.8c1.2-0.9,2.4-1.9,3.3-3.4c2-3.2,1.4,0.4,1.9,0.3
		c2-0.5,0.8-1.7,1.7-2.3c3.9-2.9,1.6,0.9,1.6,2.9c0,0.5-2.3,5,0.3,2.9c2.7-2.2,0.6-2.9,1.7-5.5c0.3-0.8,1.2-1.2,1.2-2.1
		c0-0.6-1.2-2.5-0.8-3c2-2.3,3.6,4.2,4,4.6c3.1,3,0.4-2,2.1-2c1.6,0,0.9,3.9,2.9,2.2c2.1-1.8-0.3-8.3-3-8.7c0.7,1,0.8,4.3-1.1,2.7
		c-0.4-0.4-0.4-6.9-1.7-3.2c-0.3,0.8,0.8,3.7,0.4,4.2c-0.7,0.7-1.8-0.3-1.8-1.1c0-1.6-1.8-0.6-1.8-0.9c-0.2-1.2,1.3-2.2,1.5-3.3
		c0.8-5.8-1.4,0.3-2.1,0.3c-0.6,0.1-2.7-0.7-3.2-1.8c-0.4-0.9,1.1-2.5,0.1-3.1c-1.5-0.9-3.5,0.6-4.8,1.3c-1,0.5-2.1,5.7-3.1,2
		c-0.7,2.6-3.1,1.6-4.4,0.7c1-0.7,1.4-1.8,1-2.9c-0.8,1.1-1.7,1.7-2.6,1c-0.8,1.2-0.7,3.3-0.9,4.7c-1.1-1.1-1.4-2.9-1.5-4.5
		c-0.1-1.8-1.9-4.8-0.5-4.6c0.2-1.7,0.2-4.6-1.8-2.7C451.4,190.9,452.6,189.7,451.8,188.3L451.8,188.3z M132,188.7
		c0-0.1-0.5,0.6-0.5,0.7c0.5,0,0.9,0.1,1.5-0.2C132.8,188.6,132.5,189,132,188.7L132,188.7L132,188.7z M130.7,191.8
		c-1.1,0.6-3.2,4.5-0.9,4.9C131.8,197,131.2,192.5,130.7,191.8L130.7,191.8L130.7,191.8z M128,194.5c-0.2,0.5-0.7,1.1-0.6,1.9
		C128.7,196.2,128.2,195.5,128,194.5L128,194.5z M342.6,198.1c-0.2,2.2-2.7,3.1-2.3,5.3c0.3-0.4,1.1-0.9,1.4-1.2
		c0.1,0.4-0.1,0.7,0.2,1C343.5,201.6,343.9,200,342.6,198.1L342.6,198.1z M343.6,200.6v1.3C343.7,201.4,343.8,201,343.6,200.6
		L343.6,200.6z M343.2,201.3l-0.3,1.3C343.2,202.2,343.3,201.7,343.2,201.3L343.2,201.3z M344.3,199.1c0.1,0.4-0.3,0.6,0.1,0.9
		C344.8,199.6,344.4,199.5,344.3,199.1L344.3,199.1z M340.1,200.1c-0.2,0.5-0.7,0.4-0.5,1.1C340.4,200.7,340,200.3,340.1,200.1
		L340.1,200.1L340.1,200.1z M134.1,201.1c-1.4,0.4-2.8,0.5-3.4,1.4C132,202.4,134.3,202.2,134.1,201.1L134.1,201.1z M301.4,203.5
		c-0.1,0.2-0.2,0.3-0.3,0.4C301.2,203.8,301.3,203.7,301.4,203.5L301.4,203.5z M124.4,209.2c-0.7,0.8-0.7,2.9,0.7,3.2
		c3,0.7-0.4,0.8-0.4,1c0,0.7-0.7,1-0.7,1.7c0,0.4,1.1,0.3,1.3,0.7c0.4,1,1,1.8,1.5,2.7c0.1,0.2,2.7,2.6,1,3.1
		c-2.1,0.7,1.1,2,1.1,2.3c0.5,1.8,0.3,2.6,0.8,4.3c0.1,0.2,1.5,0.6,2.1,1.5c0,0,0.6,2.2,1,3c0.6,1,2.3,4,3.5,4
		c2.7,0.2,1-7.2-0.2-8.5c-2.5-2.9-0.3-6.7-2.5-9.5c-1.5-1.9-3.4-3.3-4.9-5.2C127.1,211.7,127.3,209.8,124.4,209.2L124.4,209.2
		L124.4,209.2z M344.6,210.4c-0.8,0.6-1.8,0.5-1.3,1.5C344.5,211.5,344.6,211,344.6,210.4L344.6,210.4z M430.4,219
		c-3,1.1-5.9,0.9-9,2.5c4.3,1.2,7.7,1,12.3,0.1C440.2,220.4,432.7,219.4,430.4,219L430.4,219z M126.9,219.5
		C126.1,221,126.6,221.2,126.9,219.5L126.9,219.5z M136.4,224.7c-0.1,0.9,0,1.8,1.2,2.5C137.6,226.3,137.1,225.5,136.4,224.7
		L136.4,224.7z M338.8,225.4c-5.4,0-2.5,3.4,1,2.7c0.9-0.2,2.6,1.4,2.8-0.1C342.8,226.8,339.8,225.3,338.8,225.4L338.8,225.4
		L338.8,225.4z M442.7,229.3c-1.5,1.3-1.8,5.7,0.3,3.4C440.5,231.7,444,230.1,442.7,229.3L442.7,229.3L442.7,229.3z M450.3,230.6
		c-1.5,1.1-2.5,10.5,0.7,11.6c3.7,1.3,6.7-5.7,5.5-7.7c-1,0.4-1.8,0.7-2.6,0.5c-2.6-0.7,0.2,1.2-1.7-1.2
		C451.4,232.8,451.3,231.6,450.3,230.6L450.3,230.6z M349.4,231.1c-0.7,0.6-1.4,0.7-1.3,1.8C349.5,232.3,349.6,231.8,349.4,231.1
		L349.4,231.1L349.4,231.1z M444.9,238.6c-2.7,1.1-10,7.5-10.9,1.6c-3.1,4.3,5.5,5.1,7.7,2.7c0.6,1.5,2.9,1.3,3.3-0.3
		C442.8,242.4,444.7,239.3,444.9,238.6L444.9,238.6z M465.8,247.8c-0.6,0.4-1.2,0.7-1.5,1.5C465.6,249.3,465.7,248.4,465.8,247.8
		L465.8,247.8z M428.5,263.1c0,0.2-0.5,0.2-0.5,0.6C429,263.8,428.4,263.4,428.5,263.1L428.5,263.1z M336.1,279.7
		c0,0.1-0.9,0.6,0.7,0.7C336.7,279.8,336.1,280,336.1,279.7L336.1,279.7z M347.2,279.9c-1.8,1.3-9.7,1.5-3.4,2.2
		c1.5,0.2,4.9,1.8,5.1-0.4C349,280.3,348.4,279.9,347.2,279.9L347.2,279.9z M339.5,281.2C339.9,282.2,339.9,282.3,339.5,281.2
		L339.5,281.2L339.5,281.2z"/>
</g>
<path id="path6188" class="st2" d="M459.4,305.8l-0.7,0.1l-0.5,0.5l-0.3,1.3l0.3,0.5h1.2l0.6-1.2l-0.1-0.7L459.4,305.8L459.4,305.8
	L459.4,305.8z M498.2,340.7l-0.9,0.8l-0.1,0.8l0.5,0.5h2.4l0.2-0.6l-0.1-0.8l-0.4-0.3l-0.8-0.2l-0.5-0.2H498.2L498.2,340.7
	L498.2,340.7z M462.5,349.8l-0.6,0.2l-0.5,0.8v0.7l0.7,0.7l0.8,0.4l0.7-0.1l0.4-0.8l-0.1-0.8l-0.8-0.8L462.5,349.8L462.5,349.8
	L462.5,349.8z M434.6,357.9l-0.5,0.5v0.6l0.6,0.8l0.3,0.3h0.7l0.4-0.7l-0.1-0.8l-0.8-0.8L434.6,357.9L434.6,357.9L434.6,357.9z
	 M560.7,408.2l-0.8,0.1l-0.4,0.2l-0.1,0.4l0.3,0.4l1.3,0.3l1.3,0.9l0.6,0.1l0.8-0.1l0.4-0.4l-0.1-0.5l-0.5-0.5l-0.6-0.2l-0.8-0.1
	L560.7,408.2L560.7,408.2L560.7,408.2z M556.1,411.5l-1,0.4l-0.8,0.7l-0.1,0.7l0.8,0.6l0.9,0.2l0.4,0.3l0.4,0.7l0.4,0.4h1.2l1.1-0.8
	l0.3-1.3l-0.1-0.8l-0.3-0.3l-0.9-0.4l-1.2-0.3L556.1,411.5L556.1,411.5z M583,547.9l-0.8,0.3l-1.3,1.4v1.3l0.4-0.1l0.9-0.8l1-0.7
	l0.6-0.8l-0.1-0.3L583,547.9L583,547.9L583,547.9z"/>
<g>
	<path class="st1" d="M377.5,270.5l-8.1,17.3c-0.5,1-1.5,1.6-2.6,1.6s-2.1-0.6-2.5-1.6l-8.1-17.3c-0.6-1.2-0.7-2.6-0.7-4
		c0-6.3,5.1-11.4,11.4-11.4s11.4,5.1,11.4,11.4C378.2,267.8,378.1,269.2,377.5,270.5z M366.8,260.8c-3.1,0-5.7,2.6-5.7,5.7
		c0,3.1,2.6,5.7,5.7,5.7s5.7-2.6,5.7-5.7C372.5,263.4,369.9,260.8,366.8,260.8z"/>
</g>
</svg>
