<?xml version="1.0" encoding="utf-8"?>
<!-- Generator: Adobe Illustrator 15.0.0, SVG Export Plug-In . SVG Version: 6.00 Build 0)  -->
<!DOCTYPE svg PUBLIC "-//W3C//DTD SVG 1.1//EN" "http://www.w3.org/Graphics/SVG/1.1/DTD/svg11.dtd">
<svg version="1.1" id="Layer_1" xmlns="http://www.w3.org/2000/svg" xmlns:xlink="http://www.w3.org/1999/xlink" x="0px" y="0px"
	 width="60.547px" height="45.742px" viewBox="0 0 60.547 45.742" enable-background="new 0 0 60.547 45.742" xml:space="preserve">
<g>
	<g>
		<g>
			<path fill="#FFFFFF" d="M55.146,12.799c1.144,1.431,3.313,1.206,5.399,1.728c-1.942,0.558-3.834,1.161-5.256,2.232
				c-0.342,0.234-0.666,0.486-0.864,0.864c-0.351,0.54-0.684,1.089-0.792,1.872c-0.207,0.009,0.063,0.495-0.144,0.504
				c0-0.126-0.055-0.18-0.145-0.216c-0.253-0.234-0.478-0.477-0.647-0.792c-0.45-0.513-0.927-0.99-1.44-1.44
				c-2.25-1.836-4.822-3.33-8.352-3.888c0.927-0.459,1.781-1.008,2.52-1.656c0.299-0.234,0.559-0.495,0.792-0.792
				c0.369-0.306,0.702-0.639,1.009-1.008c0.64-0.657,1.367-1.224,2.592-1.296c0.262,0,0.531,0,0.793,0
				c1.035,0.072,1.881,0.324,2.447,0.864c0.162,0.225,0.352,0.414,0.575,0.576c0.063-0.009,0.063,0.027,0.072,0.072
				C54.4,11.197,54.553,12.052,55.146,12.799z M51.691,13.105c1.16,0,1.16-1.8,0-1.8C50.529,11.305,50.529,13.105,51.691,13.105z"/>
			<path fill="#FFFFFF" d="M55.939,29.287c0.117,0.127,0.117,0.738,0,0.864C55.939,29.863,55.939,29.576,55.939,29.287z"/>
			<path fill="#FFFFFF" d="M55.939,30.151c0,0.027,0,0.045,0,0.072c-0.027,0-0.045,0-0.072,0c0-0.333,0-0.675,0-1.009
				c0.027,0,0.045,0,0.072,0c0,0.027,0,0.045,0,0.072C55.939,29.576,55.939,29.863,55.939,30.151z"/>
			<path fill="#FFFFFF" d="M55.867,28.207c0.162,0.198,0.027,0.693,0.072,1.01c-0.027,0-0.045,0-0.072,0
				C55.867,28.882,55.867,28.541,55.867,28.207z"/>
			<path fill="#FFFFFF" d="M55.939,30.224c-0.045,0.314,0.09,0.811-0.072,1.008c0-0.333,0-0.675,0-1.008
				C55.895,30.224,55.912,30.224,55.939,30.224z"/>
			<path fill="#FFFFFF" d="M55.867,30.224c0,0.333,0,0.675,0,1.008c-0.441,3.734-1.899,6.453-3.816,8.712
				c-0.459,0.405-0.891,0.837-1.296,1.296c-2.34,1.963-5.147,3.447-9.071,3.816c-0.746,0-1.484,0-2.231,0
				c-3.843-0.352-6.615-1.782-8.928-3.672c0-0.027,0-0.045,0-0.072c-0.648-0.432-1.107-1.053-1.656-1.584
				c-1.764-2.169-3.114-4.762-3.6-8.208c-0.045-0.216,0.09-0.621-0.072-0.72c0-0.072,0-0.146,0-0.217c0-0.549,0-1.106,0-1.655
				c0-0.072,0-0.146,0-0.216c0.162-0.101,0.027-0.506,0.072-0.721c0.432-2.953,1.386-5.383,2.952-7.201c0.027,0,0.045,0,0.072,0
				c0.225-0.333,0.567-0.531,0.792-0.864c1.161-0.981,2.557-1.71,4.248-2.16c0.279,0,0.54-0.036,0.72-0.144
				c0.263,0.027,0.47-0.009,0.648-0.072c0.909,0,1.827,0,2.735,0c3.375,0.369,6.049,1.44,8.063,3.168
				c0,0.072-0.09,0.054-0.144,0.072c-1.055-0.63-2.287-1.071-3.89-1.152c-0.387-0.117-1.269-0.117-1.655,0c-0.026,0-0.045,0-0.072,0
				c-0.396-0.009-0.764,0-1.008,0.144c-1.979,0.324-3.475,1.134-4.681,2.232c-0.493,0.306-0.882,0.72-1.196,1.197
				c-0.019,0.009-0.019,0.018-0.026,0.027c-1.188,1.432-2.178,3.141-2.376,5.4c-0.558,6.336,3.672,10.53,9.216,11.231
				c0.478,0.116,1.467,0.116,1.944,0c5.391-0.828,8.505-3.934,9.144-9.504c0.117-0.244,0.117-0.98,0-1.225
				c-0.252-3.42-1.69-5.652-3.384-7.632c-0.359-0.495-0.773-0.954-1.296-1.296c-2.043-1.89-4.662-3.213-8.208-3.6
				c-0.1-0.162-0.504-0.027-0.721-0.072c-0.071,0-0.145,0-0.215,0c-0.334-0.117-1.181-0.117-1.514,0c-0.07,0-0.145,0-0.216,0
				c-0.216,0.045-0.621-0.09-0.72,0.072c-0.379-0.018-0.676,0.054-0.938,0.144c-0.27-0.009-0.495,0.027-0.646,0.144
				c-0.353,0.054-0.693,0.126-0.938,0.288c-0.081-0.009-0.207,0.009-0.216-0.072c1.638-1.071,3.476-1.944,5.688-2.448
				c0.277,0,0.539-0.036,0.719-0.144c0.207-0.009,0.469,0.036,0.576-0.072c0.217-0.045,0.621,0.09,0.721-0.072
				c1.008-0.027,1.953,0.018,2.88,0.072c3.618,0.486,6.272,1.935,8.496,3.816c0.378,0.441,0.782,0.846,1.224,1.224
				c1.917,2.259,3.366,4.986,3.816,8.71c0,0.334,0,0.676,0,1.01C55.865,29.546,55.867,29.891,55.867,30.224z"/>
			<path fill="#FFFFFF" d="M55.291,16.759c-0.27,0.306-0.576,0.576-0.864,0.864C54.625,17.246,54.949,16.994,55.291,16.759z"/>
			<path fill="#FFFFFF" d="M53.635,19.496c0,0.189,0,0.387,0,0.576c-0.225,0.036-0.207-0.18-0.287-0.288
				c0.09,0.036,0.145,0.09,0.145,0.216C53.698,19.99,53.428,19.504,53.635,19.496z"/>
			<path fill="#FFFFFF" d="M53.635,10.352C53.41,10.189,53.223,10,53.061,9.775C53.348,9.865,53.482,10.118,53.635,10.352z"/>
			<path fill="#FFFFFF" d="M51.259,17.551c0.515,0.45,0.99,0.927,1.44,1.44C52.188,18.542,51.709,18.064,51.259,17.551z"/>
			<path fill="#FFFFFF" d="M52.051,39.943c-0.025,0.1-0.126,0.117-0.144,0.217c-0.298,0.233-0.558,0.494-0.792,0.791
				c-0.172,0.045-0.189,0.243-0.36,0.289C51.16,40.78,51.592,40.349,52.051,39.943z"/>
			<path fill="#FFFFFF" d="M51.907,40.16c-0.234,0.297-0.495,0.559-0.792,0.791C51.35,40.654,51.609,40.394,51.907,40.16z"/>
			<path fill="#FFFFFF" d="M52.051,19.496c-0.439-0.378-0.846-0.783-1.224-1.224C51.305,18.613,51.709,19.019,52.051,19.496z"/>
			<path fill="#FFFFFF" d="M50.755,29.144c0.117,0.243,0.117,0.98,0,1.225C50.755,29.962,50.755,29.548,50.755,29.144z"/>
			<path fill="#FFFFFF" d="M50.611,8.912c-0.262,0-0.531,0-0.793,0C49.918,8.794,50.512,8.794,50.611,8.912z"/>
			<path fill="#FFFFFF" d="M47.229,33.031c0.729-0.107,1.557-0.126,2.23-0.287c-1.125,3.356-3.744,5.858-8.063,6.264
				c-0.459,0-0.91,0-1.369,0c-2.313-0.135-3.941-0.953-5.256-2.088c-0.449-0.414-0.881-0.846-1.295-1.297
				c-1.145-1.357-2-2.986-2.088-5.398c0-0.314,0-0.621,0-0.938c0.071-2.447,0.936-4.104,2.088-5.472
				c0.287-0.144,0.351-0.513,0.646-0.648c0,0.072-0.055,0.09-0.072,0.144c-3.113,3.96-0.306,10.458,4.536,10.728
				c0.388,0.117,1.271,0.117,1.656,0c0.675-0.106,1.161-0.27,1.729-0.504c0.512-0.207,0.971-0.646,1.438-0.72
				c0.567-0.09,1.125,0.226,1.872,0.216C45.76,33.148,46.75,33.148,47.229,33.031z"/>
			<path fill="#FFFFFF" d="M47.371,21.511c-0.439-0.423-0.873-0.854-1.296-1.296C46.598,20.558,47.012,21.017,47.371,21.511z"/>
			<path fill="#FFFFFF" d="M45.283,33.031c0.648,0,1.296,0,1.943,0C46.75,33.148,45.76,33.148,45.283,33.031z"/>
			<path fill="#FFFFFF" d="M47.229,10.208c-0.308,0.369-0.641,0.702-1.01,1.008C46.525,10.847,46.857,10.514,47.229,10.208z"/>
			<path fill="#FFFFFF" d="M45.499,20.719c0.146,0.09,0.369,0.117,0.36,0.36c-0.162-0.108-0.387-0.144-0.504-0.288
				C45.409,20.773,45.499,20.792,45.499,20.719z"/>
			<path fill="#FFFFFF" d="M46.219,11.215c-0.232,0.297-0.494,0.558-0.792,0.792C45.661,11.71,45.922,11.45,46.219,11.215z"/>
			<path fill="#FFFFFF" d="M45.427,27.056c-0.72-1.359-1.683-2.376-3.384-2.376c-3.123-0.009-4.743,3.915-2.52,6.336
				c0.684,0.747,1.664,1.034,2.808,1.438c-4.041,2.26-8.56-0.846-8.784-4.822c-0.162-2.854,1.872-5.904,5.112-6.264
				C42.79,20.909,45.004,23.519,45.427,27.056z"/>
			<path fill="#FFFFFF" d="M39.451,45.056c0.747,0,1.484,0,2.232,0C41.107,45.173,40.027,45.173,39.451,45.056z"/>
			<path fill="#FFFFFF" d="M39.667,39.871c0.647,0,1.296,0,1.944,0C41.134,39.988,40.145,39.988,39.667,39.871z"/>
			<path fill="#FFFFFF" d="M41.467,19.64c-0.549,0-1.105,0-1.654,0C40.198,19.522,41.08,19.522,41.467,19.64z"/>
			<path fill="#FFFFFF" d="M40.027,39.007c0.459,0,0.908,0,1.367,0C41.107,39.125,40.314,39.125,40.027,39.007z"/>
			<path fill="#FFFFFF" d="M42.331,14.456c-0.927-0.054-1.872-0.099-2.88-0.072C40.288,14.249,41.575,14.275,42.331,14.456z"/>
			<path fill="#FFFFFF" d="M38.587,34.039c0.55,0,1.106,0,1.656,0C39.855,34.156,38.975,34.156,38.587,34.039z"/>
			<path fill="#FFFFFF" d="M38.73,19.784c0.244-0.144,0.611-0.153,1.008-0.144C39.469,19.748,39.091,19.756,38.73,19.784z"/>
			<path fill="#FFFFFF" d="M38.73,14.456c0.1-0.162,0.504-0.027,0.721-0.072C39.354,14.545,38.947,14.411,38.73,14.456z"/>
			<path fill="#FFFFFF" d="M37.436,14.671c0.162-0.126,0.424-0.153,0.721-0.144C37.977,14.635,37.714,14.671,37.436,14.671z"/>
			<path fill="#FFFFFF" d="M37.867,16.615c-0.217-0.045-0.621,0.09-0.721-0.072C37.363,16.588,37.77,16.454,37.867,16.615z"/>
			<path fill="#FFFFFF" d="M37.436,17.551c-0.908,0-1.826,0-2.735,0C35.445,17.435,36.688,17.435,37.436,17.551z"/>
			<path fill="#FFFFFF" d="M36.932,16.543c-0.505,0-1.009,0-1.513,0C35.752,16.426,36.6,16.426,36.932,16.543z"/>
			<path fill="#FFFFFF" d="M36.715,14.096c-0.07,0-0.145,0-0.216,0c-0.405,0-0.817,0-1.224,0c-3.987-0.378-4.491-4.248-6.336-6.768
				c-0.36-0.495-0.774-0.954-1.296-1.296c-1.251-0.936-2.646-1.719-4.248-2.304c0.621,0.531,1.8,1.134,2.448,1.872
				c0.351,0.414,0.738,0.801,1.152,1.152c2.493,2.475,2.754,7.182,6.983,7.92c-0.035,0.198,0.396-0.054,0.359,0.144
				c-1.691,0.711-3.123,1.674-4.464,2.736c-0.252,0.252-0.576,0.432-0.792,0.72c-1.755-0.189-2.88-1.008-3.888-1.944
				c-0.306-0.369-0.639-0.702-1.008-1.008c-1.8-1.899-3.393-4.941-4.392-7.848c-0.963-2.817-1.728-5.958-4.824-6.84
				c0.009-0.162,0.306-0.027,0.432-0.072c0.027,0,0.045,0,0.072,0c0.126,0.162,0.549,0.027,0.792,0.072
				c6.093,0.486,11.709,1.449,15.335,4.392c0.404,0.369,0.782,0.747,1.151,1.152C34.771,8.075,34.188,12.592,36.715,14.096z
				 M23.323,3.728c-0.045-0.243-0.585-0.369-0.72-0.288C22.855,3.521,22.99,3.728,23.323,3.728z"/>
			<path fill="#FFFFFF" d="M35.275,14.096c0.404,0,0.817,0,1.224,0C36.256,14.212,35.52,14.212,35.275,14.096z"/>
			<path fill="#FFFFFF" d="M34.482,16.615c0.1-0.162,0.504-0.027,0.721-0.072C35.104,16.706,34.699,16.57,34.482,16.615z"/>
			<path fill="#FFFFFF" d="M34.627,22.591c0.02,0.171-0.387,0.522-0.576,0.72c0.02-0.054,0.072-0.072,0.072-0.144
				c-0.297,0.135-0.359,0.504-0.646,0.648C33.781,23.33,34.213,22.969,34.627,22.591z"/>
			<path fill="#FFFFFF" d="M33.979,14.671c0.217,0,0.433,0,0.647,0c-0.045,0.099-0.151,0.135-0.288,0.144
				C34.375,14.618,33.943,14.87,33.979,14.671z"/>
			<path fill="#FFFFFF" d="M33.477,35.623c0.414,0.451,0.846,0.883,1.295,1.297C34.24,36.587,33.835,36.128,33.477,35.623z"/>
			<path fill="#FFFFFF" d="M33.331,17.768c0.162-0.126,0.423-0.153,0.72-0.144C33.871,17.731,33.609,17.768,33.331,17.768z"/>
			<path fill="#FFFFFF" d="M32.898,16.903c0.152-0.117,0.379-0.153,0.647-0.144C33.395,16.876,33.169,16.913,32.898,16.903z"/>
			<path fill="#FFFFFF" d="M34.051,22.016c-0.414,0.387-0.81,0.783-1.195,1.197C33.169,22.735,33.557,22.321,34.051,22.016z"/>
			<path fill="#FFFFFF" d="M32.755,6.175c-0.368-0.405-0.747-0.783-1.151-1.152C32.07,5.32,32.458,5.708,32.755,6.175z"/>
			<path fill="#FFFFFF" d="M31.747,17.12c0.009,0.081,0.135,0.063,0.216,0.072c-0.107,0.108-0.277,0.153-0.504,0.144
				C31.477,17.191,31.648,17.191,31.747,17.12z"/>
			<path fill="#FFFFFF" d="M31.387,29.287c0,0.315,0,0.621,0,0.938C31.27,30.08,31.27,29.432,31.387,29.287z"/>
			<path fill="#FFFFFF" d="M30.523,41.312c0,0.027,0,0.045,0,0.072c-0.639-0.469-1.188-1.018-1.656-1.656
				C29.416,40.259,29.875,40.88,30.523,41.312z"/>
			<path fill="#FFFFFF" d="M29.875,17.551c-0.243,0.261-0.432,0.576-0.792,0.72C29.299,17.983,29.623,17.804,29.875,17.551z"/>
			<path fill="#FFFFFF" d="M29.083,19.927c-0.225,0.333-0.567,0.531-0.792,0.864c-0.027,0-0.045,0-0.072,0
				C28.444,20.44,28.768,20.188,29.083,19.927z"/>
			<path fill="#FFFFFF" d="M27.643,6.031c0.522,0.342,0.936,0.801,1.296,1.296C28.516,6.896,28.111,6.437,27.643,6.031z"/>
			<path fill="#FFFFFF" d="M26.995,6.751C26.581,6.4,26.194,6.014,25.843,5.6C26.302,5.905,26.689,6.292,26.995,6.751z"/>
			<path fill="#FFFFFF" d="M23.683,16.111c1.485,1.215,2.511,2.511,4.68,2.88c-1.368,1.773-2.61,3.681-3.312,6.12
				c-4.986-0.072-8.244-2.295-10.944-4.752c-1.377-1.251-2.628-2.628-3.816-4.032c-2.493-2.925-4.23-6.921-9.864-6.696
				c5.481-1.611,11.367-3.168,18.504-2.88c0.477,1.71,1.143,3.231,1.8,4.752c-2.349-1.251-5.292-1.908-8.928-1.872
				c3.69,0.738,6.255,1.647,8.64,3.6C21.496,14.096,22.54,15.175,23.683,16.111z"/>
			<path fill="#FFFFFF" d="M25.267,27.992c-0.045,0.215,0.09,0.62-0.072,0.721C25.24,28.496,25.105,28.091,25.267,27.992z"/>
			<path fill="#FFFFFF" d="M25.195,30.8c0.162,0.099,0.027,0.504,0.072,0.72C25.105,31.421,25.24,31.016,25.195,30.8z"/>
			<path fill="#FFFFFF" d="M25.195,28.928c0,0.549,0,1.106,0,1.655C25.078,30.196,25.078,29.314,25.195,28.928z"/>
			<path fill="#FFFFFF" d="M24.187,15.319c0.369,0.306,0.702,0.639,1.008,1.008C24.808,16.04,24.439,15.743,24.187,15.319z"/>
			<path fill="#FFFFFF" d="M22.603,3.439c0.135-0.081,0.675,0.045,0.72,0.288C22.99,3.728,22.855,3.521,22.603,3.439z"/>
			<path fill="#FFFFFF" d="M16.267,0.631c-0.243-0.045-0.666,0.09-0.792-0.072C15.718,0.604,16.141,0.469,16.267,0.631z"/>
			<path fill="#FFFFFF" d="M15.403,0.56c-0.126,0.045-0.423-0.09-0.432,0.072c-0.216,0.054-0.207-0.126-0.432-0.072
				C14.665,0.442,15.277,0.442,15.403,0.56z"/>
		</g>
	</g>
</g>
</svg>
