<?xml version="1.0" encoding="utf-8"?>
<!-- Generator: Adobe Illustrator 15.0.0, SVG Export Plug-In . SVG Version: 6.00 Build 0)  -->
<!DOCTYPE svg PUBLIC "-//W3C//DTD SVG 1.1//EN" "http://www.w3.org/Graphics/SVG/1.1/DTD/svg11.dtd">
<svg version="1.1" id="Layer_1" xmlns="http://www.w3.org/2000/svg" xmlns:xlink="http://www.w3.org/1999/xlink" x="0px" y="0px"
	 width="380px" height="250px" viewBox="0 0 380 250" style="enable-background:new 0 0 380 250;" xml:space="preserve">
<style type="text/css">
<![CDATA[
	.st0{fill:#7D538A;}
	.st1{fill:#FFFFFF;}
]]>
</style>
<rect class="st0" width="380" height="250"/>
<g>
	<path class="st1" d="M183,124.9c0,7.1-5.8,12.9-12.9,12.9h-42.9c-7.1,0-12.9-5.8-12.9-12.9V82c0-7.1,5.8-12.9,12.9-12.9h42.9
		c7.1,0,12.9,5.8,12.9,12.9V124.9z M173.8,94.6h-8.8v-4.9c0-2.5,0.3-3.9,3.9-3.9h4.9v-9.8h-7.8c-9.4,0-12.7,4.7-12.7,12.7v5.8h-5.8
		v9.8h5.8v28.4h11.7v-28.4h7.8L173.8,94.6z"/>
</g>
<g>
	<path class="st1" d="M265.6,123.9c0,7.1-5.8,12.9-12.9,12.9h-42.9c-7.1,0-12.9-5.8-12.9-12.9V81c0-7.1,5.8-12.9,12.9-12.9h42.9
		c7.1,0,12.9,5.8,12.9,12.9V123.9z M248.8,91.2c2-1.2,3.4-3,4.2-5.2c-1.8,1.1-3.8,1.9-6,2.3c-1.7-1.8-4.2-2.9-6.8-2.9
		c-5.2,0-9.4,4.2-9.4,9.4c0,0.7,0,1.5,0.2,2.1c-7.8-0.4-14.7-4.1-19.4-9.8c-0.8,1.4-1.3,3-1.3,4.7c0,3.3,1.5,6.1,4.1,7.8
		c-1.6,0-3-0.5-4.5-1.2c0,0,0,0,0,0.1c0,4.6,3.4,8.3,7.7,9.2c-0.8,0.2-1.4,0.4-2.3,0.4c-0.6,0-1.2-0.1-1.7-0.2
		c1.2,3.7,4.6,6.4,8.8,6.5c-3.2,2.5-7.2,4-11.7,4c-0.8,0-1.5,0-2.2-0.1c4.2,2.6,9.1,4.2,14.4,4.2c17.2,0,26.7-14.3,26.7-26.7
		c0-0.4,0-0.8,0-1.2c1.8-1.3,3.4-2.9,4.7-4.9C252.5,90.4,250.7,90.9,248.8,91.2z"/>
</g>
<g>
	<path class="st1" d="M265.6,205.9c0,7.1-5.8,12.9-12.9,12.9h-20.9c1.2-2.2,1.7-4.6,1.7-7c0-12.5-13.3-14.8-13.3-20.5
		c0-5.9,10-6.9,10-18.7c0-4.1-1.5-8.9-4.6-11.8c-0.9-0.8-1.5-0.7-2.1-2h6l6-2.9h-19.5c-7.5,0-14.2,1.7-19.1,7.7
		c0-7.4,5.3-13.4,12.9-13.4h42.9c7.1,0,12.9,5.8,12.9,12.9v4.3h-11.4v-11.4h-5.7v11.4h-11.4v5.7h11.4v11.4h5.7V173h11.4V205.9z
		 M197,203.7v-19.3c3.3,3.8,7.2,5.3,12.2,5.3c1,0,2.1-0.1,3.1-0.2c-0.4,1.3-0.9,2.5-0.9,3.8c0,2.5,1.3,4.7,2.8,6.7
		C208.3,200.1,202.4,200.9,197,203.7z M226.9,218.7h-17c-5.6,0-10.7-3.7-12.3-9.1c3-5.7,11.2-7.1,17.1-7.1c0.7,0,1.4,0,2.2,0.1
		c4.6,3.2,10.4,6.7,10.4,12.9C227.3,216.6,227.2,217.7,226.9,218.7z M213.7,187c-7.9,0-12.4-10.6-12.4-17.4c0-5.3,2.9-10.4,8.8-10.4
		c8.3,0,11.9,11.2,11.9,18C222,182.5,219.9,187,213.7,187z"/>
</g>
<g>
	<path class="st1" d="M183,163v42.9c0,7.1-5.8,12.9-12.9,12.9h-32.4c1.5-2.1,3.9-5.7,4.8-9.4c0,0,0.4-1.5,2.4-9.3
		c1.2,2.3,4.6,4.2,8.3,4.2c10.9,0,18.3-10,18.3-23.3c0-10-8.5-19.4-21.5-19.4c-16.1,0-24.2,11.6-24.2,21.2c0,5.8,2.2,11,7,12.9
		c0.8,0.3,1.5,0,1.7-0.8c0.1-0.6,0.5-2.1,0.7-2.7c0.2-0.8,0.1-1.2-0.5-1.9c-1.3-1.7-2.2-3.7-2.2-6.7c0-8.6,6.4-16.2,16.7-16.2
		c9.1,0,14.1,5.5,14.1,13c0,9.8-4.3,18-10.8,18c-3.5,0-6.2-2.9-5.4-6.6c1-4.3,3-8.9,3-12c0-2.8-1.5-5.1-4.6-5.1
		c-3.6,0-6.5,3.8-6.5,8.8c0,0,0,3.2,1.1,5.4c-3.7,15.7-4.4,18.5-4.4,18.5c-1,4.1-0.6,8.9-0.3,11.3h-8.2c-7.1,0-12.9-5.8-12.9-12.9
		V163c0-7.1,5.8-12.9,12.9-12.9h42.9C177.2,150.2,183,155.9,183,163z"/>
</g>
</svg>
