<?xml version="1.0" encoding="utf-8"?>
<!-- Generator: Adobe Illustrator 15.0.0, SVG Export Plug-In . SVG Version: 6.00 Build 0)  -->
<!DOCTYPE svg PUBLIC "-//W3C//DTD SVG 1.1//EN" "http://www.w3.org/Graphics/SVG/1.1/DTD/svg11.dtd">
<svg version="1.1" id="Layer_1" xmlns="http://www.w3.org/2000/svg" xmlns:xlink="http://www.w3.org/1999/xlink" x="0px" y="0px"
	 width="380px" height="250px" viewBox="0 0 380 250" style="enable-background:new 0 0 380 250;" xml:space="preserve">
<style type="text/css">
<![CDATA[
	.st0{fill:#5BA828;}
	.st1{fill:#FFFFFF;}
]]>
</style>
<rect class="st0" width="380" height="250"/>
<g>
	<path class="st1" d="M281.6,182.8v8c0,4.4-6,8-13.4,8H134.3c-7.4,0-13.4-3.6-13.4-8v-8h13.4h133.9H281.6z M142.3,164.1v-58.9
		c0-7.4,6-13.4,13.4-13.4h91.1c7.4,0,13.4,6,13.4,13.4v58.9c0,7.4-6,13.4-13.4,13.4h-91.1C148.4,177.5,142.3,171.4,142.3,164.1z
		 M153.1,164.1c0,1.4,1.3,2.7,2.7,2.7h91.1c1.4,0,2.7-1.3,2.7-2.7v-58.9c0-1.4-1.3-2.7-2.7-2.7h-91.1c-1.4,0-2.7,1.3-2.7,2.7V164.1z
		 M209.3,189.5c0-0.8-0.6-1.3-1.3-1.3h-13.4c-0.8,0-1.3,0.6-1.3,1.3c0,0.8,0.6,1.3,1.3,1.3H208C208.7,190.8,209.3,190.3,209.3,189.5
		z"/>
</g>
<g>
	<path class="st1" d="M99.8,191.7c0,3.9-3.2,7.1-7.1,7.1H55.5c-3.9,0-7.1-3.2-7.1-7.1v-48.6c0-3.9,3.2-7.1,7.1-7.1h37.1
		c3.9,0,7.1,3.2,7.1,7.1V191.7z M94.1,143.2c0-0.8-0.7-1.4-1.4-1.4H55.5c-0.8,0-1.4,0.7-1.4,1.4V186c0,0.8,0.7,1.4,1.4,1.4h37.1
		c0.8,0,1.4-0.7,1.4-1.4V143.2z M74.1,190.3c-1.6,0-2.9,1.3-2.9,2.9s1.3,2.9,2.9,2.9s2.9-1.3,2.9-2.9S75.6,190.3,74.1,190.3z"/>
</g>
<g>
	<path class="st1" d="M332.8,193.2c0,3.1-2.6,5.7-5.7,5.7h-22.9c-3.1,0-5.7-2.6-5.7-5.7v-45.7c0-3.1,2.6-5.7,5.7-5.7h22.9
		c3.1,0,5.7,2.6,5.7,5.7V193.2z M328.5,154.6c0-0.8-0.7-1.4-1.4-1.4h-22.9c-0.8,0-1.4,0.7-1.4,1.4V186c0,0.8,0.7,1.4,1.4,1.4h22.9
		c0.8,0,1.4-0.7,1.4-1.4V154.6z M319.2,147.4h-7.1c-0.4,0-0.7,0.3-0.7,0.7c0,0.4,0.3,0.7,0.7,0.7h7.1c0.4,0,0.7-0.3,0.7-0.7
		C319.9,147.8,319.6,147.4,319.2,147.4z M315.6,189.6c-2,0-3.6,1.6-3.6,3.6s1.6,3.6,3.6,3.6c2,0,3.6-1.6,3.6-3.6
		S317.6,189.6,315.6,189.6z"/>
</g>
</svg>
