<?xml version="1.0" encoding="utf-8"?>
<!-- Generator: Adobe Illustrator 15.0.0, SVG Export Plug-In . SVG Version: 6.00 Build 0)  -->
<!DOCTYPE svg PUBLIC "-//W3C//DTD SVG 1.1//EN" "http://www.w3.org/Graphics/SVG/1.1/DTD/svg11.dtd">
<svg version="1.1" id="Layer_1" xmlns="http://www.w3.org/2000/svg" xmlns:xlink="http://www.w3.org/1999/xlink" x="0px" y="0px"
	 width="144px" height="144px" viewBox="0 0 144 144" enable-background="new 0 0 144 144" xml:space="preserve">
<g>
	<path fill-rule="evenodd" clip-rule="evenodd" fill="#B6BBD4" d="M144,121c0,12.65-10.35,23-23,23H23c-12.65,0-23-10.35-23-23V23
		C0,10.35,10.35,0,23,0h98c12.65,0,23,10.35,23,23V121z"/>
</g>
<g>
	<path fill="#135870" d="M100.92,105.555H46.284c-12.403,0-22.497-10.094-22.497-22.497c0-8.737,5.072-16.672,12.956-20.338
		c-0.05-0.753-0.101-1.456-0.101-2.159c0-14.211,11.5-25.711,25.711-25.711c10.445,0,19.835,6.327,23.803,15.969
		c2.31-2.008,5.272-3.113,8.336-3.113c7.08,0,12.855,5.775,12.855,12.855c0,2.46-0.703,4.871-2.06,6.93
		c8.737,2.059,14.915,9.843,14.915,18.781C120.203,96.918,111.565,105.555,100.92,105.555z M87.611,70.654L69.936,52.978
		c-0.301-0.301-0.703-0.452-1.155-0.452c-0.402,0-0.854,0.151-1.155,0.452L50,70.604c-0.301,0.352-0.502,0.753-0.502,1.205
		c0,0.904,0.703,1.607,1.607,1.607h11.249v17.676c0,0.854,0.753,1.607,1.607,1.607h9.642c0.854,0,1.607-0.754,1.607-1.607V73.416
		h11.248c0.904,0,1.607-0.753,1.607-1.607C88.064,71.407,87.913,70.956,87.611,70.654z"/>
</g>
</svg>
