<?xml version="1.0" encoding="utf-8"?>
<!-- Generator: Adobe Illustrator 15.0.0, SVG Export Plug-In . SVG Version: 6.00 Build 0)  -->
<!DOCTYPE svg PUBLIC "-//W3C//DTD SVG 1.1//EN" "http://www.w3.org/Graphics/SVG/1.1/DTD/svg11.dtd">
<svg version="1.1" id="Layer_1" xmlns="http://www.w3.org/2000/svg" xmlns:xlink="http://www.w3.org/1999/xlink" x="0px" y="0px"
	 width="144px" height="144px" viewBox="0 0 144 144" enable-background="new 0 0 144 144" xml:space="preserve">
<g>
	<path fill-rule="evenodd" clip-rule="evenodd" fill="#B6BBD4" d="M144,121c0,12.65-10.35,23-23,23H23c-12.65,0-23-10.35-23-23V23
		C0,10.35,10.35,0,23,0h98c12.65,0,23,10.35,23,23V121z"/>
</g>
<g>
	<path fill="#135870" d="M51.104,98.341c0,1.758-1.456,3.214-3.214,3.214H33.428c-1.758,0-3.214-1.456-3.214-3.214V66.202
		c0-1.758,1.456-3.214,3.214-3.214h14.462c1.758,0,3.214,1.456,3.214,3.214V98.341z M39.856,88.699
		c-1.808,0-3.214,1.456-3.214,3.214c0,1.808,1.406,3.214,3.214,3.214c1.758,0,3.214-1.406,3.214-3.214
		C43.07,90.155,41.614,88.699,39.856,88.699z M107.799,73.685c0.553,1.606,0.754,3.113,0.754,3.816c0.1,2.511-0.653,4.871-2.16,6.88
		c0.553,1.857,0.553,3.866,0,5.875c-0.502,1.857-1.455,3.516-2.711,4.721c0.301,3.766-0.553,6.829-2.461,9.089
		c-2.159,2.562-5.474,3.866-9.893,3.917c-0.201,0-0.904,0-1.809,0h-3.816H84.85c-7.181,0-13.96-2.36-19.383-4.219
		c-3.164-1.104-6.176-2.158-7.934-2.209c-1.708-0.051-3.214-1.456-3.214-3.214V66.152c0-1.657,1.406-3.063,3.063-3.214
		c1.858-0.15,6.679-6.126,8.889-9.039c1.808-2.31,3.515-4.469,5.072-6.026c1.959-1.958,2.511-4.972,3.113-7.884
		c0.553-2.963,1.155-6.077,3.314-8.186c0.603-0.603,1.406-0.954,2.26-0.954c11.248,0,11.248,8.989,11.248,12.855
		c0,4.118-1.455,7.03-2.812,9.642c-0.553,1.105-1.055,1.607-1.456,3.214h13.91c5.223,0,9.641,4.419,9.641,9.642
		C110.561,68.864,109.506,71.726,107.799,73.685z"/>
</g>
</svg>
