<?xml version="1.0" encoding="utf-8"?>
<!-- Generator: Adobe Illustrator 15.0.0, SVG Export Plug-In . SVG Version: 6.00 Build 0)  -->
<!DOCTYPE svg PUBLIC "-//W3C//DTD SVG 1.1//EN" "http://www.w3.org/Graphics/SVG/1.1/DTD/svg11.dtd">
<svg version="1.1" id="Layer_1" xmlns="http://www.w3.org/2000/svg" xmlns:xlink="http://www.w3.org/1999/xlink" x="0px" y="0px"
	 width="420px" height="75px" viewBox="0 0 420 75" enable-background="new 0 0 420 75" xml:space="preserve">
<g>
	<g>
		<path fill-rule="evenodd" clip-rule="evenodd" fill="#FFFFFF" d="M46.868,25.614c-1.287,0.845-2.504,1.371-3.923,2.315
			c-0.5,0.331-1.139,0.755-1.81,1.306c-0.495,0.406-1.27,1.328-1.71,1.408c-0.726,0.131-2.039-0.472-2.715-0.804
			c-5.255-2.583-8.697-9.679-10.663-15.895C24.909,10.351,23.484,7.08,19.81,6c4.819,0.076,9.171,0.694,12.976,1.61
			c5.579,1.345,11.46,3.714,13.479,8.751c0.789,1.971,0.793,4.562,2.112,6.539c0.468,0.702,1.278,1.251,1.609,1.911
			c-7.092,0.786-7.722-5.893-10.762-9.555c-1.813-2.185-4.505-3.837-7.645-4.929c-0.082-0.02-0.1-0.102-0.202-0.102
			c2.512,1.655,4.399,3.159,6.136,5.533C40.204,19.435,41.092,25.061,46.868,25.614z"/>
		<path fill-rule="evenodd" clip-rule="evenodd" fill="#FFFFFF" d="M25.141,14.751c0.69,2.092,1.458,4.107,2.313,6.036
			c-3.275-1.721-7.882-2.645-12.875-2.313c1.164,0.609,2.405,0.635,3.521,0.905c3.441,0.837,6.365,2.095,8.953,4.125
			c1.539,1.208,3.015,2.784,4.627,4.125c2.014,1.675,3.474,3.482,6.337,4.123c0.095,0.489-0.672,1.091-1.107,1.71
			c-1.264,1.804-2.454,4.103-3.118,6.539c-7.126,0.01-11.618-3.623-15.49-7.042c-1.857-1.639-3.406-3.429-4.929-5.229
			C10.131,23.895,7.609,18.738,1,18.373C8.122,16.293,15.906,14.388,25.141,14.751z"/>
		<path fill-rule="evenodd" clip-rule="evenodd" fill="#FFFFFF" d="M83.08,25.415c-4.133,1.5-8.777,2.488-9.355,7.542
			c-3.587-4.192-7.98-7.577-14.585-8.751c4.012-1.702,5.684-7.159,10.763-6.638c1.085,0.11,2.279,0.464,3.119,1.106
			c1.579,1.207,1.663,3.241,3.318,4.828C77.814,24.916,80.948,24.809,83.08,25.415z M72.316,21.994
			c-0.099-0.543-0.509-1.056-1.508-0.705C68.211,22.205,72.852,24.933,72.316,21.994z"/>
		<path fill-rule="evenodd" clip-rule="evenodd" fill="#FFFFFF" d="M62.66,34.366c-10.537-5.067-22.104,1.758-21.123,13.88
			c0.558,6.899,6.736,13.075,14.987,12.575c5.311-0.322,9.259-3.361,11.367-7.041c2.517-4.394,2.197-10.015-0.101-14.485
			c-3.783-7.355-13.016-13.535-24.644-9.958c0.297-0.818,1.27-1.097,2.011-1.508c2.432-1.344,5.404-2.478,8.853-2.716
			c7.553-0.521,12.69,2.492,16.396,5.935c3.725,3.461,6.702,8.65,6.738,15.491c0.044,8.066-3.564,13.158-8.046,16.796
			c-4.276,3.477-11.52,6.27-19.313,4.123c-6.098-1.678-10.846-5.787-13.579-11.264c-2.828-5.667-2.892-14.315,0.402-19.917
			c2.228-3.788,6.438-6.826,12.573-6.84C55.037,29.425,59.606,31.327,62.66,34.366z"/>
		<path fill-rule="evenodd" clip-rule="evenodd" fill="#FFFFFF" d="M62.056,41.708c-0.199,0.222-0.413-0.402-0.704-0.705
			c-0.739-0.764-2.125-1.599-3.722-1.609c-4.637-0.029-6.56,5.295-4.023,8.648c1,1.325,2.253,1.774,3.822,2.616
			c-8.242,3.676-15.213-6.947-9.253-13.074C52.419,33.219,61.17,35.188,62.056,41.708z"/>
		<path fill-rule="evenodd" clip-rule="evenodd" fill="#FFFFFF" d="M46.366,37.585c-4.155,6.162-0.532,15.098,7.443,15.187
			c1.895,0.021,3.32-0.389,4.626-1.105c0.37-0.203,0.683-0.641,1.106-0.704c0.574-0.083,1.353,0.251,2.113,0.302
			c2.229,0.152,4.443-0.096,6.337-0.302c-2.094,5.206-6.309,9.202-13.579,8.651c-6.258-0.477-11.215-5.768-11.669-11.669
			C42.387,43.305,44.025,40.186,46.366,37.585z"/>
	</g>
</g>
<g>
	<path fill="#FFFFFF" d="M96.594,28.996c0-0.388-0.095-0.702-0.286-0.941c-0.19-0.24-0.449-0.436-0.776-0.588
		c-0.327-0.152-0.694-0.275-1.101-0.371c-0.407-0.095-0.835-0.188-1.284-0.28c-0.593-0.129-1.16-0.283-1.7-0.462
		c-0.541-0.179-1.016-0.426-1.426-0.742c-0.411-0.316-0.738-0.717-0.981-1.204c-0.244-0.487-0.365-1.095-0.365-1.826
		c0-0.806,0.141-1.508,0.422-2.105c0.281-0.597,0.664-1.091,1.146-1.483c0.483-0.392,1.05-0.685,1.7-0.878
		c0.65-0.194,1.383-0.291,2.197-0.291s1.632,0.08,2.454,0.239c0.821,0.16,1.529,0.365,2.122,0.616v2.396
		c-0.791-0.312-1.55-0.538-2.276-0.679s-1.409-0.211-2.048-0.211c-0.92,0-1.63,0.167-2.128,0.502
		c-0.499,0.334-0.748,0.837-0.748,1.506c0,0.388,0.082,0.708,0.245,0.958c0.164,0.251,0.386,0.458,0.668,0.622
		c0.281,0.164,0.604,0.295,0.97,0.394c0.365,0.099,0.753,0.19,1.164,0.274c0.646,0.137,1.265,0.295,1.854,0.474
		c0.59,0.179,1.113,0.428,1.569,0.748s0.817,0.736,1.084,1.25c0.266,0.514,0.399,1.169,0.399,1.968c0,0.822-0.152,1.533-0.457,2.134
		c-0.304,0.601-0.736,1.098-1.295,1.489c-0.56,0.392-1.238,0.683-2.037,0.873s-1.674,0.285-2.625,0.285
		c-0.829,0-1.645-0.082-2.448-0.245s-1.47-0.394-2.002-0.69v-2.362c0.753,0.327,1.487,0.565,2.202,0.713
		c0.715,0.148,1.453,0.223,2.214,0.223c0.441,0,0.875-0.036,1.301-0.108c0.426-0.072,0.808-0.196,1.147-0.371
		c0.338-0.175,0.61-0.413,0.816-0.713C96.491,29.808,96.594,29.437,96.594,28.996z"/>
	<path fill="#FFFFFF" d="M112.775,27.854c0,0.867-0.129,1.659-0.388,2.374c-0.258,0.715-0.629,1.328-1.112,1.837
		c-0.483,0.51-1.067,0.904-1.751,1.181c-0.685,0.278-1.449,0.417-2.294,0.417c-0.867,0-1.645-0.139-2.333-0.417
		c-0.688-0.277-1.272-0.671-1.751-1.181c-0.479-0.509-0.847-1.122-1.102-1.837c-0.255-0.715-0.382-1.506-0.382-2.374
		s0.129-1.658,0.388-2.374c0.259-0.715,0.629-1.328,1.113-1.837c0.483-0.509,1.067-0.903,1.751-1.181s1.449-0.417,2.293-0.417
		c0.868,0,1.645,0.139,2.334,0.417c0.688,0.278,1.272,0.671,1.751,1.181c0.479,0.51,0.846,1.123,1.101,1.837
		C112.647,26.196,112.775,26.987,112.775,27.854z M109.979,27.854c0-0.586-0.068-1.103-0.205-1.552
		c-0.137-0.449-0.327-0.826-0.571-1.13s-0.536-0.532-0.878-0.685s-0.715-0.229-1.119-0.229c-0.396,0-0.763,0.076-1.101,0.229
		s-0.629,0.38-0.873,0.685c-0.243,0.304-0.434,0.681-0.57,1.13c-0.137,0.449-0.206,0.966-0.206,1.552s0.068,1.103,0.206,1.552
		c0.137,0.449,0.329,0.824,0.576,1.124c0.247,0.301,0.54,0.529,0.879,0.685c0.338,0.156,0.709,0.234,1.112,0.234
		s0.772-0.078,1.107-0.234c0.334-0.156,0.624-0.384,0.867-0.685c0.244-0.3,0.434-0.675,0.571-1.124
		C109.911,28.958,109.979,28.44,109.979,27.854z"/>
	<path fill="#FFFFFF" d="M123.136,33.138c-0.342,0.145-0.761,0.268-1.255,0.371c-0.495,0.103-1.016,0.154-1.563,0.154
		c-0.799,0-1.544-0.114-2.237-0.342c-0.692-0.228-1.297-0.574-1.814-1.039c-0.518-0.464-0.924-1.051-1.221-1.763
		s-0.445-1.542-0.445-2.494c0-1.065,0.171-1.978,0.513-2.738s0.786-1.379,1.33-1.854c0.544-0.475,1.156-0.825,1.837-1.05
		c0.681-0.224,1.353-0.336,2.014-0.336c0.495,0,0.97,0.043,1.426,0.131c0.457,0.088,0.871,0.208,1.244,0.359v2.203
		c-0.335-0.145-0.69-0.261-1.067-0.348s-0.782-0.131-1.215-0.131s-0.849,0.067-1.244,0.2c-0.396,0.133-0.746,0.344-1.05,0.633
		c-0.304,0.29-0.546,0.672-0.725,1.147c-0.179,0.476-0.268,1.048-0.268,1.717c0,0.487,0.068,0.945,0.206,1.375
		c0.137,0.43,0.336,0.797,0.599,1.102c0.262,0.304,0.597,0.549,1.004,0.736c0.407,0.187,0.888,0.279,1.444,0.279
		c0.494,0,0.943-0.049,1.346-0.148c0.403-0.099,0.784-0.221,1.141-0.365V33.138z"/>
	<path fill="#FFFFFF" d="M125.476,16.854h2.841v2.933h-2.841V16.854z M125.544,22.32h2.705v11.058h-2.705V22.32z"/>
	<path fill="#FFFFFF" d="M136.978,31.483c0.525,0,1.073-0.053,1.643-0.16c0.571-0.106,1.148-0.258,1.734-0.456v2.157
		c-0.35,0.152-0.886,0.296-1.609,0.434c-0.723,0.137-1.472,0.205-2.248,0.205c-0.784,0-1.527-0.101-2.231-0.302
		s-1.318-0.527-1.843-0.976s-0.941-1.031-1.25-1.746c-0.308-0.715-0.462-1.582-0.462-2.602c0-1.004,0.144-1.883,0.434-2.636
		c0.289-0.753,0.677-1.376,1.164-1.871s1.044-0.865,1.672-1.113c0.627-0.247,1.276-0.371,1.946-0.371c0.7,0,1.344,0.106,1.934,0.319
		c0.589,0.213,1.099,0.548,1.529,1.004c0.43,0.456,0.765,1.044,1.004,1.763s0.359,1.569,0.359,2.55
		c-0.007,0.381-0.019,0.704-0.034,0.97h-7.246c0.038,0.51,0.152,0.945,0.342,1.307s0.439,0.654,0.748,0.878
		c0.308,0.225,0.667,0.388,1.078,0.491C136.054,31.432,136.499,31.483,136.978,31.483z M135.894,24.157
		c-0.343,0-0.647,0.063-0.913,0.188c-0.267,0.125-0.497,0.296-0.69,0.513s-0.348,0.47-0.462,0.759
		c-0.114,0.29-0.19,0.598-0.229,0.924h4.348c0-0.327-0.044-0.635-0.131-0.924c-0.087-0.289-0.217-0.542-0.388-0.759
		c-0.171-0.217-0.384-0.388-0.639-0.513S136.236,24.157,135.894,24.157z"/>
	<path fill="#FFFFFF" d="M150.021,33.366c-0.304,0.091-0.667,0.163-1.09,0.217c-0.422,0.053-0.816,0.08-1.181,0.08
		c-0.928,0-1.688-0.15-2.277-0.451s-1.006-0.732-1.25-1.295c-0.175-0.403-0.262-0.951-0.262-1.644v-5.728h-2.065V22.32h2.065v-3.092
		h2.704v3.092h3.195v2.226h-3.195v5.375c0,0.426,0.065,0.742,0.194,0.947c0.228,0.35,0.681,0.525,1.358,0.525
		c0.312,0,0.622-0.025,0.93-0.074s0.599-0.112,0.873-0.188V33.366z"/>
	<path fill="#FFFFFF" d="M150.763,22.32h2.898l1.654,4.005c0.624,1.522,1.065,2.647,1.324,3.378h0.046
		c0.19-0.571,0.593-1.628,1.209-3.172l1.711-4.211h2.933l-7.121,16.364h-2.67l2.533-5.922L150.763,22.32z"/>
	<path fill="#FFFFFF" d="M175.879,19.045c-0.297-0.076-0.603-0.139-0.919-0.188c-0.315-0.049-0.614-0.074-0.896-0.074
		c-0.304,0-0.575,0.036-0.81,0.108c-0.236,0.072-0.436,0.192-0.599,0.359c-0.164,0.167-0.288,0.384-0.371,0.65
		c-0.083,0.267-0.125,0.59-0.125,0.97v1.449h3.07v2.226h-3.07v8.832h-2.705v-8.832h-1.871V22.32h1.871v-1.312
		c0-0.776,0.108-1.443,0.325-2.003c0.217-0.559,0.52-1.019,0.907-1.38c0.388-0.361,0.845-0.628,1.37-0.799
		c0.525-0.171,1.095-0.257,1.711-0.257c0.38,0,0.759,0.032,1.136,0.097c0.376,0.064,0.702,0.143,0.976,0.234V19.045z"/>
	<path fill="#FFFFFF" d="M187.164,27.854c0,0.867-0.129,1.659-0.388,2.374c-0.258,0.715-0.629,1.328-1.112,1.837
		c-0.483,0.51-1.067,0.904-1.751,1.181c-0.685,0.278-1.449,0.417-2.294,0.417c-0.867,0-1.645-0.139-2.333-0.417
		c-0.688-0.277-1.272-0.671-1.751-1.181c-0.479-0.509-0.847-1.122-1.102-1.837c-0.255-0.715-0.382-1.506-0.382-2.374
		s0.129-1.658,0.388-2.374c0.259-0.715,0.629-1.328,1.113-1.837c0.483-0.509,1.067-0.903,1.751-1.181s1.449-0.417,2.293-0.417
		c0.868,0,1.645,0.139,2.334,0.417c0.688,0.278,1.272,0.671,1.751,1.181c0.479,0.51,0.846,1.123,1.101,1.837
		C187.037,26.196,187.164,26.987,187.164,27.854z M184.368,27.854c0-0.586-0.068-1.103-0.205-1.552
		c-0.137-0.449-0.327-0.826-0.571-1.13s-0.536-0.532-0.878-0.685s-0.715-0.229-1.119-0.229c-0.396,0-0.763,0.076-1.101,0.229
		s-0.629,0.38-0.873,0.685c-0.243,0.304-0.434,0.681-0.57,1.13c-0.137,0.449-0.206,0.966-0.206,1.552s0.068,1.103,0.206,1.552
		c0.137,0.449,0.329,0.824,0.576,1.124c0.247,0.301,0.54,0.529,0.879,0.685c0.338,0.156,0.709,0.234,1.112,0.234
		s0.772-0.078,1.107-0.234c0.334-0.156,0.624-0.384,0.867-0.685c0.244-0.3,0.434-0.675,0.571-1.124
		C184.3,28.958,184.368,28.44,184.368,27.854z"/>
	<path fill="#FFFFFF" d="M196.133,24.465h-0.228c-0.83,0-1.558,0.124-2.186,0.371c-0.627,0.247-1.112,0.625-1.455,1.135v7.406
		h-2.705V22.32h2.237l0.251,1.541h0.045c0.32-0.563,0.759-1.006,1.318-1.329c0.56-0.323,1.23-0.485,2.014-0.485
		c0.274,0,0.51,0.015,0.708,0.045V24.465z"/>
	<path fill="#FFFFFF" d="M209.404,20.186c-0.761,0-1.462,0.125-2.105,0.376c-0.643,0.251-1.194,0.616-1.654,1.096
		c-0.46,0.479-0.82,1.071-1.079,1.774s-0.388,1.508-0.388,2.414c0,0.897,0.118,1.687,0.354,2.368
		c0.236,0.681,0.574,1.25,1.016,1.706c0.441,0.457,0.979,0.801,1.615,1.033s1.356,0.348,2.162,0.348c0.578,0,1.168-0.046,1.77-0.137
		c0.6-0.091,1.164-0.224,1.688-0.399v2.408c-0.532,0.152-1.106,0.272-1.724,0.359c-0.616,0.087-1.255,0.131-1.917,0.131
		c-1.293,0-2.431-0.185-3.412-0.553c-0.981-0.369-1.801-0.89-2.459-1.563c-0.658-0.673-1.153-1.479-1.483-2.419
		c-0.331-0.939-0.497-1.976-0.497-3.11c0-1.164,0.177-2.244,0.531-3.241c0.354-0.997,0.863-1.86,1.529-2.59
		c0.666-0.73,1.499-1.305,2.499-1.723c1-0.418,2.132-0.631,3.395-0.639c0.646,0,1.259,0.044,1.837,0.131
		c0.578,0.088,1.1,0.211,1.563,0.371V20.7c-0.607-0.19-1.175-0.323-1.7-0.399S209.906,20.186,209.404,20.186z"/>
	<path fill="#FFFFFF" d="M225.836,27.854c0,0.867-0.129,1.659-0.388,2.374c-0.259,0.715-0.63,1.328-1.112,1.837
		c-0.483,0.51-1.066,0.904-1.752,1.181c-0.685,0.278-1.449,0.417-2.293,0.417c-0.867,0-1.646-0.139-2.334-0.417
		c-0.688-0.277-1.272-0.671-1.752-1.181c-0.479-0.509-0.846-1.122-1.102-1.837c-0.254-0.715-0.381-1.506-0.381-2.374
		s0.129-1.658,0.387-2.374c0.26-0.715,0.63-1.328,1.113-1.837c0.482-0.509,1.066-0.903,1.752-1.181
		c0.684-0.278,1.449-0.417,2.293-0.417c0.867,0,1.645,0.139,2.334,0.417c0.688,0.278,1.271,0.671,1.752,1.181
		c0.479,0.51,0.846,1.123,1.101,1.837C225.709,26.196,225.836,26.987,225.836,27.854z M223.041,27.854
		c0-0.586-0.068-1.103-0.205-1.552c-0.138-0.449-0.328-0.826-0.571-1.13s-0.536-0.532-0.878-0.685
		c-0.343-0.152-0.716-0.229-1.119-0.229c-0.396,0-0.763,0.076-1.102,0.229c-0.338,0.152-0.629,0.38-0.873,0.685
		c-0.242,0.304-0.434,0.681-0.57,1.13s-0.205,0.966-0.205,1.552s0.068,1.103,0.205,1.552c0.137,0.449,0.33,0.824,0.576,1.124
		c0.248,0.301,0.541,0.529,0.879,0.685c0.339,0.156,0.709,0.234,1.113,0.234c0.402,0,0.771-0.078,1.106-0.234
		c0.335-0.156,0.624-0.384,0.867-0.685c0.243-0.3,0.434-0.675,0.571-1.124C222.973,28.958,223.041,28.44,223.041,27.854z"/>
	<path fill="#FFFFFF" d="M230.721,23.86h0.045c0.16-0.228,0.361-0.452,0.605-0.673c0.243-0.221,0.521-0.415,0.833-0.582
		s0.656-0.303,1.032-0.405c0.377-0.103,0.778-0.154,1.204-0.154c0.403,0,0.794,0.045,1.17,0.137s0.721,0.234,1.032,0.428
		c0.313,0.194,0.588,0.445,0.828,0.753c0.239,0.308,0.428,0.675,0.564,1.101c0.076,0.236,0.127,0.493,0.154,0.771
		c0.026,0.277,0.039,0.599,0.039,0.964v7.178h-2.703v-6.755c0-0.297-0.012-0.551-0.035-0.765c-0.022-0.213-0.064-0.399-0.125-0.559
		c-0.137-0.35-0.345-0.601-0.622-0.753c-0.278-0.152-0.614-0.229-1.011-0.229c-0.524,0-1.028,0.124-1.512,0.371
		c-0.482,0.247-0.91,0.606-1.283,1.078v7.611h-2.705V22.32h2.237L230.721,23.86z"/>
	<path fill="#FFFFFF" d="M246.092,30.171c0-0.236-0.066-0.43-0.201-0.582c-0.133-0.152-0.309-0.279-0.529-0.382
		c-0.221-0.103-0.475-0.192-0.76-0.268c-0.285-0.076-0.584-0.152-0.895-0.228c-0.396-0.106-0.777-0.23-1.143-0.371
		c-0.365-0.141-0.686-0.325-0.963-0.553c-0.278-0.229-0.499-0.516-0.662-0.862c-0.164-0.346-0.246-0.77-0.246-1.272
		c0-0.616,0.11-1.151,0.332-1.604c0.22-0.453,0.518-0.827,0.895-1.124s0.814-0.517,1.313-0.662s1.025-0.217,1.58-0.217
		c0.678,0,1.313,0.055,1.906,0.165c0.594,0.11,1.129,0.253,1.609,0.428v2.202c-0.252-0.083-0.516-0.162-0.793-0.234
		s-0.559-0.135-0.846-0.188c-0.285-0.053-0.568-0.097-0.85-0.131s-0.547-0.051-0.799-0.051c-0.318,0-0.59,0.03-0.811,0.091
		c-0.221,0.061-0.398,0.143-0.535,0.245s-0.236,0.221-0.297,0.354c-0.061,0.133-0.092,0.272-0.092,0.417
		c0,0.251,0.066,0.456,0.199,0.616c0.133,0.16,0.318,0.29,0.555,0.388c0.234,0.099,0.482,0.181,0.742,0.246
		c0.258,0.064,0.508,0.127,0.752,0.188c0.381,0.091,0.762,0.202,1.141,0.331c0.381,0.129,0.723,0.31,1.027,0.542
		s0.555,0.533,0.748,0.901c0.193,0.369,0.291,0.839,0.291,1.409c0,0.624-0.119,1.168-0.354,1.632
		c-0.236,0.464-0.564,0.85-0.988,1.158c-0.422,0.308-0.928,0.537-1.518,0.685c-0.59,0.148-1.238,0.222-1.945,0.222
		c-0.699,0-1.328-0.055-1.889-0.166c-0.559-0.11-1.021-0.249-1.387-0.417v-2.179c0.594,0.221,1.143,0.371,1.645,0.451
		c0.502,0.08,0.969,0.12,1.402,0.12c0.336,0,0.646-0.024,0.936-0.074c0.289-0.049,0.539-0.127,0.748-0.234
		c0.209-0.106,0.375-0.241,0.496-0.405S246.092,30.399,246.092,30.171z"/>
	<path fill="#FFFFFF" d="M256.795,31.483c0.525,0,1.072-0.053,1.645-0.16c0.57-0.106,1.148-0.258,1.734-0.456v2.157
		c-0.352,0.152-0.887,0.296-1.609,0.434c-0.723,0.137-1.473,0.205-2.248,0.205c-0.783,0-1.527-0.101-2.23-0.302
		c-0.705-0.202-1.318-0.527-1.844-0.976s-0.941-1.031-1.25-1.746c-0.307-0.715-0.461-1.582-0.461-2.602
		c0-1.004,0.145-1.883,0.434-2.636c0.289-0.753,0.676-1.376,1.164-1.871c0.486-0.495,1.043-0.865,1.672-1.113
		c0.627-0.247,1.275-0.371,1.945-0.371c0.699,0,1.344,0.106,1.934,0.319s1.1,0.548,1.529,1.004c0.43,0.456,0.764,1.044,1.004,1.763
		s0.359,1.569,0.359,2.55c-0.008,0.381-0.02,0.704-0.033,0.97h-7.246c0.037,0.51,0.15,0.945,0.342,1.307
		c0.189,0.361,0.439,0.654,0.746,0.878c0.309,0.225,0.668,0.388,1.08,0.491C255.871,31.432,256.316,31.483,256.795,31.483z
		 M255.711,24.157c-0.342,0-0.646,0.063-0.912,0.188c-0.268,0.125-0.496,0.296-0.691,0.513c-0.193,0.217-0.348,0.47-0.461,0.759
		c-0.115,0.29-0.191,0.598-0.229,0.924h4.348c0-0.327-0.045-0.635-0.131-0.924c-0.088-0.289-0.217-0.542-0.389-0.759
		s-0.385-0.388-0.639-0.513C256.352,24.22,256.053,24.157,255.711,24.157z"/>
	<path fill="#FFFFFF" d="M269.656,24.465h-0.229c-0.83,0-1.559,0.124-2.186,0.371c-0.627,0.247-1.113,0.625-1.455,1.135v7.406
		h-2.705V22.32h2.236l0.252,1.541h0.045c0.32-0.563,0.76-1.006,1.318-1.329s1.23-0.485,2.014-0.485c0.275,0,0.51,0.015,0.709,0.045
		V24.465z"/>
	<path fill="#FFFFFF" d="M281.135,22.32l-4.279,11.058h-2.682l-4.291-11.058h2.854l1.541,4.222c0.439,1.187,0.844,2.374,1.209,3.561
		h0.045c0.32-1.027,0.715-2.191,1.188-3.492l1.541-4.291H281.135z"/>
	<path fill="#FFFFFF" d="M289.236,32.202h-0.045c-0.152,0.16-0.336,0.323-0.549,0.491s-0.457,0.325-0.73,0.474
		c-0.273,0.148-0.578,0.268-0.912,0.359c-0.336,0.091-0.697,0.137-1.084,0.137c-0.525,0-1.016-0.082-1.473-0.245
		s-0.848-0.399-1.176-0.708c-0.326-0.308-0.584-0.681-0.77-1.118s-0.279-0.926-0.279-1.466c0-0.594,0.107-1.126,0.324-1.598
		s0.52-0.871,0.908-1.198c0.387-0.327,0.852-0.576,1.393-0.748c0.539-0.171,1.137-0.257,1.791-0.257c0.479,0,0.92,0.031,1.324,0.091
		c0.402,0.061,0.756,0.133,1.061,0.217v-0.445c0-0.259-0.043-0.508-0.131-0.748s-0.229-0.453-0.422-0.639
		c-0.195-0.186-0.447-0.334-0.76-0.445s-0.691-0.166-1.141-0.166c-0.549,0-1.096,0.061-1.643,0.183
		c-0.549,0.122-1.143,0.304-1.781,0.548v-2.111c0.555-0.243,1.145-0.43,1.77-0.559c0.623-0.129,1.277-0.198,1.963-0.205
		c0.805,0,1.512,0.099,2.115,0.296c0.605,0.198,1.111,0.47,1.518,0.816c0.408,0.346,0.713,0.755,0.914,1.227
		c0.201,0.472,0.303,0.985,0.303,1.541v4.165c0,0.73,0.006,1.358,0.021,1.883c0.016,0.525,0.031,0.993,0.047,1.404h-2.443
		L289.236,32.202z M289.02,28.665c-0.258-0.061-0.555-0.116-0.891-0.166c-0.334-0.049-0.672-0.074-1.016-0.074
		c-0.662,0-1.184,0.131-1.568,0.394c-0.385,0.262-0.576,0.664-0.576,1.204c0,0.251,0.043,0.47,0.131,0.656s0.205,0.34,0.354,0.462
		c0.148,0.122,0.322,0.213,0.52,0.274c0.197,0.061,0.406,0.091,0.627,0.091c0.275,0,0.533-0.036,0.777-0.108
		c0.242-0.072,0.467-0.164,0.672-0.274c0.207-0.11,0.391-0.234,0.555-0.371c0.162-0.137,0.303-0.27,0.416-0.399V28.665z"/>
	<path fill="#FFFFFF" d="M301.516,33.366c-0.305,0.091-0.668,0.163-1.09,0.217c-0.424,0.053-0.816,0.08-1.182,0.08
		c-0.928,0-1.688-0.15-2.277-0.451s-1.006-0.732-1.248-1.295c-0.176-0.403-0.264-0.951-0.264-1.644v-5.728h-2.064V22.32h2.064
		v-3.092h2.705v3.092h3.195v2.226h-3.195v5.375c0,0.426,0.064,0.742,0.193,0.947c0.229,0.35,0.682,0.525,1.357,0.525
		c0.313,0,0.623-0.025,0.932-0.074c0.307-0.049,0.598-0.112,0.873-0.188V33.366z"/>
	<path fill="#FFFFFF" d="M303.627,16.854h2.842v2.933h-2.842V16.854z M303.695,22.32h2.705v11.058h-2.705V22.32z"/>
	<path fill="#FFFFFF" d="M319.979,27.854c0,0.867-0.131,1.659-0.389,2.374c-0.258,0.715-0.629,1.328-1.113,1.837
		c-0.482,0.51-1.066,0.904-1.75,1.181c-0.686,0.278-1.449,0.417-2.295,0.417c-0.867,0-1.645-0.139-2.334-0.417
		c-0.688-0.277-1.271-0.671-1.75-1.181c-0.48-0.509-0.848-1.122-1.102-1.837c-0.256-0.715-0.383-1.506-0.383-2.374
		s0.129-1.658,0.389-2.374c0.258-0.715,0.629-1.328,1.111-1.837c0.484-0.509,1.068-0.903,1.752-1.181
		c0.686-0.278,1.449-0.417,2.295-0.417c0.867,0,1.645,0.139,2.332,0.417c0.689,0.278,1.273,0.671,1.752,1.181
		c0.48,0.51,0.846,1.123,1.102,1.837C319.85,26.196,319.979,26.987,319.979,27.854z M317.182,27.854
		c0-0.586-0.068-1.103-0.205-1.552s-0.326-0.826-0.57-1.13s-0.537-0.532-0.879-0.685s-0.715-0.229-1.117-0.229
		c-0.396,0-0.764,0.076-1.102,0.229c-0.34,0.152-0.631,0.38-0.873,0.685c-0.244,0.304-0.434,0.681-0.57,1.13
		s-0.205,0.966-0.205,1.552s0.068,1.103,0.205,1.552c0.137,0.449,0.328,0.824,0.576,1.124c0.246,0.301,0.539,0.529,0.879,0.685
		c0.338,0.156,0.709,0.234,1.111,0.234c0.404,0,0.773-0.078,1.107-0.234c0.334-0.156,0.623-0.384,0.867-0.685
		c0.244-0.3,0.434-0.675,0.57-1.124C317.113,28.958,317.182,28.44,317.182,27.854z"/>
	<path fill="#FFFFFF" d="M324.861,23.86h0.047c0.16-0.228,0.361-0.452,0.604-0.673c0.244-0.221,0.521-0.415,0.834-0.582
		s0.656-0.303,1.033-0.405s0.777-0.154,1.203-0.154c0.402,0,0.793,0.045,1.17,0.137s0.721,0.234,1.033,0.428
		c0.311,0.194,0.588,0.445,0.826,0.753c0.24,0.308,0.428,0.675,0.564,1.101c0.076,0.236,0.129,0.493,0.154,0.771
		c0.027,0.277,0.041,0.599,0.041,0.964v7.178h-2.705v-6.755c0-0.297-0.012-0.551-0.033-0.765c-0.023-0.213-0.066-0.399-0.127-0.559
		c-0.137-0.35-0.344-0.601-0.621-0.753c-0.277-0.152-0.615-0.229-1.01-0.229c-0.525,0-1.029,0.124-1.512,0.371
		c-0.484,0.247-0.912,0.606-1.285,1.078v7.611h-2.703V22.32h2.236L324.861,23.86z"/>
	<path fill="#FFFFFF" d="M351.553,22.172c0,0.662-0.148,1.269-0.445,1.82c-0.297,0.552-0.787,1.01-1.473,1.375v0.046
		c0.381,0.129,0.729,0.295,1.045,0.496c0.316,0.202,0.586,0.441,0.811,0.719s0.398,0.591,0.525,0.941
		c0.125,0.35,0.188,0.742,0.188,1.175c0,0.373-0.059,0.772-0.178,1.198c-0.117,0.426-0.324,0.838-0.621,1.238
		s-0.691,0.767-1.188,1.101c-0.494,0.335-1.117,0.601-1.871,0.799c-0.189,0.046-0.396,0.088-0.621,0.125
		c-0.225,0.039-0.475,0.071-0.748,0.097c-0.273,0.027-0.578,0.046-0.912,0.057c-0.336,0.011-0.713,0.017-1.131,0.017h-4.438V18.109
		h5.305c1.135,0,2.047,0.114,2.74,0.342c0.516,0.167,0.965,0.386,1.346,0.656s0.693,0.57,0.941,0.901
		c0.246,0.331,0.43,0.681,0.547,1.05C351.494,21.428,351.553,21.799,351.553,22.172z M345.813,24.397
		c0.762,0,1.328-0.076,1.701-0.229c0.418-0.175,0.717-0.417,0.895-0.725c0.18-0.308,0.27-0.656,0.27-1.044
		c0-0.403-0.104-0.763-0.309-1.078c-0.205-0.316-0.555-0.55-1.051-0.702c-0.205-0.061-0.443-0.104-0.719-0.131
		c-0.273-0.027-0.611-0.04-1.016-0.04h-2.293v3.948H345.813z M343.291,26.736v4.302h1.826c0.486,0,0.904-0.013,1.254-0.04
		c0.352-0.026,0.65-0.07,0.902-0.131c0.389-0.084,0.711-0.196,0.971-0.337c0.258-0.141,0.467-0.3,0.627-0.479
		s0.273-0.377,0.342-0.594s0.104-0.447,0.104-0.69c0-0.426-0.119-0.799-0.354-1.119c-0.236-0.319-0.605-0.559-1.107-0.719
		c-0.221-0.068-0.479-0.118-0.775-0.148c-0.297-0.03-0.678-0.045-1.143-0.045H343.291z"/>
	<path fill="#FFFFFF" d="M354.713,16.854h2.842v2.933h-2.842V16.854z M354.781,22.32h2.705v11.058h-2.705V22.32z"/>
	<path fill="#FFFFFF" d="M371.066,27.854c0,0.867-0.131,1.659-0.389,2.374c-0.258,0.715-0.629,1.328-1.113,1.837
		c-0.482,0.51-1.066,0.904-1.75,1.181c-0.686,0.278-1.449,0.417-2.295,0.417c-0.867,0-1.645-0.139-2.334-0.417
		c-0.688-0.277-1.271-0.671-1.75-1.181c-0.48-0.509-0.848-1.122-1.102-1.837c-0.256-0.715-0.383-1.506-0.383-2.374
		s0.129-1.658,0.389-2.374c0.258-0.715,0.629-1.328,1.111-1.837c0.484-0.509,1.068-0.903,1.752-1.181
		c0.686-0.278,1.449-0.417,2.295-0.417c0.867,0,1.645,0.139,2.332,0.417c0.689,0.278,1.273,0.671,1.752,1.181
		c0.48,0.51,0.846,1.123,1.102,1.837C370.938,26.196,371.066,26.987,371.066,27.854z M368.27,27.854
		c0-0.586-0.068-1.103-0.205-1.552s-0.326-0.826-0.57-1.13s-0.537-0.532-0.879-0.685s-0.715-0.229-1.117-0.229
		c-0.396,0-0.764,0.076-1.102,0.229c-0.34,0.152-0.631,0.38-0.873,0.685c-0.244,0.304-0.434,0.681-0.57,1.13
		s-0.205,0.966-0.205,1.552s0.068,1.103,0.205,1.552c0.137,0.449,0.328,0.824,0.576,1.124c0.246,0.301,0.539,0.529,0.879,0.685
		c0.338,0.156,0.709,0.234,1.111,0.234c0.404,0,0.773-0.078,1.107-0.234c0.334-0.156,0.623-0.384,0.867-0.685
		c0.244-0.3,0.434-0.675,0.57-1.124C368.201,28.958,368.27,28.44,368.27,27.854z"/>
	<path fill="#FFFFFF" d="M373.576,33.377V16.854h2.705v16.523H373.576z"/>
	<path fill="#FFFFFF" d="M389.906,27.854c0,0.867-0.131,1.659-0.389,2.374c-0.258,0.715-0.629,1.328-1.113,1.837
		c-0.482,0.51-1.066,0.904-1.75,1.181c-0.686,0.278-1.449,0.417-2.295,0.417c-0.867,0-1.645-0.139-2.334-0.417
		c-0.688-0.277-1.271-0.671-1.75-1.181c-0.48-0.509-0.848-1.122-1.102-1.837c-0.256-0.715-0.383-1.506-0.383-2.374
		s0.129-1.658,0.389-2.374c0.258-0.715,0.629-1.328,1.111-1.837c0.484-0.509,1.068-0.903,1.752-1.181
		c0.686-0.278,1.449-0.417,2.295-0.417c0.867,0,1.645,0.139,2.332,0.417c0.689,0.278,1.273,0.671,1.752,1.181
		c0.48,0.51,0.846,1.123,1.102,1.837C389.777,26.196,389.906,26.987,389.906,27.854z M387.109,27.854
		c0-0.586-0.068-1.103-0.205-1.552s-0.326-0.826-0.57-1.13s-0.537-0.532-0.879-0.685s-0.715-0.229-1.117-0.229
		c-0.396,0-0.764,0.076-1.102,0.229c-0.34,0.152-0.631,0.38-0.873,0.685c-0.244,0.304-0.434,0.681-0.57,1.13
		s-0.205,0.966-0.205,1.552s0.068,1.103,0.205,1.552c0.137,0.449,0.328,0.824,0.576,1.124c0.246,0.301,0.539,0.529,0.879,0.685
		c0.338,0.156,0.709,0.234,1.111,0.234c0.404,0,0.773-0.078,1.107-0.234c0.334-0.156,0.623-0.384,0.867-0.685
		c0.244-0.3,0.434-0.675,0.57-1.124C387.041,28.958,387.109,28.44,387.109,27.854z"/>
	<path fill="#FFFFFF" d="M399.48,33.663c0-0.152,0.002-0.34,0.006-0.565c0.004-0.224,0.012-0.413,0.027-0.564h-0.021
		c-0.168,0.137-0.359,0.272-0.576,0.405c-0.219,0.133-0.455,0.255-0.715,0.365c-0.258,0.11-0.543,0.198-0.855,0.263
		c-0.313,0.064-0.631,0.097-0.959,0.097c-0.586,0-1.158-0.104-1.717-0.313c-0.559-0.209-1.055-0.54-1.488-0.993
		c-0.434-0.452-0.785-1.033-1.051-1.74c-0.266-0.707-0.398-1.559-0.398-2.556s0.135-1.87,0.404-2.619
		c0.27-0.749,0.629-1.375,1.078-1.877s0.965-0.88,1.547-1.136c0.582-0.254,1.182-0.382,1.797-0.382c0.678,0,1.277,0.143,1.803,0.428
		s0.955,0.648,1.289,1.09h0.047l0.113-1.244h2.373v11.263c0,0.646-0.053,1.202-0.158,1.666c-0.107,0.464-0.264,0.875-0.469,1.232
		c-0.244,0.418-0.553,0.783-0.93,1.095s-0.807,0.571-1.289,0.776c-0.484,0.206-1.014,0.359-1.592,0.462
		c-0.578,0.103-1.191,0.154-1.838,0.154c-0.365,0-0.723-0.013-1.072-0.04c-0.35-0.027-0.68-0.065-0.988-0.114
		c-0.307-0.05-0.588-0.107-0.844-0.171c-0.254-0.064-0.469-0.131-0.645-0.2v-2.202c0.502,0.167,1.029,0.294,1.58,0.382
		c0.553,0.087,1.131,0.131,1.74,0.131c1.209,0,2.146-0.234,2.807-0.702c0.662-0.468,0.994-1.177,0.994-2.128V33.663z
		 M397.061,31.506c0.273,0,0.533-0.034,0.775-0.103c0.244-0.068,0.469-0.156,0.674-0.263c0.205-0.106,0.391-0.224,0.553-0.354
		c0.164-0.129,0.303-0.258,0.418-0.388v-4.941c-0.289-0.342-0.646-0.627-1.072-0.856c-0.428-0.228-0.879-0.346-1.359-0.354
		c-0.166,0-0.344,0.021-0.529,0.063c-0.188,0.042-0.375,0.116-0.566,0.222c-0.189,0.107-0.371,0.25-0.541,0.428
		c-0.172,0.179-0.322,0.405-0.451,0.679s-0.234,0.601-0.314,0.981c-0.078,0.38-0.119,0.822-0.119,1.324
		c0,0.555,0.053,1.052,0.16,1.489c0.105,0.438,0.266,0.81,0.479,1.118s0.479,0.544,0.793,0.708
		C396.275,31.424,396.643,31.506,397.061,31.506z"/>
	<path fill="#FFFFFF" d="M403.781,22.32h2.898l1.654,4.005c0.625,1.522,1.066,2.647,1.324,3.378h0.045
		c0.191-0.571,0.594-1.628,1.211-3.172l1.711-4.211h2.934l-7.121,16.364h-2.67l2.533-5.922L403.781,22.32z"/>
</g>
<g>
	<path fill="#FFFFFF" d="M98.082,64.498h-3.75V47.155h-6.613v-3.138h16.96v3.138h-6.598V64.498z"/>
	<path fill="#FFFFFF" d="M128.844,54.258c0,1.561-0.222,2.992-0.666,4.293c-0.444,1.303-1.092,2.422-1.944,3.361
		c-0.852,0.938-1.898,1.668-3.138,2.188c-1.24,0.521-2.65,0.781-4.232,0.781s-2.993-0.26-4.232-0.781
		c-1.24-0.52-2.286-1.25-3.138-2.188c-0.852-0.939-1.5-2.059-1.944-3.361c-0.444-1.301-0.666-2.732-0.666-4.293
		c0-1.561,0.222-2.993,0.666-4.293c0.444-1.302,1.092-2.422,1.944-3.36s1.898-1.669,3.138-2.189s2.65-0.78,4.232-0.78
		s2.993,0.26,4.232,0.78c1.24,0.521,2.286,1.251,3.138,2.189s1.5,2.059,1.944,3.36C128.622,51.265,128.844,52.697,128.844,54.258z
		 M124.971,54.258c0-1.244-0.153-2.334-0.459-3.268s-0.729-1.712-1.271-2.335c-0.541-0.622-1.184-1.087-1.929-1.393
		c-0.745-0.307-1.561-0.459-2.449-0.459c-0.888,0-1.704,0.152-2.449,0.459c-0.745,0.306-1.388,0.771-1.929,1.393
		c-0.541,0.623-0.964,1.401-1.271,2.335s-0.459,2.024-0.459,3.268s0.153,2.334,0.459,3.268s0.729,1.709,1.271,2.328
		c0.541,0.617,1.184,1.08,1.929,1.393c0.745,0.311,1.562,0.467,2.449,0.467c0.888,0,1.704-0.156,2.449-0.467
		c0.745-0.313,1.388-0.775,1.929-1.393c0.541-0.619,0.964-1.395,1.271-2.328S124.971,55.502,124.971,54.258z"/>
	<path fill="#FFFFFF" d="M150.957,50.17c0,1.429-0.396,2.641-1.186,3.636c-0.791,0.994-2.013,1.732-3.666,2.211v0.063l6.092,8.418
		h-4.5l-5.572-7.93h-2.572v7.93h-3.75V44.017h6.23c1.031,0,1.99,0.059,2.878,0.176c0.888,0.117,1.648,0.294,2.281,0.528
		c1.204,0.459,2.133,1.141,2.786,2.044C150.63,47.667,150.957,48.803,150.957,50.17z M141.405,53.432
		c0.857,0,1.584-0.039,2.181-0.115c0.597-0.076,1.1-0.191,1.508-0.344c0.755-0.286,1.278-0.676,1.569-1.171
		c0.291-0.495,0.436-1.064,0.436-1.707c0-0.551-0.115-1.038-0.344-1.462s-0.62-0.758-1.171-1.003
		c-0.357-0.163-0.807-0.283-1.347-0.359c-0.541-0.077-1.209-0.115-2.005-0.115h-2.679v6.277H141.405z"/>
	<path fill="#FFFFFF" d="M177.508,54.258c0,1.561-0.222,2.992-0.666,4.293c-0.444,1.303-1.092,2.422-1.944,3.361
		C174.046,62.85,173,63.58,171.76,64.1c-1.24,0.521-2.65,0.781-4.232,0.781s-2.993-0.26-4.232-0.781
		c-1.24-0.52-2.286-1.25-3.138-2.188c-0.852-0.939-1.5-2.059-1.944-3.361c-0.444-1.301-0.666-2.732-0.666-4.293
		c0-1.561,0.222-2.993,0.666-4.293c0.444-1.302,1.092-2.422,1.944-3.36s1.898-1.669,3.138-2.189s2.65-0.78,4.232-0.78
		s2.993,0.26,4.232,0.78c1.24,0.521,2.286,1.251,3.138,2.189s1.5,2.059,1.944,3.36C177.287,51.265,177.508,52.697,177.508,54.258z
		 M173.636,54.258c0-1.244-0.153-2.334-0.459-3.268s-0.729-1.712-1.271-2.335c-0.541-0.622-1.184-1.087-1.929-1.393
		c-0.745-0.307-1.562-0.459-2.449-0.459s-1.704,0.152-2.449,0.459c-0.745,0.306-1.388,0.771-1.929,1.393
		c-0.541,0.623-0.964,1.401-1.271,2.335s-0.459,2.024-0.459,3.268s0.153,2.334,0.459,3.268s0.729,1.709,1.271,2.328
		c0.541,0.617,1.184,1.08,1.929,1.393c0.745,0.311,1.562,0.467,2.449,0.467s1.704-0.156,2.449-0.467
		c0.745-0.313,1.388-0.775,1.929-1.393c0.541-0.619,0.964-1.395,1.271-2.328S173.636,55.502,173.636,54.258z"/>
	<path fill="#FFFFFF" d="M195.136,53.539c1.47,2.092,2.664,3.949,3.582,5.57h0.092c-0.123-2.662-0.184-4.602-0.184-5.816v-9.276
		h3.75v20.481h-3.934l-6.674-9.43c-1.174-1.633-2.388-3.525-3.643-5.678h-0.092c0.122,2.51,0.184,4.454,0.184,5.833v9.275h-3.75
		V44.017h3.934L195.136,53.539z"/>
	<path fill="#FFFFFF" d="M218.627,64.498h-3.75V47.155h-6.614v-3.138h16.961v3.138h-6.598V64.498z"/>
	<path fill="#FFFFFF" d="M249.389,54.258c0,1.561-0.223,2.992-0.666,4.293c-0.443,1.303-1.092,2.422-1.943,3.361
		c-0.854,0.938-1.898,1.668-3.139,2.188c-1.24,0.521-2.65,0.781-4.232,0.781s-2.993-0.26-4.232-0.781
		c-1.24-0.52-2.287-1.25-3.139-2.188c-0.852-0.939-1.5-2.059-1.943-3.361c-0.444-1.301-0.666-2.732-0.666-4.293
		c0-1.561,0.222-2.993,0.666-4.293c0.443-1.302,1.092-2.422,1.943-3.36s1.898-1.669,3.139-2.189c1.239-0.521,2.65-0.78,4.232-0.78
		s2.992,0.26,4.232,0.78s2.285,1.251,3.139,2.189c0.852,0.938,1.5,2.059,1.943,3.36C249.166,51.265,249.389,52.697,249.389,54.258z
		 M245.516,54.258c0-1.244-0.152-2.334-0.459-3.268s-0.73-1.712-1.271-2.335c-0.541-0.622-1.184-1.087-1.928-1.393
		c-0.746-0.307-1.563-0.459-2.449-0.459c-0.889,0-1.705,0.152-2.449,0.459c-0.746,0.306-1.389,0.771-1.93,1.393
		c-0.541,0.623-0.964,1.401-1.27,2.335c-0.307,0.934-0.459,2.024-0.459,3.268s0.152,2.334,0.459,3.268
		c0.306,0.934,0.729,1.709,1.27,2.328c0.541,0.617,1.184,1.08,1.93,1.393c0.744,0.311,1.561,0.467,2.449,0.467
		c0.887,0,1.703-0.156,2.449-0.467c0.744-0.313,1.387-0.775,1.928-1.393c0.541-0.619,0.965-1.395,1.271-2.328
		S245.516,55.502,245.516,54.258z"/>
	<path fill="#FFFFFF" d="M274.525,46.803c-1.021,0-1.963,0.168-2.824,0.505c-0.863,0.337-1.602,0.826-2.219,1.47
		c-0.619,0.643-1.102,1.437-1.447,2.38c-0.348,0.944-0.521,2.024-0.521,3.237c0,1.205,0.158,2.264,0.475,3.178
		c0.316,0.912,0.771,1.676,1.363,2.287c0.592,0.613,1.314,1.074,2.166,1.387c0.852,0.311,1.818,0.467,2.9,0.467
		c0.775,0,1.566-0.063,2.373-0.184c0.807-0.123,1.561-0.301,2.266-0.537v3.23c-0.715,0.205-1.484,0.365-2.313,0.482
		c-0.826,0.117-1.684,0.176-2.57,0.176c-1.736,0-3.262-0.248-4.578-0.742s-2.416-1.193-3.299-2.098
		c-0.883-0.902-1.545-1.984-1.99-3.244c-0.443-1.26-0.666-2.65-0.666-4.172c0-1.561,0.238-3.01,0.713-4.347s1.158-2.495,2.051-3.475
		c0.893-0.98,2.01-1.75,3.354-2.312c1.342-0.562,2.859-0.847,4.553-0.857c0.867,0,1.689,0.059,2.465,0.176s1.475,0.283,2.098,0.498
		v3.184c-0.816-0.255-1.576-0.434-2.281-0.536C275.887,46.854,275.199,46.803,274.525,46.803z"/>
	<path fill="#FFFFFF" d="M289.611,52.452h9.492v-8.435h3.75v20.481h-3.75V55.59h-9.492v8.908h-3.75V44.017h3.75V52.452z"/>
	<path fill="#FFFFFF" d="M322.453,59.279h-7.713l-2.006,5.219h-3.996l8.129-20.481h3.43l8.127,20.481h-3.965L322.453,59.279z
		 M318.566,48.946c-0.717,2.143-1.355,3.934-1.916,5.373l-0.701,1.822h5.295l-0.699-1.822c-0.557-1.452-1.195-3.243-1.918-5.373
		H318.566z"/>
	<path fill="#FFFFFF" d="M339.977,56.568c-0.338,0-0.67-0.004-0.996-0.014c-0.326-0.012-0.633-0.031-0.918-0.063v8.006h-3.75V44.017
		h5.908c0.99,0,1.855,0.043,2.594,0.13c0.74,0.087,1.402,0.217,1.982,0.391c1.398,0.429,2.475,1.112,3.23,2.051
		c0.756,0.939,1.133,2.133,1.133,3.582c0,0.99-0.203,1.881-0.611,2.671c-0.408,0.792-1.006,1.461-1.791,2.014
		c-0.787,0.551-1.746,0.975-2.879,1.27C342.746,56.422,341.445,56.568,339.977,56.568z M338.063,53.34
		c0.215,0.029,0.486,0.053,0.818,0.068s0.676,0.023,1.033,0.023c1.012,0,1.857-0.082,2.541-0.246c0.684-0.162,1.234-0.39,1.654-0.68
		c0.418-0.291,0.719-0.644,0.902-1.057s0.275-0.865,0.275-1.354c0-0.603-0.137-1.123-0.412-1.562s-0.756-0.78-1.439-1.025
		c-0.357-0.123-0.799-0.212-1.324-0.269c-0.525-0.056-1.172-0.084-1.936-0.084h-2.113V53.34z"/>
	<path fill="#FFFFFF" d="M364.492,64.498h-3.75V47.155h-6.613v-3.138h16.961v3.138h-6.598V64.498z"/>
	<path fill="#FFFFFF" d="M380.727,61.361h10.072v3.137h-13.822V44.017h13.271v3.138h-9.521v5.297h8.174v3.138h-8.174V61.361z"/>
	<path fill="#FFFFFF" d="M412.912,50.17c0,1.429-0.396,2.641-1.188,3.636c-0.791,0.994-2.012,1.732-3.666,2.211v0.063l6.094,8.418
		h-4.502l-5.57-7.93h-2.572v7.93h-3.75V44.017h6.23c1.029,0,1.988,0.059,2.877,0.176s1.648,0.294,2.281,0.528
		c1.203,0.459,2.133,1.141,2.785,2.044C412.586,47.667,412.912,48.803,412.912,50.17z M403.359,53.432
		c0.857,0,1.584-0.039,2.182-0.115s1.1-0.191,1.508-0.344c0.756-0.286,1.279-0.676,1.568-1.171c0.291-0.495,0.438-1.064,0.438-1.707
		c0-0.551-0.115-1.038-0.346-1.462c-0.229-0.424-0.619-0.758-1.17-1.003c-0.357-0.163-0.807-0.283-1.348-0.359
		c-0.541-0.077-1.209-0.115-2.006-0.115h-2.678v6.277H403.359z"/>
</g>
</svg>
